<svg width="52" height="58" viewBox="0 0 52 58" fill="none" xmlns="http://www.w3.org/2000/svg">
<path d="M0.625 19.9376V54.3751C0.625 56.3689 2.25625 58.0001 4.25 58.0001H47.75C49.7438 58.0001 51.375 56.3689 51.375 54.3751V19.9376H0.625Z" fill="#80AAFF"/>
<path d="M47.75 0H4.25C2.25625 0 0.625 1.63125 0.625 3.625V19.9375H51.375V3.625C51.375 1.63125 49.7438 0 47.75 0Z" fill="#538DFF"/>
<path d="M44.125 5.4375H7.875C6.87812 5.4375 6.0625 6.25312 6.0625 7.25V14.5C6.0625 15.4969 6.87812 16.3125 7.875 16.3125H44.125C45.1219 16.3125 45.9375 15.4969 45.9375 14.5V7.25C45.9375 6.25312 45.1219 5.4375 44.125 5.4375Z" fill="#CAD9FF"/>
<path fill-rule="evenodd" clip-rule="evenodd" d="M11.5 23.5625H7.875C6.87812 23.5625 6.0625 24.3781 6.0625 25.375V29C6.0625 29.9969 6.87812 30.8125 7.875 30.8125H11.5C12.4969 30.8125 13.3125 29.9969 13.3125 29V25.375C13.3125 24.3781 12.4969 23.5625 11.5 23.5625ZM11.5 34.4375H7.875C6.87812 34.4375 6.0625 35.2531 6.0625 36.25V39.875C6.0625 40.8719 6.87812 41.6875 7.875 41.6875H11.5C12.4969 41.6875 13.3125 40.8719 13.3125 39.875V36.25C13.3125 35.2531 12.4969 34.4375 11.5 34.4375ZM11.5 45.3125H7.875C6.87812 45.3125 6.0625 46.1281 6.0625 47.125V50.75C6.0625 51.7469 6.87812 52.5625 7.875 52.5625H11.5C12.4969 52.5625 13.3125 51.7469 13.3125 50.75V47.125C13.3125 46.1281 12.4969 45.3125 11.5 45.3125ZM22.375 23.5625H18.75C17.7531 23.5625 16.9375 24.3781 16.9375 25.375V29C16.9375 29.9969 17.7531 30.8125 18.75 30.8125H22.375C23.3719 30.8125 24.1875 29.9969 24.1875 29V25.375C24.1875 24.3781 23.3719 23.5625 22.375 23.5625ZM22.375 34.4375H18.75C17.7531 34.4375 16.9375 35.2531 16.9375 36.25V39.875C16.9375 40.8719 17.7531 41.6875 18.75 41.6875H22.375C23.3719 41.6875 24.1875 40.8719 24.1875 39.875V36.25C24.1875 35.2531 23.3719 34.4375 22.375 34.4375ZM22.375 45.3125H18.75C17.7531 45.3125 16.9375 46.1281 16.9375 47.125V50.75C16.9375 51.7469 17.7531 52.5625 18.75 52.5625H22.375C23.3719 52.5625 24.1875 51.7469 24.1875 50.75V47.125C24.1875 46.1281 23.3719 45.3125 22.375 45.3125ZM33.25 23.5625H29.625C28.6281 23.5625 27.8125 24.3781 27.8125 25.375V29C27.8125 29.9969 28.6281 30.8125 29.625 30.8125H33.25C34.2469 30.8125 35.0625 29.9969 35.0625 29V25.375C35.0625 24.3781 34.2469 23.5625 33.25 23.5625ZM33.25 34.4375H29.625C28.6281 34.4375 27.8125 35.2531 27.8125 36.25V39.875C27.8125 40.8719 28.6281 41.6875 29.625 41.6875H33.25C34.2469 41.6875 35.0625 40.8719 35.0625 39.875V36.25C35.0625 35.2531 34.2469 34.4375 33.25 34.4375ZM33.25 45.3125H29.625C28.6281 45.3125 27.8125 46.1281 27.8125 47.125V50.75C27.8125 51.7469 28.6281 52.5625 29.625 52.5625H33.25C34.2469 52.5625 35.0625 51.7469 35.0625 50.75V47.125C35.0625 46.1281 34.2469 45.3125 33.25 45.3125ZM44.125 23.5625H40.5C39.5031 23.5625 38.6875 24.3781 38.6875 25.375V29C38.6875 29.9969 39.5031 30.8125 40.5 30.8125H44.125C45.1219 30.8125 45.9375 29.9969 45.9375 29V25.375C45.9375 24.3781 45.1219 23.5625 44.125 23.5625Z" fill="white"/>
<path d="M44.125 34.4376H40.5C39.5031 34.4376 38.6875 35.2532 38.6875 36.2501V50.7501C38.6875 51.747 39.5031 52.5626 40.5 52.5626H44.125C45.1219 52.5626 45.9375 51.747 45.9375 50.7501V36.2501C45.9375 35.2532 45.1219 34.4376 44.125 34.4376Z" fill="#538DFF"/>
</svg>
