<svg width="72" height="72" viewBox="0 0 72 72" fill="none" xmlns="http://www.w3.org/2000/svg">
<path fill-rule="evenodd" clip-rule="evenodd" d="M4 52V64C4 66.2 5.8 68 8 68H64C66.2 68 68 66.2 68 64V52H4ZM60 20C60 17.8 58.2 16 56 16H50V12H52C53.1 12 54 11.1 54 10V6C54 4.9 53.1 4 52 4H40C38.9 4 38 4.9 38 6V10C38 11.1 38.9 12 40 12H42V16H16C13.8 16 12 17.8 12 20V32H60V20Z" fill="#ACC4FF"/>
<path d="M62 56H10C8.9 56 8 56.9 8 58V62C8 63.1 8.9 64 10 64H62C63.1 64 64 63.1 64 62V58C64 56.9 63.1 56 62 56Z" fill="#5788FF"/>
<path d="M60 32H12L4 52H68L60 32Z" fill="#5788FF"/>
<path d="M56 36H36V48H60L56 36Z" fill="#ACC4FF"/>
<path d="M54 20H38C36.9 20 36 20.9 36 22V26C36 27.1 36.9 28 38 28H54C55.1 28 56 27.1 56 26V22C56 20.9 55.1 20 54 20Z" fill="#84A8FF"/>
<path d="M30 22H18C16.9 22 16 22.9 16 24C16 25.1 16.9 26 18 26H30C31.1 26 32 25.1 32 24C32 22.9 31.1 22 30 22Z" fill="#84A8FF"/>
<path d="M18 24V44C18 45.1 18.9 46 20 46H28C29.1 46 30 45.1 30 44V24H18Z" fill="white"/>
</svg>
