<svg width="54" height="54" viewBox="0 0 54 54" fill="none" xmlns="http://www.w3.org/2000/svg">
<path d="M50.625 0H3.375C1.51875 0 0 1.51875 0 3.375V50.625C0 52.4813 1.51875 54 3.375 54H50.625C52.4813 54 54 52.4813 54 50.625V3.375C54 1.51875 52.4813 0 50.625 0Z" fill="#538DFF"/>
<path d="M21.9375 0V18.5625C21.9375 19.4906 22.6969 20.25 23.625 20.25H30.375C31.3031 20.25 32.0625 19.4906 32.0625 18.5625V0H21.9375Z" fill="#3C60BA"/>
<path fill-rule="evenodd" clip-rule="evenodd" d="M46.7606 37.6144L41.6981 32.5519C41.3944 32.2481 40.9725 32.0625 40.5 32.0625C40.0275 32.0625 39.6056 32.2481 39.3019 32.5519L34.2394 37.6144C33.9356 37.9181 33.75 38.34 33.75 38.8125C33.75 39.7406 34.5094 40.5 35.4375 40.5C35.91 40.5 36.3319 40.3144 36.6356 40.0106L38.8294 37.8169V45.5794C38.8294 46.5075 39.5719 47.2669 40.5 47.2669C41.4281 47.2669 42.1706 46.5075 42.1706 45.5794V37.8169L44.3644 40.0106C44.6681 40.3144 45.09 40.5 45.5625 40.5C46.4906 40.5 47.25 39.7406 47.25 38.8125C47.25 38.34 47.0644 37.9181 46.7606 37.6144Z" fill="#3C60BA"/>
</svg>
