<svg width="403" height="343" viewBox="0 0 403 343" fill="none" xmlns="http://www.w3.org/2000/svg">
<path d="M374.633 247.479L402.915 231.144V170.49L374.633 186.815V247.479Z" fill="#E0E0E0"/>
<path d="M374.632 186.815L334.223 163.487V224.15L374.632 247.479V186.815Z" fill="#EBEBEB"/>
<path d="M334.223 163.487L374.632 186.815L402.914 170.491L362.505 147.152L334.223 163.487Z" fill="#F5F5F5"/>
<path d="M370.593 189.153L338.262 170.49L337.516 170.918V193.381L369.847 212.044L370.593 211.616V189.153Z" fill="#E0E0E0"/>
<path d="M369.847 189.581L337.516 170.918V193.381L369.847 212.044V189.581Z" fill="#F5F5F5"/>
<path d="M357.173 186.069L351.672 182.895C350.956 182.487 350.379 182.676 350.379 183.313C350.379 183.96 350.956 184.815 351.672 185.223L357.173 188.396C357.89 188.804 358.467 188.625 358.467 187.979C358.467 187.342 357.89 186.486 357.173 186.069Z" fill="#E0E0E0"/>
<path d="M371.329 217.585L339.008 198.912V221.385L338.262 221.813L370.593 240.475L371.329 240.047V217.585Z" fill="#E0E0E0"/>
<path d="M370.593 218.012L338.262 199.349V221.812L370.593 240.475V218.012Z" fill="#F5F5F5"/>
<path d="M357.92 214.501L352.418 211.327C351.702 210.919 351.125 211.108 351.125 211.745C351.125 212.392 351.702 213.247 352.418 213.655L357.92 216.829C358.636 217.236 359.213 217.047 359.213 216.411C359.213 215.774 358.636 214.918 357.92 214.501Z" fill="#E0E0E0"/>
<path d="M374.633 183.323L402.915 166.989V106.325L374.633 122.66V183.323Z" fill="#E0E0E0"/>
<path d="M374.632 122.659L334.223 99.3312V159.985L374.632 183.323V122.659Z" fill="#EBEBEB"/>
<path d="M334.223 99.3314L374.632 122.66L402.914 106.325L362.505 82.9966L334.223 99.3314Z" fill="#F5F5F5"/>
<path d="M370.593 124.988L338.262 106.325L337.516 106.753V129.226L369.847 147.888L370.593 147.461V124.988Z" fill="#E0E0E0"/>
<path d="M357.173 121.914L351.672 118.741C350.956 118.333 350.379 118.512 350.379 119.158C350.379 119.805 350.956 120.661 351.672 121.068L357.173 124.242C357.89 124.65 358.467 124.471 358.467 123.824C358.467 123.177 357.89 122.322 357.173 121.914Z" fill="#E0E0E0"/>
<path d="M371.329 153.419L339.008 134.757V157.229L338.262 157.657L370.593 176.32L371.339 175.892L371.329 153.419Z" fill="#E0E0E0"/>
<path d="M370.593 153.857L338.262 135.184V157.657L370.593 176.319V153.857Z" fill="#F5F5F5"/>
<path d="M357.92 150.345L352.418 147.171C351.702 146.763 351.125 146.943 351.125 147.589C351.125 148.236 351.702 149.091 352.418 149.499L357.92 152.673C358.636 153.081 359.213 152.901 359.213 152.255C359.213 151.608 358.636 150.753 357.92 150.345Z" fill="#E0E0E0"/>
<path d="M370.593 124.988L338.262 106.325V128.798L370.593 147.461V124.988Z" fill="#E0E0E0"/>
<path d="M322.096 117.427L339.793 107.211V127.007L322.096 137.224V117.427Z" fill="#E0E0E0"/>
<path d="M358.466 150.654V122.66L351.532 118.641L350.388 120.322L330.184 108.663V134.319L358.466 150.654Z" fill="#EBEBEB"/>
<path d="M358.466 150.654L356.446 126.162L328.164 109.827L330.184 134.319L358.466 150.654Z" fill="#F5F5F5"/>
<path d="M354.428 136.09L369.847 127.186V146.983L354.428 155.887V136.09Z" fill="#EBEBEB"/>
<path d="M354.427 134.319L322.096 115.657V138.129L354.427 156.792V134.319Z" fill="#F5F5F5"/>
<path d="M341.754 130.817L336.252 127.644C335.536 127.236 334.959 127.415 334.959 128.062C334.959 128.708 335.536 129.564 336.252 129.972L341.754 133.145C342.47 133.553 343.047 133.374 343.047 132.727C343.047 132.081 342.47 131.225 341.754 130.817Z" fill="#E0E0E0"/>
<path d="M354.428 134.319L355.502 133.702V156.165L354.428 156.792V134.319Z" fill="#E0E0E0"/>
<path d="M355.501 133.702L323.18 115.04L322.096 115.656L354.427 134.319L355.501 133.702Z" fill="#EBEBEB"/>
<path d="M40.4941 210.72L68.7865 194.395V133.732L40.4941 150.066V210.72Z" fill="#E0E0E0"/>
<path d="M40.4951 150.066L0.0859375 126.738V187.391L40.4951 210.72V150.066Z" fill="#EBEBEB"/>
<path d="M0.0859375 126.738L40.4951 150.067L68.7875 133.732L28.3783 110.403L0.0859375 126.738Z" fill="#F5F5F5"/>
<path d="M36.4562 152.394L4.12483 133.732L3.38867 134.159V156.632L35.71 175.295L36.4562 174.867V152.394Z" fill="#E0E0E0"/>
<path d="M35.71 152.822L3.38867 134.16V156.632L35.71 175.295V152.822Z" fill="#F5F5F5"/>
<path d="M23.0367 149.32L17.5354 146.147C16.8192 145.739 16.2422 145.918 16.2422 146.565C16.2422 147.211 16.8192 148.067 17.5354 148.475L23.0367 151.648C23.753 152.056 24.33 151.877 24.33 151.23C24.33 150.584 23.753 149.728 23.0367 149.32Z" fill="#E0E0E0"/>
<path d="M37.2024 180.826L4.87111 162.163V184.626L4.125 185.064L36.4563 203.726L37.2024 203.298V180.826Z" fill="#E0E0E0"/>
<path d="M36.4563 181.253L4.125 162.591V185.063L36.4563 203.726V181.253Z" fill="#F5F5F5"/>
<path d="M23.7828 177.752L18.2815 174.578C17.5653 174.171 16.9883 174.36 16.9883 174.996C16.9883 175.643 17.5653 176.498 18.2815 176.906L23.7828 180.08C24.4991 180.488 25.0761 180.309 25.0761 179.662C25.0761 179.015 24.4991 178.16 23.7828 177.752Z" fill="#E0E0E0"/>
<path d="M309.971 126.022V279.998L152.373 189.013L152.383 49.0234L269.562 116.68L273.611 105.021L309.971 126.022Z" fill="#538DFF"/>
<path opacity="0.7" d="M309.971 126.022V279.998L152.373 189.013L152.383 49.0234L269.562 116.68L273.611 105.021L309.971 126.022Z" fill="black"/>
<path d="M309.971 279.998L301.893 140.019L144.295 49.0234L152.373 189.013L309.971 279.998Z" fill="#E0E0E0"/>
<path d="M309.97 279.998L297.854 142.346L140.256 51.3611L152.373 189.013L309.97 279.998Z" fill="#538DFF"/>
<path opacity="0.7" d="M309.97 279.998L297.854 142.346L140.256 51.3611L152.373 189.013L309.97 279.998Z" fill="black"/>
<path d="M285.727 140.019V293.996L128.129 203.01V63.0208L245.317 130.688L249.356 119.019L285.727 140.019Z" fill="#538DFF"/>
<path opacity="0.5" d="M285.727 140.019V293.996L128.129 203.01V63.0208L245.317 130.688L249.356 119.019L285.727 140.019Z" fill="black"/>
<path d="M285.726 293.996L277.649 154.016L120.051 63.0208L128.129 203.01L285.726 293.996Z" fill="#E0E0E0"/>
<path d="M285.726 293.996L273.61 156.344L116.012 65.3584L128.129 203.01L285.726 293.996Z" fill="#538DFF"/>
<path opacity="0.5" d="M285.726 293.996L273.61 156.344L116.012 65.3584L128.129 203.01L285.726 293.996Z" fill="black"/>
<path d="M152.371 342.99C180.654 326.655 206.907 308.908 218.884 288.067L182.514 267.066L152.371 342.99Z" fill="#E0E0E0"/>
<path d="M257.444 156.344V310.33L99.8457 219.335V79.3555L217.034 147.012L221.073 135.353L257.444 156.344Z" fill="#538DFF"/>
<path opacity="0.2" d="M257.444 156.344V310.33L99.8457 219.335V79.3555L217.034 147.012L221.073 135.353L257.444 156.344Z" fill="black"/>
<path d="M212.041 201.876C212.439 201.876 212.498 201.419 212.498 201.14V69.8053C212.498 68.8801 211.822 67.7162 211.026 67.2486L97.2796 1.58123C97.0906 1.4718 96.9115 1.41211 96.7623 1.41211C96.3644 1.41211 96.3047 1.86972 96.3047 2.14827V133.483C96.3047 134.408 96.9812 135.572 97.777 136.04L211.524 201.707C211.713 201.817 211.892 201.876 212.041 201.876Z" fill="white"/>
<path d="M96.8213 1.91931C96.8611 1.92926 96.9308 1.9591 97.0303 2.00884L210.777 67.6762C211.413 68.0443 212 69.059 212 69.7952V201.13C212 201.229 211.99 201.309 211.981 201.359C211.931 201.349 211.861 201.319 211.772 201.269L98.0251 135.602C97.3884 135.234 96.8015 134.219 96.8015 133.483V2.14812C96.8015 2.03869 96.8114 1.96905 96.8213 1.91931ZM96.7617 0.914551C96.1946 0.914551 95.8066 1.36222 95.8066 2.14812V133.483C95.8066 134.577 96.5826 135.92 97.5277 136.467L211.274 202.135C211.553 202.294 211.811 202.373 212.04 202.373C212.607 202.373 212.995 201.926 212.995 201.14V69.8051C212.995 68.7108 212.219 67.3679 211.274 66.8207L97.5277 1.15331C97.2491 0.994136 96.9905 0.914551 96.7617 0.914551Z" fill="#538DFF"/>
<path opacity="0.7" d="M96.8213 1.91931C96.8611 1.92926 96.9308 1.9591 97.0303 2.00884L210.777 67.6762C211.413 68.0443 212 69.059 212 69.7952V201.13C212 201.229 211.99 201.309 211.981 201.359C211.931 201.349 211.861 201.319 211.772 201.269L98.0251 135.602C97.3884 135.234 96.8015 134.219 96.8015 133.483V2.14812C96.8015 2.03869 96.8114 1.96905 96.8213 1.91931ZM96.7617 0.914551C96.1946 0.914551 95.8066 1.36222 95.8066 2.14812V133.483C95.8066 134.577 96.5826 135.92 97.5277 136.467L211.274 202.135C211.553 202.294 211.811 202.373 212.04 202.373C212.607 202.373 212.995 201.926 212.995 201.14V69.8051C212.995 68.7108 212.219 67.3679 211.274 66.8207L97.5277 1.15331C97.2491 0.994136 96.9905 0.914551 96.7617 0.914551Z" fill="white"/>
<path d="M200.87 74.8091L160.461 51.4808V98.1474L200.87 121.476V74.8091Z" fill="#538DFF"/>
<path opacity="0.8" d="M200.87 74.8091L160.461 51.4808V98.1474L200.87 121.476V74.8091Z" fill="white"/>
<path d="M166.52 63.15V77.147L167.783 77.8533C167.783 77.8533 167.783 75.9333 167.783 73.5657C167.783 71.198 169.713 70.3922 172.09 71.7651L189.231 81.6634C191.609 83.0363 193.539 86.0704 193.539 88.4381V92.7257L194.802 93.4818V79.4749L166.52 63.15Z" fill="white"/>
<path d="M174.319 98.8238C176.388 100.018 178.069 98.7641 178.069 96.0184V73.5656L183.262 76.3908V99.0128C183.262 101.758 184.944 104.962 187.013 106.156L190.763 108.324V109.806L170.559 98.1374V96.6551C170.569 96.6551 172.24 97.63 174.319 98.8238Z" fill="white"/>
<path d="M152.382 49.1532C152.382 50.4464 151.228 50.8145 149.795 49.9987L110.51 27.3071C109.088 26.4814 107.924 24.7704 107.924 23.4771C107.924 22.1938 109.078 21.8158 110.51 22.6315L149.795 45.3132C151.218 46.1488 152.382 47.8599 152.382 49.1532Z" fill="#CAD9FF"/>
<path d="M152.382 63.1503C152.382 64.4435 151.228 64.8116 149.795 63.9959L110.51 41.3142C109.088 40.4885 107.924 38.7774 107.924 37.4842C107.924 36.2009 109.078 35.8229 110.51 36.6386L149.795 59.3203C151.218 60.146 152.382 61.857 152.382 63.1503Z" fill="#CAD9FF"/>
<path d="M152.382 77.1471C152.382 78.4404 151.228 78.8085 149.795 77.9927L110.51 55.311C109.088 54.4853 107.924 52.7743 107.924 51.481C107.924 50.1977 109.078 49.8197 110.51 50.6354L149.795 73.3171C151.218 74.1428 152.382 75.8539 152.382 77.1471Z" fill="#CAD9FF"/>
<path d="M152.382 91.1445C152.382 92.4378 151.228 92.8059 149.795 91.9901L110.51 69.3085C109.088 68.4828 107.924 66.7717 107.924 65.4785C107.924 64.1952 109.078 63.8171 110.51 64.6329L149.795 87.3145C151.218 88.1402 152.382 89.8513 152.382 91.1445Z" fill="#CAD9FF"/>
<path d="M200.869 133.145C200.869 134.438 199.715 134.806 198.282 133.99L110.51 83.3049C109.088 82.4792 107.924 80.7682 107.924 79.4749C107.924 78.1916 109.078 77.8136 110.51 78.6293L198.282 129.305C199.715 130.141 200.869 131.852 200.869 133.145Z" fill="#CAD9FF"/>
<path d="M200.869 147.142C200.869 148.425 199.715 148.803 198.282 147.987L110.51 97.3015C109.088 96.4758 107.924 94.7648 107.924 93.4715C107.924 92.1783 109.078 91.8102 110.51 92.6259L198.282 143.302C199.715 144.137 200.869 145.848 200.869 147.142Z" fill="#CAD9FF"/>
<path d="M200.869 161.139C200.869 162.422 199.715 162.8 198.282 161.985L110.51 111.299C109.088 110.473 107.924 108.762 107.924 107.469C107.924 106.176 109.078 105.808 110.51 106.623L198.282 157.299C199.715 158.135 200.869 159.856 200.869 161.139Z" fill="#CAD9FF"/>
<path d="M257.443 310.33L229.15 186.675L71.5625 95.6901L99.8449 219.335L257.443 310.33Z" fill="#538DFF"/>
<path d="M218.884 196.365V288.067L182.514 267.066V175.365L218.884 196.365Z" fill="#538DFF"/>
<path opacity="0.2" d="M218.884 196.365V288.067L182.514 267.066V175.365L218.884 196.365Z" fill="black"/>
<path d="M152.342 342.393C155.436 340.095 185.25 317.294 200.411 284.734C216.547 250.075 216.537 209.646 216.527 194.435V193.958L108.421 131.543C108.431 146.903 108.401 187.382 92.2054 222.16C77.3927 253.965 48.7123 276.497 44.166 279.939L152.342 342.393Z" fill="white"/>
<path d="M108.917 132.409L216.038 194.256V194.445C216.048 209.636 216.058 249.975 199.962 284.535C185.199 316.239 156.499 338.652 152.301 341.816L45.0604 279.899C51.1287 275.223 78.3467 253.119 92.6521 222.389C108.609 188.128 108.917 148.405 108.917 132.409ZM107.922 130.688C107.922 145.003 108.221 186.596 91.7567 221.961C75.5911 256.67 43.2598 280.008 43.2598 280.008L152.371 343C152.371 343 184.702 319.672 200.858 284.953C217.322 249.587 217.023 207.994 217.023 193.679L107.922 130.688Z" fill="#538DFF"/>
<path opacity="0.7" d="M108.917 132.409L216.038 194.256V194.445C216.048 209.636 216.058 249.975 199.962 284.535C185.199 316.239 156.499 338.652 152.301 341.816L45.0604 279.899C51.1287 275.223 78.3467 253.119 92.6521 222.389C108.609 188.128 108.917 148.405 108.917 132.409ZM107.922 130.688C107.922 145.003 108.221 186.596 91.7567 221.961C75.5911 256.67 43.2598 280.008 43.2598 280.008L152.371 343C152.371 343 184.702 319.672 200.858 284.953C217.322 249.587 217.023 207.994 217.023 193.679L107.922 130.688Z" fill="white"/>
<path d="M120.269 151.807L154.779 171.733C156.212 172.559 157.336 174.25 157.286 175.503C157.236 176.767 156.033 177.115 154.6 176.289L120.09 156.363C118.668 155.537 117.553 153.846 117.603 152.593C117.653 151.329 118.837 150.981 120.269 151.807Z" fill="#CAD9FF"/>
<path d="M119.533 165.376L154.043 185.302C155.475 186.128 156.55 187.789 156.45 189.022C156.341 190.246 155.087 190.574 153.665 189.749L119.155 169.823C117.732 168.997 116.668 167.336 116.777 166.112C116.867 164.878 118.1 164.55 119.533 165.376Z" fill="#CAD9FF"/>
<path d="M118.149 178.577L152.659 198.503C154.092 199.329 155.117 200.96 154.947 202.154C154.778 203.348 153.475 203.646 152.043 202.821L117.533 182.895C116.11 182.069 115.095 180.438 115.265 179.244C115.444 178.05 116.727 177.762 118.149 178.577Z" fill="#CAD9FF"/>
<path d="M116.08 191.38L150.59 211.306C152.022 212.132 152.997 213.734 152.758 214.888C152.52 216.042 151.167 216.3 149.734 215.485L115.224 195.559C113.802 194.733 112.837 193.131 113.075 191.977C113.314 190.833 114.657 190.565 116.08 191.38Z" fill="#CAD9FF"/>
<path d="M113.276 203.766L147.786 223.692C149.209 224.518 150.134 226.09 149.826 227.204C149.517 228.318 148.105 228.547 146.672 227.721L112.162 207.795C110.73 206.97 109.834 205.408 110.143 204.294C110.461 203.179 111.854 202.941 113.276 203.766Z" fill="#CAD9FF"/>
<path d="M109.684 215.694L193.785 264.251C195.208 265.076 196.073 266.608 195.685 267.683C195.297 268.747 193.815 268.936 192.393 268.12L108.291 219.564C106.869 218.738 106.033 217.206 106.421 216.142C106.799 215.067 108.262 214.868 109.684 215.694Z" fill="#CAD9FF"/>
<path d="M105.207 227.074L189.308 275.631C190.73 276.457 191.516 277.949 191.049 278.964C190.581 279.978 189.029 280.128 187.607 279.312L103.506 230.755C102.073 229.93 101.307 228.447 101.784 227.423C102.242 226.418 103.774 226.259 105.207 227.074Z" fill="#CAD9FF"/>
<path d="M99.7172 237.938L183.818 286.495C185.241 287.32 185.957 288.773 185.39 289.738C184.823 290.703 183.192 290.802 181.769 289.977L97.6679 241.42C96.2353 240.594 95.5589 239.152 96.1259 238.197C96.693 237.232 98.2946 237.112 99.7172 237.938Z" fill="#CAD9FF"/>
<path d="M93.2495 248.194L177.351 296.751C178.773 297.576 179.42 298.989 178.763 299.904C178.107 300.819 176.416 300.879 174.993 300.053L90.8918 251.497C89.4692 250.671 88.8425 249.268 89.499 248.363C90.1457 247.448 91.817 247.368 93.2495 248.194Z" fill="#CAD9FF"/>
<path d="M85.9072 257.953L170.008 306.51C171.431 307.335 172.018 308.718 171.292 309.584C170.565 310.449 168.815 310.479 167.382 309.653L83.2809 261.097C81.8583 260.271 81.2913 258.908 82.0175 258.043C82.7437 257.177 84.4746 257.127 85.9072 257.953Z" fill="#CAD9FF"/>
<path d="M77.7802 267.255L161.881 315.812C163.314 316.637 163.831 317.98 163.035 318.816C162.24 319.642 160.429 319.642 159.006 318.816L74.8952 270.259C73.4727 269.434 72.9653 268.101 73.7612 267.275C74.557 266.439 76.3477 266.429 77.7802 267.255Z" fill="#CAD9FF"/>
<path d="M68.8872 276.128L152.988 324.685C154.411 325.511 154.879 326.824 154.013 327.62C153.148 328.406 151.287 328.376 149.855 327.55L65.7535 278.993C64.331 278.168 63.8733 276.874 64.7388 276.079C65.6143 275.283 67.4547 275.303 68.8872 276.128Z" fill="#CAD9FF"/>
<path d="M167.274 178.945L206.947 201.856C206.509 216.221 204.867 236.963 198.849 257.844L159.176 234.933C165.194 214.052 166.836 193.31 167.274 178.945Z" fill="#538DFF"/>
<path opacity="0.8" d="M167.274 178.945L206.947 201.856C206.509 216.221 204.867 236.963 198.849 257.844L159.176 234.933C165.194 214.052 166.836 193.31 167.274 178.945Z" fill="white"/>
<path d="M190.77 198.672C190.77 196.444 191.496 194.733 192.709 193.628L206.955 201.856C206.836 205.656 206.637 209.904 206.289 214.47C204.727 214.728 202.886 214.44 200.897 213.525C195.296 210.908 190.77 204.263 190.77 198.672Z" fill="#538DFF"/>
<path opacity="0.6" d="M190.77 198.672C190.77 196.444 191.496 194.733 192.709 193.628L206.955 201.856C206.836 205.656 206.637 209.904 206.289 214.47C204.727 214.728 202.886 214.44 200.897 213.525C195.296 210.908 190.77 204.263 190.77 198.672Z" fill="white"/>
<path d="M162.548 221.205C165.194 217.862 170.576 207.576 172.874 203.089C173.282 202.293 174.446 202.403 174.715 203.258C178.684 216.012 179.022 229.372 179.022 229.372C182.215 226.845 184.503 224.338 187.448 220.001C187.876 219.374 188.841 219.543 189.03 220.279C193.367 236.982 191.189 253.417 191.189 253.417L159.186 234.943C160.509 230.327 161.613 225.731 162.548 221.205Z" fill="#538DFF"/>
<path opacity="0.6" d="M162.548 221.205C165.194 217.862 170.576 207.576 172.874 203.089C173.282 202.293 174.446 202.403 174.715 203.258C178.684 216.012 179.022 229.372 179.022 229.372C182.215 226.845 184.503 224.338 187.448 220.001C187.876 219.374 188.841 219.543 189.03 220.279C193.367 236.982 191.189 253.417 191.189 253.417L159.186 234.943C160.509 230.327 161.613 225.731 162.548 221.205Z" fill="white"/>
</svg>
