<svg width="473" height="313" viewBox="0 0 473 313" fill="none" xmlns="http://www.w3.org/2000/svg">
<path d="M165.807 143.259V78.3864L181.133 69.5325V134.416L165.807 143.259Z" fill="#173D7A"/>
<path d="M165.806 78.3864L150.49 69.5325V134.416L165.806 143.259V78.3864Z" fill="#3265CB"/>
<path d="M181.133 69.5326L165.806 60.6892L150.49 69.5326L165.806 78.3866L181.133 69.5326Z" fill="#B9CFFE"/>
<path d="M181.133 146.207L165.807 137.364V143.259L181.133 152.103V146.207Z" fill="#95D359"/>
<path d="M150.49 152.103V104.927L165.806 96.0735V143.259L150.49 152.103Z" fill="#C13D1A"/>
<path d="M150.491 104.927L135.164 96.0735V143.259L150.491 152.103V104.927Z" fill="#DB5126"/>
<path d="M165.807 96.0734L150.491 87.23L135.164 96.0734L150.491 104.927L165.807 96.0734Z" fill="#EF602E"/>
<path d="M150.49 152.103V104.927L165.806 96.0735V143.259L150.49 152.103Z" fill="#2A61CE"/>
<path d="M150.491 104.927L135.164 96.0735V143.259L150.491 152.103V104.927Z" fill="#538DFF"/>
<path d="M165.807 96.0734L150.491 87.23L135.164 96.0734L150.491 104.927L165.807 96.0734Z" fill="#B9CFFE"/>
<path d="M165.806 160.946V134.416L181.132 125.562V152.103L165.806 160.946Z" fill="#173D7A"/>
<path d="M165.806 134.416L150.49 125.562V152.103L165.806 160.946V134.416Z" fill="#2A61CE"/>
<path d="M181.133 125.562L165.806 116.719L150.49 125.562L165.806 134.416L181.133 125.562Z" fill="#B9CFFE"/>
<path d="M381.59 176.882L381.135 175.104L375.972 176.427L376.428 178.205L381.59 176.882Z" fill="#5793CE"/>
<path d="M378.971 179.468L378.516 177.689L373.353 179.012L373.809 180.791L378.971 179.468Z" fill="#5793CE"/>
<path d="M376.334 182.03L375.878 180.251L370.716 181.575L371.171 183.353L376.334 182.03Z" fill="#5793CE"/>
<path d="M373.687 184.59L373.231 182.812L368.069 184.134L368.525 185.913L373.687 184.59Z" fill="#5793CE"/>
<path d="M244.917 307.588L129.197 240.774C125.924 238.886 126.333 235.581 130.109 233.399L208.903 187.923C212.68 185.741 218.397 185.5 221.67 187.399L337.39 254.212C340.663 256.101 340.254 259.405 336.477 261.587L257.684 307.063C253.918 309.235 248.19 309.476 244.917 307.588Z" fill="#D4ECFF"/>
<path d="M341.691 122.778L224.062 54.9255C222.551 54.0548 221.156 53.9184 220.033 54.38V54.3695L219.845 54.4639C219.834 54.4744 219.813 54.4744 219.803 54.4849L215.974 56.2892L220.128 58.3559C220.128 58.4293 220.117 58.5027 220.117 58.5866L220.149 155.204C220.149 160.04 223.139 165.684 226.831 167.813L341.324 233.861L341.974 239.253L346.16 237.26C347.534 236.452 348.405 234.627 348.405 232.015L348.373 135.398C348.373 130.551 345.373 124.907 341.691 122.778Z" fill="#173D7A"/>
<path d="M341.691 122.778L224.062 54.9255C222.551 54.0548 221.156 53.9184 220.033 54.38V54.3695L219.845 54.4639C219.834 54.4744 219.813 54.4744 219.803 54.4849L215.974 56.2892L220.128 58.3559C220.128 58.4293 220.117 58.5027 220.117 58.5866L220.138 122.264L273.671 164.561L346.359 127.981C345.153 125.736 343.506 123.827 341.691 122.778Z" fill="#396CAA"/>
<path d="M343.652 124.299L332.123 129.145L340.83 135.849L348.1 132.754C347.46 129.586 345.792 126.386 343.652 124.299Z" fill="#274F89"/>
<path d="M337.862 238.728L220.232 170.876C216.54 168.747 213.55 163.103 213.55 158.267L213.519 61.6499C213.519 56.8138 216.508 54.6213 220.201 56.7508L337.83 124.603C341.523 126.733 344.513 132.376 344.513 137.212L344.544 233.829C344.534 238.655 341.544 240.858 337.862 238.728Z" fill="#B9CFFE"/>
<path d="M333.95 231.542L224.094 168.201C220.716 166.25 217.978 161.089 217.978 156.662L217.946 68.2483C217.946 63.8214 220.684 61.8177 224.052 63.7584L333.908 127.1C337.286 129.051 340.024 134.212 340.024 138.639L340.055 227.053C340.055 231.48 337.317 233.483 333.95 231.542Z" fill="white"/>
<path d="M333.95 231.542L224.094 168.201C220.716 166.25 217.978 161.089 217.978 156.662L217.946 68.2483C217.946 63.8214 220.684 61.8177 224.052 63.7584L333.908 127.1C337.286 129.051 340.024 134.212 340.024 138.639L340.055 227.053C340.055 231.48 337.317 233.483 333.95 231.542Z" fill="white"/>
<path d="M339.614 241.729L323.795 239.641L221.681 180.685C218.408 178.796 212.691 179.027 208.914 181.209L136.561 222.972L126.994 221.713V227.136H127.005C126.942 228.395 127.655 229.602 129.197 230.493L244.917 297.307C248.19 299.195 253.907 298.964 257.684 296.782L336.478 251.306C338.607 250.079 339.667 248.495 339.604 247.016V241.729H339.614Z" fill="#173D7A"/>
<path d="M262.898 204.477L255.638 200.291H175.88L136.561 222.982L126.994 221.723V227.147H127.005C126.942 228.406 127.655 229.612 129.197 230.504L244.917 297.317C246.648 298.314 249.061 298.713 251.505 298.555L262.898 204.477Z" fill="#396CAA"/>
<path d="M131.243 222.269L126.994 221.713V227.136H127.005C126.942 228.395 127.655 229.602 129.197 230.493L131.232 231.668V222.269H131.243Z" fill="#5793CE"/>
<path d="M246.092 297.842C249.197 299.017 253.634 298.765 256.939 297.17V285.064H246.092V297.842Z" fill="#274F89"/>
<path d="M244.917 291.884L129.197 225.07C125.924 223.182 126.333 219.877 130.109 217.695L208.903 172.219C212.68 170.037 218.397 169.796 221.67 171.695L337.39 238.508C340.663 240.397 340.254 243.701 336.477 245.883L257.684 291.359C253.918 293.531 248.19 293.772 244.917 291.884Z" fill="#B9CFFE"/>
<path d="M336.488 243.89L257.694 289.366C253.917 291.548 248.2 291.789 244.927 289.901L129.197 223.087C128.127 222.468 127.455 221.692 127.161 220.863C126.647 222.416 127.298 223.979 129.197 225.07L244.917 291.883C248.19 293.772 253.907 293.541 257.684 291.359L336.477 245.883C339.016 244.414 340.033 242.442 339.425 240.732C339.068 241.855 338.082 242.967 336.488 243.89Z" fill="white"/>
<path d="M178.418 202.956L173.183 199.935C172.763 199.694 172.816 199.263 173.298 198.991L179.477 195.424C179.96 195.141 180.694 195.109 181.114 195.361L186.348 198.382C186.768 198.624 186.716 199.054 186.233 199.326L180.054 202.893C179.572 203.166 178.837 203.197 178.418 202.956Z" fill="#173D7A"/>
<path d="M186.506 207.624L181.271 204.603C180.851 204.362 180.904 203.932 181.386 203.659L187.565 200.092C188.048 199.809 188.782 199.778 189.202 200.029L194.436 203.051C194.856 203.292 194.804 203.722 194.321 203.995L188.142 207.562C187.66 207.834 186.925 207.866 186.506 207.624Z" fill="#173D7A"/>
<path d="M194.593 212.293L189.359 209.271C188.939 209.03 188.992 208.6 189.474 208.327L195.653 204.761C196.136 204.477 196.87 204.446 197.29 204.698L202.524 207.719C202.944 207.96 202.891 208.39 202.409 208.663L196.23 212.23C195.747 212.502 195.013 212.534 194.593 212.293Z" fill="#173D7A"/>
<path d="M205.777 208.432L200.542 205.411C200.123 205.17 200.175 204.739 200.658 204.467L205.85 201.466C206.333 201.183 207.067 201.152 207.487 201.404L212.722 204.425C213.141 204.666 213.089 205.096 212.606 205.369L207.414 208.369C206.931 208.642 206.197 208.673 205.777 208.432Z" fill="#173D7A"/>
<path d="M213.854 213.1L208.619 210.079C208.2 209.838 208.252 209.408 208.735 209.135L213.928 206.135C214.41 205.852 215.145 205.82 215.564 206.072L220.799 209.093C221.218 209.334 221.166 209.764 220.683 210.037L215.491 213.037C215.008 213.31 214.274 213.342 213.854 213.1Z" fill="#173D7A"/>
<path d="M221.942 217.769L216.707 214.747C216.288 214.506 216.34 214.076 216.823 213.803L222.016 210.803C222.498 210.52 223.232 210.488 223.652 210.74L228.887 213.761C229.306 214.002 229.254 214.433 228.771 214.705L223.579 217.706C223.096 217.978 222.362 218.01 221.942 217.769Z" fill="#173D7A"/>
<path d="M230.031 222.437L224.796 219.416C224.377 219.174 224.429 218.744 224.912 218.472L230.104 215.471C230.587 215.188 231.321 215.157 231.741 215.408L236.976 218.43C237.395 218.671 237.343 219.101 236.86 219.374L231.667 222.374C231.185 222.647 230.451 222.678 230.031 222.437Z" fill="#173D7A"/>
<path d="M238.119 227.105L232.884 224.084C232.465 223.843 232.517 223.413 233 223.14L238.192 220.14C238.675 219.856 239.409 219.825 239.829 220.077L245.064 223.098C245.483 223.339 245.431 223.769 244.948 224.042L239.755 227.042C239.273 227.315 238.538 227.346 238.119 227.105Z" fill="#173D7A"/>
<path d="M246.197 231.773L240.962 228.752C240.543 228.511 240.595 228.081 241.078 227.808L246.27 224.808C246.753 224.525 247.487 224.493 247.907 224.745L253.142 227.766C253.561 228.007 253.509 228.437 253.026 228.71L247.833 231.71C247.361 231.983 246.627 232.015 246.197 231.773Z" fill="#173D7A"/>
<path d="M254.285 236.442L249.05 233.42C248.631 233.179 248.683 232.749 249.166 232.476L254.358 229.476C254.841 229.193 255.575 229.161 255.995 229.413L261.23 232.434C261.649 232.676 261.597 233.106 261.114 233.378L255.921 236.379C255.439 236.651 254.704 236.683 254.285 236.442Z" fill="#173D7A"/>
<path d="M262.373 241.11L257.138 238.089C256.718 237.847 256.771 237.417 257.253 237.144L262.446 234.144C262.929 233.861 263.663 233.829 264.083 234.081L269.317 237.102C269.737 237.344 269.685 237.774 269.202 238.047L264.009 241.047C263.527 241.32 262.792 241.351 262.373 241.11Z" fill="#173D7A"/>
<path d="M270.462 245.778L265.227 242.757C264.807 242.516 264.86 242.086 265.342 241.813L270.535 238.813C271.018 238.529 271.752 238.498 272.172 238.75L277.406 241.771C277.826 242.012 277.773 242.442 277.291 242.715L272.098 245.715C271.616 245.988 270.881 246.019 270.462 245.778Z" fill="#173D7A"/>
<path d="M278.55 250.446L273.315 247.425C272.895 247.184 272.948 246.754 273.43 246.481L278.623 243.481C279.106 243.197 279.84 243.166 280.259 243.418L285.494 246.439C285.914 246.68 285.861 247.11 285.379 247.383L280.186 250.383C279.703 250.656 278.969 250.688 278.55 250.446Z" fill="#173D7A"/>
<path d="M217.683 206.219L212.449 203.197C212.029 202.956 212.081 202.526 212.564 202.253L217.757 199.253C218.239 198.97 218.974 198.938 219.393 199.19L224.628 202.211C225.048 202.453 224.995 202.883 224.513 203.156L219.32 206.156C218.837 206.439 218.103 206.46 217.683 206.219Z" fill="#396CAA"/>
<path d="M209.479 201.487L204.244 198.466C203.825 198.225 203.877 197.795 204.36 197.522L209.553 194.522C210.035 194.239 210.77 194.207 211.189 194.459L216.424 197.48C216.843 197.721 216.791 198.151 216.308 198.424L211.116 201.424C210.633 201.697 209.899 201.729 209.479 201.487Z" fill="#396CAA"/>
<path d="M201.255 196.735L189.978 190.221C189.558 189.98 189.611 189.549 190.093 189.277L195.286 186.276C195.769 185.993 196.503 185.962 196.923 186.213L208.2 192.728C208.619 192.969 208.567 193.399 208.084 193.672L202.892 196.672C202.42 196.956 201.685 196.977 201.255 196.735Z" fill="#173D7A"/>
<path d="M207.003 190.966L197.856 185.678C197.436 185.437 197.489 185.007 197.971 184.734L203.164 181.734C203.647 181.451 204.381 181.419 204.8 181.671L213.948 186.958C214.368 187.2 214.315 187.63 213.833 187.902L208.64 190.903C208.157 191.175 207.423 191.207 207.003 190.966Z" fill="#173D7A"/>
<path d="M225.771 210.887L220.536 207.866C220.117 207.625 220.169 207.194 220.652 206.922L225.845 203.921C226.327 203.638 227.062 203.607 227.481 203.858L232.716 206.88C233.135 207.121 233.083 207.551 232.6 207.824L227.408 210.824C226.925 211.107 226.191 211.128 225.771 210.887Z" fill="#396CAA"/>
<path d="M233.86 215.555L228.625 212.534C228.206 212.293 228.258 211.863 228.741 211.59L233.933 208.589C234.416 208.306 235.15 208.275 235.57 208.527L240.805 211.548C241.224 211.789 241.172 212.219 240.689 212.492L235.497 215.492C235.014 215.775 234.28 215.807 233.86 215.555Z" fill="#173D7A"/>
<path d="M241.948 220.223L236.713 217.202C236.294 216.961 236.346 216.531 236.829 216.258L242.021 213.258C242.504 212.975 243.238 212.943 243.658 213.195L248.893 216.216C249.312 216.457 249.26 216.888 248.777 217.16L243.584 220.161C243.102 220.444 242.368 220.475 241.948 220.223Z" fill="#173D7A"/>
<path d="M250.026 224.892L244.791 221.87C244.372 221.629 244.424 221.199 244.907 220.926L250.1 217.926C250.582 217.643 251.316 217.611 251.736 217.863L256.971 220.884C257.39 221.126 257.338 221.556 256.855 221.828L251.663 224.829C251.18 225.112 250.446 225.143 250.026 224.892Z" fill="#173D7A"/>
<path d="M258.114 229.56L252.879 226.539C252.46 226.297 252.512 225.867 252.995 225.595L258.187 222.594C258.67 222.311 259.404 222.28 259.824 222.531L265.059 225.553C265.478 225.794 265.426 226.224 264.943 226.497L259.75 229.497C259.268 229.78 258.534 229.812 258.114 229.56Z" fill="#173D7A"/>
<path d="M266.202 234.228L260.967 231.207C260.548 230.966 260.6 230.535 261.083 230.263L266.275 227.262C266.758 226.979 267.492 226.948 267.912 227.2L273.147 230.221C273.566 230.462 273.514 230.892 273.031 231.165L267.838 234.165C267.356 234.448 266.621 234.48 266.202 234.228Z" fill="#173D7A"/>
<path d="M274.29 238.896L269.055 235.875C268.635 235.634 268.688 235.204 269.17 234.931L274.363 231.931C274.846 231.648 275.58 231.616 276 231.868L281.234 234.889C281.654 235.13 281.602 235.56 281.119 235.833L275.926 238.834C275.444 239.117 274.709 239.148 274.29 238.896Z" fill="#173D7A"/>
<path d="M282.379 243.565L277.144 240.543C276.724 240.302 276.777 239.872 277.259 239.599L282.452 236.599C282.935 236.316 283.669 236.284 284.089 236.536L289.323 239.557C289.743 239.798 289.69 240.229 289.208 240.501L284.015 243.502C283.533 243.785 282.798 243.816 282.379 243.565Z" fill="#173D7A"/>
<path d="M290.456 248.233L285.221 245.212C284.801 244.97 284.854 244.54 285.336 244.267L290.529 241.267C291.012 240.984 291.746 240.953 292.166 241.204L297.4 244.226C297.82 244.467 297.768 244.897 297.285 245.17L292.092 248.17C291.61 248.453 290.875 248.485 290.456 248.233Z" fill="#173D7A"/>
<path d="M304.838 256.541L293.413 249.943C292.994 249.702 293.046 249.272 293.529 248.999L298.722 245.999C299.204 245.715 299.938 245.684 300.358 245.936L311.782 252.534C312.202 252.775 312.149 253.205 311.667 253.478L306.474 256.478C305.991 256.751 305.257 256.783 304.838 256.541Z" fill="#173D7A"/>
<path d="M320.574 247.446L310.933 241.876C310.513 241.634 310.566 241.204 311.048 240.931L316.241 237.931C316.724 237.648 317.458 237.616 317.878 237.868L327.518 243.439C327.938 243.68 327.886 244.11 327.403 244.383L322.21 247.383C321.728 247.656 320.993 247.687 320.574 247.446Z" fill="#173D7A"/>
<path d="M239.933 209.974L234.699 206.953C234.279 206.712 234.331 206.282 234.814 206.009L240.007 203.009C240.489 202.725 241.224 202.694 241.643 202.946L246.878 205.967C247.298 206.208 247.245 206.638 246.763 206.911L241.57 209.911C241.087 210.195 240.353 210.216 239.933 209.974Z" fill="#173D7A"/>
<path d="M231.647 205.191L226.412 202.169C225.993 201.928 226.045 201.498 226.528 201.225L231.721 198.225C232.203 197.942 232.937 197.91 233.357 198.162L238.592 201.183C239.011 201.425 238.959 201.855 238.476 202.127L233.284 205.128C232.801 205.4 232.067 205.432 231.647 205.191Z" fill="#173D7A"/>
<path d="M223.359 200.407L218.124 197.386C217.705 197.145 217.757 196.714 218.24 196.442L223.433 193.441C223.915 193.158 224.649 193.127 225.069 193.378L230.304 196.4C230.723 196.641 230.671 197.071 230.188 197.344L224.996 200.344C224.513 200.617 223.779 200.648 223.359 200.407Z" fill="#396CAA"/>
<path d="M215.071 195.623L209.836 192.602C209.417 192.361 209.469 191.931 209.952 191.658L215.144 188.658C215.627 188.374 216.361 188.343 216.781 188.595L222.016 191.616C222.435 191.857 222.383 192.287 221.9 192.56L216.708 195.56C216.225 195.833 215.491 195.865 215.071 195.623Z" fill="#173D7A"/>
<path d="M248.021 214.643L242.786 211.621C242.367 211.38 242.419 210.95 242.902 210.677L248.095 207.677C248.577 207.394 249.312 207.362 249.731 207.614L254.966 210.635C255.385 210.876 255.333 211.307 254.85 211.579L249.658 214.58C249.175 214.863 248.441 214.884 248.021 214.643Z" fill="#173D7A"/>
<path d="M256.099 219.311L250.865 216.29C250.445 216.048 250.497 215.618 250.98 215.345L256.173 212.345C256.655 212.062 257.39 212.031 257.809 212.282L263.044 215.304C263.464 215.545 263.411 215.975 262.929 216.248L257.736 219.248C257.264 219.531 256.529 219.552 256.099 219.311Z" fill="#173D7A"/>
<path d="M264.188 223.979L258.953 220.958C258.534 220.717 258.586 220.286 259.069 220.014L264.262 217.013C264.744 216.73 265.479 216.699 265.898 216.951L271.133 219.972C271.552 220.213 271.5 220.643 271.017 220.916L265.825 223.916C265.342 224.199 264.608 224.22 264.188 223.979Z" fill="#173D7A"/>
<path d="M272.276 228.647L267.041 225.626C266.622 225.385 266.674 224.955 267.157 224.682L272.35 221.682C272.832 221.398 273.566 221.367 273.986 221.619L279.221 224.64C279.64 224.881 279.588 225.311 279.105 225.584L273.913 228.584C273.43 228.867 272.696 228.888 272.276 228.647Z" fill="#173D7A"/>
<path d="M280.364 233.316L275.129 230.294C274.71 230.053 274.762 229.623 275.245 229.35L280.437 226.35C280.92 226.067 281.654 226.035 282.074 226.287L287.309 229.308C287.728 229.549 287.676 229.98 287.193 230.252L282 233.253C281.518 233.536 280.784 233.557 280.364 233.316Z" fill="#173D7A"/>
<path d="M288.452 237.984L283.217 234.962C282.798 234.721 282.85 234.291 283.333 234.018L288.525 231.018C289.008 230.735 289.742 230.703 290.162 230.955L295.397 233.976C295.816 234.218 295.764 234.648 295.281 234.921L290.088 237.921C289.606 238.204 288.871 238.225 288.452 237.984Z" fill="#173D7A"/>
<path d="M296.529 242.652L291.294 239.631C290.875 239.389 290.927 238.959 291.41 238.687L296.602 235.686C297.085 235.403 297.819 235.372 298.239 235.623L303.474 238.645C303.893 238.886 303.841 239.316 303.358 239.589L298.166 242.589C297.683 242.872 296.949 242.893 296.529 242.652Z" fill="#173D7A"/>
<path d="M304.617 247.32L299.382 244.299C298.963 244.058 299.015 243.628 299.498 243.355L304.69 240.355C305.173 240.071 305.907 240.04 306.327 240.292L311.562 243.313C311.981 243.554 311.929 243.984 311.446 244.257L306.253 247.257C305.771 247.54 305.037 247.561 304.617 247.32Z" fill="#173D7A"/>
<path d="M312.706 251.989L307.471 248.967C307.051 248.726 307.104 248.296 307.586 248.023L312.779 245.023C313.262 244.74 313.996 244.708 314.416 244.96L319.65 247.981C320.07 248.223 320.018 248.653 319.535 248.925L314.342 251.926C313.86 252.209 313.125 252.23 312.706 251.989Z" fill="#173D7A"/>
<path d="M235.675 198.435L230.44 195.414C230.02 195.172 230.073 194.742 230.555 194.47L235.748 191.469C236.231 191.186 236.965 191.155 237.384 191.406L242.619 194.428C243.039 194.669 242.986 195.099 242.504 195.372L237.311 198.372C236.828 198.645 236.094 198.676 235.675 198.435Z" fill="#173D7A"/>
<path d="M227.629 193.788L222.394 190.766C221.974 190.525 222.027 190.095 222.509 189.822L227.702 186.822C228.185 186.539 228.919 186.507 229.339 186.759L234.573 189.78C234.993 190.021 234.94 190.452 234.458 190.724L229.265 193.725C228.783 193.997 228.048 194.029 227.629 193.788Z" fill="#173D7A"/>
<path d="M219.582 189.14L214.347 186.119C213.927 185.878 213.98 185.448 214.462 185.175L219.655 182.175C220.138 181.891 220.872 181.86 221.292 182.112L226.526 185.133C226.946 185.374 226.894 185.804 226.411 186.077L221.218 189.077C220.736 189.35 220.001 189.382 219.582 189.14Z" fill="#173D7A"/>
<path d="M211.536 184.493L206.301 181.472C205.882 181.23 205.934 180.8 206.417 180.528L211.609 177.527C212.092 177.244 212.826 177.213 213.246 177.464L218.481 180.486C218.9 180.727 218.848 181.157 218.365 181.43L213.172 184.43C212.69 184.703 211.955 184.734 211.536 184.493Z" fill="#173D7A"/>
<path d="M219.812 179.72L214.577 176.699C214.158 176.457 214.21 176.027 214.693 175.754L216.403 174.768C216.885 174.485 217.62 174.454 218.039 174.705L223.274 177.727C223.694 177.968 223.641 178.398 223.159 178.671L221.449 179.657C220.966 179.93 220.232 179.961 219.812 179.72Z" fill="#173D7A"/>
<path d="M230.314 185.783L225.079 182.762C224.66 182.521 224.712 182.091 225.195 181.818L226.905 180.832C227.387 180.549 228.122 180.517 228.541 180.769L233.776 183.79C234.196 184.032 234.143 184.462 233.661 184.734L231.951 185.72C231.468 185.993 230.734 186.025 230.314 185.783Z" fill="#173D7A"/>
<path d="M238.318 190.41L233.083 187.388C232.664 187.147 232.716 186.717 233.199 186.444L234.909 185.458C235.391 185.175 236.126 185.143 236.545 185.395L241.78 188.416C242.2 188.658 242.147 189.088 241.665 189.36L239.955 190.347C239.483 190.619 238.748 190.651 238.318 190.41Z" fill="#173D7A"/>
<path d="M246.333 195.036L241.098 192.015C240.678 191.773 240.731 191.343 241.213 191.07L242.923 190.084C243.406 189.801 244.14 189.77 244.56 190.021L249.795 193.043C250.214 193.284 250.162 193.714 249.679 193.987L247.969 194.973C247.487 195.246 246.752 195.277 246.333 195.036Z" fill="#173D7A"/>
<path d="M254.347 199.662L249.113 196.641C248.693 196.4 248.745 195.97 249.228 195.697L250.938 194.711C251.421 194.427 252.155 194.396 252.574 194.648L257.809 197.669C258.229 197.91 258.176 198.34 257.694 198.613L255.984 199.599C255.501 199.872 254.767 199.903 254.347 199.662Z" fill="#173D7A"/>
<path d="M299.079 225.479L293.844 222.458C293.424 222.217 293.477 221.786 293.959 221.514L295.669 220.528C296.152 220.244 296.886 220.213 297.306 220.465L302.541 223.486C302.96 223.727 302.908 224.157 302.425 224.43L300.715 225.416C300.233 225.699 299.498 225.72 299.079 225.479Z" fill="#173D7A"/>
<path d="M307.093 230.105L301.859 227.084C301.439 226.843 301.492 226.413 301.974 226.14L303.684 225.154C304.167 224.871 304.901 224.839 305.321 225.091L310.555 228.112C310.975 228.354 310.922 228.784 310.44 229.056L308.73 230.042C308.247 230.326 307.513 230.347 307.093 230.105Z" fill="#173D7A"/>
<path d="M315.097 234.732L309.863 231.71C309.443 231.469 309.495 231.039 309.978 230.766L311.688 229.78C312.171 229.497 312.905 229.465 313.324 229.717L318.559 232.738C318.979 232.98 318.926 233.41 318.444 233.683L316.734 234.669C316.251 234.941 315.517 234.973 315.097 234.732Z" fill="#173D7A"/>
<path d="M323.112 239.358L317.877 236.337C317.458 236.095 317.51 235.665 317.993 235.393L319.703 234.407C320.185 234.123 320.92 234.092 321.339 234.344L326.574 237.365C326.993 237.606 326.941 238.036 326.458 238.309L324.749 239.295C324.266 239.568 323.532 239.599 323.112 239.358Z" fill="#173D7A"/>
<path d="M243.762 203.103L238.528 200.082C238.108 199.84 238.161 199.41 238.643 199.138L243.836 196.137C244.318 195.854 245.053 195.823 245.472 196.074L250.707 199.096C251.127 199.337 251.074 199.767 250.592 200.04L245.399 203.04C244.916 203.313 244.182 203.344 243.762 203.103Z" fill="#173D7A"/>
<path d="M251.85 207.771L246.616 204.75C246.196 204.509 246.248 204.079 246.731 203.806L251.924 200.806C252.406 200.523 253.141 200.491 253.56 200.743L258.795 203.764C259.215 204.005 259.162 204.435 258.68 204.708L253.487 207.709C253.004 207.981 252.27 208.013 251.85 207.771Z" fill="#173D7A"/>
<path d="M259.928 212.44L254.694 209.408C254.274 209.167 254.327 208.736 254.809 208.464L260.002 205.463C260.484 205.18 261.219 205.149 261.638 205.4L266.873 208.422C267.293 208.663 267.24 209.093 266.758 209.366L261.565 212.366C261.082 212.649 260.348 212.681 259.928 212.44Z" fill="#173D7A"/>
<path d="M268.017 217.108L262.783 214.087C262.363 213.845 262.415 213.415 262.898 213.142L268.091 210.142C268.573 209.859 269.308 209.827 269.727 210.079L274.962 213.1C275.382 213.342 275.329 213.772 274.847 214.045L269.654 217.045C269.171 217.318 268.437 217.349 268.017 217.108Z" fill="#173D7A"/>
<path d="M276.104 221.776L270.869 218.755C270.45 218.514 270.502 218.083 270.985 217.811L276.178 214.81C276.66 214.527 277.395 214.496 277.814 214.748L283.049 217.769C283.468 218.01 283.416 218.44 282.933 218.713L277.741 221.713C277.258 221.986 276.524 222.017 276.104 221.776Z" fill="#173D7A"/>
<path d="M284.193 226.444L278.958 223.423C278.539 223.182 278.591 222.752 279.074 222.479L284.267 219.479C284.749 219.195 285.483 219.164 285.903 219.416L291.138 222.437C291.557 222.678 291.505 223.108 291.022 223.381L285.83 226.381C285.347 226.654 284.613 226.686 284.193 226.444Z" fill="#173D7A"/>
<path d="M292.27 231.113L287.035 228.091C286.616 227.85 286.668 227.42 287.151 227.147L292.344 224.147C292.826 223.864 293.561 223.832 293.98 224.084L299.215 227.105C299.635 227.346 299.582 227.777 299.099 228.049L293.907 231.05C293.435 231.322 292.7 231.354 292.27 231.113Z" fill="#173D7A"/>
<path d="M300.359 235.781L295.124 232.759C294.705 232.518 294.757 232.088 295.24 231.815L300.433 228.815C300.915 228.532 301.649 228.5 302.069 228.752L307.304 231.773C307.723 232.015 307.671 232.445 307.188 232.718L301.996 235.718C301.513 235.991 300.779 236.022 300.359 235.781Z" fill="#173D7A"/>
<path d="M308.447 240.449L303.212 237.428C302.793 237.186 302.845 236.756 303.328 236.484L308.52 233.483C309.003 233.2 309.737 233.169 310.157 233.42L315.392 236.442C315.811 236.683 315.759 237.113 315.276 237.386L310.083 240.386C309.601 240.659 308.867 240.69 308.447 240.449Z" fill="#173D7A"/>
<path d="M197.531 203.68L182.11 194.774C181.69 194.532 181.743 194.102 182.225 193.83L187.418 190.829C187.9 190.546 188.635 190.515 189.054 190.766L204.475 199.673C204.895 199.914 204.842 200.344 204.36 200.617L199.167 203.617C198.685 203.89 197.95 203.921 197.531 203.68Z" fill="#173D7A"/>
<path d="M296.866 261.031L281.445 252.125C281.025 251.883 281.078 251.453 281.56 251.181L286.753 248.18C287.235 247.897 287.97 247.866 288.389 248.117L303.81 257.024C304.23 257.265 304.177 257.695 303.695 257.968L298.502 260.968C298.02 261.241 297.285 261.272 296.866 261.031Z" fill="#173D7A"/>
<path d="M264.534 252.67L259.299 249.649C258.88 249.408 258.932 248.978 259.415 248.705L265.593 245.138C266.076 244.855 266.81 244.823 267.23 245.075L272.465 248.097C272.884 248.338 272.832 248.768 272.349 249.041L266.17 252.607C265.688 252.88 264.954 252.912 264.534 252.67Z" fill="#173D7A"/>
<path d="M205.808 218.765L197.437 213.929C197.017 213.688 197.07 213.258 197.552 212.985L203.731 209.418C204.214 209.135 204.948 209.104 205.368 209.355L213.739 214.192C214.159 214.433 214.106 214.863 213.624 215.136L207.445 218.702C206.973 218.975 206.238 219.007 205.808 218.765Z" fill="#173D7A"/>
<path d="M256.739 248.17L248.368 243.334C247.948 243.093 248 242.663 248.483 242.39L254.662 238.823C255.144 238.54 255.879 238.508 256.298 238.76L264.67 243.596C265.089 243.837 265.037 244.268 264.554 244.54L258.375 248.107C257.893 248.38 257.159 248.411 256.739 248.17Z" fill="#173D7A"/>
<path d="M217.484 225.5L209.113 220.664C208.693 220.423 208.745 219.993 209.228 219.72L215.407 216.153C215.889 215.87 216.624 215.838 217.043 216.09L225.415 220.926C225.834 221.168 225.782 221.598 225.299 221.87L219.121 225.437C218.638 225.72 217.904 225.741 217.484 225.5Z" fill="#173D7A"/>
<path d="M217.096 216.122L253.497 237.144C253.948 237.407 253.948 237.826 253.497 238.089L247.193 241.729C246.742 241.991 246.007 241.991 245.556 241.729L209.154 220.706L217.096 216.122Z" fill="#173D7A"/>
<path d="M287.13 261.136L292.962 264.504C293.308 264.703 293.266 265.049 292.868 265.28L290.34 266.738C289.941 266.969 289.343 266.99 288.997 266.79L283.164 263.423C282.818 263.224 282.86 262.878 283.259 262.647L285.787 261.189C286.185 260.958 286.783 260.937 287.13 261.136Z" fill="#173D7A"/>
<path d="M278.979 256.426L284.812 259.793C285.158 259.993 285.116 260.339 284.717 260.57L282.189 262.028C281.791 262.259 281.193 262.28 280.846 262.08L275.014 258.713C274.668 258.514 274.71 258.167 275.108 257.937L277.636 256.478C278.035 256.248 278.633 256.227 278.979 256.426Z" fill="#173D7A"/>
<path d="M270.891 251.758L276.724 255.125C277.07 255.324 277.028 255.671 276.63 255.901L274.101 257.36C273.703 257.59 273.105 257.611 272.759 257.412L266.926 254.045C266.58 253.845 266.622 253.499 267.02 253.268L269.548 251.81C269.947 251.579 270.545 251.558 270.891 251.758Z" fill="#173D7A"/>
<path d="M283.449 253.845L289.282 257.213C289.628 257.412 289.586 257.758 289.187 257.989L286.659 259.447C286.26 259.678 285.662 259.699 285.316 259.5L279.483 256.132C279.137 255.933 279.179 255.587 279.578 255.356L282.106 253.898C282.494 253.677 283.103 253.646 283.449 253.845Z" fill="#173D7A"/>
<path d="M292.124 138.901L287.12 136.006C286.659 135.733 286.27 135.009 286.26 134.391C286.249 133.772 286.617 133.478 287.078 133.751L292.082 136.646C292.544 136.919 292.932 137.643 292.942 138.261C292.953 138.88 292.586 139.164 292.124 138.901Z" fill="#D4ECFF"/>
<path d="M304.051 145.783L296.666 141.524C296.205 141.251 295.816 140.527 295.806 139.908C295.795 139.289 296.163 138.996 296.624 139.268L304.009 143.528C304.471 143.8 304.859 144.524 304.87 145.143C304.88 145.762 304.513 146.056 304.051 145.783Z" fill="#D4ECFF"/>
<path d="M289.638 165.599L284.634 162.704C284.172 162.431 283.784 161.707 283.774 161.089C283.763 160.47 284.13 160.176 284.592 160.449L289.596 163.344C290.057 163.617 290.446 164.341 290.456 164.959C290.477 165.578 290.11 165.872 289.638 165.599Z" fill="#D4ECFF"/>
<path d="M300.275 171.736L292.89 167.477C292.428 167.205 292.04 166.481 292.03 165.862C292.019 165.243 292.386 164.949 292.848 165.222L300.233 169.481C300.695 169.754 301.083 170.478 301.093 171.097C301.104 171.715 300.737 172.009 300.275 171.736Z" fill="#D4ECFF"/>
<path d="M278.392 135.66L275.266 133.855C274.804 133.582 274.416 132.859 274.405 132.24C274.395 131.621 274.762 131.327 275.224 131.6L278.35 133.404C278.811 133.677 279.2 134.401 279.21 135.02C279.221 135.639 278.853 135.922 278.392 135.66Z" fill="#D4ECFF"/>
<path d="M289.072 146.517L279.515 140.999C279.053 140.727 278.665 140.003 278.655 139.384C278.644 138.765 279.011 138.471 279.473 138.744L289.03 144.262C289.491 144.535 289.879 145.259 289.89 145.877C289.911 146.496 289.544 146.78 289.072 146.517Z" fill="#D4ECFF"/>
<path d="M282.798 152.266L279.672 150.462C279.21 150.189 278.822 149.465 278.812 148.846C278.801 148.227 279.168 147.933 279.63 148.206L282.756 150.011C283.218 150.283 283.606 151.007 283.616 151.626C283.637 152.245 283.26 152.539 282.798 152.266Z" fill="#D4ECFF"/>
<path d="M303.968 183.255L295.617 178.429C295.156 178.156 294.768 177.433 294.757 176.814C294.747 176.195 295.114 175.901 295.575 176.174L303.926 180.999C304.387 181.272 304.775 181.996 304.786 182.615C304.796 183.234 304.429 183.517 303.968 183.255Z" fill="#D4ECFF"/>
<path d="M281.833 161.089L279.829 159.924C279.368 159.652 278.979 158.928 278.969 158.309C278.958 157.69 279.326 157.396 279.787 157.669L281.791 158.833C282.252 159.106 282.641 159.83 282.651 160.449C282.662 161.068 282.294 161.361 281.833 161.089Z" fill="#D4ECFF"/>
<path d="M282.473 170.834L279.977 169.397C279.515 169.124 279.127 168.4 279.116 167.781C279.106 167.162 279.473 166.869 279.935 167.141L282.431 168.579C282.893 168.851 283.281 169.575 283.292 170.194C283.302 170.824 282.935 171.107 282.473 170.834Z" fill="#D4ECFF"/>
<path d="M292.177 176.436L285.6 172.638C285.138 172.366 284.75 171.642 284.739 171.023C284.729 170.404 285.096 170.11 285.558 170.383L292.135 174.181C292.597 174.453 292.985 175.177 292.995 175.796C293.006 176.415 292.639 176.709 292.177 176.436Z" fill="#D4ECFF"/>
<path d="M284.781 176.866L280.05 174.139C279.588 173.866 279.2 173.142 279.19 172.523C279.179 171.904 279.546 171.61 280.008 171.883L284.739 174.611C285.201 174.883 285.589 175.607 285.599 176.226C285.61 176.845 285.243 177.128 284.781 176.866Z" fill="#D4ECFF"/>
<path d="M311.143 187.409L308.111 185.657C307.65 185.385 307.262 184.661 307.251 184.042C307.241 183.423 307.608 183.129 308.069 183.402L311.101 185.154C311.563 185.426 311.951 186.15 311.961 186.769C311.972 187.388 311.605 187.682 311.143 187.409Z" fill="#D4ECFF"/>
<path d="M294.433 158.991L286.082 154.165C285.621 153.892 285.232 153.168 285.222 152.549C285.211 151.931 285.579 151.637 286.04 151.91L294.391 156.735C294.852 157.008 295.24 157.732 295.251 158.351C295.272 158.97 294.905 159.253 294.433 158.991Z" fill="#D4ECFF"/>
<path d="M294.159 154.133L279.599 145.731C279.137 145.458 278.749 144.734 278.739 144.115C278.728 143.496 279.095 143.202 279.557 143.475L294.117 151.878C294.579 152.151 294.967 152.875 294.978 153.494C294.988 154.123 294.621 154.406 294.159 154.133Z" fill="#D4ECFF"/>
<path d="M288.106 160.019L279.756 155.193C279.294 154.921 278.906 154.197 278.896 153.578C278.885 152.959 279.252 152.665 279.714 152.938L288.064 157.763C288.526 158.036 288.914 158.76 288.925 159.379C288.935 159.998 288.568 160.292 288.106 160.019Z" fill="#D4ECFF"/>
<path d="M300.768 162.651L297.736 160.9C297.275 160.627 296.887 159.903 296.876 159.284C296.866 158.665 297.233 158.371 297.694 158.644L300.726 160.396C301.188 160.669 301.576 161.393 301.586 162.012C301.607 162.631 301.24 162.914 300.768 162.651Z" fill="#D4ECFF"/>
<path d="M326.575 158.791L308.595 148.416C308.133 148.143 307.745 147.419 307.735 146.8C307.724 146.181 308.091 145.888 308.553 146.16L326.533 156.536C326.995 156.808 327.383 157.532 327.394 158.151C327.404 158.77 327.037 159.053 326.575 158.791Z" fill="#D4ECFF"/>
<path d="M289.942 170.467L279.902 164.666C279.441 164.393 279.053 163.669 279.042 163.05C279.032 162.431 279.399 162.138 279.86 162.41L289.9 168.212C290.361 168.484 290.75 169.208 290.76 169.827C290.781 170.446 290.414 170.729 289.942 170.467Z" fill="#D4ECFF"/>
<path d="M282.567 133.383L275.182 129.124C274.72 128.851 274.332 128.128 274.322 127.509C274.311 126.89 274.678 126.596 275.14 126.869L282.525 131.128C282.987 131.401 283.375 132.124 283.385 132.743C283.406 133.362 283.039 133.646 282.567 133.383Z" fill="#D4ECFF"/>
<path d="M284.508 181.398L275.958 176.457C275.497 176.184 275.108 175.46 275.098 174.841C275.087 174.222 275.455 173.929 275.916 174.202L284.466 179.143C284.927 179.415 285.316 180.139 285.326 180.758C285.337 181.377 284.969 181.66 284.508 181.398Z" fill="#D4ECFF"/>
<path d="M65.8446 188.826L109.894 163.177C118.622 158.141 126.847 157.344 133.067 160.932C139.278 164.519 142.708 172.052 142.708 182.122V185.353C142.393 185.563 142.068 185.773 141.732 185.972V182.122C141.732 172.408 138.48 165.18 132.574 161.771C126.668 158.362 118.79 159.159 110.377 164.016L66.3272 189.665C66.0964 189.801 65.8026 189.717 65.6663 189.487C65.5299 189.256 65.6138 188.962 65.8446 188.826Z" fill="#D4ECFF"/>
<path d="M203.217 158.278V59.0066C203.217 39.1377 217.221 14.8838 234.426 4.94938C242.849 0.0818146 250.801 -0.683987 256.812 2.77786C262.813 6.2397 266.128 13.5096 266.128 23.2447V30.1684C265.803 30.4936 265.477 30.8188 265.152 31.144V23.2552C265.152 13.8872 262.015 6.91109 256.33 3.62758C250.633 0.344075 243.038 1.10988 234.919 5.7991C217.977 15.5762 204.192 39.4524 204.192 59.0171V158.288C204.192 174.758 194.499 194.249 181.354 205.978C181.354 205.548 181.354 205.107 181.354 204.677C193.974 193.064 203.217 174.234 203.217 158.278Z" fill="#D4ECFF"/>
<path d="M266.117 33.2107C267.712 31.7001 275.15 25.1331 286.007 23.4756C298.302 21.5978 303.38 35.9697 303.38 35.9697C303.38 35.9697 304.806 43.4389 304.754 47.8554C304.701 52.2718 304.387 68.3222 304.387 68.3222L265.425 45.8727V45.8622C265.268 45.7783 265.152 45.6209 265.152 45.4321V34.05C265.467 33.7247 265.792 33.5359 266.117 33.2107Z" fill="#173D7A"/>
<path d="M293.738 24.0734L256.801 2.7778L256.948 3.31281C251.252 -0.358839 242.65 -0.757476 231.142 7.67684C208.283 24.4406 205.545 47.7713 204.37 52.1458C203.206 56.5203 203.688 84.2256 203.688 84.2256C203.688 84.2256 203.615 151.039 203.531 158.813C203.457 166.586 201.191 175.304 196.827 184.713C192.463 194.123 181.249 205.547 181.249 205.547V219.143C183.043 233.851 189.285 237.281 198.579 238.11C206.08 238.781 214.074 233.368 220.462 227.462C220.231 227.703 220.074 227.861 220.074 227.861V241.456C221.868 256.164 228.11 259.594 237.404 260.423C246.699 261.262 256.749 252.744 263.567 245.537C270.376 238.33 276.125 227.326 279.314 217.402C282.503 207.478 281.443 194.648 281.443 194.648C281.443 194.648 281.517 121.613 281.601 107.21C281.674 92.8067 282.136 95.3244 286.856 80.8476C291.577 66.3708 304.103 56.2371 304.103 56.2371L334.147 47.2887L293.738 24.0734Z" fill="#D9E5FF"/>
<path d="M229.442 259.227C228.938 258.535 222.35 254.129 220.682 246.355C219.749 242.033 219.843 235.456 219.843 235.456C219.843 235.456 219.875 231.805 219.959 228.48C220.032 228.417 220.106 228.354 220.179 228.291C220.179 227.861 220.179 227.42 220.179 226.99C220.116 227.042 220.053 227.095 220.001 227.147C220.022 226.403 220.053 225.689 220.085 225.091C220.273 221.64 217.724 214.276 217.724 214.276C217.724 214.276 214.105 204.404 203.321 204.026C193.754 203.691 183.672 210.572 181.532 212.125V207.667C181.385 207.761 181.238 207.855 181.092 207.95C181.102 207.352 181.113 206.743 181.134 206.146C181.207 206.083 181.28 206.02 181.354 205.957C181.354 205.527 181.354 205.086 181.354 204.656C181.291 204.708 181.228 204.761 181.175 204.813C181.196 204.068 181.228 203.355 181.259 202.757C181.448 199.306 178.899 191.941 178.899 191.941C178.899 191.941 175.28 182.07 164.496 181.692C154.928 181.357 144.847 188.238 142.707 189.791V185.332C142.392 185.542 142.067 185.752 141.731 185.951V193.756C141.731 203.208 144.879 210.31 150.596 213.835L150.617 213.866L150.816 213.982C150.869 214.013 150.921 214.055 150.974 214.087C151.005 214.108 151.047 214.118 151.078 214.139L190.606 236.893C190.596 236.882 190.575 236.851 190.554 236.841L229.442 259.227Z" fill="#173D7A"/>
<path d="M171.892 183.266C171.892 183.266 171.598 183.108 171.074 182.899C170.916 182.825 170.759 182.731 170.591 182.657L133.056 160.932C133.056 160.932 126.164 157.312 117.824 160.365C109.484 163.418 65.7812 189.633 65.7812 189.633L104.827 212.125H104.837C104.869 212.146 104.911 212.146 104.942 212.156L143.662 234.459C143.662 234.459 165.566 220.884 180.714 212.135L181.69 211.579C187.89 208.013 192.81 205.359 194.352 204.949C203.699 202.474 210.193 205.495 211.892 206.418L171.892 183.266Z" fill="#D9E5FF"/>
<path d="M211.882 206.408L212.333 206.67C212.333 206.67 212.165 206.565 211.882 206.408Z" fill="#D4ECFF"/>
<path d="M304.943 55.5447C306.537 54.0341 313.975 47.4671 324.833 45.8096C337.127 43.9318 342.205 58.3037 342.205 58.3037C342.205 58.3037 343.631 65.7729 343.579 70.1894C343.526 74.6058 343.212 90.6562 343.212 90.6562L304.25 68.2067V68.1962C304.093 68.1122 303.978 67.9549 303.978 67.7661V56.3839C304.292 56.0587 304.617 55.8699 304.943 55.5447Z" fill="#173D7A"/>
<path d="M237.038 261C241.339 261 246.091 259.563 251.011 256.72C268.1 246.859 281.99 222.783 281.99 203.061V103.79C281.99 84.2255 295.774 60.3597 312.716 50.5722C320.836 45.8934 328.431 45.1171 334.127 48.4006C339.823 51.6841 342.95 58.6603 342.95 68.0282V90.2155C342.95 90.4883 343.17 90.6981 343.432 90.6981C343.705 90.6981 343.915 90.4778 343.915 90.2155V68.0387C343.915 58.3036 340.61 51.0337 334.599 47.5719C328.588 44.0996 320.647 44.8758 312.213 49.7434C295.019 59.6674 281.025 83.9213 281.025 103.79V203.061C281.025 222.479 267.345 246.177 250.529 255.881C242.472 260.528 234.93 261.294 229.275 258.031C223.621 254.769 220.516 247.855 220.516 238.55V226.906C220.516 216.835 217.096 209.303 210.875 205.715C204.654 202.128 196.43 202.925 187.702 207.96L143.652 233.609C143.421 233.746 143.338 234.039 143.474 234.27C143.61 234.501 143.904 234.574 144.135 234.449L188.184 208.799C196.597 203.942 204.486 203.145 210.382 206.554C216.288 209.964 219.54 217.192 219.54 226.906V238.55C219.54 248.212 222.824 255.429 228.782 258.87C231.247 260.297 234.027 261 237.038 261Z" fill="#396CAA"/>
<path d="M240.08 128.118L233.565 124.362C232.957 124.016 232.464 123.072 232.443 122.264C232.432 121.456 232.904 121.078 233.513 121.425L240.027 125.18C240.636 125.526 241.129 126.471 241.15 127.278C241.16 128.097 240.678 128.474 240.08 128.118Z" fill="#5793CE"/>
<path d="M253.907 136.101L244.308 130.562C243.7 130.216 243.207 129.272 243.186 128.464C243.175 127.656 243.647 127.278 244.256 127.625L253.855 133.164C254.463 133.51 254.956 134.454 254.977 135.262C254.987 136.08 254.505 136.458 253.907 136.101Z" fill="#5793CE"/>
<path d="M239.335 103.308L226.904 96.1322C226.295 95.7861 225.802 94.8419 225.781 94.0342C225.771 93.2264 226.243 92.8487 226.851 93.1949L239.283 100.37C239.891 100.717 240.384 101.661 240.405 102.468C240.426 103.276 239.944 103.654 239.335 103.308Z" fill="#5793CE"/>
<path d="M231.173 110.787L227.103 108.437C226.495 108.091 226.002 107.147 225.981 106.339C225.97 105.532 226.442 105.154 227.051 105.5L231.121 107.85C231.729 108.196 232.222 109.14 232.243 109.948C232.264 110.766 231.782 111.133 231.173 110.787Z" fill="#5793CE"/>
<path d="M229.926 122.253L227.314 120.743C226.706 120.397 226.213 119.453 226.192 118.645C226.181 117.837 226.653 117.459 227.262 117.806L229.874 119.316C230.482 119.662 230.975 120.606 230.996 121.414C231.007 122.232 230.524 122.61 229.926 122.253Z" fill="#5793CE"/>
<path d="M246.312 119.526L235.444 113.252C234.835 112.906 234.342 111.962 234.321 111.154C234.311 110.347 234.783 109.969 235.391 110.315L246.26 116.588C246.868 116.935 247.361 117.879 247.382 118.686C247.393 119.494 246.91 119.872 246.312 119.526Z" fill="#5793CE"/>
<path d="M245.945 113.221L227.009 102.29C226.401 101.944 225.908 101 225.887 100.192C225.876 99.3841 226.348 99.0065 226.957 99.3526L245.892 110.284C246.501 110.63 246.994 111.574 247.015 112.382C247.025 113.19 246.553 113.567 245.945 113.221Z" fill="#5793CE"/>
<path d="M238.077 120.869L227.209 114.595C226.6 114.249 226.107 113.305 226.086 112.497C226.076 111.69 226.548 111.312 227.156 111.658L238.024 117.931C238.633 118.278 239.126 119.222 239.147 120.029C239.157 120.837 238.675 121.215 238.077 120.869Z" fill="#5793CE"/>
<path d="M254.547 124.278L250.602 122.002C249.994 121.655 249.501 120.711 249.48 119.904C249.469 119.096 249.941 118.718 250.55 119.064L254.494 121.341C255.103 121.687 255.596 122.631 255.617 123.439C255.638 124.257 255.155 124.635 254.547 124.278Z" fill="#5793CE"/>
<path d="M243.301 93.3944L236.787 89.6388C236.178 89.2927 235.685 88.3485 235.664 87.5408C235.654 86.733 236.126 86.3553 236.734 86.7015L243.249 90.4571C243.857 90.8033 244.35 91.7474 244.371 92.5552C244.392 93.3734 243.91 93.7406 243.301 93.3944Z" fill="#5793CE"/>
<path d="M258.816 102.353L249.217 96.8144C248.609 96.4682 248.116 95.524 248.095 94.7163C248.084 93.9085 248.556 93.5309 249.165 93.8771L258.764 99.416C259.372 99.7622 259.865 100.706 259.886 101.514C259.897 102.322 259.414 102.7 258.816 102.353Z" fill="#5793CE"/>
<path d="M240.081 128.118L233.566 124.362C232.958 124.016 232.465 123.072 232.444 122.264C232.433 121.456 232.905 121.078 233.514 121.425L240.028 125.18C240.637 125.526 241.13 126.471 241.151 127.278C241.161 128.097 240.679 128.474 240.081 128.118Z" fill="#5793CE"/>
<path d="M253.908 136.101L244.309 130.562C243.701 130.216 243.208 129.272 243.187 128.464C243.176 127.656 243.648 127.279 244.257 127.625L253.855 133.164C254.464 133.51 254.957 134.454 254.978 135.262C254.988 136.08 254.506 136.458 253.908 136.101Z" fill="#5793CE"/>
<path d="M225.446 89.1879L221.376 86.8381C220.767 86.4919 220.274 85.5477 220.253 84.74C220.243 83.9322 220.715 83.5545 221.323 83.9007L225.393 86.2506C226.002 86.5968 226.495 87.5409 226.516 88.3487C226.526 89.1564 226.054 89.5341 225.446 89.1879Z" fill="#5793CE"/>
<path d="M239.336 103.308L226.905 96.1322C226.296 95.7861 225.803 94.8419 225.782 94.0342C225.772 93.2264 226.244 92.8487 226.852 93.1949L239.284 100.37C239.892 100.717 240.385 101.661 240.406 102.468C240.427 103.276 239.944 103.654 239.336 103.308Z" fill="#5793CE"/>
<path d="M231.174 110.787L227.104 108.437C226.496 108.091 226.003 107.147 225.982 106.339C225.971 105.532 226.443 105.154 227.052 105.5L231.122 107.85C231.73 108.196 232.223 109.14 232.244 109.948C232.265 110.766 231.783 111.133 231.174 110.787Z" fill="#5793CE"/>
<path d="M258.702 151.071L247.834 144.798C247.225 144.452 246.732 143.507 246.711 142.7C246.701 141.892 247.173 141.514 247.781 141.86L258.649 148.134C259.258 148.48 259.751 149.424 259.772 150.232C259.793 151.05 259.31 151.417 258.702 151.071Z" fill="#5793CE"/>
<path d="M229.926 122.253L227.314 120.743C226.706 120.397 226.213 119.453 226.192 118.645C226.181 117.837 226.653 117.459 227.262 117.806L229.874 119.316C230.482 119.662 230.975 120.606 230.996 121.414C231.007 122.232 230.524 122.61 229.926 122.253Z" fill="#5793CE"/>
<path d="M230.755 134.936L227.513 133.069C226.905 132.723 226.412 131.779 226.391 130.971C226.38 130.163 226.852 129.786 227.461 130.132L230.702 131.999C231.311 132.345 231.804 133.289 231.825 134.097C231.835 134.905 231.353 135.282 230.755 134.936Z" fill="#5793CE"/>
<path d="M243.364 142.217L234.814 137.276C234.206 136.93 233.713 135.985 233.692 135.178C233.681 134.37 234.153 133.992 234.762 134.338L243.311 139.279C243.92 139.626 244.413 140.57 244.434 141.378C244.455 142.196 243.972 142.563 243.364 142.217Z" fill="#5793CE"/>
<path d="M233.754 142.762L227.607 139.217C226.999 138.871 226.506 137.926 226.485 137.119C226.474 136.311 226.946 135.933 227.555 136.279L233.702 139.825C234.31 140.171 234.803 141.115 234.824 141.923C234.835 142.742 234.363 143.119 233.754 142.762Z" fill="#5793CE"/>
<path d="M246.312 119.526L235.444 113.253C234.835 112.907 234.342 111.963 234.321 111.155C234.311 110.347 234.783 109.969 235.391 110.316L246.26 116.589C246.868 116.935 247.361 117.879 247.382 118.687C247.393 119.495 246.91 119.872 246.312 119.526Z" fill="#5793CE"/>
<path d="M245.945 113.221L227.009 102.29C226.401 101.944 225.908 101 225.887 100.192C225.876 99.3844 226.348 99.0067 226.957 99.3529L245.892 110.284C246.501 110.63 246.994 111.574 247.015 112.382C247.025 113.19 246.553 113.567 245.945 113.221Z" fill="#5793CE"/>
<path d="M238.077 120.869L227.209 114.596C226.6 114.249 226.107 113.305 226.086 112.498C226.076 111.69 226.548 111.312 227.156 111.658L238.024 117.932C238.633 118.278 239.126 119.222 239.147 120.03C239.157 120.837 238.675 121.215 238.077 120.869Z" fill="#5793CE"/>
<path d="M254.548 124.278L250.603 122.002C249.995 121.655 249.502 120.711 249.481 119.904C249.47 119.096 249.942 118.718 250.551 119.064L254.495 121.341C255.104 121.687 255.597 122.631 255.618 123.439C255.639 124.257 255.156 124.635 254.548 124.278Z" fill="#5793CE"/>
<path d="M240.468 134.443L227.408 126.901C226.799 126.555 226.306 125.61 226.285 124.803C226.275 123.995 226.747 123.617 227.355 123.963L240.416 131.506C241.024 131.852 241.517 132.796 241.538 133.604C241.549 134.422 241.077 134.8 240.468 134.443Z" fill="#5793CE"/>
<path d="M230.881 86.2293L221.282 80.6904C220.673 80.3442 220.18 79.4 220.159 78.5923C220.149 77.7845 220.621 77.4068 221.229 77.753L230.828 83.292C231.437 83.6382 231.93 84.5823 231.951 85.3901C231.961 86.1978 231.489 86.5755 230.881 86.2293Z" fill="#5793CE"/>
<path d="M233.399 148.658L222.279 142.238C221.67 141.892 221.177 140.947 221.156 140.14C221.146 139.332 221.618 138.954 222.226 139.3L233.346 145.721C233.955 146.067 234.448 147.011 234.469 147.819C234.479 148.637 234.007 149.004 233.399 148.658Z" fill="#5793CE"/>
<path d="M238.548 186.539L232.034 182.783C231.425 182.437 230.932 181.493 230.911 180.685C230.901 179.878 231.373 179.5 231.981 179.846L238.496 183.602C239.104 183.948 239.597 184.892 239.618 185.7C239.629 186.507 239.146 186.885 238.548 186.539Z" fill="#5793CE"/>
<path d="M252.375 194.522L242.776 188.983C242.168 188.637 241.674 187.693 241.653 186.885C241.643 186.077 242.115 185.7 242.724 186.046L252.322 191.585C252.931 191.931 253.424 192.875 253.445 193.683C253.455 194.491 252.973 194.868 252.375 194.522Z" fill="#5793CE"/>
<path d="M237.804 161.719L225.373 154.543C224.764 154.197 224.271 153.253 224.25 152.445C224.24 151.637 224.712 151.26 225.32 151.606L237.751 158.781C238.36 159.127 238.853 160.072 238.874 160.879C238.895 161.698 238.412 162.065 237.804 161.719Z" fill="#5793CE"/>
<path d="M229.642 169.198L225.572 166.848C224.963 166.502 224.47 165.558 224.449 164.75C224.439 163.942 224.911 163.565 225.519 163.911L229.59 166.261C230.198 166.607 230.691 167.551 230.712 168.359C230.733 169.177 230.251 169.555 229.642 169.198Z" fill="#5793CE"/>
<path d="M228.394 180.675L225.782 179.164C225.173 178.818 224.68 177.874 224.659 177.066C224.649 176.258 225.121 175.88 225.729 176.227L228.341 177.737C228.95 178.083 229.443 179.028 229.464 179.835C229.474 180.643 228.992 181.021 228.394 180.675Z" fill="#5793CE"/>
<path d="M244.78 177.937L233.912 171.663C233.303 171.317 232.81 170.373 232.789 169.565C232.779 168.758 233.251 168.38 233.859 168.726L244.727 174.999C245.336 175.346 245.829 176.29 245.85 177.098C245.86 177.916 245.378 178.293 244.78 177.937Z" fill="#5793CE"/>
<path d="M244.412 171.632L225.477 160.701C224.869 160.355 224.376 159.411 224.355 158.603C224.344 157.795 224.816 157.418 225.425 157.764L244.36 168.695C244.968 169.041 245.461 169.985 245.482 170.793C245.503 171.611 245.021 171.978 244.412 171.632Z" fill="#5793CE"/>
<path d="M236.544 179.279L225.676 173.006C225.068 172.66 224.575 171.716 224.554 170.908C224.543 170.1 225.015 169.723 225.624 170.069L236.492 176.342C237.1 176.688 237.593 177.632 237.614 178.44C237.625 179.258 237.153 179.636 236.544 179.279Z" fill="#5793CE"/>
<path d="M253.015 182.699L249.071 180.423C248.462 180.077 247.969 179.133 247.948 178.325C247.938 177.517 248.41 177.139 249.018 177.486L252.963 179.762C253.571 180.108 254.064 181.052 254.085 181.86C254.106 182.668 253.624 183.045 253.015 182.699Z" fill="#5793CE"/>
<path d="M372.065 122.175L367.359 112.605L376.93 107.899L381.635 117.47L372.065 122.175ZM370.219 113.576L373.046 119.316L378.786 116.488L375.959 110.748L370.219 113.576Z" fill="#5788FF"/>
<path d="M33.5003 269.618L46.9871 269.828C47.9817 268.533 49.3981 267.312 51.2516 266.242C58.6656 261.962 70.329 261.631 78.4211 265.247L86.4378 257.713L98.7793 257.909C98.1765 257.517 97.5436 257.11 96.8806 256.733C79.7321 246.833 51.9147 246.833 34.7661 256.733C31.6167 258.557 29.0399 260.591 27.0508 262.746L33.5003 269.618Z" fill="#0A5DA4"/>
<path d="M98.7644 238.319V257.894L86.4229 257.713V238.123L98.7644 238.319Z" fill="#0076DA"/>
<path d="M78.4062 245.658V265.248L86.423 257.713V238.123L78.4062 245.658Z" fill="#0A5DA4"/>
<path d="M46.9882 250.239V269.828L64.7395 255.362L78.4221 265.247V245.658L65.8244 239.555C65.8244 239.555 48.48 244.859 47.5909 245.085C46.6717 245.311 46.9882 250.239 46.9882 250.239Z" fill="#0A5DA4"/>
<path d="M33.501 250.028V269.618L46.9878 269.828V250.239L33.501 250.028Z" fill="#0A5DA4"/>
<path d="M27.0361 243.156V262.731L33.5007 269.617V250.028L27.0361 243.156Z" fill="#0076DA"/>
<path d="M33.4993 250.028L46.9861 250.239C47.9807 248.943 49.3972 247.722 51.2506 246.652C58.6646 242.373 70.328 242.041 78.4201 245.658L86.4368 238.123L98.7783 238.319C98.1756 237.927 97.5427 237.52 96.8796 237.144C79.7311 227.243 51.9137 227.243 34.7651 237.144C31.6157 238.967 29.0389 241.001 27.0498 243.156L33.4993 250.028Z" fill="url(#paint0_linear)"/>
<path d="M82.4746 248.069V266.076L94.1531 263.273C94.1531 263.273 93.475 252.74 93.2188 252.454C92.9627 252.167 82.4746 248.069 82.4746 248.069Z" fill="#5793CE"/>
<path d="M73.6289 266.076V285.666L74.8947 287.007L83.1224 282.26C83.1224 282.26 81.8415 267.312 81.6908 267.01C81.5552 266.709 73.6289 266.076 73.6289 266.076Z" fill="#214D94"/>
<path d="M89.5267 261.013L82.4744 267.658C88.3513 272.315 87.6582 278.87 80.3798 283.074C78.3907 284.219 76.0852 285.093 73.6289 285.666L80.9223 293.441L74.4577 299.514C82.6703 298.565 90.4911 296.259 96.8653 292.583C111.603 284.069 113.667 271.019 103.059 261.224L89.5267 261.013Z" fill="#437FEC"/>
<path d="M74.4727 279.925V299.514L90.476 293.336L109.719 274.967L109.659 254.172L89.2855 270.311L74.4727 279.925Z" fill="#437FEC"/>
<path d="M89.5267 241.423L82.4744 248.069C88.3513 252.725 87.6582 259.28 80.3798 263.484C78.3907 264.63 76.0852 265.504 73.6289 266.076L80.9223 273.852L74.4577 279.925C82.6703 278.975 90.4911 276.67 96.8653 272.993C111.603 264.479 113.667 251.429 103.059 241.634L89.5267 241.423Z" fill="#B9CFFE"/>
<path d="M74.4128 293.336L67.9784 286.48C62.0111 286.841 55.8177 285.711 51.2367 283.059C46.505 280.331 44.5611 276.609 45.3899 273.053L30.0798 272.812L24.1878 266.543C19.0342 275.389 22.5453 285.53 34.7512 292.583C43.7173 297.751 55.5917 300.223 67.3304 299.981L74.4128 293.336Z" fill="#437FEC"/>
<path d="M67.3311 280.407V299.997L21.9131 274.816V255.212L28.5435 257.894L67.3311 280.407Z" fill="#437FEC"/>
<path d="M74.4135 273.746V293.336L67.3311 299.997V280.407L74.4135 273.746Z" fill="#214D94"/>
<path d="M74.4128 273.746L67.9784 266.89C62.0111 267.252 55.8177 266.122 51.2367 263.469C46.505 260.742 44.5611 257.02 45.3899 253.464L30.0798 253.222L24.1878 246.954C19.0342 255.799 22.5453 265.941 34.7512 272.993C43.7173 278.162 55.5917 280.633 67.3304 280.392L74.4128 273.746Z" fill="url(#paint1_linear)"/>
<path d="M75.662 98.8303C71.9928 98.8303 69 95.8375 69 92.1683C69 88.4991 71.9928 85.5063 75.662 85.5063C79.3312 85.5063 82.3239 88.4991 82.3239 92.1683C82.3239 95.8375 79.3312 98.8303 75.662 98.8303ZM75.662 87.5562C73.1202 87.5562 71.0498 89.6265 71.0498 92.1683C71.0498 94.7101 73.1202 96.7805 75.662 96.7805C78.2038 96.7805 80.2741 94.7101 80.2741 92.1683C80.2741 89.6265 78.2038 87.5562 75.662 87.5562Z" fill="#5793CE"/>
<path d="M294.914 71.4691L266.863 55.2718C266.307 54.9466 265.803 54.9361 265.415 55.1564V55.1355L262.698 56.709C262.698 56.709 263.905 57.1496 264.608 57.4119V77.8368C264.608 79.4943 265.615 81.4245 266.863 82.1483L293.677 97.6322V100.024L296.425 98.44L296.415 98.4295C296.876 98.1463 297.18 97.5273 297.18 96.6356V75.7806C297.17 74.1232 296.163 72.1929 294.914 71.4691Z" fill="#0A5DA4"/>
<path d="M292.145 99.9398L264.093 83.7425C262.845 83.0187 261.838 81.0885 261.838 79.431V58.576C261.838 56.9185 262.845 56.1527 264.093 56.866L292.145 73.0633C293.393 73.7871 294.4 75.7174 294.4 77.3748V98.2298C294.4 99.8978 293.393 100.664 292.145 99.9398Z" fill="url(#paint2_linear)"/>
<path d="M273.525 76.5566C273.525 77.763 272.675 78.2561 271.636 77.6476C270.587 77.0392 269.748 75.581 269.748 74.3746C269.748 73.1682 270.598 72.6752 271.636 73.2836C272.685 73.8816 273.525 75.3502 273.525 76.5566Z" fill="white"/>
<path d="M279.264 79.8713C279.264 81.0777 278.414 81.5708 277.376 80.9623C276.327 80.3539 275.487 78.8957 275.487 77.6893C275.487 76.4829 276.337 75.9899 277.376 76.5983C278.414 77.1963 279.264 78.6649 279.264 79.8713Z" fill="white"/>
<path d="M284.991 83.176C284.991 84.3824 284.142 84.8755 283.103 84.267C282.054 83.6586 281.215 82.2004 281.215 80.994C281.215 79.7876 282.065 79.2946 283.103 79.903C284.152 80.501 284.991 81.9696 284.991 83.176Z" fill="white"/>
<path d="M143.777 58.1398L116.26 42.2572C115.715 41.9425 115.222 41.932 114.834 42.1418V42.1209L112.169 43.663C112.169 43.663 113.354 44.0931 114.047 44.3448V64.3816C114.047 66.0076 115.033 67.9064 116.26 68.6092L142.56 83.7994V86.1492L145.256 84.5966L145.245 84.5862C145.696 84.3134 145.99 83.6945 145.99 82.8238V62.3674C145.99 60.7414 144.994 58.8426 143.777 58.1398Z" fill="#5793CE"/>
<path d="M141.06 86.0761L113.544 70.1831C112.316 69.4802 111.33 67.5814 111.33 65.9554V45.4991C111.33 43.873 112.316 43.1177 113.544 43.8206L141.06 59.7031C142.287 60.406 143.273 62.3047 143.273 63.9308V84.3871C143.273 86.0341 142.277 86.7789 141.06 86.0761Z" fill="#D4ECFF"/>
<path d="M122.797 63.1329C122.797 64.3183 121.968 64.8009 120.94 64.2029C119.912 63.6155 119.083 62.1678 119.083 60.9824C119.083 59.7969 119.912 59.3144 120.94 59.9123C121.968 60.5103 122.797 61.9475 122.797 63.1329Z" fill="white"/>
<path d="M128.42 66.3853C128.42 67.5708 127.591 68.0533 126.563 67.4554C125.535 66.8679 124.706 65.4202 124.706 64.2348C124.706 63.0494 125.535 62.5668 126.563 63.1648C127.591 63.7522 128.42 65.1999 128.42 66.3853Z" fill="white"/>
<path d="M134.044 69.6263C134.044 70.8117 133.215 71.2943 132.187 70.6963C131.159 70.1089 130.33 68.6612 130.33 67.4758C130.33 66.2904 131.159 65.8078 132.187 66.4058C133.215 67.0037 134.044 68.4409 134.044 69.6263Z" fill="white"/>
<path d="M353.409 301.012L372.568 289.94L391.744 301.012L372.568 312.084L353.409 301.012Z" fill="#D4ECFF"/>
<path d="M394.096 277.201L413.272 266.145L432.431 277.201L413.272 288.273L394.096 277.201Z" fill="#D4ECFF"/>
<path d="M434.665 253.973L453.841 242.901L473 253.973L453.841 265.028L434.665 253.973Z" fill="#D4ECFF"/>
<path d="M413.272 277.201V218.172L394.096 207.117V266.145L413.272 277.201Z" fill="#C13D1A"/>
<path d="M413.271 218.172L432.431 207.117V266.145L413.271 277.201V218.172Z" fill="url(#paint3_linear)"/>
<path d="M413.272 277.201V218.172L394.096 207.117V266.145L413.272 277.201Z" fill="url(#paint4_linear)"/>
<path d="M372.568 301.012V267.813L353.409 256.741V289.94L372.568 301.012Z" fill="url(#paint5_linear)"/>
<path d="M372.569 267.813L391.745 256.741V289.94L372.569 301.012V267.813Z" fill="url(#paint6_linear)"/>
<path d="M353.409 256.741L372.568 245.669L391.744 256.741L372.568 267.813L353.409 256.741Z" fill="#B9CFFE"/>
<path d="M453.841 253.973V172.801L434.665 161.729V242.901L453.841 253.973Z" fill="url(#paint7_linear)"/>
<path d="M453.841 172.801L473 161.729V242.901L453.841 253.973V172.801Z" fill="url(#paint8_linear)"/>
<path d="M434.665 161.728L453.841 150.656L473 161.728L453.841 172.8L434.665 161.728Z" fill="#B9CFFE"/>
<path d="M394.096 207.117L413.272 196.045L432.431 207.117L413.272 218.172L394.096 207.117Z" fill="#B9CFFE"/>
<defs>
<linearGradient id="paint0_linear" x1="27.0498" y1="229.718" x2="93.9449" y2="260.681" gradientUnits="userSpaceOnUse">
<stop stop-color="#538DFF"/>
<stop offset="1" stop-color="#865BFF"/>
</linearGradient>
<linearGradient id="paint1_linear" x1="21.8896" y1="246.954" x2="78.9036" y2="258.806" gradientUnits="userSpaceOnUse">
<stop stop-color="#538DFF"/>
<stop offset="1" stop-color="#865BFF"/>
</linearGradient>
<linearGradient id="paint2_linear" x1="261.838" y1="56.5991" x2="298.355" y2="60.2093" gradientUnits="userSpaceOnUse">
<stop stop-color="#538DFF"/>
<stop offset="1" stop-color="#865BFF"/>
</linearGradient>
<linearGradient id="paint3_linear" x1="413.271" y1="207.117" x2="434.939" y2="207.901" gradientUnits="userSpaceOnUse">
<stop stop-color="#538DFF"/>
<stop offset="1" stop-color="#865BFF"/>
</linearGradient>
<linearGradient id="paint4_linear" x1="394.096" y1="207.117" x2="415.782" y2="207.903" gradientUnits="userSpaceOnUse">
<stop stop-color="#538DFF"/>
<stop offset="1" stop-color="#865BFF"/>
</linearGradient>
<linearGradient id="paint5_linear" x1="353.409" y1="256.741" x2="375.034" y2="257.98" gradientUnits="userSpaceOnUse">
<stop stop-color="#538DFF"/>
<stop offset="1" stop-color="#865BFF"/>
</linearGradient>
<linearGradient id="paint6_linear" x1="372.569" y1="256.741" x2="394.213" y2="257.982" gradientUnits="userSpaceOnUse">
<stop stop-color="#538DFF"/>
<stop offset="1" stop-color="#865BFF"/>
</linearGradient>
<linearGradient id="paint7_linear" x1="434.665" y1="161.729" x2="456.364" y2="162.326" gradientUnits="userSpaceOnUse">
<stop stop-color="#538DFF"/>
<stop offset="1" stop-color="#865BFF"/>
</linearGradient>
<linearGradient id="paint8_linear" x1="453.841" y1="161.729" x2="475.521" y2="162.325" gradientUnits="userSpaceOnUse">
<stop stop-color="#538DFF"/>
<stop offset="1" stop-color="#865BFF"/>
</linearGradient>
</defs>
</svg>
