<svg width="392" height="354" viewBox="0 0 392 354" fill="none" xmlns="http://www.w3.org/2000/svg">
<path opacity="0.13" d="M192.746 175.719C196.038 173.818 201.432 173.818 204.723 175.719L381.645 277.913C384.937 279.815 384.937 282.931 381.645 284.832L264.372 352.57C261.08 354.472 255.686 354.472 252.395 352.57L75.4729 250.376C72.1809 248.474 72.1809 245.359 75.4729 243.457L192.746 175.719Z" fill="black"/>
<path d="M192.746 154.055C196.038 152.153 201.432 152.153 204.723 154.055L381.645 256.249C384.937 258.15 384.937 261.266 381.645 263.168L264.372 330.905C261.08 332.807 255.686 332.807 252.395 330.905L75.4729 228.711C72.1809 226.81 72.1809 223.694 75.4729 221.792L192.746 154.055Z" fill="url(#paint0_linear)"/>
<path d="M384.118 259.712V266.546C384.157 267.829 383.33 269.113 381.645 270.087L264.372 337.824C261.08 339.726 255.686 339.726 252.395 337.824L75.4728 235.631C73.8268 234.68 73 233.427 73 232.175L73.0077 225.395C73.0077 225.372 73.0077 225.349 73.0077 225.325C73.0386 226.555 73.8578 227.776 75.4728 228.711L252.402 330.905C255.694 332.807 261.088 332.807 264.38 330.905L381.653 263.168C383.314 262.209 384.141 260.941 384.126 259.673V259.712H384.118Z" fill="url(#paint1_linear)"/>
<path d="M198.295 8.02706C198.295 4.22349 200.992 2.66959 204.284 4.57138L381.213 106.758C384.505 108.659 387.202 113.329 387.202 117.132V252.607C387.202 256.411 384.505 257.973 381.213 256.063L204.284 153.877C200.992 151.975 198.295 147.306 198.295 143.502V8.02706Z" fill="url(#paint2_linear)"/>
<path d="M376.421 243.617C377.742 244.374 378.816 243.756 378.816 242.233V117.828C378.816 116.305 377.734 114.442 376.421 113.677L209.073 17.018C207.752 16.2604 206.678 16.8789 206.678 18.4018V142.806C206.678 144.329 207.752 146.193 209.073 146.958L376.421 243.617Z" fill="url(#paint3_linear)"/>
<path d="M134.433 200.479C133.768 200.857 133.768 201.476 134.425 201.862L298.589 296.681C299.246 297.06 300.328 297.068 300.992 296.681L366.545 259.14C367.209 258.761 367.209 258.143 366.552 257.756L202.389 162.945C201.732 162.567 200.65 162.559 199.986 162.945L134.433 200.479Z" fill="url(#paint4_linear)"/>
<path d="M336.409 261.799C335.752 262.178 335.752 262.804 336.409 263.183L343.703 267.397C344.36 267.775 345.442 267.775 346.099 267.397L353.394 263.183C354.051 262.804 354.051 262.178 353.394 261.799L346.099 257.586C345.442 257.207 344.36 257.207 343.703 257.586L336.409 261.799Z" fill="url(#paint5_linear)"/>
<path d="M325.25 255.352C324.594 255.731 324.594 256.349 325.25 256.736L332.545 260.949C333.202 261.328 334.284 261.328 334.941 260.949L342.236 256.736C342.892 256.357 342.892 255.731 342.236 255.352L334.941 251.139C334.284 250.76 333.202 250.76 332.545 251.139L325.25 255.352Z" fill="url(#paint6_linear)"/>
<path d="M314.082 248.904C313.426 249.283 313.426 249.909 314.082 250.288L321.377 254.502C322.034 254.88 323.116 254.88 323.773 254.502L331.068 250.288C331.724 249.909 331.724 249.283 331.068 248.904L323.773 244.691C323.116 244.312 322.034 244.312 321.377 244.691L314.082 248.904Z" fill="url(#paint7_linear)"/>
<path d="M302.924 242.465C302.267 242.843 302.267 243.47 302.924 243.848L310.219 248.062C310.876 248.44 311.958 248.44 312.615 248.062L319.909 243.848C320.566 243.47 320.566 242.843 319.909 242.465L312.615 238.251C311.958 237.872 310.876 237.872 310.219 238.251L302.924 242.465Z" fill="url(#paint8_linear)"/>
<path d="M291.766 236.017C291.109 236.396 291.109 237.022 291.766 237.401L299.061 241.614C299.718 241.993 300.8 241.993 301.456 241.614L308.751 237.401C309.408 237.022 309.408 236.396 308.751 236.017L301.456 231.804C300.8 231.425 299.718 231.425 299.061 231.804L291.766 236.017Z" fill="url(#paint9_linear)"/>
<path d="M280.608 229.57C279.951 229.948 279.951 230.575 280.608 230.953L287.903 235.167C288.559 235.545 289.641 235.545 290.298 235.167L297.593 230.953C298.25 230.575 298.25 229.948 297.593 229.57L290.298 225.356C289.641 224.977 288.559 224.977 287.903 225.356L280.608 229.57Z" fill="url(#paint10_linear)"/>
<path d="M269.45 223.122C268.793 223.501 268.793 224.127 269.45 224.506L276.744 228.719C277.401 229.098 278.483 229.098 279.14 228.719L286.435 224.506C287.092 224.127 287.092 223.501 286.435 223.122L279.14 218.909C278.483 218.53 277.401 218.53 276.744 218.909L269.45 223.122Z" fill="url(#paint11_linear)"/>
<path d="M258.291 216.675C257.627 217.053 257.627 217.68 258.291 218.058L265.586 222.272C266.243 222.65 267.325 222.65 267.982 222.272L275.276 218.058C275.933 217.68 275.933 217.053 275.276 216.675L267.982 212.461C267.325 212.082 266.243 212.082 265.586 212.461L258.291 216.675Z" fill="url(#paint12_linear)"/>
<path d="M247.123 210.227C246.467 210.606 246.467 211.232 247.123 211.611L254.418 215.824C255.075 216.203 256.157 216.203 256.814 215.824L264.109 211.611C264.765 211.232 264.765 210.614 264.109 210.227L256.814 206.014C256.157 205.635 255.075 205.635 254.418 206.014L247.123 210.227Z" fill="url(#paint13_linear)"/>
<path d="M235.965 203.787C235.308 204.166 235.308 204.792 235.965 205.171L243.26 209.384C243.917 209.763 244.999 209.763 245.656 209.384L252.95 205.171C253.607 204.792 253.607 204.166 252.95 203.787L245.656 199.574C244.999 199.195 243.917 199.195 243.26 199.574L235.965 203.787Z" fill="url(#paint14_linear)"/>
<path d="M224.807 197.34C224.15 197.719 224.15 198.345 224.807 198.724L232.102 202.937C232.759 203.316 233.841 203.316 234.497 202.937L241.792 198.724C242.449 198.345 242.449 197.719 241.792 197.34L234.497 193.126C233.841 192.748 232.759 192.748 232.102 193.126L224.807 197.34Z" fill="url(#paint15_linear)"/>
<path d="M213.649 190.892C212.992 191.271 212.992 191.897 213.649 192.276L220.944 196.489C221.6 196.868 222.682 196.868 223.339 196.489L230.634 192.276C231.291 191.897 231.291 191.271 230.634 190.892L223.339 186.679C222.682 186.3 221.6 186.3 220.944 186.679L213.649 190.892Z" fill="url(#paint16_linear)"/>
<path d="M202.491 184.445C201.834 184.823 201.834 185.45 202.491 185.829L209.785 190.042C210.442 190.421 211.524 190.421 212.181 190.042L219.476 185.829C220.133 185.45 220.133 184.823 219.476 184.445L212.181 180.231C211.524 179.853 210.442 179.853 209.785 180.231L202.491 184.445Z" fill="url(#paint17_linear)"/>
<path d="M347.088 255.228C346.431 255.607 346.431 256.233 347.088 256.612L354.731 261.026C355.388 261.405 356.47 261.405 357.126 261.026L360.372 259.155C361.029 258.777 361.029 258.15 360.372 257.772L352.729 253.357C352.073 252.979 350.991 252.979 350.334 253.357L347.088 255.228Z" fill="url(#paint18_linear)"/>
<path d="M335.528 248.549C334.871 248.928 334.871 249.554 335.528 249.933L343.17 254.347C343.827 254.726 344.909 254.726 345.566 254.347L348.811 252.476C349.468 252.097 349.468 251.471 348.811 251.092L341.169 246.678C340.512 246.299 339.43 246.299 338.773 246.678L335.528 248.549Z" fill="url(#paint19_linear)"/>
<path d="M323.967 241.869C323.31 242.248 323.31 242.874 323.967 243.253L331.61 247.667C332.267 248.046 333.348 248.046 334.005 247.667L337.243 245.797C337.9 245.418 337.9 244.792 337.243 244.413L329.601 239.998C328.944 239.62 327.862 239.62 327.205 239.998L323.967 241.869Z" fill="url(#paint20_linear)"/>
<path d="M312.407 235.19C311.75 235.569 311.75 236.195 312.407 236.574L320.049 240.988C320.706 241.367 321.788 241.367 322.445 240.988L325.69 239.117C326.347 238.738 326.347 238.112 325.69 237.733L318.048 233.319C317.391 232.94 316.309 232.94 315.652 233.319L312.407 235.19Z" fill="url(#paint21_linear)"/>
<path d="M300.838 228.51C300.181 228.889 300.181 229.515 300.838 229.894L308.481 234.309C309.138 234.687 310.22 234.687 310.876 234.309L314.122 232.438C314.779 232.059 314.779 231.433 314.122 231.054L306.479 226.64C305.823 226.261 304.741 226.261 304.084 226.64L300.838 228.51Z" fill="url(#paint22_linear)"/>
<path d="M289.278 221.831C288.621 222.21 288.621 222.836 289.278 223.215L296.92 227.629C297.577 228.008 298.659 228.008 299.316 227.629L302.561 225.758C303.218 225.379 303.218 224.753 302.561 224.374L294.919 219.96C294.262 219.581 293.18 219.581 292.523 219.96L289.278 221.831Z" fill="url(#paint23_linear)"/>
<path d="M277.717 215.159C277.06 215.538 277.06 216.164 277.717 216.543L285.36 220.957C286.017 221.336 287.098 221.336 287.755 220.957L291.001 219.087C291.658 218.708 291.658 218.081 291.001 217.703L283.358 213.288C282.701 212.91 281.62 212.91 280.963 213.288L277.717 215.159Z" fill="url(#paint24_linear)"/>
<path d="M266.157 208.48C265.5 208.859 265.5 209.485 266.157 209.864L273.799 214.278C274.456 214.657 275.538 214.657 276.195 214.278L279.44 212.407C280.097 212.028 280.097 211.402 279.44 211.023L271.798 206.609C271.141 206.23 270.059 206.23 269.402 206.609L266.157 208.48Z" fill="url(#paint25_linear)"/>
<path d="M254.588 201.8C253.931 202.179 253.931 202.805 254.588 203.184L262.231 207.598C262.888 207.977 263.97 207.977 264.626 207.598L267.872 205.728C268.529 205.349 268.529 204.723 267.872 204.344L260.229 199.929C259.573 199.551 258.491 199.551 257.834 199.929L254.588 201.8Z" fill="url(#paint26_linear)"/>
<path d="M243.028 195.121C242.371 195.5 242.371 196.126 243.028 196.505L250.67 200.919C251.327 201.298 252.409 201.298 253.066 200.919L256.304 199.048C256.961 198.669 256.961 198.043 256.304 197.664L248.661 193.25C248.004 192.871 246.922 192.871 246.266 193.25L243.028 195.121Z" fill="url(#paint27_linear)"/>
<path d="M231.469 188.441C230.812 188.82 230.812 189.446 231.469 189.825L239.112 194.24C239.769 194.618 240.85 194.618 241.507 194.24L244.753 192.369C245.41 191.99 245.41 191.364 244.753 190.985L237.11 186.571C236.453 186.192 235.372 186.192 234.715 186.571L231.469 188.441Z" fill="url(#paint28_linear)"/>
<path d="M219.909 181.762C219.252 182.141 219.252 182.767 219.909 183.146L227.551 187.56C228.208 187.939 229.29 187.939 229.947 187.56L233.192 185.689C233.849 185.311 233.849 184.684 233.192 184.306L225.55 179.891C224.893 179.512 223.811 179.512 223.154 179.891L219.909 181.762Z" fill="url(#paint29_linear)"/>
<path d="M208.348 175.083C207.691 175.461 207.691 176.088 208.348 176.466L215.991 180.881C216.647 181.26 217.729 181.26 218.386 180.881L221.632 179.01C222.289 178.631 222.289 178.005 221.632 177.626L213.989 173.212C213.332 172.833 212.251 172.833 211.594 173.212L208.348 175.083Z" fill="url(#paint30_linear)"/>
<path d="M196.748 168.388C196.092 168.767 196.092 169.393 196.748 169.772L204.391 174.186C205.048 174.565 206.13 174.565 206.787 174.186L210.032 172.315C210.689 171.936 210.689 171.31 210.032 170.931L202.39 166.517C201.733 166.138 200.651 166.138 199.994 166.517L196.748 168.388Z" fill="url(#paint31_linear)"/>
<path d="M185.721 174.758C185.064 175.137 185.064 175.763 185.721 176.142L198.595 183.579C199.252 183.958 200.334 183.958 200.991 183.579L208.286 179.365C208.942 178.987 208.942 178.36 208.286 177.982L195.411 170.545C194.755 170.166 193.673 170.166 193.016 170.545L185.721 174.758Z" fill="url(#paint32_linear)"/>
<path d="M291.659 287.644C291.002 288.022 291.002 288.649 291.659 289.027L298.953 293.241C299.61 293.619 300.692 293.619 301.349 293.241L308.644 289.027C309.301 288.649 309.301 288.022 308.644 287.644L301.349 283.43C300.692 283.051 299.61 283.051 298.953 283.43L291.659 287.644Z" fill="url(#paint33_linear)"/>
<path d="M280.498 281.196C279.842 281.575 279.842 282.201 280.498 282.58L287.793 286.793C288.45 287.172 289.532 287.172 290.189 286.793L297.484 282.58C298.14 282.201 298.14 281.575 297.484 281.196L290.189 276.983C289.532 276.604 288.45 276.604 287.793 276.983L280.498 281.196Z" fill="url(#paint34_linear)"/>
<path d="M269.34 274.756C268.683 275.135 268.683 275.761 269.34 276.14L276.635 280.353C277.292 280.732 278.374 280.732 279.031 280.353L286.325 276.14C286.982 275.761 286.982 275.135 286.325 274.756L279.031 270.543C278.374 270.164 277.292 270.164 276.635 270.543L269.34 274.756Z" fill="url(#paint35_linear)"/>
<path d="M157.809 203.772C157.152 204.151 157.152 204.777 157.809 205.156L165.104 209.369C165.761 209.748 166.843 209.748 167.499 209.369L169.215 208.379C169.872 208 169.872 207.374 169.215 206.995L161.92 202.782C161.263 202.403 160.181 202.403 159.525 202.782L157.809 203.772Z" fill="url(#paint36_linear)"/>
<path d="M163.295 213.497C162.639 213.876 162.639 214.494 163.295 214.881L170.59 219.094C171.247 219.473 172.329 219.473 172.986 219.094L174.701 218.105C175.358 217.726 175.358 217.1 174.701 216.721L167.406 212.508C166.75 212.129 165.668 212.129 165.011 212.508L163.295 213.497Z" fill="url(#paint37_linear)"/>
<path d="M152.129 207.05C151.473 207.428 151.473 208.055 152.129 208.433L159.424 212.647C160.081 213.026 161.163 213.026 161.82 212.647L163.535 211.657C164.192 211.278 164.192 210.652 163.535 210.273L156.24 206.06C155.584 205.681 154.502 205.681 153.845 206.06L152.129 207.05Z" fill="url(#paint38_linear)"/>
<path d="M140.971 200.602C140.314 200.981 140.314 201.607 140.971 201.986L148.266 206.199C148.923 206.578 150.005 206.578 150.661 206.199L152.385 205.202C153.042 204.823 153.042 204.197 152.385 203.818L145.09 199.605C144.425 199.226 143.351 199.226 142.694 199.605L140.971 200.602Z" fill="url(#paint39_linear)"/>
<path d="M258.182 268.309C257.525 268.687 257.525 269.314 258.182 269.692L265.477 273.906C266.134 274.285 267.216 274.285 267.872 273.906L275.167 269.692C275.824 269.314 275.824 268.687 275.167 268.309L267.872 264.095C267.216 263.717 266.134 263.717 265.477 264.095L258.182 268.309Z" fill="url(#paint40_linear)"/>
<path d="M196.756 232.824C196.099 233.203 196.099 233.829 196.756 234.208L254.311 267.451C254.968 267.83 256.05 267.83 256.706 267.451L264.001 263.237C264.658 262.859 264.658 262.232 264.001 261.854L206.447 228.611C205.79 228.232 204.708 228.232 204.051 228.611L196.756 232.824Z" fill="url(#paint41_linear)"/>
<path d="M185.629 226.4C184.973 226.779 184.973 227.405 185.629 227.784L192.924 231.997C193.581 232.376 194.663 232.376 195.32 231.997L202.614 227.784C203.271 227.405 203.271 226.779 202.614 226.4L195.32 222.187C194.663 221.808 193.581 221.808 192.924 222.187L185.629 226.4Z" fill="url(#paint42_linear)"/>
<path d="M174.461 219.952C173.805 220.331 173.805 220.957 174.461 221.336L181.756 225.549C182.413 225.928 183.495 225.928 184.152 225.549L191.446 221.336C192.103 220.957 192.103 220.331 191.446 219.952L184.152 215.739C183.495 215.36 182.413 215.36 181.756 215.739L174.461 219.952Z" fill="url(#paint43_linear)"/>
<path d="M308.473 258.56C307.816 258.939 307.816 259.565 308.473 259.944L315.768 264.157C316.425 264.536 317.507 264.536 318.163 264.157L325.458 259.944C326.115 259.565 326.115 258.939 325.458 258.56L318.163 254.347C317.507 253.968 316.425 253.968 315.768 254.347L308.473 258.56Z" fill="url(#paint44_linear)"/>
<path d="M319.663 265.023C319.006 265.402 319.006 266.02 319.663 266.407L332.537 273.844C333.193 274.223 334.275 274.223 334.932 273.844L342.227 269.631C342.884 269.252 342.884 268.626 342.227 268.247L329.353 260.81C328.696 260.431 327.614 260.431 326.957 260.81L319.663 265.023Z" fill="url(#paint45_linear)"/>
<path d="M297.315 252.113C296.658 252.491 296.658 253.118 297.315 253.496L304.61 257.71C305.267 258.089 306.348 258.089 307.005 257.71L314.3 253.496C314.957 253.118 314.957 252.491 314.3 252.113L307.005 247.899C306.348 247.521 305.267 247.521 304.61 247.899L297.315 252.113Z" fill="url(#paint46_linear)"/>
<path d="M286.157 245.665C285.5 246.044 285.5 246.67 286.157 247.049L293.451 251.262C294.108 251.641 295.19 251.641 295.847 251.262L303.142 247.049C303.799 246.67 303.799 246.044 303.142 245.665L295.847 241.452C295.19 241.073 294.108 241.073 293.451 241.452L286.157 245.665Z" fill="url(#paint47_linear)"/>
<path d="M274.997 239.218C274.34 239.596 274.34 240.223 274.997 240.601L282.291 244.815C282.948 245.194 284.03 245.194 284.687 244.815L291.982 240.601C292.639 240.223 292.639 239.596 291.982 239.218L284.687 235.004C284.03 234.626 282.948 234.626 282.291 235.004L274.997 239.218Z" fill="url(#paint48_linear)"/>
<path d="M263.838 232.778C263.181 233.157 263.181 233.783 263.838 234.162L271.133 238.375C271.79 238.754 272.872 238.754 273.529 238.375L280.823 234.162C281.48 233.783 281.48 233.157 280.823 232.778L273.529 228.565C272.872 228.186 271.79 228.186 271.133 228.565L263.838 232.778Z" fill="url(#paint49_linear)"/>
<path d="M252.68 226.33C252.023 226.709 252.023 227.335 252.68 227.714L259.975 231.927C260.632 232.306 261.714 232.306 262.37 231.927L269.665 227.714C270.322 227.335 270.322 226.709 269.665 226.33L262.37 222.117C261.714 221.738 260.632 221.738 259.975 222.117L252.68 226.33Z" fill="url(#paint50_linear)"/>
<path d="M241.514 219.883C240.857 220.262 240.857 220.888 241.514 221.267L248.809 225.48C249.466 225.859 250.548 225.859 251.204 225.48L258.499 221.267C259.156 220.888 259.156 220.262 258.499 219.883L251.204 215.669C250.548 215.291 249.466 215.291 248.809 215.669L241.514 219.883Z" fill="url(#paint51_linear)"/>
<path d="M230.356 213.435C229.699 213.814 229.699 214.44 230.356 214.819L237.651 219.033C238.308 219.411 239.389 219.411 240.046 219.033L247.341 214.819C247.998 214.44 247.998 213.814 247.341 213.435L240.046 209.222C239.389 208.843 238.308 208.843 237.651 209.222L230.356 213.435Z" fill="url(#paint52_linear)"/>
<path d="M219.198 206.988C218.541 207.367 218.541 207.993 219.198 208.372L226.492 212.585C227.149 212.964 228.231 212.964 228.888 212.585L236.183 208.372C236.84 207.993 236.84 207.367 236.183 206.988L228.888 202.774C228.231 202.396 227.149 202.396 226.492 202.774L219.198 206.988Z" fill="url(#paint53_linear)"/>
<path d="M208.038 200.54C207.381 200.919 207.381 201.545 208.038 201.924L215.332 206.137C215.989 206.516 217.071 206.516 217.728 206.137L225.023 201.924C225.679 201.545 225.679 200.919 225.023 200.54L217.728 196.327C217.071 195.948 215.989 195.948 215.332 196.327L208.038 200.54Z" fill="url(#paint54_linear)"/>
<path d="M196.879 194.093C196.223 194.472 196.223 195.098 196.879 195.477L204.174 199.69C204.831 200.069 205.913 200.069 206.57 199.69L213.864 195.477C214.521 195.098 214.521 194.472 213.864 194.093L206.57 189.879C205.913 189.501 204.831 189.501 204.174 189.879L196.879 194.093Z" fill="url(#paint55_linear)"/>
<path d="M185.721 187.653C185.064 188.032 185.064 188.658 185.721 189.037L193.016 193.25C193.673 193.629 194.755 193.629 195.411 193.25L202.706 189.037C203.363 188.658 203.363 188.032 202.706 187.653L195.411 183.44C194.755 183.061 193.673 183.061 193.016 183.44L185.721 187.653Z" fill="url(#paint56_linear)"/>
<path d="M174.555 181.206C173.898 181.584 173.898 182.211 174.555 182.589L181.85 186.803C182.507 187.181 183.589 187.181 184.245 186.803L191.54 182.589C192.197 182.211 192.197 181.584 191.54 181.206L184.245 176.992C183.589 176.613 182.507 176.613 181.85 176.992L174.555 181.206Z" fill="url(#paint57_linear)"/>
<path d="M294.696 263.493C294.039 263.871 294.039 264.498 294.696 264.876L301.991 269.09C302.647 269.468 303.729 269.468 304.386 269.09L311.681 264.876C312.338 264.498 312.338 263.879 311.681 263.493L304.386 259.279C303.729 258.9 302.647 258.9 301.991 259.279L294.696 263.493Z" fill="url(#paint58_linear)"/>
<path d="M305.854 269.94C305.197 270.319 305.197 270.945 305.854 271.324L321.379 280.292C322.035 280.67 323.117 280.67 323.774 280.292L331.069 276.078C331.726 275.699 331.726 275.081 331.069 274.694L315.544 265.727C314.887 265.348 313.806 265.348 313.149 265.727L305.854 269.94Z" fill="url(#paint59_linear)"/>
<path d="M283.536 257.045C282.879 257.424 282.879 258.05 283.536 258.429L290.83 262.642C291.487 263.021 292.569 263.021 293.226 262.642L300.521 258.429C301.178 258.05 301.178 257.424 300.521 257.045L293.226 252.832C292.569 252.453 291.487 252.453 290.83 252.832L283.536 257.045Z" fill="url(#paint60_linear)"/>
<path d="M272.37 250.597C271.713 250.976 271.713 251.602 272.37 251.981L279.664 256.195C280.321 256.573 281.403 256.573 282.06 256.195L289.355 251.981C290.012 251.602 290.012 250.976 289.355 250.597L282.06 246.384C281.403 246.005 280.321 246.005 279.664 246.384L272.37 250.597Z" fill="url(#paint61_linear)"/>
<path d="M261.211 244.15C260.555 244.529 260.555 245.155 261.211 245.534L268.506 249.747C269.163 250.126 270.245 250.126 270.902 249.747L278.196 245.534C278.853 245.155 278.853 244.529 278.196 244.15L270.902 239.937C270.245 239.558 269.163 239.558 268.506 239.937L261.211 244.15Z" fill="url(#paint62_linear)"/>
<path d="M250.053 237.71C249.396 238.089 249.396 238.715 250.053 239.094L257.348 243.307C258.005 243.686 259.087 243.686 259.744 243.307L267.038 239.094C267.695 238.715 267.695 238.089 267.038 237.71L259.744 233.497C259.087 233.118 258.005 233.118 257.348 233.497L250.053 237.71Z" fill="url(#paint63_linear)"/>
<path d="M238.895 231.263C238.238 231.641 238.238 232.268 238.895 232.647L246.19 236.86C246.847 237.239 247.928 237.239 248.585 236.86L255.88 232.647C256.537 232.268 256.537 231.641 255.88 231.263L248.585 227.049C247.928 226.671 246.847 226.671 246.19 227.049L238.895 231.263Z" fill="url(#paint64_linear)"/>
<path d="M227.737 224.815C227.08 225.194 227.08 225.82 227.737 226.199L235.032 230.412C235.688 230.791 236.77 230.791 237.427 230.412L244.722 226.199C245.379 225.82 245.379 225.194 244.722 224.815L237.427 220.602C236.77 220.223 235.688 220.223 235.032 220.602L227.737 224.815Z" fill="url(#paint65_linear)"/>
<path d="M216.569 218.368C215.912 218.746 215.912 219.373 216.569 219.751L223.864 223.965C224.52 224.343 225.602 224.343 226.259 223.965L233.554 219.751C234.211 219.373 234.211 218.746 233.554 218.368L226.259 214.154C225.602 213.775 224.52 213.775 223.864 214.154L216.569 218.368Z" fill="url(#paint66_linear)"/>
<path d="M205.411 211.92C204.754 212.299 204.754 212.925 205.411 213.304L212.705 217.517C213.362 217.896 214.444 217.896 215.101 217.517L222.396 213.304C223.053 212.925 223.053 212.299 222.396 211.92L215.101 207.707C214.444 207.328 213.362 207.328 212.705 207.707L205.411 211.92Z" fill="url(#paint67_linear)"/>
<path d="M194.252 205.473C193.596 205.851 193.596 206.478 194.252 206.856L201.547 211.07C202.204 211.448 203.286 211.448 203.943 211.07L211.238 206.856C211.894 206.478 211.894 205.851 211.238 205.473L203.943 201.259C203.286 200.88 202.204 200.88 201.547 201.259L194.252 205.473Z" fill="url(#paint68_linear)"/>
<path d="M183.094 199.025C182.437 199.404 182.437 200.03 183.094 200.409L190.389 204.622C191.046 205.001 192.128 205.001 192.785 204.622L200.079 200.409C200.736 200.03 200.736 199.404 200.079 199.025L192.785 194.812C192.128 194.433 191.046 194.433 190.389 194.812L183.094 199.025Z" fill="url(#paint69_linear)"/>
<path d="M163.397 187.653C162.74 188.032 162.74 188.658 163.397 189.037L179.223 198.182C179.88 198.561 180.962 198.561 181.618 198.182L188.913 193.969C189.57 193.59 189.57 192.964 188.913 192.585L173.087 183.44C172.43 183.061 171.349 183.061 170.692 183.44L163.397 187.653Z" fill="url(#paint70_linear)"/>
<path d="M277.84 266.647C277.183 267.025 277.183 267.652 277.84 268.031L285.135 272.244C285.792 272.623 286.874 272.623 287.531 272.244L294.825 268.031C295.482 267.652 295.482 267.033 294.825 266.647L287.531 262.433C286.874 262.055 285.792 262.055 285.135 262.433L277.84 266.647Z" fill="url(#paint71_linear)"/>
<path d="M289.022 273.11C288.365 273.488 288.365 274.115 289.022 274.493L310.219 286.739C310.875 287.118 311.957 287.118 312.614 286.739L319.909 282.526C320.566 282.147 320.566 281.521 319.909 281.142L298.72 268.904C298.063 268.525 296.981 268.525 296.324 268.904L289.022 273.11Z" fill="url(#paint72_linear)"/>
<path d="M266.682 260.207C266.025 260.586 266.025 261.212 266.682 261.591L273.977 265.804C274.634 266.183 275.716 266.183 276.372 265.804L283.667 261.591C284.324 261.212 284.324 260.586 283.667 260.207L276.372 255.994C275.716 255.615 274.634 255.615 273.977 255.994L266.682 260.207Z" fill="url(#paint73_linear)"/>
<path d="M255.524 253.759C254.867 254.138 254.867 254.764 255.524 255.143L262.819 259.356C263.476 259.735 264.557 259.735 265.214 259.356L272.509 255.143C273.166 254.764 273.166 254.138 272.509 253.759L265.214 249.546C264.557 249.167 263.476 249.167 262.819 249.546L255.524 253.759Z" fill="url(#paint74_linear)"/>
<path d="M244.366 247.312C243.709 247.691 243.709 248.317 244.366 248.696L251.66 252.909C252.317 253.288 253.399 253.288 254.056 252.909L261.351 248.696C262.008 248.317 262.008 247.691 261.351 247.312L254.056 243.099C253.399 242.72 252.317 242.72 251.66 243.099L244.366 247.312Z" fill="url(#paint75_linear)"/>
<path d="M233.2 240.864C232.543 241.243 232.543 241.869 233.2 242.248L240.494 246.461C241.151 246.84 242.233 246.84 242.89 246.461L250.185 242.248C250.842 241.869 250.842 241.243 250.185 240.864L242.89 236.651C242.233 236.272 241.151 236.272 240.494 236.651L233.2 240.864Z" fill="url(#paint76_linear)"/>
<path d="M222.041 234.417C221.385 234.796 221.385 235.422 222.041 235.801L229.336 240.014C229.993 240.393 231.075 240.393 231.732 240.014L239.027 235.801C239.683 235.422 239.683 234.796 239.027 234.417L231.732 230.204C231.075 229.825 229.993 229.825 229.336 230.204L222.041 234.417Z" fill="url(#paint77_linear)"/>
<path d="M210.881 227.969C210.224 228.348 210.224 228.974 210.881 229.353L218.176 233.566C218.833 233.945 219.915 233.945 220.572 233.566L227.866 229.353C228.523 228.974 228.523 228.348 227.866 227.969L220.572 223.756C219.915 223.377 218.833 223.377 218.176 223.756L210.881 227.969Z" fill="url(#paint78_linear)"/>
<path d="M199.723 221.53C199.066 221.908 199.066 222.535 199.723 222.913L207.018 227.127C207.675 227.505 208.757 227.505 209.413 227.127L216.708 222.913C217.365 222.535 217.365 221.908 216.708 221.53L209.413 217.316C208.757 216.937 207.675 216.937 207.018 217.316L199.723 221.53Z" fill="url(#paint79_linear)"/>
<path d="M188.565 215.082C187.908 215.461 187.908 216.087 188.565 216.466L195.86 220.679C196.517 221.058 197.598 221.058 198.255 220.679L205.55 216.466C206.207 216.087 206.207 215.461 205.55 215.082L198.255 210.869C197.598 210.49 196.517 210.49 195.86 210.869L188.565 215.082Z" fill="url(#paint80_linear)"/>
<path d="M177.407 208.634C176.75 209.013 176.75 209.639 177.407 210.018L184.701 214.232C185.358 214.61 186.44 214.61 187.097 214.232L194.392 210.018C195.049 209.639 195.049 209.013 194.392 208.634L187.097 204.421C186.44 204.042 185.358 204.042 184.701 204.421L177.407 208.634Z" fill="url(#paint81_linear)"/>
<path d="M152.239 194.093C151.582 194.472 151.582 195.098 152.239 195.477L173.536 207.776C174.193 208.155 175.274 208.155 175.931 207.776L183.226 203.563C183.883 203.184 183.883 202.558 183.226 202.179L161.929 189.879C161.272 189.501 160.19 189.501 159.534 189.879L152.239 194.093Z" fill="url(#paint82_linear)"/>
<path d="M142.842 258.985C142.185 259.364 142.185 259.99 142.842 260.369L197.592 291.996C198.249 292.375 199.33 292.375 199.987 291.996L239.823 268.989C240.48 268.61 240.48 267.984 239.823 267.605L185.073 235.986C184.416 235.607 183.334 235.607 182.678 235.986L142.842 258.985Z" fill="url(#paint83_linear)"/>
<path d="M387.201 252.607V117.132C387.201 113.329 384.505 108.659 381.213 106.758L204.283 4.56368C202.707 3.65144 201.269 3.54321 200.195 4.08437C200.211 4.07664 200.226 4.06118 200.249 4.05345L204.955 1.34766C206.03 0.775574 207.49 0.883805 209.082 1.81151L386.011 104.005C389.303 105.907 392 110.577 392 114.38V249.855C392 251.757 391.328 253.095 390.246 253.721L385.478 256.457C386.537 255.816 387.201 254.486 387.201 252.607Z" fill="url(#paint84_linear)"/>
<path opacity="0.4" d="M252.38 178.33L141.884 114.512C139.782 113.298 137.874 113.198 136.498 114.01L132.41 116.623L132.426 116.638C133.809 115.78 135.741 115.857 137.881 117.094L248.377 180.912C252.55 183.324 255.966 189.238 255.966 194.062V267.343C255.966 269.654 255.177 271.301 253.902 272.128L253.91 272.144L257.55 269.778C259.041 269.036 259.976 267.297 259.976 264.769V191.488C259.968 186.656 256.553 180.742 252.38 178.33Z" fill="white"/>
<path opacity="0.3" d="M132.812 116.429L193.126 205.628L253.439 186.1C252.095 183.92 250.317 182.025 248.37 180.905L137.882 117.086C135.934 115.965 134.165 115.803 132.812 116.429Z" fill="white"/>
<path opacity="0.25" d="M132.82 116.429C131.282 117.148 130.301 118.895 130.301 121.47V194.75C130.301 197.487 131.406 200.579 133.121 203.177L187.129 196.745L132.82 116.429Z" fill="white"/>
<path opacity="0.25" d="M199.137 203.687L253.144 272.507C254.86 271.889 255.965 270.072 255.965 267.335V194.055C255.965 191.48 254.984 188.604 253.446 186.107L199.137 203.687Z" fill="white"/>
<path opacity="0.2" d="M199.137 203.687L193.133 205.635L187.129 196.753L133.121 203.185C133.121 203.185 133.121 203.185 133.121 203.177C134.427 205.156 136.088 206.857 137.889 207.901L248.385 271.719C250.185 272.762 251.847 272.979 253.153 272.507L199.137 203.687Z" fill="white"/>
<g opacity="0.8">
<path opacity="0.4" d="M350.302 121.694L239.806 57.8759C237.704 56.6621 235.795 56.5616 234.42 57.3734L230.332 59.9864L230.347 60.0018C231.731 59.1437 233.663 59.221 235.803 60.458L346.299 124.276C350.472 126.688 353.887 132.602 353.887 137.426V210.707C353.887 213.018 353.099 214.665 351.824 215.492L351.832 215.508L355.464 213.142C356.955 212.4 357.89 210.66 357.89 208.132V134.852C357.89 130.02 354.475 124.106 350.302 121.694Z" fill="white"/>
<path opacity="0.2" d="M333.41 193.374V207.638L346.3 215.082C348.1 216.126 349.762 216.343 351.068 215.871L333.41 193.374Z" fill="white"/>
<path opacity="0.25" d="M351.36 129.471L327.621 137.156C330.928 140.008 333.409 144.902 333.409 148.999V193.367L351.066 215.863C352.782 215.245 353.887 213.428 353.887 210.691V137.411C353.879 134.844 352.906 131.968 351.36 129.471Z" fill="white"/>
<path opacity="0.25" d="M254.187 94.4813L230.734 59.8008C229.196 60.5197 228.215 62.2669 228.215 64.8413V79.4835L254.187 94.4813Z" fill="white"/>
<path opacity="0.3" d="M325.822 135.857C326.44 136.212 327.043 136.661 327.622 137.156L351.369 129.471C350.024 127.291 348.247 125.397 346.3 124.276L235.804 60.4502C233.856 59.3293 232.079 59.1669 230.734 59.7931L254.187 94.4814L325.822 135.857Z" fill="white"/>
</g>
<path opacity="0.4" d="M325.821 135.857L215.326 72.0387C213.224 70.825 211.315 70.7245 209.939 71.5362L205.852 74.1492L205.867 74.1647C207.25 73.3066 209.182 73.3839 211.323 74.6208L321.819 138.439C325.991 140.851 329.407 146.765 329.407 151.589V224.87C329.407 227.181 328.619 228.828 327.344 229.655L327.351 229.67L330.983 227.305C332.475 226.563 333.41 224.823 333.41 222.295V149.015C333.41 144.183 329.994 138.269 325.821 135.857Z" fill="white"/>
<path opacity="0.2" d="M308.93 207.529V221.793L321.819 229.237C323.62 230.281 325.281 230.498 326.587 230.026L308.93 207.529Z" fill="white"/>
<path opacity="0.25" d="M326.88 143.626L303.141 151.311C306.448 154.163 308.929 159.057 308.929 163.154V207.522L326.586 230.018C328.301 229.4 329.406 227.583 329.406 224.846V151.566C329.406 149.007 328.425 146.123 326.88 143.626Z" fill="white"/>
<path opacity="0.3" d="M301.341 150.012C301.959 150.368 302.562 150.816 303.142 151.311L326.888 143.626C325.544 141.446 323.766 139.552 321.819 138.431L211.323 74.6131C209.376 73.4921 207.598 73.3298 206.254 73.956L229.707 108.644L301.341 150.012Z" fill="white"/>
<path opacity="0.25" d="M229.707 108.636L206.254 73.9558C204.716 74.6748 203.734 76.4219 203.734 78.9963V93.6385L229.707 108.636Z" fill="white"/>
<path opacity="0.4" d="M301.341 150.012L190.845 86.194C188.743 84.9802 186.834 84.8797 185.459 85.6915L181.371 88.3045L181.387 88.32C182.77 87.4618 184.702 87.5391 186.842 88.7761L297.338 152.594C301.511 155.006 304.927 160.92 304.927 165.744V239.025C304.927 241.336 304.138 242.983 302.863 243.81L302.871 243.826L306.511 241.46C308.002 240.718 308.937 238.978 308.937 236.45V163.17C308.929 158.338 305.514 152.424 301.341 150.012Z" fill="white"/>
<path opacity="0.2" d="M284.449 221.692V235.956L297.339 243.4C299.139 244.444 300.801 244.661 302.107 244.189L284.449 221.692Z" fill="white"/>
<path opacity="0.25" d="M302.399 157.789L278.66 165.474C281.968 168.326 284.448 173.22 284.448 177.317V221.685L302.105 244.181C303.821 243.563 304.926 241.746 304.926 239.009V165.729C304.926 163.162 303.945 160.286 302.399 157.789Z" fill="white"/>
<path opacity="0.3" d="M276.861 164.175C277.479 164.53 278.082 164.979 278.661 165.474L302.408 157.789C301.063 155.609 299.286 153.715 297.339 152.594L186.843 88.7759C184.895 87.6549 183.118 87.4926 181.773 88.1188L205.226 122.807L276.861 164.175Z" fill="white"/>
<path opacity="0.25" d="M205.226 122.799L181.773 88.1189C180.235 88.8379 179.254 90.585 179.254 93.1594V107.802L205.226 122.799Z" fill="white"/>
<path opacity="0.4" d="M276.86 164.175L166.365 100.357C164.263 99.1431 162.354 99.0426 160.978 99.8543L156.891 102.467L156.906 102.483C158.289 101.625 160.221 101.702 162.362 102.939L272.858 166.757C277.03 169.169 280.446 175.083 280.446 179.907V253.188C280.446 255.499 279.658 257.146 278.383 257.973L278.391 257.989L282.03 255.623C283.522 254.881 284.457 253.141 284.457 250.613V177.333C284.449 172.501 281.033 166.579 276.86 164.175Z" fill="white"/>
<path opacity="0.2" d="M259.969 235.847V250.111L272.858 257.556C274.659 258.599 276.32 258.816 277.626 258.344L259.969 235.847Z" fill="white"/>
<path opacity="0.25" d="M277.926 171.944L254.188 179.629C257.495 182.481 259.975 187.375 259.975 191.472V235.84L277.633 258.336C279.348 257.718 280.453 255.901 280.453 253.164V179.884C280.446 177.325 279.464 174.441 277.926 171.944Z" fill="white"/>
<path opacity="0.3" d="M252.38 178.33C252.998 178.686 253.601 179.134 254.181 179.629L277.927 171.944C276.583 169.764 274.805 167.87 272.858 166.749L162.362 102.931C160.415 101.81 158.638 101.648 157.293 102.274L180.746 136.962L252.38 178.33Z" fill="white"/>
<path opacity="0.25" d="M180.746 136.954L157.293 102.274C155.755 102.993 154.773 104.74 154.773 107.314V121.957L180.746 136.954Z" fill="white"/>
<g opacity="0.7">
<path opacity="0.7" d="M255.964 267.227C255.964 272.051 252.548 274.022 248.375 271.61L137.879 207.792C133.707 205.38 130.291 199.466 130.291 194.642V121.361C130.291 116.537 133.707 114.566 137.879 116.978L248.375 180.796C252.548 183.208 255.964 189.122 255.964 193.946V267.227Z" fill="#A9D0E5"/>
<path opacity="0.7" d="M255.964 267.227C255.964 272.051 252.548 274.022 248.375 271.61L137.879 207.792C133.707 205.38 130.291 199.466 130.291 194.642V121.361C130.291 116.537 133.707 114.566 137.879 116.978L248.375 180.796C252.548 183.208 255.964 189.122 255.964 193.946V267.227Z" fill="url(#paint85_linear)"/>
<path opacity="0.7" d="M252.378 178.222L141.882 114.404C139.78 113.19 137.872 113.089 136.496 113.901L132.408 116.514L132.424 116.53C133.807 115.672 135.739 115.749 137.879 116.986L248.375 180.804C252.548 183.216 255.964 189.13 255.964 193.954V267.235C255.964 269.546 255.175 271.193 253.9 272.02L253.908 272.035L257.548 269.67C259.039 268.928 259.974 267.188 259.974 264.66V191.38C259.966 186.548 256.551 180.634 252.378 178.222Z" fill="url(#paint86_linear)"/>
<path opacity="0.7" d="M133.027 116.22C131.357 116.87 130.291 118.671 130.291 121.361V194.642C130.291 197.379 131.396 200.471 133.112 203.069L193.131 195.918L133.027 116.22Z" fill="url(#paint87_linear)"/>
<path opacity="0.7" d="M255.963 193.946C255.963 191.256 254.897 188.225 253.228 185.651L193.123 195.925L253.135 272.407C254.851 271.788 255.956 269.971 255.956 267.235L255.963 193.946Z" fill="url(#paint88_linear)"/>
<path opacity="0.7" d="M132.811 116.321L193.124 205.519L253.437 185.991C252.093 183.811 250.315 181.917 248.368 180.796L137.88 116.978C135.932 115.857 134.163 115.695 132.811 116.321Z" fill="url(#paint89_linear)"/>
</g>
<path d="M227.071 283.593C227.071 288.417 223.656 290.388 219.483 287.976L108.987 224.151C104.814 221.739 101.398 215.825 101.398 211V137.72C101.398 132.896 104.814 130.924 108.987 133.337L219.483 197.155C223.656 199.567 227.071 205.481 227.071 210.305V283.593Z" fill="#A9D0E5"/>
<path d="M227.071 283.593C227.071 288.417 223.656 290.388 219.483 287.976L108.987 224.151C104.814 221.739 101.398 215.825 101.398 211V137.72C101.398 132.896 104.814 130.924 108.987 133.337L219.483 197.155C223.656 199.567 227.071 205.481 227.071 210.305V283.593Z" fill="url(#paint90_linear)"/>
<path d="M223.485 194.588L112.99 130.77C110.888 129.556 108.979 129.456 107.603 130.267L103.516 132.88L103.531 132.896C104.914 132.038 106.846 132.115 108.987 133.352L219.483 197.17C223.655 199.582 227.071 205.496 227.071 210.32V283.601C227.071 285.912 226.283 287.559 225.008 288.386L225.016 288.402L228.655 286.036C230.147 285.294 231.082 283.554 231.082 281.026V207.746C231.074 202.914 227.658 197 223.485 194.588Z" fill="url(#paint91_linear)"/>
<path d="M104.134 132.587C102.465 133.236 101.398 135.037 101.398 137.728V211.008C101.398 213.745 102.503 216.837 104.219 219.435L164.239 212.284L104.134 132.587Z" fill="url(#paint92_linear)"/>
<path d="M227.071 210.313C227.071 207.622 226.004 204.592 224.335 202.017L164.23 212.292L224.242 288.773C225.958 288.154 227.063 286.338 227.063 283.601L227.071 210.313Z" fill="url(#paint93_linear)"/>
<path d="M103.918 132.687L164.231 221.886L224.545 202.357C223.2 200.177 221.423 198.283 219.475 197.162L108.987 133.344C107.04 132.223 105.263 132.061 103.918 132.687Z" fill="url(#paint94_linear)"/>
<g opacity="0.8">
<path opacity="0.4" d="M350.302 121.694L239.806 57.8759C237.704 56.6621 235.795 56.5616 234.42 57.3734L230.332 59.9864L230.347 60.0018C231.731 59.1437 233.663 59.221 235.803 60.458L346.299 124.276C350.472 126.688 353.887 132.602 353.887 137.426V210.707C353.887 213.018 353.099 214.665 351.824 215.492L351.832 215.508L355.464 213.142C356.955 212.4 357.89 210.66 357.89 208.132V134.852C357.89 130.02 354.475 124.106 350.302 121.694Z" fill="white"/>
<path opacity="0.2" d="M333.41 193.374V207.638L346.3 215.082C348.1 216.126 349.762 216.343 351.068 215.871L333.41 193.374Z" fill="white"/>
<path opacity="0.25" d="M351.36 129.471L327.621 137.156C330.928 140.008 333.409 144.902 333.409 148.999V193.367L351.066 215.863C352.782 215.245 353.887 213.428 353.887 210.691V137.411C353.879 134.844 352.906 131.968 351.36 129.471Z" fill="white"/>
<path opacity="0.25" d="M254.187 94.4813L230.734 59.8008C229.196 60.5197 228.215 62.2669 228.215 64.8413V79.4835L254.187 94.4813Z" fill="white"/>
<path opacity="0.3" d="M325.822 135.857C326.44 136.212 327.043 136.661 327.622 137.156L351.369 129.471C350.024 127.291 348.247 125.397 346.3 124.276L235.804 60.4502C233.856 59.3293 232.079 59.1669 230.734 59.7931L254.187 94.4814L325.822 135.857Z" fill="white"/>
</g>
<path opacity="0.4" d="M325.821 135.856L215.326 72.0385C213.224 70.8247 211.315 70.7242 209.939 71.536L205.852 74.149L205.867 74.1644C207.25 73.3063 209.182 73.3836 211.323 74.6206L321.819 138.439C325.991 140.851 329.407 146.765 329.407 151.589V224.869C329.407 227.181 328.619 228.827 327.344 229.655L327.351 229.67L330.983 227.305C332.475 226.562 333.41 224.823 333.41 222.295V149.014C333.41 144.183 329.994 138.269 325.821 135.856Z" fill="white"/>
<path opacity="0.2" d="M308.93 207.529V221.792L321.819 229.237C323.62 230.281 325.281 230.497 326.587 230.026L308.93 207.529Z" fill="white"/>
<path opacity="0.25" d="M326.88 143.626L303.141 151.31C306.448 154.163 308.929 159.057 308.929 163.154V207.521L326.586 230.018C328.301 229.4 329.406 227.583 329.406 224.846V151.566C329.406 149.007 328.425 146.123 326.88 143.626Z" fill="white"/>
<path opacity="0.3" d="M301.341 150.012C301.959 150.367 302.562 150.816 303.142 151.31L326.888 143.626C325.544 141.446 323.766 139.552 321.819 138.431L211.323 74.6128C209.376 73.4919 207.598 73.3295 206.254 73.9557L229.707 108.644L301.341 150.012Z" fill="white"/>
<path opacity="0.25" d="M229.707 108.636L206.254 73.9556C204.716 74.6745 203.734 76.4217 203.734 78.9961V93.6383L229.707 108.636Z" fill="white"/>
<path opacity="0.4" d="M301.341 150.012L190.845 86.1937C188.743 84.98 186.834 84.8795 185.459 85.6912L181.371 88.3043L181.387 88.3197C182.77 87.4616 184.702 87.5389 186.842 88.7758L297.338 152.594C301.511 155.006 304.927 160.92 304.927 165.744V239.025C304.927 241.336 304.138 242.983 302.863 243.81L302.871 243.825L306.511 241.46C308.002 240.718 308.937 238.978 308.937 236.45V163.17C308.929 158.338 305.514 152.424 301.341 150.012Z" fill="white"/>
<path opacity="0.2" d="M284.449 221.692V235.955L297.339 243.4C299.139 244.444 300.801 244.66 302.107 244.189L284.449 221.692Z" fill="white"/>
<path opacity="0.25" d="M302.399 157.789L278.66 165.473C281.968 168.326 284.448 173.22 284.448 177.317V221.684L302.105 244.181C303.821 243.563 304.926 241.746 304.926 239.009V165.729C304.926 163.162 303.945 160.286 302.399 157.789Z" fill="white"/>
<path opacity="0.3" d="M276.861 164.175C277.479 164.53 278.082 164.979 278.661 165.474L302.408 157.789C301.063 155.609 299.286 153.715 297.339 152.594L186.843 88.7759C184.895 87.6549 183.118 87.4926 181.773 88.1188L205.226 122.807L276.861 164.175Z" fill="white"/>
<path opacity="0.25" d="M205.226 122.799L181.773 88.1187C180.235 88.8376 179.254 90.5848 179.254 93.1592V107.801L205.226 122.799Z" fill="white"/>
<path opacity="0.4" d="M276.86 164.175L166.365 100.357C164.263 99.1431 162.354 99.0426 160.978 99.8543L156.891 102.467L156.906 102.483C158.289 101.625 160.221 101.702 162.362 102.939L272.858 166.757C277.03 169.169 280.446 175.083 280.446 179.907V253.188C280.446 255.499 279.658 257.146 278.383 257.973L278.391 257.989L282.03 255.623C283.522 254.881 284.457 253.141 284.457 250.613V177.333C284.449 172.501 281.033 166.579 276.86 164.175Z" fill="white"/>
<path opacity="0.2" d="M259.969 235.847V250.111L272.858 257.556C274.659 258.599 276.32 258.816 277.626 258.344L259.969 235.847Z" fill="white"/>
<path opacity="0.25" d="M277.926 171.944L254.188 179.629C257.495 182.481 259.975 187.375 259.975 191.472V235.84L277.633 258.336C279.348 257.718 280.453 255.901 280.453 253.164V179.884C280.446 177.325 279.464 174.441 277.926 171.944Z" fill="white"/>
<path opacity="0.3" d="M252.38 178.33C252.998 178.686 253.601 179.134 254.181 179.629L277.927 171.944C276.583 169.764 274.805 167.87 272.858 166.749L162.362 102.931C160.415 101.81 158.638 101.648 157.293 102.274L180.746 136.962L252.38 178.33Z" fill="white"/>
<path opacity="0.25" d="M180.746 136.954L157.293 102.274C155.755 102.993 154.773 104.74 154.773 107.314V121.957L180.746 136.954Z" fill="white"/>
<g opacity="0.5">
<path opacity="0.5" d="M255.966 267.227C255.966 272.051 252.55 274.022 248.377 271.61L137.881 207.792C133.709 205.38 130.293 199.466 130.293 194.642V121.361C130.293 116.537 133.709 114.566 137.881 116.978L248.377 180.796C252.55 183.208 255.966 189.122 255.966 193.946V267.227Z" fill="#DDFFFF"/>
<path opacity="0.5" d="M255.966 267.227C255.966 272.051 252.55 274.022 248.377 271.61L137.881 207.792C133.709 205.38 130.293 199.466 130.293 194.642V121.361C130.293 116.537 133.709 114.566 137.881 116.978L248.377 180.796C252.55 183.208 255.966 189.122 255.966 193.946V267.227Z" fill="url(#paint95_linear)"/>
<path opacity="0.5" d="M252.38 178.222L141.884 114.404C139.782 113.19 137.874 113.089 136.498 113.901L132.41 116.514L132.426 116.53C133.809 115.672 135.741 115.749 137.881 116.986L248.377 180.804C252.55 183.216 255.966 189.13 255.966 193.954V267.235C255.966 269.546 255.177 271.193 253.902 272.02L253.91 272.035L257.55 269.67C259.041 268.928 259.976 267.188 259.976 264.66V191.38C259.968 186.548 256.553 180.634 252.38 178.222Z" fill="url(#paint96_linear)"/>
<path opacity="0.5" d="M133.029 116.22C131.359 116.87 130.293 118.671 130.293 121.361V194.642C130.293 197.379 131.398 200.471 133.114 203.069L193.133 195.918L133.029 116.22Z" fill="url(#paint97_linear)"/>
<path opacity="0.5" d="M255.965 193.946C255.965 191.256 254.899 188.225 253.23 185.651L193.125 195.925L253.137 272.407C254.852 271.788 255.958 269.971 255.958 267.235L255.965 193.946Z" fill="url(#paint98_linear)"/>
<path opacity="0.5" d="M132.812 116.321L193.126 205.519L253.439 185.991C252.095 183.811 250.317 181.917 248.37 180.796L137.882 116.978C135.934 115.857 134.165 115.695 132.812 116.321Z" fill="url(#paint99_linear)"/>
</g>
<path d="M227.071 283.593C227.071 288.417 223.656 290.388 219.483 287.976L108.987 224.151C104.814 221.739 101.398 215.825 101.398 211V137.72C101.398 132.896 104.814 130.924 108.987 133.337L219.483 197.155C223.656 199.567 227.071 205.481 227.071 210.305V283.593Z" fill="#A9D0E5"/>
<path d="M227.071 283.593C227.071 288.417 223.656 290.388 219.483 287.976L108.987 224.151C104.814 221.739 101.398 215.825 101.398 211V137.72C101.398 132.896 104.814 130.924 108.987 133.337L219.483 197.155C223.656 199.567 227.071 205.481 227.071 210.305V283.593Z" fill="url(#paint100_linear)"/>
<path d="M223.485 194.588L112.99 130.77C110.888 129.556 108.979 129.456 107.603 130.267L103.516 132.88L103.531 132.896C104.914 132.038 106.846 132.115 108.987 133.352L219.483 197.17C223.655 199.582 227.071 205.496 227.071 210.32V283.601C227.071 285.912 226.283 287.559 225.008 288.386L225.016 288.402L228.655 286.036C230.147 285.294 231.082 283.554 231.082 281.026V207.746C231.074 202.914 227.658 197 223.485 194.588Z" fill="#538DFF"/>
<path d="M104.134 132.587C102.465 133.236 101.398 135.037 101.398 137.728V211.008C101.398 213.745 102.503 216.837 104.219 219.435L164.239 212.284L104.134 132.587Z" fill="url(#paint101_linear)"/>
<path d="M227.071 210.313C227.071 207.622 226.004 204.592 224.335 202.017L164.23 212.292L224.242 288.773C225.958 288.154 227.063 286.338 227.063 283.601L227.071 210.313Z" fill="url(#paint102_linear)"/>
<path d="M103.918 132.687L164.231 221.886L224.545 202.357C223.2 200.177 221.423 198.283 219.475 197.162L108.987 133.344C107.04 132.223 105.263 132.061 103.918 132.687Z" fill="url(#paint103_linear)"/>
<g opacity="0.2">
<path opacity="0.2" d="M279.394 174.867C279.232 174.457 279.047 174.055 278.854 173.653C279.039 174.055 279.232 174.457 279.394 174.867Z" fill="black"/>
<path opacity="0.2" d="M355.464 213.134L351.832 215.5L351.824 215.484C351.863 215.461 351.902 215.423 351.94 215.399C351.67 215.593 351.384 215.755 351.075 215.871C349.769 216.343 348.107 216.126 346.307 215.082L333.417 207.638V222.28C333.417 224.8 332.482 226.547 330.991 227.289L327.359 229.655L327.351 229.64C327.39 229.616 327.429 229.578 327.467 229.555C327.197 229.748 326.911 229.91 326.602 230.026C325.296 230.498 323.634 230.281 321.834 229.238L308.944 221.793V236.435C308.944 238.955 308.009 240.702 306.518 241.445L302.878 243.81L302.871 243.795C302.909 243.772 302.948 243.733 302.986 243.71C302.716 243.903 302.43 244.065 302.121 244.181C300.815 244.653 299.154 244.436 297.353 243.393L284.464 235.948V250.59C284.464 253.11 283.529 254.858 282.037 255.6L278.397 257.965L278.39 257.95C278.428 257.927 278.467 257.888 278.506 257.865C278.235 258.058 277.949 258.221 277.64 258.336C276.334 258.808 274.673 258.592 272.872 257.548L259.983 250.103V264.645C259.983 267.165 259.048 268.912 257.556 269.654L253.917 272.02L253.909 272.005C253.669 272.159 253.422 272.291 253.159 272.391C251.853 272.863 250.192 272.646 248.391 271.603L231.09 261.607V281.003C231.09 283.524 230.154 285.271 228.663 286.013L225.023 288.379L225.016 288.363C224.776 288.518 224.529 288.649 224.266 288.75C222.96 289.221 221.299 289.005 219.498 287.961L122.193 231.781L101.398 243.795V250.606L227.55 323.476L228.192 316.928L357.697 242.133V209.949C357.35 211.495 356.561 212.585 355.464 213.134Z" fill="black"/>
<path opacity="0.2" d="M273.629 173.336L254.271 179.606L273.629 173.336Z" fill="black"/>
</g>
<path opacity="0.1" d="M180.744 74.9764L183.92 73.1442L180.559 68.6062L183.92 60.1719L180.744 62.0118L177.375 70.4384L180.744 74.9764Z" fill="#48D8F5"/>
<path opacity="0.1" d="M167.871 82.4134L171.055 80.5735L167.686 76.0355L171.055 67.6089L167.871 69.4411L164.502 77.8754L167.871 82.4134Z" fill="#48D8F5"/>
<path opacity="0.2" d="M155.004 89.8504L158.18 88.0105L154.811 83.4725L158.18 75.0459L155.004 76.8781L151.627 85.3124L155.004 89.8504Z" fill="#48D8F5"/>
<path opacity="0.4" d="M142.131 97.2799L145.307 95.4477L141.938 90.9097L145.307 82.4753L142.131 84.3153L138.762 92.7419L142.131 97.2799Z" fill="#48D8F5"/>
<path opacity="0.6" d="M129.256 104.717L132.432 102.885L129.07 98.339L132.432 89.9124L129.256 91.7523L125.887 100.179L129.256 104.717Z" fill="#48D8F5"/>
<path opacity="0.8" d="M116.383 112.154L119.567 110.314L116.197 105.776L119.567 97.3496L116.383 99.1818L113.014 107.616L116.383 112.154Z" fill="#48D8F5"/>
<path d="M103.516 119.591L106.692 117.751L103.322 113.213L106.692 104.779L103.516 106.619L100.146 115.045L103.516 119.591Z" fill="#48D8F5"/>
<g clip-path="url(#clip0)">
<path d="M5.55705 60.7781L74.6252 20.6627C75.9944 19.8678 77.232 19.8413 78.2063 20.3712V20.3182L84.8945 24.2132C84.8945 24.2132 81.919 25.2995 80.1812 25.9354V76.5434C80.1812 80.6504 77.706 85.4462 74.6252 87.2215L8.61153 125.588V131.523L1.84428 127.602L1.87061 127.575C0.73835 126.886 0.00106049 125.323 0.00106049 123.124V71.4562C0.00106049 67.3492 2.47624 62.5534 5.55705 60.7781Z" fill="#5793CE"/>
<path d="M12.3759 131.338L81.444 91.1959C84.5248 89.4207 87 84.6248 87 80.5179V28.8236C87 24.7166 84.5248 22.8089 81.444 24.5841L12.3759 64.6996C9.2951 66.4749 6.81992 71.2707 6.81992 75.3776V127.045C6.81992 131.232 9.2951 133.113 12.3759 131.338Z" fill="#D4ECFF"/>
<path d="M58.2196 73.3907C58.2196 76.3848 60.2998 77.6036 62.8803 76.0933C65.4608 74.6095 67.541 70.9531 67.541 67.959C67.541 64.9649 65.4608 63.7461 62.8803 65.2563C60.2998 66.7666 58.2196 70.3966 58.2196 73.3907Z" fill="white"/>
<path d="M44.1063 81.6048C44.1063 84.5989 46.1865 85.8177 48.767 84.3075C51.3475 82.8237 53.4277 79.1672 53.4277 76.1731C53.4277 73.179 51.3475 71.9602 48.767 73.4705C46.1865 74.9542 44.1063 78.6107 44.1063 81.6048Z" fill="white"/>
<path d="M29.9657 89.7918C29.9657 92.7859 32.0459 94.0048 34.6264 92.4945C37.2069 91.0107 39.2871 87.3542 39.2871 84.3601C39.2871 81.366 37.2069 80.1472 34.6264 81.6575C32.0722 83.1678 29.9657 86.7978 29.9657 89.7918Z" fill="white"/>
</g>
<defs>
<linearGradient id="paint0_linear" x1="203.065" y1="149.716" x2="273.619" y2="406.229" gradientUnits="userSpaceOnUse">
<stop stop-color="#DCEBFA"/>
<stop offset="1" stop-color="#AFD0F5"/>
</linearGradient>
<linearGradient id="paint1_linear" x1="218.488" y1="282.292" x2="280.957" y2="282.292" gradientUnits="userSpaceOnUse">
<stop stop-color="#AAD3FA"/>
<stop offset="1" stop-color="#59A3F5"/>
</linearGradient>
<linearGradient id="paint2_linear" x1="207.074" y1="0.69838" x2="386.833" y2="272.426" gradientUnits="userSpaceOnUse">
<stop stop-color="#AAD3FA"/>
<stop offset="1" stop-color="#59A3F5"/>
</linearGradient>
<linearGradient id="paint3_linear" x1="206.678" y1="16.6946" x2="399.668" y2="36.0524" gradientUnits="userSpaceOnUse">
<stop stop-color="#538DFF"/>
<stop offset="1" stop-color="#865BFF"/>
</linearGradient>
<linearGradient id="paint4_linear" x1="115.194" y1="50.9382" x2="292.371" y2="284.991" gradientUnits="userSpaceOnUse">
<stop stop-color="#DCEBFA"/>
<stop offset="1" stop-color="#AFD0F5"/>
</linearGradient>
<linearGradient id="paint5_linear" x1="169.227" y1="121.826" x2="356.116" y2="271.347" gradientUnits="userSpaceOnUse">
<stop stop-color="#AAD3FA"/>
<stop offset="1" stop-color="#59A3F5"/>
</linearGradient>
<linearGradient id="paint6_linear" x1="168.008" y1="123.34" x2="354.902" y2="272.865" gradientUnits="userSpaceOnUse">
<stop stop-color="#AAD3FA"/>
<stop offset="1" stop-color="#59A3F5"/>
</linearGradient>
<linearGradient id="paint7_linear" x1="166.786" y1="124.852" x2="353.688" y2="274.384" gradientUnits="userSpaceOnUse">
<stop stop-color="#AAD3FA"/>
<stop offset="1" stop-color="#59A3F5"/>
</linearGradient>
<linearGradient id="paint8_linear" x1="165.581" y1="126.376" x2="352.471" y2="275.898" gradientUnits="userSpaceOnUse">
<stop stop-color="#AAD3FA"/>
<stop offset="1" stop-color="#59A3F5"/>
</linearGradient>
<linearGradient id="paint9_linear" x1="164.365" y1="127.893" x2="351.259" y2="277.418" gradientUnits="userSpaceOnUse">
<stop stop-color="#AAD3FA"/>
<stop offset="1" stop-color="#59A3F5"/>
</linearGradient>
<linearGradient id="paint10_linear" x1="163.153" y1="129.412" x2="350.044" y2="278.935" gradientUnits="userSpaceOnUse">
<stop stop-color="#AAD3FA"/>
<stop offset="1" stop-color="#59A3F5"/>
</linearGradient>
<linearGradient id="paint11_linear" x1="161.935" y1="130.927" x2="348.832" y2="280.454" gradientUnits="userSpaceOnUse">
<stop stop-color="#AAD3FA"/>
<stop offset="1" stop-color="#59A3F5"/>
</linearGradient>
<linearGradient id="paint12_linear" x1="160.715" y1="132.439" x2="347.611" y2="281.965" gradientUnits="userSpaceOnUse">
<stop stop-color="#AAD3FA"/>
<stop offset="1" stop-color="#59A3F5"/>
</linearGradient>
<linearGradient id="paint13_linear" x1="159.511" y1="133.966" x2="346.397" y2="283.485" gradientUnits="userSpaceOnUse">
<stop stop-color="#AAD3FA"/>
<stop offset="1" stop-color="#59A3F5"/>
</linearGradient>
<linearGradient id="paint14_linear" x1="158.292" y1="135.481" x2="345.188" y2="285.007" gradientUnits="userSpaceOnUse">
<stop stop-color="#AAD3FA"/>
<stop offset="1" stop-color="#59A3F5"/>
</linearGradient>
<linearGradient id="paint15_linear" x1="157.078" y1="136.998" x2="343.975" y2="286.525" gradientUnits="userSpaceOnUse">
<stop stop-color="#AAD3FA"/>
<stop offset="1" stop-color="#59A3F5"/>
</linearGradient>
<linearGradient id="paint16_linear" x1="155.865" y1="138.515" x2="342.759" y2="288.04" gradientUnits="userSpaceOnUse">
<stop stop-color="#AAD3FA"/>
<stop offset="1" stop-color="#59A3F5"/>
</linearGradient>
<linearGradient id="paint17_linear" x1="154.654" y1="140.036" x2="341.539" y2="289.553" gradientUnits="userSpaceOnUse">
<stop stop-color="#AAD3FA"/>
<stop offset="1" stop-color="#59A3F5"/>
</linearGradient>
<linearGradient id="paint18_linear" x1="175.265" y1="114.285" x2="362.15" y2="263.804" gradientUnits="userSpaceOnUse">
<stop stop-color="#AAD3FA"/>
<stop offset="1" stop-color="#59A3F5"/>
</linearGradient>
<linearGradient id="paint19_linear" x1="174.004" y1="115.855" x2="360.892" y2="265.375" gradientUnits="userSpaceOnUse">
<stop stop-color="#AAD3FA"/>
<stop offset="1" stop-color="#59A3F5"/>
</linearGradient>
<linearGradient id="paint20_linear" x1="172.751" y1="117.432" x2="359.633" y2="266.947" gradientUnits="userSpaceOnUse">
<stop stop-color="#AAD3FA"/>
<stop offset="1" stop-color="#59A3F5"/>
</linearGradient>
<linearGradient id="paint21_linear" x1="171.478" y1="118.992" x2="358.377" y2="268.522" gradientUnits="userSpaceOnUse">
<stop stop-color="#AAD3FA"/>
<stop offset="1" stop-color="#59A3F5"/>
</linearGradient>
<linearGradient id="paint22_linear" x1="170.23" y1="120.572" x2="357.116" y2="270.091" gradientUnits="userSpaceOnUse">
<stop stop-color="#AAD3FA"/>
<stop offset="1" stop-color="#59A3F5"/>
</linearGradient>
<linearGradient id="paint23_linear" x1="168.973" y1="122.147" x2="355.858" y2="271.665" gradientUnits="userSpaceOnUse">
<stop stop-color="#AAD3FA"/>
<stop offset="1" stop-color="#59A3F5"/>
</linearGradient>
<linearGradient id="paint24_linear" x1="167.713" y1="123.717" x2="354.6" y2="273.237" gradientUnits="userSpaceOnUse">
<stop stop-color="#AAD3FA"/>
<stop offset="1" stop-color="#59A3F5"/>
</linearGradient>
<linearGradient id="paint25_linear" x1="166.454" y1="125.289" x2="353.341" y2="274.808" gradientUnits="userSpaceOnUse">
<stop stop-color="#AAD3FA"/>
<stop offset="1" stop-color="#59A3F5"/>
</linearGradient>
<linearGradient id="paint26_linear" x1="165.189" y1="126.856" x2="352.088" y2="276.385" gradientUnits="userSpaceOnUse">
<stop stop-color="#AAD3FA"/>
<stop offset="1" stop-color="#59A3F5"/>
</linearGradient>
<linearGradient id="paint27_linear" x1="163.929" y1="128.426" x2="350.833" y2="277.959" gradientUnits="userSpaceOnUse">
<stop stop-color="#AAD3FA"/>
<stop offset="1" stop-color="#59A3F5"/>
</linearGradient>
<linearGradient id="paint28_linear" x1="162.678" y1="130.002" x2="349.571" y2="279.525" gradientUnits="userSpaceOnUse">
<stop stop-color="#AAD3FA"/>
<stop offset="1" stop-color="#59A3F5"/>
</linearGradient>
<linearGradient id="paint29_linear" x1="161.42" y1="131.575" x2="348.311" y2="281.098" gradientUnits="userSpaceOnUse">
<stop stop-color="#AAD3FA"/>
<stop offset="1" stop-color="#59A3F5"/>
</linearGradient>
<linearGradient id="paint30_linear" x1="160.164" y1="133.15" x2="347.047" y2="282.666" gradientUnits="userSpaceOnUse">
<stop stop-color="#AAD3FA"/>
<stop offset="1" stop-color="#59A3F5"/>
</linearGradient>
<linearGradient id="paint31_linear" x1="158.899" y1="134.723" x2="345.793" y2="284.248" gradientUnits="userSpaceOnUse">
<stop stop-color="#AAD3FA"/>
<stop offset="1" stop-color="#59A3F5"/>
</linearGradient>
<linearGradient id="paint32_linear" x1="153.131" y1="141.936" x2="340.019" y2="291.456" gradientUnits="userSpaceOnUse">
<stop stop-color="#AAD3FA"/>
<stop offset="1" stop-color="#59A3F5"/>
</linearGradient>
<linearGradient id="paint33_linear" x1="139.148" y1="159.416" x2="326.039" y2="308.94" gradientUnits="userSpaceOnUse">
<stop stop-color="#AAD3FA"/>
<stop offset="1" stop-color="#59A3F5"/>
</linearGradient>
<linearGradient id="paint34_linear" x1="137.937" y1="160.937" x2="324.823" y2="310.456" gradientUnits="userSpaceOnUse">
<stop stop-color="#AAD3FA"/>
<stop offset="1" stop-color="#59A3F5"/>
</linearGradient>
<linearGradient id="paint35_linear" x1="136.713" y1="162.447" x2="323.612" y2="311.976" gradientUnits="userSpaceOnUse">
<stop stop-color="#AAD3FA"/>
<stop offset="1" stop-color="#59A3F5"/>
</linearGradient>
<linearGradient id="paint36_linear" x1="125.91" y1="175.961" x2="312.796" y2="325.479" gradientUnits="userSpaceOnUse">
<stop stop-color="#AAD3FA"/>
<stop offset="1" stop-color="#59A3F5"/>
</linearGradient>
<linearGradient id="paint37_linear" x1="123.309" y1="179.218" x2="310.183" y2="328.727" gradientUnits="userSpaceOnUse">
<stop stop-color="#AAD3FA"/>
<stop offset="1" stop-color="#59A3F5"/>
</linearGradient>
<linearGradient id="paint38_linear" x1="122.091" y1="180.732" x2="308.985" y2="330.258" gradientUnits="userSpaceOnUse">
<stop stop-color="#AAD3FA"/>
<stop offset="1" stop-color="#59A3F5"/>
</linearGradient>
<linearGradient id="paint39_linear" x1="120.876" y1="182.249" x2="307.775" y2="331.778" gradientUnits="userSpaceOnUse">
<stop stop-color="#AAD3FA"/>
<stop offset="1" stop-color="#59A3F5"/>
</linearGradient>
<linearGradient id="paint40_linear" x1="135.503" y1="163.969" x2="322.396" y2="313.492" gradientUnits="userSpaceOnUse">
<stop stop-color="#AAD3FA"/>
<stop offset="1" stop-color="#59A3F5"/>
</linearGradient>
<linearGradient id="paint41_linear" x1="131.555" y1="168.903" x2="318.448" y2="318.428" gradientUnits="userSpaceOnUse">
<stop stop-color="#AAD3FA"/>
<stop offset="1" stop-color="#59A3F5"/>
</linearGradient>
<linearGradient id="paint42_linear" x1="127.611" y1="173.836" x2="314.502" y2="323.359" gradientUnits="userSpaceOnUse">
<stop stop-color="#AAD3FA"/>
<stop offset="1" stop-color="#59A3F5"/>
</linearGradient>
<linearGradient id="paint43_linear" x1="126.393" y1="175.353" x2="313.287" y2="324.877" gradientUnits="userSpaceOnUse">
<stop stop-color="#AAD3FA"/>
<stop offset="1" stop-color="#59A3F5"/>
</linearGradient>
<linearGradient id="paint44_linear" x1="159.896" y1="133.478" x2="346.789" y2="283.003" gradientUnits="userSpaceOnUse">
<stop stop-color="#AAD3FA"/>
<stop offset="1" stop-color="#59A3F5"/>
</linearGradient>
<linearGradient id="paint45_linear" x1="161.42" y1="131.579" x2="348.312" y2="281.103" gradientUnits="userSpaceOnUse">
<stop stop-color="#AAD3FA"/>
<stop offset="1" stop-color="#59A3F5"/>
</linearGradient>
<linearGradient id="paint46_linear" x1="158.684" y1="134.999" x2="345.575" y2="284.521" gradientUnits="userSpaceOnUse">
<stop stop-color="#AAD3FA"/>
<stop offset="1" stop-color="#59A3F5"/>
</linearGradient>
<linearGradient id="paint47_linear" x1="157.472" y1="136.517" x2="344.36" y2="286.037" gradientUnits="userSpaceOnUse">
<stop stop-color="#AAD3FA"/>
<stop offset="1" stop-color="#59A3F5"/>
</linearGradient>
<linearGradient id="paint48_linear" x1="156.247" y1="138.027" x2="343.149" y2="287.559" gradientUnits="userSpaceOnUse">
<stop stop-color="#AAD3FA"/>
<stop offset="1" stop-color="#59A3F5"/>
</linearGradient>
<linearGradient id="paint49_linear" x1="155.038" y1="139.549" x2="341.931" y2="289.074" gradientUnits="userSpaceOnUse">
<stop stop-color="#AAD3FA"/>
<stop offset="1" stop-color="#59A3F5"/>
</linearGradient>
<linearGradient id="paint50_linear" x1="153.83" y1="141.071" x2="340.715" y2="290.588" gradientUnits="userSpaceOnUse">
<stop stop-color="#AAD3FA"/>
<stop offset="1" stop-color="#59A3F5"/>
</linearGradient>
<linearGradient id="paint51_linear" x1="152.613" y1="142.586" x2="339.502" y2="292.108" gradientUnits="userSpaceOnUse">
<stop stop-color="#AAD3FA"/>
<stop offset="1" stop-color="#59A3F5"/>
</linearGradient>
<linearGradient id="paint52_linear" x1="151.397" y1="144.103" x2="338.29" y2="293.627" gradientUnits="userSpaceOnUse">
<stop stop-color="#AAD3FA"/>
<stop offset="1" stop-color="#59A3F5"/>
</linearGradient>
<linearGradient id="paint53_linear" x1="150.181" y1="145.619" x2="337.08" y2="295.148" gradientUnits="userSpaceOnUse">
<stop stop-color="#AAD3FA"/>
<stop offset="1" stop-color="#59A3F5"/>
</linearGradient>
<linearGradient id="paint54_linear" x1="148.965" y1="147.137" x2="335.863" y2="296.665" gradientUnits="userSpaceOnUse">
<stop stop-color="#AAD3FA"/>
<stop offset="1" stop-color="#59A3F5"/>
</linearGradient>
<linearGradient id="paint55_linear" x1="147.752" y1="148.654" x2="334.65" y2="298.181" gradientUnits="userSpaceOnUse">
<stop stop-color="#AAD3FA"/>
<stop offset="1" stop-color="#59A3F5"/>
</linearGradient>
<linearGradient id="paint56_linear" x1="146.54" y1="150.173" x2="333.43" y2="299.695" gradientUnits="userSpaceOnUse">
<stop stop-color="#AAD3FA"/>
<stop offset="1" stop-color="#59A3F5"/>
</linearGradient>
<linearGradient id="paint57_linear" x1="145.325" y1="151.69" x2="332.219" y2="301.215" gradientUnits="userSpaceOnUse">
<stop stop-color="#AAD3FA"/>
<stop offset="1" stop-color="#59A3F5"/>
</linearGradient>
<linearGradient id="paint58_linear" x1="152.12" y1="143.218" x2="339.003" y2="292.734" gradientUnits="userSpaceOnUse">
<stop stop-color="#AAD3FA"/>
<stop offset="1" stop-color="#59A3F5"/>
</linearGradient>
<linearGradient id="paint59_linear" x1="153.773" y1="141.134" x2="340.666" y2="290.658" gradientUnits="userSpaceOnUse">
<stop stop-color="#AAD3FA"/>
<stop offset="1" stop-color="#59A3F5"/>
</linearGradient>
<linearGradient id="paint60_linear" x1="150.889" y1="144.724" x2="337.792" y2="294.256" gradientUnits="userSpaceOnUse">
<stop stop-color="#AAD3FA"/>
<stop offset="1" stop-color="#59A3F5"/>
</linearGradient>
<linearGradient id="paint61_linear" x1="149.684" y1="146.249" x2="336.573" y2="295.77" gradientUnits="userSpaceOnUse">
<stop stop-color="#AAD3FA"/>
<stop offset="1" stop-color="#59A3F5"/>
</linearGradient>
<linearGradient id="paint62_linear" x1="148.466" y1="147.764" x2="335.36" y2="297.289" gradientUnits="userSpaceOnUse">
<stop stop-color="#AAD3FA"/>
<stop offset="1" stop-color="#59A3F5"/>
</linearGradient>
<linearGradient id="paint63_linear" x1="147.251" y1="149.281" x2="334.148" y2="298.808" gradientUnits="userSpaceOnUse">
<stop stop-color="#AAD3FA"/>
<stop offset="1" stop-color="#59A3F5"/>
</linearGradient>
<linearGradient id="paint64_linear" x1="146.038" y1="150.799" x2="332.933" y2="300.325" gradientUnits="userSpaceOnUse">
<stop stop-color="#AAD3FA"/>
<stop offset="1" stop-color="#59A3F5"/>
</linearGradient>
<linearGradient id="paint65_linear" x1="144.825" y1="152.317" x2="331.719" y2="301.842" gradientUnits="userSpaceOnUse">
<stop stop-color="#AAD3FA"/>
<stop offset="1" stop-color="#59A3F5"/>
</linearGradient>
<linearGradient id="paint66_linear" x1="143.611" y1="153.836" x2="330.5" y2="303.357" gradientUnits="userSpaceOnUse">
<stop stop-color="#AAD3FA"/>
<stop offset="1" stop-color="#59A3F5"/>
</linearGradient>
<linearGradient id="paint67_linear" x1="142.396" y1="155.353" x2="329.287" y2="304.875" gradientUnits="userSpaceOnUse">
<stop stop-color="#AAD3FA"/>
<stop offset="1" stop-color="#59A3F5"/>
</linearGradient>
<linearGradient id="paint68_linear" x1="141.182" y1="156.872" x2="328.072" y2="306.393" gradientUnits="userSpaceOnUse">
<stop stop-color="#AAD3FA"/>
<stop offset="1" stop-color="#59A3F5"/>
</linearGradient>
<linearGradient id="paint69_linear" x1="139.968" y1="158.389" x2="326.859" y2="307.911" gradientUnits="userSpaceOnUse">
<stop stop-color="#AAD3FA"/>
<stop offset="1" stop-color="#59A3F5"/>
</linearGradient>
<linearGradient id="paint70_linear" x1="138.288" y1="160.485" x2="325.183" y2="310.011" gradientUnits="userSpaceOnUse">
<stop stop-color="#AAD3FA"/>
<stop offset="1" stop-color="#59A3F5"/>
</linearGradient>
<linearGradient id="paint71_linear" x1="143.988" y1="153.361" x2="330.882" y2="302.886" gradientUnits="userSpaceOnUse">
<stop stop-color="#AAD3FA"/>
<stop offset="1" stop-color="#59A3F5"/>
</linearGradient>
<linearGradient id="paint72_linear" x1="145.962" y1="150.896" x2="332.854" y2="300.42" gradientUnits="userSpaceOnUse">
<stop stop-color="#AAD3FA"/>
<stop offset="1" stop-color="#59A3F5"/>
</linearGradient>
<linearGradient id="paint73_linear" x1="142.776" y1="154.881" x2="329.668" y2="304.404" gradientUnits="userSpaceOnUse">
<stop stop-color="#AAD3FA"/>
<stop offset="1" stop-color="#59A3F5"/>
</linearGradient>
<linearGradient id="paint74_linear" x1="141.564" y1="156.399" x2="328.452" y2="305.919" gradientUnits="userSpaceOnUse">
<stop stop-color="#AAD3FA"/>
<stop offset="1" stop-color="#59A3F5"/>
</linearGradient>
<linearGradient id="paint75_linear" x1="140.349" y1="157.917" x2="327.238" y2="307.437" gradientUnits="userSpaceOnUse">
<stop stop-color="#AAD3FA"/>
<stop offset="1" stop-color="#59A3F5"/>
</linearGradient>
<linearGradient id="paint76_linear" x1="139.133" y1="159.432" x2="326.026" y2="308.956" gradientUnits="userSpaceOnUse">
<stop stop-color="#AAD3FA"/>
<stop offset="1" stop-color="#59A3F5"/>
</linearGradient>
<linearGradient id="paint77_linear" x1="137.92" y1="160.951" x2="324.81" y2="310.473" gradientUnits="userSpaceOnUse">
<stop stop-color="#AAD3FA"/>
<stop offset="1" stop-color="#59A3F5"/>
</linearGradient>
<linearGradient id="paint78_linear" x1="136.705" y1="162.468" x2="323.595" y2="311.99" gradientUnits="userSpaceOnUse">
<stop stop-color="#AAD3FA"/>
<stop offset="1" stop-color="#59A3F5"/>
</linearGradient>
<linearGradient id="paint79_linear" x1="135.484" y1="163.981" x2="322.391" y2="313.516" gradientUnits="userSpaceOnUse">
<stop stop-color="#AAD3FA"/>
<stop offset="1" stop-color="#59A3F5"/>
</linearGradient>
<linearGradient id="paint80_linear" x1="134.274" y1="165.502" x2="321.172" y2="315.03" gradientUnits="userSpaceOnUse">
<stop stop-color="#AAD3FA"/>
<stop offset="1" stop-color="#59A3F5"/>
</linearGradient>
<linearGradient id="paint81_linear" x1="133.06" y1="167.02" x2="319.955" y2="316.546" gradientUnits="userSpaceOnUse">
<stop stop-color="#AAD3FA"/>
<stop offset="1" stop-color="#59A3F5"/>
</linearGradient>
<linearGradient id="paint82_linear" x1="131.084" y1="169.489" x2="317.983" y2="319.018" gradientUnits="userSpaceOnUse">
<stop stop-color="#AAD3FA"/>
<stop offset="1" stop-color="#59A3F5"/>
</linearGradient>
<linearGradient id="paint83_linear" x1="132.708" y1="161.835" x2="205.889" y2="289.242" gradientUnits="userSpaceOnUse">
<stop stop-color="#DCEBFA"/>
<stop offset="1" stop-color="#AFD0F5"/>
</linearGradient>
<linearGradient id="paint84_linear" x1="345.348" y1="126.436" x2="359.133" y2="145.727" gradientUnits="userSpaceOnUse">
<stop stop-color="#DCEBFA"/>
<stop offset="1" stop-color="#AFD0F5"/>
</linearGradient>
<linearGradient id="paint85_linear" x1="173.075" y1="252.472" x2="200.086" y2="174.174" gradientUnits="userSpaceOnUse">
<stop offset="0.1314" stop-color="#258FEB"/>
<stop offset="0.8903" stop-color="#0A208F"/>
</linearGradient>
<linearGradient id="paint86_linear" x1="220.605" y1="196.55" x2="226.633" y2="207.486" gradientUnits="userSpaceOnUse">
<stop stop-color="#4CB6FF"/>
<stop offset="1" stop-color="#0A208F"/>
</linearGradient>
<linearGradient id="paint87_linear" x1="116.176" y1="184.592" x2="192.748" y2="138.014" gradientUnits="userSpaceOnUse">
<stop stop-color="#258FEB"/>
<stop offset="0.1565" stop-color="#2389E6"/>
<stop offset="0.3711" stop-color="#1F77D7"/>
<stop offset="0.6192" stop-color="#185ABF"/>
<stop offset="0.8906" stop-color="#0E329E"/>
<stop offset="1" stop-color="#0A208F"/>
</linearGradient>
<linearGradient id="paint88_linear" x1="243.273" y1="245.004" x2="211.764" y2="158.997" gradientUnits="userSpaceOnUse">
<stop stop-color="#258FEB"/>
<stop offset="0.1726" stop-color="#2283E1"/>
<stop offset="0.4885" stop-color="#1A62C5"/>
<stop offset="0.9094" stop-color="#0D2C99"/>
<stop offset="1" stop-color="#0A208F"/>
</linearGradient>
<linearGradient id="paint89_linear" x1="193.512" y1="150.495" x2="138.117" y2="246.677" gradientUnits="userSpaceOnUse">
<stop stop-color="#258FEB"/>
<stop offset="1" stop-color="#0A208F"/>
</linearGradient>
<linearGradient id="paint90_linear" x1="144.182" y1="268.836" x2="171.193" y2="190.538" gradientUnits="userSpaceOnUse">
<stop offset="0.1314" stop-color="#258FEB"/>
<stop offset="0.8903" stop-color="#0A208F"/>
</linearGradient>
<linearGradient id="paint91_linear" x1="191.712" y1="212.914" x2="197.74" y2="223.85" gradientUnits="userSpaceOnUse">
<stop stop-color="#4CB6FF"/>
<stop offset="1" stop-color="#0A208F"/>
</linearGradient>
<linearGradient id="paint92_linear" x1="87.2825" y1="200.956" x2="163.855" y2="154.379" gradientUnits="userSpaceOnUse">
<stop stop-color="#258FEB"/>
<stop offset="0.1565" stop-color="#2389E6"/>
<stop offset="0.3711" stop-color="#1F77D7"/>
<stop offset="0.6192" stop-color="#185ABF"/>
<stop offset="0.8906" stop-color="#0E329E"/>
<stop offset="1" stop-color="#0A208F"/>
</linearGradient>
<linearGradient id="paint93_linear" x1="214.38" y1="261.368" x2="182.871" y2="175.362" gradientUnits="userSpaceOnUse">
<stop stop-color="#258FEB"/>
<stop offset="0.1726" stop-color="#2283E1"/>
<stop offset="0.4885" stop-color="#1A62C5"/>
<stop offset="0.9094" stop-color="#0D2C99"/>
<stop offset="1" stop-color="#0A208F"/>
</linearGradient>
<linearGradient id="paint94_linear" x1="164.619" y1="166.86" x2="109.224" y2="263.042" gradientUnits="userSpaceOnUse">
<stop stop-color="#258FEB"/>
<stop offset="1" stop-color="#0A208F"/>
</linearGradient>
<linearGradient id="paint95_linear" x1="173.077" y1="252.472" x2="200.088" y2="174.174" gradientUnits="userSpaceOnUse">
<stop offset="0.1314" stop-color="#59C3FF"/>
<stop offset="0.8903" stop-color="#3D54C3"/>
</linearGradient>
<linearGradient id="paint96_linear" x1="220.607" y1="196.55" x2="226.635" y2="207.486" gradientUnits="userSpaceOnUse">
<stop stop-color="#80EAFF"/>
<stop offset="1" stop-color="#3D54C3"/>
</linearGradient>
<linearGradient id="paint97_linear" x1="116.178" y1="184.592" x2="192.75" y2="138.014" gradientUnits="userSpaceOnUse">
<stop stop-color="#59C3FF"/>
<stop offset="0.1565" stop-color="#57BDFC"/>
<stop offset="0.3711" stop-color="#53ABF2"/>
<stop offset="0.6192" stop-color="#4C8EE2"/>
<stop offset="0.8906" stop-color="#4266CD"/>
<stop offset="1" stop-color="#3D54C3"/>
</linearGradient>
<linearGradient id="paint98_linear" x1="243.275" y1="245.004" x2="211.766" y2="158.997" gradientUnits="userSpaceOnUse">
<stop stop-color="#59C3FF"/>
<stop offset="0.1726" stop-color="#56B7F8"/>
<stop offset="0.4885" stop-color="#4E95E6"/>
<stop offset="0.9094" stop-color="#4060CA"/>
<stop offset="1" stop-color="#3D54C3"/>
</linearGradient>
<linearGradient id="paint99_linear" x1="193.514" y1="150.495" x2="138.119" y2="246.677" gradientUnits="userSpaceOnUse">
<stop stop-color="#59C3FF"/>
<stop offset="1" stop-color="#3D54C3"/>
</linearGradient>
<linearGradient id="paint100_linear" x1="101.398" y1="132.307" x2="242.125" y2="147.251" gradientUnits="userSpaceOnUse">
<stop stop-color="#4A80E8"/>
<stop offset="1" stop-color="#724BE1"/>
</linearGradient>
<linearGradient id="paint101_linear" x1="101.398" y1="132.587" x2="171.912" y2="139.343" gradientUnits="userSpaceOnUse">
<stop stop-color="#427AE7"/>
<stop offset="1" stop-color="#6E49DA"/>
</linearGradient>
<linearGradient id="paint102_linear" x1="164.23" y1="202.017" x2="234.743" y2="208.78" gradientUnits="userSpaceOnUse">
<stop stop-color="#427AE7"/>
<stop offset="1" stop-color="#6E49DA"/>
</linearGradient>
<linearGradient id="paint103_linear" x1="103.918" y1="132.324" x2="236.307" y2="155.935" gradientUnits="userSpaceOnUse">
<stop stop-color="#538DFF"/>
<stop offset="1" stop-color="#865BFF"/>
</linearGradient>
<clipPath id="clip0">
<rect width="87" height="112" fill="white" transform="matrix(-1 0 0 1 87 20)"/>
</clipPath>
</defs>
</svg>
