<svg width="72" height="72" viewBox="0 0 72 72" fill="none" xmlns="http://www.w3.org/2000/svg">
<path d="M54.1315 25.1311H17.869L6.99023 39.6361H65.0103L54.1315 25.1311Z" fill="#7AA1FF"/>
<path d="M52.3181 28.7576H19.6818L10.6162 41.4494V61.3938H61.3837V41.4494L52.3181 28.7576Z" fill="#2556CD"/>
<path d="M52.3182 7H19.6819C17.6875 7 16.0557 8.63181 16.0557 10.6263V65.02H55.9444V10.6263C55.9444 8.61368 54.3126 7 52.3182 7Z" fill="#5788FF"/>
<path d="M50.5048 10.6262H21.4948C20.4975 10.6262 19.6816 11.4421 19.6816 12.4393V61.3937H52.3179V12.4393C52.3179 11.4421 51.502 10.6262 50.5048 10.6262Z" fill="white"/>
<path d="M43.2527 17.8789H28.7477C27.7505 17.8789 26.9346 18.6948 26.9346 19.692C26.9346 20.6893 27.7505 21.5052 28.7477 21.5052H43.2527C44.2499 21.5052 45.0658 20.6893 45.0658 19.692C45.0658 18.6948 44.2499 17.8789 43.2527 17.8789ZM39.6265 25.1314H28.7477C27.7505 25.1314 26.9346 25.9473 26.9346 26.9445C26.9346 27.9418 27.7505 28.7577 28.7477 28.7577H39.6265C40.6237 28.7577 41.4396 27.9418 41.4396 26.9445C41.4396 25.9473 40.6237 25.1314 39.6265 25.1314Z" fill="#5788FF"/>
<path d="M46.879 39.6362C45.8818 39.6362 45.0659 40.4521 45.0659 41.4494V45.0756C45.0659 46.0728 44.25 46.8887 43.2528 46.8887H28.7477C27.7505 46.8887 26.9346 46.0728 26.9346 45.0756V41.4494C26.9346 40.4521 26.1187 39.6362 25.1215 39.6362H6.99023V61.3937C6.99023 63.3882 8.62205 65.02 10.6165 65.02H61.384C63.3784 65.02 65.0103 63.3882 65.0103 61.3937V39.6362H46.879Z" fill="#7AA1FF"/>
</svg>
