<svg width="68" height="58" viewBox="0 0 68 58" fill="none" xmlns="http://www.w3.org/2000/svg">
<path fill-rule="evenodd" clip-rule="evenodd" d="M66.8729 34.1808C66.3138 33.187 65.0922 32.8557 64.1398 33.4147L40.992 46.8314L15.1526 1.17755C15.1319 1.13615 15.1319 1.09474 15.1112 1.05333C14.8213 0.535715 14.3658 0.225142 13.8482 0.0802098C13.3306 -0.0647229 12.7508 -0.0233009 12.2539 0.287269C12.1504 0.349383 12.0883 0.432203 12.0055 0.515022L1.86018 6.51936C0.907764 7.09909 0.576508 8.36207 1.13553 9.35589C1.69456 10.3497 2.91612 10.681 3.86853 10.122L12.5231 5.00793L19.1279 16.6646C15.1112 20.5778 14.1174 26.6857 17.1402 31.6548L26.4159 46.8935L24.6353 47.9494C23.6829 48.5291 23.3516 49.7921 23.9107 50.786C24.4697 51.7798 25.6913 52.111 26.6437 51.552L35.7951 46.1481L38.3625 50.6824C38.3832 50.7238 38.3832 50.7652 38.4039 50.8067C38.6938 51.3243 39.1493 51.6348 39.6669 51.7798C40.1845 51.9247 40.7642 51.8833 41.2612 51.5727C41.3647 51.5106 41.4061 51.4278 41.4889 51.3657L66.1482 37.0794C67.1006 36.4376 67.4319 35.1746 66.8729 34.1808ZM30.1428 44.6574L20.9499 29.5429C19.19 26.6443 19.4798 23.1866 21.364 20.6192L33.7661 42.5248L30.1428 44.6574Z" fill="#538DFF"/>
<path d="M25.7125 57.9912C30.2865 57.9912 33.9944 54.2833 33.9944 49.7094C33.9944 45.1354 30.2865 41.4275 25.7125 41.4275C21.1386 41.4275 17.4307 45.1354 17.4307 49.7094C17.4307 54.2833 21.1386 57.9912 25.7125 57.9912Z" fill="#99BBFF"/>
<path d="M25.7132 53.8505C28.0002 53.8505 29.8541 51.9965 29.8541 49.7095C29.8541 47.4226 28.0002 45.5686 25.7132 45.5686C23.4262 45.5686 21.5723 47.4226 21.5723 49.7095C21.5723 51.9965 23.4262 53.8505 25.7132 53.8505Z" fill="white"/>
<path d="M62.3591 30.6402L52.0067 12.71C51.427 11.7161 50.164 11.3848 49.1702 11.9439L31.24 22.2962C30.2461 22.8759 29.9149 24.1389 30.4739 25.1328L40.8262 43.063C41.406 44.0568 42.6689 44.3881 43.6628 43.8291L61.593 33.4767C62.5868 32.897 62.9181 31.634 62.3591 30.6402Z" fill="#538DFF"/>
<path d="M42.7536 13.2693L36.5422 2.5029C35.9624 1.50908 34.6994 1.17781 33.7056 1.73684L22.9392 7.94824C21.9454 8.52797 21.6141 9.79095 22.1731 10.7848L28.3845 21.5512C28.9642 22.545 30.2272 22.8763 31.2211 22.3173L41.9875 16.1059C42.9813 15.5262 43.3333 14.2631 42.7536 13.2693Z" fill="#99BBFF"/>
</svg>
