<svg width="48" height="56" viewBox="0 0 48 56" fill="none" xmlns="http://www.w3.org/2000/svg">
<path d="M12 31.4285H1.71429C0.771429 31.4285 0 32.2 0 33.1428V53.7142C0 54.6571 0.771429 55.4285 1.71429 55.4285H12C12.9429 55.4285 13.7143 54.6571 13.7143 53.7142V33.1428C13.7143 32.2 12.9429 31.4285 12 31.4285Z" fill="#AEC5FF"/>
<path d="M29.1426 0.571411H18.8569C17.914 0.571411 17.1426 1.34284 17.1426 2.2857V53.7143C17.1426 54.6571 17.914 55.4286 18.8569 55.4286H29.1426C30.0854 55.4286 30.8569 54.6571 30.8569 53.7143V2.2857C30.8569 1.34284 30.0854 0.571411 29.1426 0.571411Z" fill="#538DFF"/>
<path d="M46.2861 17.7143H36.0004C35.0576 17.7143 34.2861 18.4857 34.2861 19.4286V53.7143C34.2861 54.6572 35.0576 55.4286 36.0004 55.4286H46.2861C47.229 55.4286 48.0004 54.6572 48.0004 53.7143V19.4286C48.0004 18.4857 47.229 17.7143 46.2861 17.7143Z" fill="#7FAAFF"/>
</svg>
