<svg width="140" height="140" viewBox="0 0 140 140" fill="none" xmlns="http://www.w3.org/2000/svg">
<mask id="path-1-inside-1" fill="white">
<path d="M137.644 70C138.945 70 140.004 71.0554 139.96 72.3559C139.465 87.086 134.329 101.307 125.257 112.973C115.702 125.26 102.324 134.011 87.2379 137.844C72.1522 141.677 56.2193 140.373 41.9578 134.138C27.6963 127.902 15.9198 117.091 8.4899 103.414C1.06 89.7369 -1.59946 73.9735 0.931942 58.6157C3.46334 43.2578 11.0412 29.1818 22.4676 18.6126C33.894 8.04336 48.5171 1.58396 64.0253 0.255443C78.7499 -1.00594 93.4749 2.42644 106.102 10.0279C107.217 10.699 107.526 12.1618 106.817 13.2533C106.109 14.3449 104.652 14.6516 103.536 13.9832C91.7891 6.95053 78.1081 3.77826 64.4275 4.95022C49.9632 6.1893 36.3244 12.2139 25.6672 22.0716C15.0099 31.9294 7.94218 45.0579 5.58118 59.382C3.22018 73.706 5.70061 88.4084 12.6304 101.165C19.5601 113.922 30.5439 124.005 43.8454 129.82C57.1469 135.636 72.0073 136.852 86.0776 133.277C100.148 129.702 112.625 121.54 121.537 110.08C129.967 99.2414 134.752 86.0378 135.246 72.3557C135.292 71.0554 136.343 70 137.644 70Z"/>
</mask>
<path d="M137.644 70C138.945 70 140.004 71.0554 139.96 72.3559C139.465 87.086 134.329 101.307 125.257 112.973C115.702 125.26 102.324 134.011 87.2379 137.844C72.1522 141.677 56.2193 140.373 41.9578 134.138C27.6963 127.902 15.9198 117.091 8.4899 103.414C1.06 89.7369 -1.59946 73.9735 0.931942 58.6157C3.46334 43.2578 11.0412 29.1818 22.4676 18.6126C33.894 8.04336 48.5171 1.58396 64.0253 0.255443C78.7499 -1.00594 93.4749 2.42644 106.102 10.0279C107.217 10.699 107.526 12.1618 106.817 13.2533C106.109 14.3449 104.652 14.6516 103.536 13.9832C91.7891 6.95053 78.1081 3.77826 64.4275 4.95022C49.9632 6.1893 36.3244 12.2139 25.6672 22.0716C15.0099 31.9294 7.94218 45.0579 5.58118 59.382C3.22018 73.706 5.70061 88.4084 12.6304 101.165C19.5601 113.922 30.5439 124.005 43.8454 129.82C57.1469 135.636 72.0073 136.852 86.0776 133.277C100.148 129.702 112.625 121.54 121.537 110.08C129.967 99.2414 134.752 86.0378 135.246 72.3557C135.292 71.0554 136.343 70 137.644 70Z" fill="#F8F8FA" stroke="#0084F4" stroke-width="20" mask="url(#path-1-inside-1)"/>
</svg>
