<svg width="52" height="53" viewBox="0 0 52 53" fill="none" xmlns="http://www.w3.org/2000/svg">
<path fill-rule="evenodd" clip-rule="evenodd" d="M48.75 16.26V31.015C49.9688 31.73 51.0737 32.6238 52 33.68V16.26H48.75ZM4.875 48.76C3.98125 48.76 3.25 48.0288 3.25 47.135V16.26H0V48.76C0 50.5638 1.4625 52.01 3.25 52.01H33.67C32.6138 51.0838 31.7038 49.9788 31.005 48.76H4.875ZM40.625 26.01H37.375V22.76C37.375 21.8663 36.6437 21.135 35.75 21.135C34.8563 21.135 34.125 21.8663 34.125 22.76V26.01H27.625V22.76C27.625 21.8663 26.8937 21.135 26 21.135C25.1063 21.135 24.375 21.8663 24.375 22.76V26.01H17.875V22.76C17.875 21.8663 17.1437 21.135 16.25 21.135C15.3562 21.135 14.625 21.8663 14.625 22.76V26.01H11.375C10.4812 26.01 9.75 26.7413 9.75 27.635C9.75 28.5288 10.4812 29.26 11.375 29.26H14.625V35.76H11.375C10.4812 35.76 9.75 36.4913 9.75 37.385C9.75 38.2788 10.4812 39.01 11.375 39.01H14.625V42.26C14.625 43.1538 15.3562 43.885 16.25 43.885C17.1437 43.885 17.875 43.1538 17.875 42.26V39.01H24.375V42.26C24.375 43.1538 25.1063 43.885 26 43.885C26.8937 43.885 27.625 43.1538 27.625 42.26V39.01H29.6725C29.965 37.8563 30.42 36.7675 31.005 35.76H27.625V29.26H34.125V32.12C35.1 31.34 36.1888 30.69 37.375 30.2188V29.26H40.625C41.5187 29.26 42.25 28.5288 42.25 27.635C42.25 26.7413 41.5187 26.01 40.625 26.01ZM24.375 35.76H17.875V29.26H24.375V35.76Z" fill="#9FBBFF"/>
<path d="M42.25 52.01C47.6348 52.01 52 47.6448 52 42.26C52 36.8752 47.6348 32.51 42.25 32.51C36.8652 32.51 32.5 36.8752 32.5 42.26C32.5 47.6448 36.8652 52.01 42.25 52.01Z" fill="#0084F4"/>
<path d="M45.5 40.635H43.875V39.01C43.875 38.1163 43.1438 37.385 42.25 37.385C41.3563 37.385 40.625 38.1163 40.625 39.01V40.635H39C38.1062 40.635 37.375 41.3663 37.375 42.26C37.375 43.1538 38.1062 43.885 39 43.885H40.625V45.51C40.625 46.4038 41.3563 47.135 42.25 47.135C43.1438 47.135 43.875 46.4038 43.875 45.51V43.885H45.5C46.3938 43.885 47.125 43.1538 47.125 42.26C47.125 41.3663 46.3938 40.635 45.5 40.635Z" fill="white"/>
<path fill-rule="evenodd" clip-rule="evenodd" d="M48.75 0.0100098H3.25C1.4625 0.0100098 0 1.47251 0 3.26001V16.26H52V3.26001C52 1.45626 50.5375 0.0100098 48.75 0.0100098ZM19.5 9.76001C18.6063 9.76001 17.875 9.02876 17.875 8.13501C17.875 7.24126 18.6063 6.51001 19.5 6.51001C20.3937 6.51001 21.125 7.24126 21.125 8.13501C21.125 9.02876 20.3937 9.76001 19.5 9.76001ZM32.5 9.76001C31.6063 9.76001 30.875 9.02876 30.875 8.13501C30.875 7.24126 31.6063 6.51001 32.5 6.51001C33.3937 6.51001 34.125 7.24126 34.125 8.13501C34.125 9.02876 33.3937 9.76001 32.5 9.76001Z" fill="#538DFF"/>
</svg>
