<svg width="517" height="329" viewBox="0 0 517 329" fill="none" xmlns="http://www.w3.org/2000/svg">
<g clip-path="url(#clip0)">
<path opacity="0.2" d="M242.654 325.158L106.646 246.369C96.8049 240.653 98.039 230.681 109.399 224.108L239.9 137.602C251.292 130.997 268.475 130.298 278.348 136.014L414.356 225.695C424.197 231.412 422.963 241.383 411.603 247.957L281.101 323.57C269.741 330.143 252.527 330.874 242.654 325.158Z" fill="url(#paint0_linear)"/>
<path d="M405.937 201.529L278.347 116.706C268.506 110.99 251.291 111.72 239.9 118.294L115.063 201.529L100 190.636V216.74H100.032C99.7468 220.614 101.93 224.33 106.645 227.093L242.653 305.881C252.494 311.598 269.708 310.867 281.1 304.294L411.602 228.681C417.519 225.251 420.684 220.932 421 216.74H421.032V190.636L405.937 201.529Z" fill="url(#paint1_linear)"/>
<path d="M242.654 279.777L106.646 200.988C96.8049 195.272 98.039 185.301 109.399 178.727L239.9 103.114C251.292 96.5088 268.475 95.8101 278.348 101.526L414.356 180.347C424.197 186.063 422.963 196.034 411.603 202.608L281.101 278.189C269.741 284.795 252.527 285.493 242.654 279.777Z" fill="#E8F8FC"/>
<path opacity="0.2" d="M322.015 218.772L283.314 241.319L175.059 178.6L213.76 156.052L322.015 218.772Z" fill="#86B1B8"/>
<path d="M215.026 156.37L212.336 154.814L212.305 143.731L214.994 145.287L215.026 156.37Z" fill="#FFB424"/>
<path d="M214.962 140.079L212.304 138.523L212.178 97.5249L214.868 99.081L214.962 140.079Z" fill="#FFB424"/>
<path d="M175.756 164.913L173.066 163.357L210.28 141.794L212.97 143.35L175.756 164.913Z" fill="#FFEE60"/>
<path d="M177.717 120.612L175.027 119.056L212.304 138.523L214.962 140.079L177.717 120.612Z" fill="#FFCE2B"/>
<path d="M214.835 95.9689L212.177 94.4128L212.051 53.3196L214.741 54.9074L214.835 95.9689Z" fill="#FFB424"/>
<path d="M177.621 117.532L174.932 115.976L212.177 94.4128L214.835 95.9689L177.621 117.532Z" fill="#FFEE60"/>
<path d="M175.629 116.611L172.939 115.055L210.28 51.9543L212.97 53.5422L175.629 116.611Z" fill="#FFEE60"/>
<path d="M214.709 47.3175L212.019 45.7615L211.924 4.66821L214.582 6.22429L214.709 47.3175Z" fill="#FFB424"/>
<path d="M175.502 72.1512L172.812 70.5633L210.026 49.0005L212.716 50.5566L175.502 72.1512Z" fill="#FFEE60"/>
<path d="M177.369 27.7873L174.68 26.2312L212.02 45.7616L214.71 47.3177L177.369 27.7873Z" fill="#FFCE2B"/>
<path d="M172.655 27.4378L169.965 25.85L214.615 0L217.273 1.55608L172.655 27.4378Z" fill="#FFEE60"/>
<path d="M172.654 27.4379L217.273 1.58789L217.716 154.814L215.026 156.37L214.994 145.287L175.755 168.025L175.787 179.108L173.097 180.664L172.654 27.4379ZM175.502 75.2318L175.629 116.579L212.969 53.5419L175.502 75.2318ZM214.71 47.3176L214.583 6.22438L177.369 27.7872L214.71 47.3176ZM175.376 31.0582L175.502 72.1514L212.716 50.5886L175.376 31.0582ZM214.836 95.969L214.71 54.8757L177.622 117.532L214.836 95.969ZM175.755 164.913L212.969 143.35L175.629 123.851L175.755 164.913ZM214.963 140.079L214.868 99.0811L177.717 120.612L214.963 140.079Z" fill="#FF8726"/>
<path d="M173.098 180.664L170.408 179.108L169.965 25.8499L172.655 27.4377L173.098 180.664Z" fill="#FFB424"/>
<path d="M322.428 204.895V208.007L283.727 230.554L283.758 227.442L322.428 204.895Z" fill="#BEBFB8"/>
<path d="M283.758 227.442L283.726 230.554L175.471 167.835L175.502 164.723L283.758 227.442Z" fill="#848580"/>
<path d="M322.427 204.895L283.757 227.442L175.502 164.722L214.171 142.175L322.427 204.895Z" fill="#D4D5CE"/>
<path d="M322.428 159.07V162.182L283.727 184.761L283.758 181.649L322.428 159.07Z" fill="#BEBFB8"/>
<path d="M283.758 181.649L283.726 184.761L175.471 122.042L175.502 118.929L283.758 181.649Z" fill="#848580"/>
<path d="M322.427 159.07L283.757 181.649L175.502 118.929L214.171 96.3501L322.427 159.07Z" fill="#D4D5CE"/>
<path d="M322.428 112.292V115.404L283.727 137.983L283.758 134.871L322.428 112.292Z" fill="#BEBFB8"/>
<path d="M283.758 134.871L283.726 137.984L175.471 75.264L175.502 72.1519L283.758 134.871Z" fill="#848580"/>
<path d="M322.427 112.292L283.757 134.871L175.502 72.1516L214.171 49.5725L322.427 112.292Z" fill="#D4D5CE"/>
<path d="M322.428 204.894V208.006L283.727 230.554L283.758 227.442L322.428 204.894Z" fill="#A2AFB8"/>
<path d="M283.758 227.442L283.726 230.554L175.471 167.835L175.502 164.722L283.758 227.442Z" fill="#D3DBDC"/>
<path d="M322.427 204.894L283.757 227.442L175.502 164.722L214.171 142.175L322.427 204.894Z" fill="#F9FAF2"/>
<path opacity="0.2" d="M215.881 181.934L226.355 181.997L251.766 167.961L231.766 156.592L215.881 181.934Z" fill="#86B1B8"/>
<path d="M215.944 160.498L235.342 149.161L235.31 170.66L215.881 181.997L215.944 160.498Z" fill="#D4A36E"/>
<path d="M235.343 149.161L215.945 160.498L207.464 155.576L205.091 154.21L197.307 149.701L216.736 138.364L224.584 142.936L226.957 144.302L235.343 149.161Z" fill="#FFE3BD"/>
<path d="M215.944 160.498L215.881 181.998L197.242 171.2L197.305 149.701L215.944 160.498Z" fill="#F3C895"/>
<path d="M226.956 144.302L207.463 155.575L205.09 154.21L224.583 142.936L226.956 144.302Z" fill="#E8593A"/>
<path d="M205.09 154.242L207.463 155.607V165.928L205.09 164.563V154.242Z" fill="#BB5A31"/>
<path d="M220.438 173.995C220.375 173.995 220.28 174.026 220.185 174.09C219.9 174.249 219.647 174.598 219.52 174.947C219.394 174.725 219.14 174.693 218.856 174.852C218.571 175.011 218.318 175.36 218.191 175.71C218.065 175.487 217.811 175.455 217.527 175.614C217.432 175.678 217.368 175.741 217.273 175.805C217.463 174.884 218.096 173.899 218.856 173.455C219.615 173.01 220.248 173.264 220.438 173.995Z" fill="#C48455"/>
<path d="M219.077 178.091C218.855 178.218 218.729 178.091 218.729 177.932V174.598C218.729 174.534 218.792 174.439 218.855 174.407C218.918 174.375 218.982 174.407 218.982 174.471V177.805C218.982 177.837 219.013 177.9 219.108 177.837C219.235 177.773 219.235 177.583 219.235 177.583C219.235 177.519 219.298 177.424 219.361 177.392C219.425 177.361 219.456 177.392 219.456 177.456C219.425 177.615 219.361 177.964 219.077 178.091Z" fill="#C48455"/>
<path d="M222.622 173.836L222.368 173.963C221.894 174.249 221.482 174.026 221.482 173.455V172.058L223.476 170.883V172.28C223.508 172.883 223.128 173.55 222.622 173.836Z" fill="#C48455"/>
<path d="M222.622 175.964L222.4 176.091V173.741L222.622 173.614V175.964Z" fill="#C48455"/>
<path d="M223.16 175.773L221.863 176.535C221.8 176.567 221.736 176.535 221.736 176.472C221.736 176.408 221.8 176.313 221.863 176.281L223.16 175.519C223.224 175.487 223.287 175.519 223.287 175.583C223.287 175.646 223.224 175.741 223.16 175.773Z" fill="#C48455"/>
<path d="M228.665 172.693L224.614 175.043C224.519 175.106 224.425 175.106 224.393 175.011C224.361 174.947 224.361 174.82 224.393 174.693L226.418 169.453C226.513 169.199 226.798 169.041 226.893 169.199L228.918 172.089C228.981 172.153 228.981 172.28 228.918 172.407C228.855 172.534 228.76 172.629 228.665 172.693ZM226.64 169.422C226.608 169.453 224.583 174.725 224.583 174.725C224.614 174.789 228.665 172.439 228.665 172.439C228.696 172.343 226.671 169.453 226.671 169.453C226.64 169.422 226.64 169.422 226.64 169.422Z" fill="#C48455"/>
<path d="M226.451 172.025V170.596L226.799 170.406V171.835L226.768 172.343L226.483 172.502L226.451 172.025ZM226.451 173.137V172.756L226.799 172.565V172.946L226.451 173.137Z" fill="#C48455"/>
<path d="M226.164 164.023L218.633 168.406V162.785L226.164 158.402V164.023Z" fill="#ECEBE3"/>
<path d="M224.52 163.928L220.279 166.373C220.184 166.436 220.121 166.373 220.121 166.278C220.121 166.182 220.184 166.055 220.279 166.024L224.52 163.578C224.615 163.515 224.678 163.578 224.678 163.674C224.678 163.769 224.615 163.864 224.52 163.928Z" fill="#744B44"/>
<path d="M224.52 162.88L220.279 165.325C220.184 165.357 220.121 165.325 220.121 165.23C220.121 165.134 220.184 165.007 220.279 164.975L224.52 162.53C224.615 162.467 224.678 162.53 224.678 162.625C224.678 162.689 224.615 162.816 224.52 162.88Z" fill="#744B44"/>
<path d="M224.52 161.832L220.279 164.277C220.184 164.34 220.121 164.277 220.121 164.182C220.121 164.086 220.184 163.959 220.279 163.928L224.52 161.482C224.615 161.451 224.678 161.482 224.678 161.578C224.678 161.641 224.615 161.768 224.52 161.832Z" fill="#744B44"/>
<path d="M224.52 160.784L220.279 163.229C220.184 163.293 220.121 163.229 220.121 163.134C220.121 163.039 220.184 162.912 220.279 162.88L224.52 160.435C224.615 160.371 224.678 160.434 224.678 160.53C224.678 160.593 224.615 160.72 224.52 160.784Z" fill="#744B44"/>
<path opacity="0.2" d="M275.625 217.533L286.099 217.597L311.51 203.56L290.972 193.049L275.625 217.533Z" fill="#86B1B8"/>
<path d="M275.626 192.668L238.412 170.978L238.475 195.812L275.689 217.501L275.626 192.668Z" fill="#C48455"/>
<path d="M241.734 176.726L241.766 193.906L272.366 211.753V211.087L242.431 193.62L242.367 177.107L241.734 176.726Z" fill="#715245"/>
<path d="M242.367 177.107L242.43 193.62L272.366 211.086L272.303 194.573L242.367 177.107Z" fill="#9C6147"/>
<path d="M297.144 180.187L259.93 158.498L238.412 170.978L275.626 192.668L297.144 180.187Z" fill="#FFE3BD"/>
<path d="M244.994 170.978L245.564 171.296L259.93 162.975L289.992 180.505L290.562 180.187L259.93 162.308L244.994 170.978Z" fill="#9C6147"/>
<path d="M245.562 171.295L275.625 188.825L289.991 180.505L259.929 162.975L245.562 171.295Z" fill="#DE9C6F"/>
<path d="M275.625 192.668L275.688 217.502L297.206 205.022L297.143 180.188L275.625 192.668Z" fill="#DE9C6F"/>
<path d="M278.979 210.738V211.786L293.915 203.116L293.851 185.936L293.218 186.317L293.25 202.481L278.979 210.738Z" fill="#9C6147"/>
<path d="M278.916 194.573L278.979 210.738L293.251 202.481L293.219 186.317L278.916 194.573Z" fill="#C48455"/>
<path d="M258.538 193.525L256.734 188.825C256.639 188.603 256.418 188.444 256.323 188.571L254.519 191.175C254.424 191.302 254.551 191.588 254.709 191.715L258.348 193.811C258.506 193.906 258.633 193.748 258.538 193.525Z" fill="#744B44"/>
<path d="M255.942 196.066L257.081 196.733C257.176 196.797 257.271 196.733 257.271 196.638V192.287L255.784 191.43V195.78C255.752 195.876 255.847 196.003 255.942 196.066Z" fill="#744B44"/>
<path d="M262.145 203.084L261.829 202.894V200.702L261.48 200.512V200.131L262.525 200.734V201.115L262.177 200.925V203.084H262.145Z" fill="#744B44"/>
<path d="M260.467 201.02V202.1L260.119 201.909V199.337L260.467 199.527V200.607L260.879 200.829V199.75L261.195 199.94V202.481L260.879 202.29V201.211L260.467 201.02Z" fill="#744B44"/>
<path d="M259.486 198.988L259.834 199.179V201.719L259.486 201.529V198.988Z" fill="#744B44"/>
<path d="M258.158 199.877C258.252 199.718 258.316 199.655 258.411 199.623C258.442 199.623 258.474 199.591 258.569 199.559C258.632 199.528 258.695 199.496 258.727 199.464C258.822 199.4 258.854 199.305 258.854 199.178C258.854 199.115 258.854 199.019 258.822 198.956C258.79 198.861 258.759 198.829 258.695 198.797C258.537 198.829 258.506 198.892 258.474 198.988L258.158 198.734C258.158 198.638 258.189 198.543 258.221 198.48C258.252 198.416 258.316 198.384 258.379 198.384C258.474 198.384 258.569 198.384 258.695 198.48C258.822 198.543 258.917 198.638 259.012 198.765C259.138 198.956 259.202 199.178 259.202 199.4C259.202 199.528 259.17 199.623 259.138 199.718C259.107 199.782 259.012 199.845 258.917 199.909C258.79 199.972 258.695 200.036 258.632 200.067C258.537 200.131 258.506 200.194 258.506 200.321C258.506 200.385 258.506 200.448 258.537 200.512C258.569 200.607 258.632 200.703 258.695 200.734C258.885 200.703 258.917 200.607 258.949 200.48L259.265 200.703C259.265 200.83 259.233 200.957 259.202 201.02C259.17 201.084 259.107 201.147 259.044 201.179C258.949 201.211 258.854 201.179 258.727 201.115C258.664 201.084 258.601 201.02 258.537 200.988C258.442 200.893 258.347 200.798 258.316 200.671C258.221 200.512 258.189 200.321 258.189 200.131C258.126 200.036 258.126 199.972 258.158 199.877Z" fill="#744B44"/>
<path d="M256.607 198.987C256.702 198.829 256.765 198.765 256.86 198.733C256.892 198.733 256.923 198.702 257.018 198.67C257.081 198.638 257.145 198.606 257.176 198.606C257.271 198.543 257.303 198.448 257.303 198.321C257.303 198.257 257.303 198.162 257.271 198.098C257.24 198.035 257.208 197.971 257.145 197.939C256.955 197.971 256.955 198.035 256.923 198.13L256.607 197.876C256.607 197.781 256.638 197.685 256.67 197.622C256.702 197.558 256.765 197.527 256.828 197.527C256.923 197.527 257.018 197.527 257.145 197.622C257.271 197.685 257.366 197.781 257.461 197.908C257.588 198.098 257.651 198.321 257.651 198.543C257.651 198.67 257.619 198.765 257.588 198.86C257.556 198.924 257.461 198.987 257.366 199.051C257.24 199.114 257.145 199.178 257.081 199.21C256.987 199.273 256.955 199.337 256.955 199.464C256.955 199.527 256.955 199.591 256.987 199.654C257.018 199.75 257.081 199.845 257.176 199.877C257.366 199.845 257.398 199.75 257.43 199.623L257.746 199.845C257.746 199.972 257.714 200.067 257.683 200.162C257.651 200.258 257.588 200.289 257.524 200.321C257.43 200.353 257.335 200.321 257.208 200.258C257.145 200.226 257.081 200.162 257.018 200.131C256.923 200.035 256.828 199.94 256.797 199.813C256.702 199.654 256.67 199.464 256.67 199.273C256.575 199.114 256.575 199.051 256.607 198.987Z" fill="#744B44"/>
<path d="M255.943 196.923L256.26 197.114V199.686L255.943 199.496V196.923Z" fill="#744B44"/>
<path d="M254.613 196.765C254.613 196.606 254.677 196.479 254.771 196.416C254.866 196.352 254.993 196.352 255.151 196.447L255.689 196.765V199.305L255.151 199.02C254.993 198.924 254.898 198.797 254.771 198.639C254.677 198.448 254.613 198.289 254.613 198.13V196.765ZM255.309 196.955L255.12 196.828C254.93 196.955 254.93 198.289 254.93 198.289C254.93 198.353 254.961 198.416 254.993 198.48C255.025 198.543 255.088 198.607 255.12 198.607L255.309 198.734V196.955Z" fill="#744B44"/>
<path d="M253.381 197.971V197.59L253.982 197.94V197.241L253.539 196.987V196.606L253.982 196.86V196.161L253.381 195.812V195.431L254.33 195.971V198.543L253.381 197.971Z" fill="#744B44"/>
<path d="M252.02 197.051C251.925 196.86 251.861 196.701 251.861 196.511V194.542L252.209 194.732V196.701C252.209 196.765 252.241 196.828 252.273 196.892C252.304 196.955 252.368 196.987 252.399 197.019C252.589 196.924 252.589 194.955 252.589 194.955L252.906 195.145V197.114C252.906 197.273 252.842 197.4 252.747 197.463C252.652 197.527 252.526 197.527 252.368 197.432C252.241 197.368 252.114 197.241 252.02 197.051Z" fill="#744B44"/>
<path d="M251.576 194.383V196.955L251.228 196.765V195.812L251.038 195.717C250.88 195.621 250.785 195.494 250.658 195.336C250.563 195.145 250.5 194.986 250.5 194.828V194.446C250.5 194.256 250.532 194.161 250.627 194.097C250.721 194.034 250.848 194.065 251.006 194.129L251.576 194.383ZM250.848 194.955C250.848 195.018 250.88 195.082 250.911 195.145C250.943 195.209 251.006 195.272 251.038 195.272L251.228 195.399V194.573L251.038 194.446C250.848 194.573 250.848 194.955 250.848 194.955Z" fill="#744B44"/>
<path d="M282.43 204.672L291.195 199.59V193.049L282.43 198.13V204.672Z" fill="#ECEBE3"/>
<path d="M284.36 202.321L289.296 199.463C289.391 199.4 289.486 199.273 289.486 199.146C289.486 199.019 289.423 198.987 289.296 199.05L284.36 201.908C284.265 201.972 284.17 202.099 284.17 202.226C284.17 202.321 284.265 202.353 284.36 202.321Z" fill="#744B44"/>
<path d="M284.36 201.083L289.296 198.225C289.391 198.161 289.486 198.034 289.486 197.907C289.486 197.812 289.423 197.748 289.296 197.812L284.36 200.67C284.265 200.734 284.17 200.861 284.17 200.988C284.17 201.115 284.265 201.146 284.36 201.083Z" fill="#744B44"/>
<path d="M284.36 199.876L289.296 197.018C289.391 196.954 289.486 196.827 289.486 196.7C289.486 196.573 289.423 196.541 289.296 196.605L284.36 199.463C284.265 199.527 284.17 199.654 284.17 199.781C284.17 199.876 284.265 199.939 284.36 199.876Z" fill="#744B44"/>
<path d="M284.36 198.669L289.296 195.811C289.391 195.748 289.486 195.621 289.486 195.494C289.486 195.367 289.423 195.335 289.296 195.398L284.36 198.257C284.265 198.32 284.17 198.447 284.17 198.574C284.17 198.669 284.265 198.701 284.36 198.669Z" fill="#744B44"/>
<path d="M322.428 159.069V162.181L283.727 184.761L283.758 181.648L322.428 159.069Z" fill="#A2AFB8"/>
<path d="M283.758 181.649L283.726 184.761L175.471 122.041L175.502 118.897L283.758 181.649Z" fill="#D3DBDC"/>
<path d="M322.427 159.069L283.757 181.648L175.502 118.897L214.171 96.3496L322.427 159.069Z" fill="#F9FAF2"/>
<path opacity="0.2" d="M220.881 139.158L231.387 139.221L256.766 125.185L236.798 113.816L220.881 139.158Z" fill="#86B1B8"/>
<path d="M220.818 93.4917L240.5 104.892L238.791 105.877L220.944 116.293L201.293 104.892L202.97 103.876L220.818 93.4917Z" fill="#F3C895"/>
<path d="M208.793 106.417L233.032 106.449L220.944 113.467L208.793 106.417Z" fill="#DE9C6F"/>
<path d="M220.85 96.2861L235.659 104.892L235.185 105.178L220.976 96.9213L207.939 104.543L206.99 105.083L206.736 105.242L206.104 104.892L206.863 104.448L207.812 103.876L220.85 96.2861Z" fill="#9C6147"/>
<path d="M220.976 96.9216L235.185 105.178L233.982 105.877H207.812L206.736 105.242L206.989 105.083L207.939 104.543L220.976 96.9216Z" fill="#DE9C6F"/>
<path d="M233.982 105.877L233.033 106.448L208.793 106.417L207.812 105.877H233.982Z" fill="#9C6147"/>
<path d="M238.791 103.876L240.5 104.892L240.026 105.146L238.791 105.877H233.982H207.812H203.002L201.293 104.892L202.97 103.876H207.812H233.95H238.791Z" fill="#F3C895"/>
<path d="M201.293 104.893L220.944 116.293V118.294L220.881 139.126L201.356 127.694V125.693L201.293 104.893Z" fill="#DE9C6F"/>
<path d="M218.603 134.299L206.926 127.535L218.539 120.803L218.603 134.299Z" fill="#DE9C6F"/>
<path d="M203.697 109.688L204.33 110.037L204.362 125.217V126.329V126.646L203.761 126.265V125.408V124.296L203.697 109.688Z" fill="#9C6147"/>
<path d="M204.33 110.037L218.538 118.294V119.691L205.469 127.281L204.362 126.646V126.329V125.217L204.33 110.037Z" fill="#C48455"/>
<path d="M218.603 134.299L206.926 127.535L206.451 127.281L218.539 120.263V120.803L218.603 134.299Z" fill="#C48455"/>
<path d="M219.235 115.341L220.943 116.325V118.294L203.064 128.678L201.355 127.694V125.693L219.235 115.341Z" fill="#9C6147"/>
<path d="M206.924 127.535L206.45 127.281L218.538 120.263V119.691L205.469 127.281L206.45 127.821L218.601 134.871V134.3L206.924 127.535Z" fill="#9C6147"/>
<path d="M219.235 115.341L220.943 116.325V116.865V118.294L218.538 119.691L205.469 127.281L203.064 128.678L201.355 127.694V125.693L203.76 124.296L216.83 116.738L219.235 115.341Z" fill="#DE9C6F"/>
<path d="M240.5 104.893V127.662L238.792 128.678L220.881 139.126V116.325L222.59 115.341L240.5 104.893Z" fill="#C48455"/>
<path d="M235.407 127.281L234.932 127.567L223.318 134.331V120.263L235.407 127.281Z" fill="#9C6147"/>
<path d="M238.063 109.847V126.297L237.588 126.551V110.101L238.063 109.847Z" fill="#715245"/>
<path d="M237.59 110.1V126.55L236.387 127.281L223.318 119.691V118.421L223.572 118.294L224.521 117.722L237.59 110.1Z" fill="#9C6147"/>
<path d="M240.5 125.693V127.662L238.792 128.678L220.881 118.294V116.325L222.59 115.341L240.5 125.693Z" fill="#9C6147"/>
<path d="M236.387 127.281L235.407 127.853L223.318 134.903V134.331L234.932 127.567L235.407 127.281L223.318 120.263V119.691L236.387 127.281Z" fill="#715245"/>
<path d="M240.5 125.693V127.662L240.026 127.948L238.792 128.678L236.387 127.281L223.317 119.691L220.881 118.294V116.325L222.59 115.341L224.995 116.738L238.064 124.296L240.5 125.693Z" fill="#C48455"/>
<path d="M225.374 109.56L220.975 112.133C220.88 112.196 220.722 112.228 220.564 112.196C220.406 112.164 220.311 112.101 220.279 112.037L218.665 108.544C218.602 108.385 218.887 108.195 219.171 108.258L225.184 109.179C225.342 109.211 225.437 109.275 225.469 109.338C225.5 109.402 225.469 109.497 225.374 109.56ZM219.013 108.417C219.013 108.449 220.627 111.942 220.627 111.942C220.722 111.974 225.152 109.402 225.152 109.402C225.121 109.338 219.108 108.417 219.108 108.417C219.045 108.417 219.013 108.417 219.013 108.417Z" fill="#C48455"/>
<path d="M221.134 109.878L219.773 109.084L220.122 108.862L221.482 109.655L221.925 109.941L221.609 110.132L221.134 109.878ZM222.21 110.513L221.83 110.291L222.178 110.068L222.558 110.291L222.21 110.513Z" fill="#C48455"/>
<path d="M212.021 129.409L217.433 132.553V128.488L212.021 125.375V129.409Z" fill="#ECEBE3"/>
<path d="M213.224 129.313L216.262 131.06C216.325 131.092 216.357 131.06 216.357 130.996C216.357 130.933 216.293 130.837 216.262 130.806L213.224 129.059C213.161 129.027 213.129 129.059 213.129 129.123C213.129 129.186 213.161 129.281 213.224 129.313Z" fill="#744B44"/>
<path d="M213.224 128.583L216.262 130.329C216.325 130.361 216.357 130.329 216.357 130.266C216.357 130.202 216.293 130.107 216.262 130.075L213.224 128.329C213.161 128.297 213.129 128.329 213.129 128.392C213.129 128.456 213.161 128.551 213.224 128.583Z" fill="#744B44"/>
<path d="M213.224 127.821L216.262 129.567C216.326 129.599 216.357 129.567 216.357 129.504C216.357 129.44 216.294 129.345 216.262 129.313L213.224 127.567C213.161 127.535 213.13 127.567 213.13 127.63C213.098 127.694 213.161 127.789 213.224 127.821Z" fill="#744B44"/>
<path d="M213.224 127.09L216.262 128.837C216.325 128.869 216.357 128.837 216.357 128.773C216.357 128.71 216.293 128.615 216.262 128.583L213.224 126.836C213.161 126.804 213.129 126.836 213.129 126.9C213.129 126.963 213.161 127.027 213.224 127.09Z" fill="#744B44"/>
<path opacity="0.2" d="M250.848 155.925L258.063 155.957L275.435 146.335L261.733 138.554L250.848 155.925Z" fill="#86B1B8"/>
<path d="M250.911 134.458L270.341 123.12L270.277 144.62L250.848 155.957L250.911 134.458Z" fill="#D4A36E"/>
<path d="M270.34 123.121L250.91 134.458L242.461 129.567L240.088 128.17L232.271 123.66L251.701 112.323L259.581 116.896L261.954 118.262L270.34 123.121Z" fill="#FFE3BD"/>
<path d="M250.91 134.458L250.847 155.957L232.24 145.16L232.272 123.661L250.91 134.458Z" fill="#F3C895"/>
<path d="M261.954 118.262L242.461 129.567L240.088 128.17L259.581 116.896L261.954 118.262Z" fill="#E8593A"/>
<path d="M240.088 128.202L242.461 129.567V139.92L240.088 138.523V128.202Z" fill="#BB5A31"/>
<path d="M255.436 147.954C255.373 147.954 255.278 147.986 255.183 148.049C254.898 148.208 254.645 148.558 254.518 148.907C254.392 148.685 254.138 148.653 253.854 148.812C253.569 148.97 253.316 149.32 253.189 149.669C253.063 149.447 252.809 149.415 252.525 149.574C252.43 149.637 252.366 149.701 252.271 149.764C252.461 148.843 253.094 147.859 253.854 147.414C254.613 147.002 255.246 147.224 255.436 147.954Z" fill="#C48455"/>
<path d="M254.075 152.051C253.821 152.178 253.727 152.051 253.727 151.892V148.557C253.727 148.494 253.79 148.399 253.853 148.367C253.916 148.335 253.98 148.367 253.98 148.43V151.765C253.98 151.797 254.011 151.86 254.106 151.797C254.233 151.733 254.233 151.543 254.233 151.543C254.233 151.479 254.296 151.384 254.359 151.352C254.423 151.32 254.454 151.352 254.454 151.416C254.423 151.606 254.328 151.924 254.075 152.051Z" fill="#C48455"/>
<path d="M257.62 147.796L257.367 147.954C256.892 148.24 256.48 148.018 256.48 147.446V146.049L258.474 144.906V146.303C258.506 146.843 258.094 147.51 257.62 147.796Z" fill="#C48455"/>
<path d="M257.62 149.924L257.398 150.051V147.732L257.62 147.573V149.924Z" fill="#C48455"/>
<path d="M258.158 149.733L256.861 150.495C256.798 150.526 256.734 150.495 256.734 150.431C256.734 150.368 256.798 150.272 256.861 150.241L258.158 149.479C258.222 149.447 258.285 149.479 258.285 149.542C258.253 149.637 258.222 149.701 258.158 149.733Z" fill="#C48455"/>
<path d="M263.632 146.652L259.581 149.002C259.487 149.066 259.392 149.034 259.36 148.97C259.297 148.907 259.297 148.78 259.36 148.653L261.385 143.413C261.48 143.159 261.765 143 261.86 143.159L263.885 146.049C263.948 146.112 263.948 146.239 263.885 146.366C263.822 146.493 263.759 146.589 263.632 146.652ZM261.607 143.413C261.575 143.445 259.55 148.716 259.55 148.716C259.581 148.78 263.632 146.43 263.632 146.43C263.664 146.335 261.638 143.445 261.638 143.445C261.638 143.381 261.638 143.381 261.607 143.413Z" fill="#C48455"/>
<path d="M261.447 145.985V144.556L261.795 144.365V145.795L261.764 146.303L261.479 146.461L261.447 145.985ZM261.447 147.128V146.715L261.795 146.525V146.906L261.447 147.128Z" fill="#C48455"/>
<path d="M261.162 137.983L253.631 142.365V136.744L261.162 132.362V137.983Z" fill="#ECEBE3"/>
<path d="M259.518 137.887L255.277 140.333C255.182 140.364 255.119 140.333 255.119 140.237C255.119 140.142 255.182 140.015 255.277 139.983L259.518 137.538C259.613 137.506 259.676 137.538 259.676 137.633C259.676 137.729 259.613 137.824 259.518 137.887Z" fill="#744B44"/>
<path d="M259.518 136.839L255.277 139.285C255.182 139.348 255.119 139.285 255.119 139.189C255.119 139.094 255.182 138.967 255.277 138.935L259.518 136.49C259.613 136.458 259.676 136.49 259.676 136.585C259.676 136.68 259.613 136.776 259.518 136.839Z" fill="#744B44"/>
<path d="M259.518 135.791L255.277 138.237C255.182 138.268 255.119 138.237 255.119 138.141C255.119 138.046 255.182 137.919 255.277 137.887L259.518 135.442C259.613 135.379 259.676 135.442 259.676 135.537C259.676 135.633 259.613 135.728 259.518 135.791Z" fill="#744B44"/>
<path d="M259.518 134.743L255.277 137.189C255.182 137.22 255.119 137.189 255.119 137.093C255.119 136.998 255.182 136.871 255.277 136.839L259.518 134.394C259.613 134.33 259.676 134.394 259.676 134.489C259.676 134.585 259.613 134.68 259.518 134.743Z" fill="#744B44"/>
<path opacity="0.2" d="M277.461 170.787L287.967 170.851L313.346 156.814L293.346 145.445L277.461 170.787Z" fill="#86B1B8"/>
<path d="M277.524 149.351L296.954 138.014L296.891 159.513L277.461 170.851L277.524 149.351Z" fill="#D4A36E"/>
<path d="M296.955 138.014L277.525 149.351L269.045 144.461L266.671 143.064L258.887 138.554L278.316 127.217L286.164 131.79L288.537 133.156L296.955 138.014Z" fill="#FFE3BD"/>
<path d="M277.524 149.352L277.461 170.851L258.822 160.054L258.886 138.554L277.524 149.352Z" fill="#F3C895"/>
<path d="M288.536 133.155L269.043 144.461L266.67 143.063L286.163 131.79L288.536 133.155Z" fill="#E8593A"/>
<path d="M266.67 143.095L269.043 144.461V154.814L266.67 153.448V143.095Z" fill="#BB5A31"/>
<path d="M282.018 162.848C281.955 162.848 281.86 162.88 281.765 162.943C281.48 163.102 281.227 163.451 281.1 163.801C280.974 163.578 280.721 163.547 280.436 163.705C280.151 163.864 279.898 164.214 279.771 164.563C279.645 164.341 279.391 164.309 279.107 164.468C279.012 164.531 278.948 164.595 278.854 164.658C279.012 163.737 279.676 162.753 280.436 162.308C281.195 161.895 281.828 162.118 282.018 162.848Z" fill="#C48455"/>
<path d="M280.69 166.976C280.437 167.103 280.342 166.976 280.342 166.817V163.483C280.342 163.42 280.405 163.324 280.468 163.292C280.532 163.261 280.595 163.292 280.595 163.356V166.69C280.595 166.722 280.627 166.786 280.722 166.722C280.848 166.659 280.848 166.468 280.848 166.468C280.848 166.405 280.911 166.309 280.975 166.278C281.038 166.246 281.07 166.278 281.07 166.341C281.038 166.5 280.943 166.817 280.69 166.976Z" fill="#C48455"/>
<path d="M284.233 162.689L283.98 162.816C283.505 163.102 283.094 162.88 283.094 162.308V160.911L285.087 159.768V161.165C285.087 161.737 284.708 162.404 284.233 162.689Z" fill="#C48455"/>
<path d="M284.2 164.817L283.979 164.944V162.626L284.2 162.499V164.817Z" fill="#C48455"/>
<path d="M284.738 164.658L283.441 165.421C283.378 165.452 283.314 165.421 283.314 165.357C283.314 165.293 283.378 165.198 283.441 165.166L284.738 164.404C284.802 164.373 284.865 164.404 284.865 164.468C284.865 164.531 284.802 164.595 284.738 164.658Z" fill="#C48455"/>
<path d="M290.245 161.546L286.195 163.896C286.1 163.96 286.005 163.96 285.973 163.864C285.91 163.801 285.91 163.674 285.973 163.547L287.998 158.307C288.093 158.053 288.378 157.894 288.473 158.053L290.498 160.943C290.562 161.006 290.562 161.133 290.498 161.26C290.435 161.387 290.34 161.483 290.245 161.546ZM288.22 158.307C288.188 158.339 286.163 163.61 286.163 163.61C286.195 163.674 290.245 161.292 290.245 161.292C290.277 161.197 288.252 158.307 288.252 158.307C288.252 158.275 288.22 158.275 288.22 158.307Z" fill="#C48455"/>
<path d="M288.029 160.879V159.45L288.377 159.259V160.688L288.346 161.196L288.061 161.355L288.029 160.879ZM288.029 162.022V161.641L288.377 161.45V161.832L288.029 162.022Z" fill="#C48455"/>
<path d="M287.776 152.908L280.213 157.259V151.638L287.776 147.256V152.908Z" fill="#ECEBE3"/>
<path d="M286.1 152.781L281.859 155.226C281.764 155.29 281.701 155.226 281.701 155.131C281.701 155.036 281.764 154.909 281.859 154.877L286.1 152.432C286.195 152.368 286.258 152.432 286.258 152.527C286.258 152.622 286.195 152.749 286.1 152.781Z" fill="#744B44"/>
<path d="M286.1 151.733L281.859 154.178C281.764 154.21 281.701 154.178 281.701 154.083C281.701 153.988 281.764 153.861 281.859 153.829L286.1 151.383C286.195 151.32 286.258 151.383 286.258 151.479C286.258 151.574 286.195 151.669 286.1 151.733Z" fill="#744B44"/>
<path d="M286.1 150.685L281.859 153.13C281.764 153.194 281.701 153.13 281.701 153.035C281.701 152.94 281.764 152.813 281.859 152.781L286.1 150.336C286.195 150.304 286.258 150.336 286.258 150.431C286.258 150.526 286.195 150.621 286.1 150.685Z" fill="#744B44"/>
<path d="M286.1 149.637L281.859 152.082C281.764 152.146 281.701 152.082 281.701 151.987C281.701 151.892 281.764 151.765 281.859 151.733L286.1 149.288C286.195 149.224 286.258 149.288 286.258 149.383C286.258 149.478 286.195 149.574 286.1 149.637Z" fill="#744B44"/>
<path d="M322.428 112.323V115.404L283.727 137.983L283.758 134.871L322.428 112.323Z" fill="#A2AFB8"/>
<path d="M283.758 134.871L283.726 137.983L175.471 75.2633L175.502 72.1511L283.758 134.871Z" fill="#D3DBDC"/>
<path d="M322.427 112.323L283.757 134.87L175.502 72.1508L214.171 49.5718L322.427 112.323Z" fill="#F9FAF2"/>
<path opacity="0.2" d="M211.008 87.5211L221.482 87.5846L246.892 73.5481L226.893 62.1792L211.008 87.5211Z" fill="#86B1B8"/>
<path d="M211.039 70.8803L235.975 56.3357L235.944 72.9762L211.008 87.5208L211.039 70.8803Z" fill="#C48455"/>
<path d="M233.76 60.1782L233.728 71.7059L213.223 83.6465V83.2019L233.285 71.5154L233.317 60.4323L233.76 60.1782Z" fill="#715245"/>
<path d="M233.317 60.4324L233.285 71.5155L213.223 83.202L213.254 72.1506L233.317 60.4324Z" fill="#9C6147"/>
<path d="M196.609 62.4967L221.545 47.9521L235.975 56.3359L211.039 70.8805L196.609 62.4967Z" fill="#FFE3BD"/>
<path d="M231.576 56.3361L231.196 56.5584L221.545 50.9693L201.388 62.7193L201.008 62.497L221.545 50.5247L231.576 56.3361Z" fill="#9C6147"/>
<path d="M231.196 56.5582L211.038 68.3082L201.387 62.719L221.544 50.969L231.196 56.5582Z" fill="#DE9C6F"/>
<path d="M211.04 70.8806L211.008 87.5212L196.578 79.1374L196.61 62.4968L211.04 70.8806Z" fill="#DE9C6F"/>
<path d="M208.793 82.9799V83.6786L198.762 77.8671L198.825 66.3394L199.268 66.5934L199.205 77.4225L208.793 82.9799Z" fill="#9C6147"/>
<path d="M208.825 72.1509L208.793 82.98L199.205 77.4226L199.268 66.5935L208.825 72.1509Z" fill="#C48455"/>
<path d="M222.496 71.4205L223.698 68.2766C223.761 68.1178 223.92 68.0226 223.983 68.1178L225.185 69.8645C225.249 69.9597 225.185 70.1503 225.059 70.2138L222.622 71.6111C222.496 71.7064 222.432 71.5793 222.496 71.4205Z" fill="#744B44"/>
<path d="M224.236 73.1356L223.476 73.5802C223.413 73.612 223.35 73.5802 223.35 73.5167V70.5951L224.362 70.0234V72.9451C224.362 73.0086 224.299 73.1039 224.236 73.1356Z" fill="#744B44"/>
<path d="M220.059 76.3751L219.838 76.5021V76.248L220.534 75.8352V76.0893L220.313 76.2163V77.6771L220.091 77.8041V76.3751H220.059Z" fill="#744B44"/>
<path d="M220.944 76.5969V77.3273L220.723 77.4544V75.7395L220.944 75.6125V76.3429L221.197 76.1841V75.4537L221.419 75.3267V77.0415L221.197 77.1686V76.4381L220.944 76.5969Z" fill="#744B44"/>
<path d="M221.831 76.8196L221.609 76.9466V75.2318L221.831 75.1047V76.8196Z" fill="#744B44"/>
<path d="M222.781 75.8349C222.781 75.9619 222.75 76.0572 222.686 76.1842C222.655 76.2477 222.591 76.343 222.528 76.4065C222.497 76.4383 222.465 76.47 222.402 76.5018C222.307 76.5653 222.243 76.5653 222.18 76.5653C222.117 76.5653 222.085 76.5018 222.054 76.47C222.022 76.4065 222.022 76.343 221.99 76.2477L222.212 76.089C222.212 76.1842 222.243 76.2477 222.275 76.2795C222.402 76.2477 222.465 76.1842 222.497 76.1207C222.528 75.9302 222.497 75.8667 222.433 75.8349C222.402 75.8031 222.338 75.7714 222.243 75.7396C222.18 75.7079 222.117 75.6444 222.085 75.6126C222.054 75.5491 222.022 75.4856 222.022 75.3903C222.022 75.2315 222.054 75.1045 222.148 74.9457C222.212 74.8822 222.275 74.7869 222.37 74.7552C222.433 74.7234 222.528 74.6917 222.56 74.6917C222.686 74.8187 222.718 74.8504 222.718 74.9457L222.497 75.1045C222.307 75.0092 222.275 75.041 222.275 75.1045C222.243 75.3268 222.275 75.3903 222.338 75.4221C222.591 75.5491 222.623 75.5808 222.655 75.6444C222.75 75.7396 222.781 75.8031 222.781 75.8349Z" fill="#744B44"/>
<path d="M223.824 75.2316C223.824 75.3586 223.793 75.4539 223.729 75.5809C223.698 75.6762 223.634 75.7397 223.571 75.8032C223.539 75.835 223.508 75.8667 223.445 75.8985C223.35 75.962 223.286 75.962 223.223 75.962C223.191 75.962 223.128 75.8985 223.096 75.8667C223.065 75.8032 223.065 75.7397 223.033 75.6444L223.255 75.5174C223.255 75.6127 223.286 75.6762 223.318 75.7079C223.445 75.6762 223.508 75.6127 223.54 75.5492C223.571 75.3586 223.539 75.2951 223.476 75.2634C223.445 75.2316 223.381 75.1998 223.286 75.1681C223.223 75.1363 223.16 75.0728 223.128 75.0411C223.096 74.9775 223.065 74.914 223.065 74.8188C223.065 74.66 223.096 74.533 223.191 74.3742C223.255 74.2789 223.318 74.2154 223.413 74.1836C223.508 74.1519 223.571 74.1201 223.603 74.1201C223.729 74.2471 223.761 74.2789 223.761 74.3742L223.54 74.5329C223.35 74.4377 223.318 74.4694 223.318 74.5329C223.286 74.7552 223.318 74.8188 223.381 74.8505C223.634 74.9775 223.666 75.0093 223.698 75.0728C223.793 75.1363 223.824 75.1998 223.824 75.2316Z" fill="#744B44"/>
<path d="M224.235 75.4219L224.014 75.5489V73.8341L224.235 73.707V75.4219Z" fill="#744B44"/>
<path d="M225.122 74.5013C225.122 74.6283 225.09 74.7236 225.027 74.8506C224.964 74.9776 224.869 75.0729 224.774 75.1046L224.426 75.2952V73.5803L224.774 73.3898C224.869 73.3263 224.964 73.3263 225.027 73.358C225.09 73.3898 225.122 73.485 225.122 73.5803V74.5013ZM224.647 74.9459L224.774 74.8823C224.9 74.66 224.9 73.7709 224.9 73.7709C224.774 73.7073 224.647 73.7709 224.647 73.7709V74.9459Z" fill="#744B44"/>
<path d="M225.312 74.7871V73.0722L225.945 72.6912V72.9452L225.534 73.1675V73.6439L225.85 73.4851V73.7391L225.534 73.8979V74.3743L225.945 74.1202V74.3743L225.312 74.7871Z" fill="#744B44"/>
<path d="M226.61 74.0563C226.515 74.1198 226.42 74.1198 226.357 74.088C226.293 74.0563 226.262 73.961 226.262 73.8657V72.532L226.483 72.4049V73.7387C226.736 73.5799 226.736 72.2779 226.736 72.2779L226.958 72.1509V73.4847C226.958 73.6117 226.926 73.7069 226.863 73.834C226.8 73.9292 226.705 74.0245 226.61 74.0563Z" fill="#744B44"/>
<path d="M227.528 71.8019C227.623 71.7384 227.718 71.7384 227.781 71.7701C227.844 71.8019 227.876 71.8972 227.876 72.0242V72.2782C227.876 72.4053 227.844 72.5005 227.781 72.6276C227.718 72.7546 227.623 72.8499 227.528 72.8816C227.401 72.9451 227.401 73.612 227.401 73.612L227.18 73.739V72.0242L227.528 71.8019ZM227.654 72.1512C227.528 72.0877 227.401 72.1512 227.401 72.1512V72.6911L227.528 72.6276C227.654 72.4053 227.654 72.1512 227.654 72.1512Z" fill="#744B44"/>
<path d="M206.484 78.9152L200.598 75.5172V71.103L206.484 74.5328V78.9152Z" fill="#ECEBE3"/>
<path d="M205.187 77.3274L201.896 75.422C201.833 75.3903 201.77 75.295 201.77 75.2315C201.77 75.168 201.833 75.1362 201.896 75.168L205.187 77.0734C205.25 77.1051 205.314 77.2004 205.314 77.2639C205.314 77.3274 205.25 77.3592 205.187 77.3274Z" fill="#744B44"/>
<path d="M205.187 76.5018L201.896 74.5963C201.833 74.5646 201.77 74.4693 201.77 74.4058C201.77 74.3423 201.833 74.3105 201.896 74.3423L205.187 76.2477C205.25 76.2795 205.314 76.3747 205.314 76.47C205.314 76.5335 205.25 76.5335 205.187 76.5018Z" fill="#744B44"/>
<path d="M205.187 75.7078L201.896 73.8024C201.833 73.7706 201.77 73.6754 201.77 73.6119C201.77 73.5483 201.833 73.5166 201.896 73.5483L205.187 75.4537C205.25 75.4855 205.314 75.5808 205.314 75.6443C205.314 75.7078 205.25 75.7396 205.187 75.7078Z" fill="#744B44"/>
<path d="M205.187 74.8821L201.896 72.9767C201.833 72.945 201.77 72.8497 201.77 72.7862C201.77 72.7227 201.833 72.6909 201.896 72.7227L205.187 74.6281C205.25 74.6598 205.314 74.7551 205.314 74.8186C205.314 74.8821 205.25 74.9139 205.187 74.8821Z" fill="#744B44"/>
<path opacity="0.2" d="M272.301 122.676L282.775 122.74L308.185 108.671L288.186 97.3342L272.301 122.676Z" fill="#86B1B8"/>
<path d="M272.302 97.8737L235.088 76.1838L235.151 101.018L272.365 122.739L272.302 97.8737Z" fill="#C48455"/>
<path d="M238.41 81.9319L238.442 99.1123L269.042 116.96V116.293L239.106 98.8265L239.043 82.3447L238.41 81.9319Z" fill="#715245"/>
<path d="M239.043 82.3445L239.106 98.8262L269.042 116.292L268.978 99.7789L239.043 82.3445Z" fill="#9C6147"/>
<path d="M293.82 85.3935L256.606 63.7036L235.088 76.184L272.302 97.8739L293.82 85.3935Z" fill="#FFE3BD"/>
<path d="M241.67 76.184L242.24 76.5333L256.606 68.213L286.668 85.7428L287.238 85.3934L256.606 67.5461L241.67 76.184Z" fill="#9C6147"/>
<path d="M242.238 76.5332L272.3 94.0629L286.667 85.7426L256.605 68.2129L242.238 76.5332Z" fill="#DE9C6F"/>
<path d="M272.301 97.874L272.364 122.74L293.882 110.227L293.819 85.3936L272.301 97.874Z" fill="#DE9C6F"/>
<path d="M275.654 115.944V116.992L290.59 108.354L290.527 91.1416L289.863 91.5227L289.926 107.687L275.654 115.944Z" fill="#9C6147"/>
<path d="M275.592 99.7792L275.655 115.943L289.927 107.687L289.863 91.5225L275.592 99.7792Z" fill="#C48455"/>
<path d="M255.214 98.7314L253.41 94.0314C253.315 93.8091 253.093 93.6503 252.999 93.7773L251.195 96.3496C251.1 96.4767 251.226 96.7625 251.385 96.8895L255.024 98.9855C255.182 99.1125 255.309 98.9537 255.214 98.7314Z" fill="#744B44"/>
<path d="M252.618 101.272L253.757 101.939C253.852 102.003 253.947 101.939 253.947 101.844V97.4932L252.459 96.6357V100.986C252.428 101.082 252.523 101.209 252.618 101.272Z" fill="#744B44"/>
<path d="M258.821 108.29L258.473 108.1V105.94L258.125 105.75V105.369L259.169 105.972V106.353L258.821 106.163V108.29Z" fill="#744B44"/>
<path d="M257.143 106.226V107.306L256.795 107.115V104.575L257.143 104.765V105.845L257.554 106.067V104.988L257.871 105.178V107.75L257.554 107.56V106.48L257.143 106.226Z" fill="#744B44"/>
<path d="M256.162 104.194L256.479 104.385V106.957L256.162 106.766V104.194Z" fill="#744B44"/>
<path d="M254.833 105.083C254.928 104.924 254.992 104.861 255.086 104.829C255.118 104.829 255.15 104.797 255.245 104.765C255.308 104.734 255.371 104.702 255.403 104.702C255.498 104.638 255.529 104.543 255.529 104.416C255.529 104.353 255.529 104.257 255.498 104.194C255.466 104.098 255.435 104.067 255.371 104.003C255.213 104.035 255.181 104.098 255.15 104.194L254.833 103.94C254.833 103.844 254.865 103.749 254.897 103.686C254.928 103.622 254.992 103.59 255.055 103.59C255.15 103.59 255.245 103.59 255.371 103.686C255.498 103.749 255.593 103.844 255.688 103.971C255.814 104.162 255.878 104.384 255.878 104.607C255.878 104.734 255.846 104.829 255.814 104.924C255.783 104.988 255.688 105.051 255.593 105.115C255.466 105.178 255.371 105.242 255.308 105.273C255.213 105.337 255.181 105.4 255.181 105.527C255.181 105.591 255.181 105.655 255.213 105.718C255.245 105.813 255.308 105.909 255.371 105.94C255.561 105.909 255.593 105.813 255.624 105.686L255.941 105.909C255.941 106.036 255.909 106.163 255.878 106.226C255.846 106.321 255.783 106.353 255.719 106.385C255.624 106.417 255.529 106.385 255.403 106.321C255.34 106.29 255.276 106.226 255.213 106.194C255.118 106.099 255.023 106.004 254.992 105.877C254.897 105.686 254.865 105.527 254.865 105.337C254.802 105.242 254.802 105.178 254.833 105.083Z" fill="#744B44"/>
<path d="M253.283 104.193C253.378 104.035 253.441 103.971 253.536 103.939C253.567 103.939 253.599 103.908 253.694 103.876C253.757 103.844 253.821 103.812 253.852 103.812C253.947 103.749 253.979 103.654 253.979 103.527C253.979 103.463 253.979 103.368 253.947 103.304C253.915 103.209 253.884 103.177 253.821 103.114C253.631 103.146 253.631 103.209 253.599 103.304L253.283 103.05C253.283 102.955 253.314 102.86 253.346 102.796C253.378 102.733 253.441 102.701 253.504 102.701C253.599 102.701 253.694 102.701 253.821 102.796C253.947 102.86 254.042 102.955 254.137 103.082C254.264 103.273 254.327 103.495 254.327 103.717C254.327 103.844 254.295 103.939 254.264 104.035C254.232 104.098 254.137 104.162 254.042 104.225C253.915 104.289 253.821 104.352 253.757 104.384C253.662 104.448 253.631 104.511 253.631 104.638C253.631 104.702 253.631 104.765 253.662 104.829C253.694 104.924 253.757 105.019 253.852 105.051C254.042 105.019 254.074 104.924 254.105 104.797L254.422 105.019C254.422 105.146 254.39 105.273 254.358 105.337C254.327 105.4 254.264 105.464 254.2 105.496C254.105 105.527 254.01 105.496 253.884 105.432C253.821 105.4 253.757 105.337 253.694 105.305C253.599 105.21 253.504 105.114 253.472 104.987C253.378 104.797 253.346 104.638 253.346 104.448C253.251 104.321 253.251 104.257 253.283 104.193Z" fill="#744B44"/>
<path d="M252.619 102.129L252.967 102.32V104.892L252.619 104.702V102.129Z" fill="#744B44"/>
<path d="M251.289 101.971C251.289 101.812 251.352 101.685 251.447 101.622C251.542 101.558 251.669 101.558 251.827 101.653L252.365 101.971V104.543L251.827 104.226C251.669 104.13 251.574 104.003 251.447 103.845C251.352 103.654 251.289 103.495 251.289 103.337V101.971ZM251.985 102.162L251.795 102.034C251.606 102.162 251.606 103.495 251.606 103.495C251.606 103.559 251.637 103.622 251.669 103.686C251.7 103.749 251.764 103.813 251.795 103.845L251.985 103.972V102.162Z" fill="#744B44"/>
<path d="M250.057 103.209V102.828L250.658 103.177V102.479L250.215 102.225V101.844L250.658 102.098V101.399L250.057 101.05V100.669L251.006 101.209V103.781L250.057 103.209Z" fill="#744B44"/>
<path d="M248.695 102.257C248.6 102.066 248.537 101.907 248.537 101.748V99.7795L248.885 99.9701V101.939C248.885 102.003 248.917 102.066 248.948 102.13C248.98 102.193 249.043 102.225 249.075 102.257C249.265 102.161 249.265 100.161 249.265 100.161L249.581 100.351V102.32C249.581 102.479 249.518 102.606 249.423 102.669C249.328 102.733 249.202 102.701 249.043 102.638C248.917 102.574 248.79 102.447 248.695 102.257Z" fill="#744B44"/>
<path d="M248.252 99.589V102.13L247.904 101.939V100.986L247.714 100.859C247.556 100.764 247.461 100.637 247.334 100.478C247.239 100.288 247.176 100.129 247.176 99.9701V99.589C247.176 99.3985 247.207 99.3032 247.302 99.2397C247.397 99.1762 247.524 99.1762 247.682 99.3032L248.252 99.589ZM247.524 100.161C247.524 100.224 247.556 100.288 247.587 100.351C247.619 100.415 247.682 100.478 247.714 100.478L247.904 100.605V99.7796L247.714 99.6526C247.524 99.7796 247.524 100.161 247.524 100.161Z" fill="#744B44"/>
<path d="M279.105 109.878L287.871 104.797V98.2546L279.105 103.336V109.878Z" fill="#ECEBE3"/>
<path d="M281.036 107.527L285.972 104.669C286.067 104.606 286.162 104.479 286.162 104.352C286.162 104.225 286.099 104.193 285.972 104.256L281.036 107.114C280.941 107.178 280.846 107.305 280.846 107.432C280.846 107.527 280.941 107.591 281.036 107.527Z" fill="#744B44"/>
<path d="M281.036 106.289L285.972 103.431C286.067 103.367 286.162 103.24 286.162 103.113C286.162 102.986 286.099 102.955 285.972 103.018L281.036 105.876C280.941 105.94 280.846 106.067 280.846 106.194C280.846 106.321 280.941 106.353 281.036 106.289Z" fill="#744B44"/>
<path d="M281.036 105.082L285.972 102.224C286.067 102.16 286.162 102.033 286.162 101.906C286.162 101.779 286.099 101.748 285.972 101.811L281.036 104.669C280.941 104.733 280.846 104.86 280.846 104.987C280.846 105.082 280.941 105.146 281.036 105.082Z" fill="#744B44"/>
<path d="M281.036 103.876L285.972 101.018C286.067 100.954 286.162 100.827 286.162 100.7C286.162 100.605 286.099 100.541 285.972 100.605L281.036 103.463C280.941 103.526 280.846 103.653 280.846 103.78C280.846 103.876 280.941 103.907 281.036 103.876Z" fill="#744B44"/>
<path d="M322.428 66.4985V69.6107L283.727 92.158L283.758 89.0458L322.428 66.4985Z" fill="#A2AFB8"/>
<path d="M283.758 89.046L283.726 92.1582L175.471 29.4386L175.502 26.3264L283.758 89.046Z" fill="#D3DBDC"/>
<path d="M322.427 66.4984L283.757 89.0457L175.502 26.3261L214.171 3.77881L322.427 66.4984Z" fill="#F9FAF2"/>
<path opacity="0.2" d="M267.209 72.0878L277.683 72.1513L303.094 58.1148L283.094 46.7458L267.209 72.0878Z" fill="#86B1B8"/>
<path opacity="0.2" d="M224.045 45.761L231.355 45.8245L249.107 36.0117L235.12 28.0725L224.045 45.761Z" fill="#86B1B8"/>
<path d="M267.112 15.5605L291.478 29.6605L289.358 30.8991L267.27 43.7923L242.904 29.6605L245.024 28.4538L267.112 15.5605Z" fill="#F3C895"/>
<path d="M252.207 31.5979H282.206L267.27 40.331L252.207 31.5979Z" fill="#DE9C6F"/>
<path d="M267.112 19.0222L285.497 29.6925L284.896 30.0418L267.302 19.8161L251.163 29.2479L249.961 29.9465L249.644 30.1053L248.885 29.6607L249.802 29.1526L250.973 28.454L267.112 19.0222Z" fill="#9C6147"/>
<path d="M267.302 19.8162L284.896 30.0418L283.409 30.8993H251.005L249.645 30.1054L249.961 29.9466L251.163 29.2479L267.302 19.8162Z" fill="#DE9C6F"/>
<path d="M283.41 30.8992L282.207 31.5978H252.208L251.006 30.8992H283.41Z" fill="#9C6147"/>
<path d="M289.358 28.4539L291.478 29.6606L290.877 30.0099L289.358 30.8991H283.409H251.005H245.024L242.904 29.6606L245.024 28.4539H250.974H283.377H289.358Z" fill="#F3C895"/>
<path d="M242.904 29.6604L267.27 43.7922V46.3009L267.365 72.0239L242.999 57.9239L242.968 55.4786L242.904 29.6604Z" fill="#DE9C6F"/>
<path d="M264.36 66.1172L249.898 57.7651L264.297 49.4131L264.36 66.1172Z" fill="#DE9C6F"/>
<path d="M245.91 35.6304L246.67 36.075L246.733 54.875V56.2723V56.6216L245.973 56.177V55.129V53.7317L245.91 35.6304Z" fill="#9C6147"/>
<path d="M246.67 36.0752L264.296 46.2691V48.0157L248.094 57.4157L246.733 56.6218V56.2725V54.8752L246.67 36.0752Z" fill="#C48455"/>
<path d="M264.36 66.1171L249.898 57.765L249.297 57.4157L264.296 48.7144V49.413L264.36 66.1171Z" fill="#C48455"/>
<path d="M265.149 42.6174L267.27 43.8559V46.3012L245.087 59.1309L242.998 57.9242L242.967 55.4789L265.149 42.6174Z" fill="#9C6147"/>
<path d="M249.897 57.7652L249.296 57.4159L264.296 48.7145V48.0159L248.094 57.4159L249.296 58.1145L264.359 66.8159V66.1172L249.897 57.7652Z" fill="#9C6147"/>
<path d="M265.149 42.6174L267.27 43.8559V44.5228V46.3012L264.295 48.0161L248.093 57.4161L245.087 59.1309L242.998 57.9242L242.967 55.4789L245.973 53.7323L262.143 44.3641L265.149 42.6174Z" fill="#DE9C6F"/>
<path d="M291.478 29.6921V57.9239L289.358 59.1306L267.207 72.0874V43.8556L269.296 42.6171L291.478 29.6921Z" fill="#C48455"/>
<path d="M285.181 57.4157L284.611 57.765L270.182 66.1488V48.7144L285.181 57.4157Z" fill="#9C6147"/>
<path d="M288.472 35.821V56.1771L287.902 56.5265V36.1386L288.472 35.821Z" fill="#715245"/>
<path d="M287.902 36.1389V56.5267L286.384 57.4159L270.182 48.0159V46.4599L270.498 46.2693L271.701 45.5707L287.902 36.1389Z" fill="#9C6147"/>
<path d="M291.478 55.4469V57.9239L289.358 59.1307L267.207 46.301V43.8557L269.296 42.6172L291.478 55.4469Z" fill="#9C6147"/>
<path d="M286.384 57.4156L285.181 58.1143L270.182 66.8474V66.1487L284.611 57.765L285.181 57.4156L270.182 48.7143V48.0156L286.384 57.4156Z" fill="#715245"/>
<path d="M291.478 55.4469V57.9239L290.877 58.2733L289.358 59.1307L286.383 57.4158L270.182 48.0158L267.207 46.301V43.8557L269.296 42.6172L272.302 44.3321L288.472 53.732L291.478 55.4469Z" fill="#C48455"/>
<path d="M272.745 35.4722L267.27 38.6479C267.143 38.7114 266.954 38.7432 266.764 38.7114C266.574 38.6797 266.447 38.6161 266.416 38.4891L264.422 34.1702C264.327 33.9797 264.675 33.7574 265.055 33.8209L272.523 34.9641C272.713 34.9959 272.839 35.0594 272.871 35.1864C272.934 35.2817 272.871 35.4087 272.745 35.4722ZM264.865 34.0749C264.833 34.1067 266.859 38.4574 266.859 38.4574C266.985 38.4891 272.46 35.3134 272.46 35.3134C272.428 35.2499 264.96 34.0749 264.96 34.0749C264.897 34.0432 264.865 34.0749 264.865 34.0749Z" fill="#C48455"/>
<path d="M267.492 35.885L265.814 34.9323L266.257 34.6782L267.935 35.6627L268.473 36.012L268.093 36.2343L267.492 35.885ZM268.821 36.6471L268.378 36.3931L268.821 36.139L269.264 36.3931L268.821 36.6471Z" fill="#C48455"/>
<path d="M256.227 60.0517L262.903 63.926V58.9402L256.227 55.0659V60.0517Z" fill="#ECEBE3"/>
<path d="M257.681 59.9565L261.447 62.1477C261.51 62.1794 261.574 62.1477 261.574 62.0842C261.574 61.9889 261.51 61.8936 261.447 61.8619L257.681 59.6707C257.618 59.6389 257.555 59.6707 257.555 59.7342C257.555 59.7977 257.618 59.9247 257.681 59.9565Z" fill="#744B44"/>
<path d="M257.681 59.0358L261.447 61.1953C261.51 61.2271 261.574 61.1953 261.574 61.1318C261.574 61.0365 261.51 60.9412 261.447 60.9095L257.681 58.7183C257.618 58.6865 257.555 58.7183 257.555 58.7818C257.555 58.8771 257.618 59.0041 257.681 59.0358Z" fill="#744B44"/>
<path d="M257.681 58.1149L261.447 60.2744C261.51 60.3061 261.574 60.2744 261.574 60.2109C261.574 60.1156 261.51 60.0203 261.447 59.9886L257.681 57.8291C257.618 57.7974 257.555 57.8291 257.555 57.8926C257.555 57.9561 257.618 58.0514 257.681 58.1149Z" fill="#744B44"/>
<path d="M257.681 57.162L261.447 59.3533C261.51 59.385 261.574 59.3533 261.574 59.2897C261.574 59.1945 261.51 59.0992 261.447 59.0674L257.681 56.8762C257.618 56.8445 257.555 56.8762 257.555 56.9397C257.555 57.035 257.618 57.1303 257.681 57.162Z" fill="#744B44"/>
<path d="M224.045 24.2935L204.615 12.9563L204.679 34.4556L224.108 45.7928L224.045 24.2935Z" fill="#D4A36E"/>
<path d="M204.615 12.9565L224.045 24.2936L232.494 19.3713L234.867 18.0058L242.683 13.4963L223.254 2.15918L215.374 6.73215L213.001 8.09769L204.615 12.9565Z" fill="#FFE3BD"/>
<path d="M224.045 24.2939L224.108 45.7932L242.747 34.9959L242.683 13.4966L224.045 24.2939Z" fill="#F3C895"/>
<path d="M213 8.09747L232.493 19.3711L234.866 18.0056L215.373 6.73193L213 8.09747Z" fill="#E8593A"/>
<path d="M234.867 18.0059L232.494 19.4032V29.7241L234.867 28.3586V18.0059Z" fill="#BB5A31"/>
<path d="M219.52 37.7903C219.583 37.7903 219.678 37.8539 219.773 37.8856C220.057 38.0444 220.311 38.3937 220.437 38.743C220.564 38.5207 220.817 38.489 221.102 38.6478C221.387 38.8066 221.64 39.1559 221.766 39.5052C221.893 39.2829 222.146 39.2512 222.431 39.4099C222.526 39.4734 222.589 39.537 222.684 39.6005C222.494 38.6795 221.861 37.6951 221.102 37.2505C220.342 36.8059 219.709 37.0599 219.52 37.7903Z" fill="#C48455"/>
<path d="M220.879 41.8867C221.101 42.0137 221.227 41.8867 221.227 41.7279V38.3934C221.227 38.3299 221.164 38.2346 221.132 38.2029C221.069 38.1711 221.006 38.2029 221.006 38.2664V41.6009C221.006 41.6326 220.974 41.6961 220.879 41.6326C220.753 41.5691 220.753 41.3786 220.753 41.3786C220.753 41.315 220.689 41.2198 220.626 41.188C220.563 41.1563 220.531 41.188 220.531 41.2515C220.531 41.4103 220.626 41.7279 220.879 41.8867Z" fill="#C48455"/>
<path d="M217.337 37.6316L217.59 37.7586C218.064 38.0444 218.476 37.8221 218.476 37.2505V35.8532L216.482 34.71V36.1073C216.451 36.6471 216.862 37.3458 217.337 37.6316Z" fill="#C48455"/>
<path d="M217.336 39.7594L217.557 39.8865V37.5365L217.336 37.4094V39.7594Z" fill="#C48455"/>
<path d="M216.798 39.5688L218.096 40.3309C218.159 40.3627 218.222 40.3309 218.222 40.2674C218.222 40.2039 218.159 40.1086 218.096 40.0769L216.798 39.3147C216.735 39.2829 216.672 39.3147 216.672 39.3782C216.704 39.4417 216.735 39.537 216.798 39.5688Z" fill="#C48455"/>
<path d="M211.071 36.2025C211.008 36.0755 211.008 35.9485 211.071 35.885L213.096 32.9951C213.191 32.8681 213.476 33.0269 213.571 33.2492L215.596 38.489C215.659 38.6161 215.659 38.7431 215.596 38.8066C215.533 38.8701 215.469 38.8701 215.375 38.8384L211.324 36.4884C211.229 36.4248 211.134 36.3296 211.071 36.2025ZM213.318 33.2174L211.292 36.1073C211.324 36.2025 215.375 38.5525 215.375 38.5525C215.406 38.489 213.381 33.2492 213.381 33.2492C213.318 33.2174 213.318 33.2174 213.318 33.2174Z" fill="#C48455"/>
<path d="M213.508 36.2981L213.223 36.1393L213.191 35.6312V34.2021L213.539 34.3927V35.8217L213.508 36.2981ZM213.191 36.7427V36.3616L213.539 36.5521V36.9332L213.191 36.7427Z" fill="#C48455"/>
<path d="M213.791 27.8187L221.322 32.2011V26.5484L213.791 22.1978V27.8187Z" fill="#ECEBE3"/>
<path d="M215.438 27.7238L219.678 30.169C219.773 30.2326 219.836 30.169 219.836 30.0738C219.836 29.9785 219.773 29.8515 219.678 29.8197L215.438 27.3744C215.343 27.3109 215.279 27.3744 215.279 27.4697C215.279 27.5332 215.374 27.6603 215.438 27.7238Z" fill="#744B44"/>
<path d="M215.438 26.6754L219.678 29.1207C219.773 29.1842 219.836 29.1207 219.836 29.0254C219.836 28.9302 219.773 28.8031 219.678 28.7714L215.438 26.3261C215.343 26.2626 215.279 26.3261 215.279 26.4214C215.279 26.4849 215.374 26.6119 215.438 26.6754Z" fill="#744B44"/>
<path d="M215.438 25.5961L219.678 28.0414C219.773 28.0731 219.836 28.0414 219.836 27.9461C219.836 27.8508 219.773 27.7238 219.678 27.692L215.438 25.2468C215.343 25.1832 215.279 25.2468 215.279 25.342C215.279 25.4373 215.374 25.5643 215.438 25.5961Z" fill="#744B44"/>
<path d="M215.438 24.548L219.678 26.9933C219.773 27.0568 219.836 26.9933 219.836 26.898C219.836 26.8027 219.773 26.6757 219.678 26.6439L215.438 24.1987C215.343 24.1351 215.279 24.1987 215.279 24.2939C215.279 24.3892 215.374 24.5162 215.438 24.548Z" fill="#744B44"/>
<path d="M325.971 220.582L323.282 219.026L323.25 207.943L325.94 209.499L325.971 220.582Z" fill="#FFB424"/>
<path d="M325.908 204.291L323.25 202.735L323.123 161.737L325.813 163.293L325.908 204.291Z" fill="#FFB424"/>
<path d="M286.701 229.125L284.012 227.569L321.225 206.006L323.915 207.562L286.701 229.125Z" fill="#FFEE60"/>
<path d="M288.662 184.824L285.973 183.268L323.25 202.735L325.908 204.291L288.662 184.824Z" fill="#FFCE2B"/>
<path d="M325.781 160.181L323.123 158.625L322.996 117.532L325.686 119.088L325.781 160.181Z" fill="#FFB424"/>
<path d="M288.569 181.744L285.879 180.188L323.124 158.625L325.782 160.181L288.569 181.744Z" fill="#FFEE60"/>
<path d="M286.543 180.823L283.885 179.267L321.225 116.167L323.915 117.754L286.543 180.823Z" fill="#FFEE60"/>
<path d="M325.654 111.53L322.964 109.974L322.869 68.8804L325.527 70.4365L325.654 111.53Z" fill="#FFB424"/>
<path d="M286.448 136.363L283.758 134.775L320.972 113.213L323.661 114.769L286.448 136.363Z" fill="#FFEE60"/>
<path d="M288.315 91.9994L285.625 90.4434L322.965 109.974L325.655 111.53L288.315 91.9994Z" fill="#FFCE2B"/>
<path d="M283.6 91.6182L280.91 90.0622L325.56 64.2122L328.218 65.7682L283.6 91.6182Z" fill="#FFEE60"/>
<path d="M283.6 91.6183L328.218 65.7683L328.661 218.995L325.971 220.551L325.94 209.468L286.701 232.237L286.732 243.32L284.043 244.876L283.6 91.6183ZM286.448 139.444L286.574 180.791L323.946 117.722L286.448 139.444ZM325.655 111.53L325.528 70.4366L288.315 91.9994L325.655 111.53ZM286.321 95.2703L286.448 136.364L323.661 114.801L286.321 95.2703ZM325.781 160.181L325.687 119.088L288.568 181.744L325.781 160.181ZM286.701 229.125L323.914 207.562L286.574 188.064L286.701 229.125ZM325.908 204.291L325.781 163.293L288.663 184.824L325.908 204.291Z" fill="#FF8726"/>
<path d="M284.043 244.876L281.353 243.32L280.91 90.062L283.6 91.6181L284.043 244.876Z" fill="#FFB424"/>
</g>
<path d="M72.1733 180.398C55.8151 189.842 29.2157 189.792 12.7565 180.29C-3.70265 170.788 -3.78555 155.428 12.5691 145.984C28.9274 136.539 55.5267 136.59 71.9859 146.092L42.3694 163.189L72.1733 180.398Z" fill="#527DED"/>
<path d="M72.1724 180.395L71.985 174.216L62.9443 175.067L42.3685 163.189L42.3145 163.218C42.7903 166.762 44.4593 175.535 45.6092 181.458L45.8904 187.377L46.7591 187.334C56.4234 186.955 65.1576 184.446 72.1724 180.395Z" fill="#BAD0E6"/>
<path d="M72.082 167.334C72.082 167.334 88.5593 158.77 84.2949 144.394C80.0305 130.018 72.082 162.288 72.082 162.288V167.334Z" fill="#DEA749"/>
<path d="M12.7565 180.29C-3.70265 170.788 -3.78555 155.428 12.5691 145.984L42.373 163.189L12.7565 180.29Z" fill="#3C5CB3"/>
<path d="M71.989 146.092C55.5298 136.59 28.9269 136.539 12.5723 145.984L42.3762 163.189L71.989 146.092Z" fill="#3965B8"/>
<path d="M42.3181 163.221L42.3722 163.189L12.5683 145.984C8.50576 148.327 2.41737 153.316 0.355469 156.964V162.796C13.9273 163.431 32.6611 162.789 42.3181 163.221Z" fill="#3C5CB3"/>
<path d="M72.1733 174.468C55.8151 183.913 29.2157 183.862 12.7565 174.36C-3.70265 164.858 -3.78555 149.498 12.5691 140.054C28.9274 130.61 55.5267 130.66 71.9859 140.162L42.3694 157.259L72.1733 174.468Z" fill="#5986FF"/>
<path d="M12.7565 174.36C-3.70265 164.858 -3.78555 149.498 12.5691 140.054L42.373 157.259L12.7565 174.36Z" fill="#4367C7"/>
<path d="M71.989 140.162C55.5298 130.66 28.9269 130.61 12.5723 140.054L42.3762 157.259L71.989 140.162Z" fill="url(#paint2_linear)"/>
<path d="M71.8958 127.978C88.355 137.48 88.4379 152.84 72.0832 162.284L42.2793 145.079L71.8958 127.978Z" fill="#FFE46E"/>
<path d="M42.3194 157.292L42.3734 157.263L12.5695 140.057C5.18343 144.322 1.14974 149.794 0.464844 155.385C14.0367 156.019 32.6623 156.859 42.3194 157.292Z" fill="#2C4482"/>
<path d="M42.3184 157.292L42.3724 157.259L72.1763 174.465C64.7903 178.729 55.3134 181.058 45.6275 181.454C44.5208 173.621 43.0681 162.868 42.3184 157.292Z" fill="white"/>
<path d="M42.2793 145.079V149.361L72.0832 167.334V162.284L42.2793 145.079Z" fill="#DEA749"/>
<path d="M12.7559 180.29V174.36C15.0377 175.69 17.4781 176.815 20.0699 177.745L12.7559 180.29Z" fill="#527DED"/>
<path opacity="0.4" d="M516.592 127.203L461.697 95.51C461.094 95.1606 460.037 95.2043 459.338 95.6061L453.875 98.7592C453.836 98.7767 453.796 98.7941 453.762 98.816L398.556 130.688C397.857 131.089 397.783 131.701 398.386 132.05L453.281 163.743C453.884 164.092 454.941 164.049 455.639 163.647L461.103 160.494C461.142 160.476 461.181 160.459 461.216 160.437L516.422 128.565C517.121 128.163 517.195 127.552 516.592 127.203Z" fill="#A8C4E5"/>
<path d="M394.935 118.752H386V124.259H394.935V118.752Z" fill="#1F3B82"/>
<path d="M499.447 118.229H490.512V123.736H499.447V118.229Z" fill="#363656"/>
<path d="M497.779 101.157L497.783 101.144L450.871 74.0585C449.736 73.4034 448.286 73.9668 447.893 75.2158L444.023 87.4745L452.142 91.3918L452.138 91.4049L499.342 123.988L505.195 107.288C505.483 106.371 505.098 105.38 504.264 104.9L497.779 101.157Z" fill="#1F3B82"/>
<path d="M441.307 156.393L386.407 124.696C385.805 124.347 385.879 123.735 386.577 123.333L441.783 91.4618C442.482 91.06 443.539 91.0163 444.141 91.3657L499.037 123.058C499.639 123.408 499.565 124.019 498.866 124.421L443.661 156.293C442.967 156.694 441.91 156.738 441.307 156.393Z" fill="#1F3B82"/>
<path d="M502.426 103.83L495.94 100.087L495.945 100.074L449.033 72.9887C447.897 72.3336 446.447 72.897 446.054 74.146L442.268 86.1295C442.093 86.1819 441.927 86.2474 441.779 86.3348L386.577 118.211C385.879 118.613 385.805 119.224 386.407 119.573L441.303 151.266C441.905 151.615 442.962 151.572 443.661 151.17L498.866 119.298C499.168 119.124 499.347 118.91 499.412 118.696L499.421 118.7L503.356 106.223C503.644 105.306 503.255 104.31 502.426 103.83Z" fill="url(#paint3_linear)"/>
<path d="M441.713 99.279L434.791 95.283C434.289 94.9948 434.355 94.4882 434.931 94.1563L440.705 90.8241C441.281 90.4922 442.159 90.4529 442.657 90.7412L449.579 94.7371C450.081 95.0254 450.015 95.532 449.439 95.8639L443.666 99.196C443.085 99.5323 442.211 99.5672 441.713 99.279Z" fill="white"/>
<path d="M455.801 107.411L448.879 103.415C448.377 103.126 448.443 102.62 449.019 102.288L454.792 98.9557C455.369 98.6238 456.247 98.5845 456.745 98.8728L463.667 102.869C464.169 103.157 464.103 103.664 463.527 103.995L457.753 107.328C457.177 107.664 456.304 107.703 455.801 107.411Z" fill="white"/>
<path d="M469.895 115.547L462.973 111.551C462.471 111.263 462.536 110.756 463.113 110.424L468.886 107.092C469.463 106.76 470.34 106.721 470.838 107.009L477.76 111.005C478.263 111.293 478.197 111.8 477.621 112.132L471.847 115.464C471.266 115.8 470.393 115.835 469.895 115.547Z" fill="white"/>
<path d="M483.983 123.683L477.061 119.687C476.559 119.399 476.624 118.892 477.201 118.56L482.974 115.228C483.551 114.896 484.428 114.857 484.926 115.145L491.848 119.141C492.35 119.429 492.285 119.936 491.708 120.268L485.935 123.6C485.359 123.936 484.485 123.971 483.983 123.683Z" fill="white"/>
<path d="M428.538 106.882L421.616 102.886C421.113 102.598 421.179 102.091 421.755 101.76L427.529 98.4274C428.105 98.0955 428.983 98.0562 429.481 98.3444L436.403 102.34C436.905 102.629 436.84 103.135 436.263 103.467L430.49 106.799C429.913 107.136 429.04 107.171 428.538 106.882Z" fill="white"/>
<path d="M442.631 115.018L435.709 111.022C435.207 110.734 435.273 110.227 435.849 109.896L441.623 106.563C442.199 106.232 443.077 106.192 443.575 106.48L450.497 110.476C450.999 110.765 450.933 111.271 450.357 111.603L444.583 114.935C444.007 115.272 443.134 115.306 442.631 115.018Z" fill="white"/>
<path d="M456.723 123.154L449.801 119.158C449.299 118.87 449.364 118.363 449.941 118.032L455.714 114.699C456.291 114.367 457.169 114.328 457.666 114.616L464.588 118.612C465.091 118.901 465.025 119.407 464.449 119.739L458.675 123.071C458.094 123.403 457.221 123.442 456.723 123.154Z" fill="white"/>
<path d="M470.811 131.286L463.889 127.29C463.387 127.002 463.452 126.495 464.029 126.163L469.802 122.831C470.379 122.499 471.257 122.46 471.754 122.748L478.676 126.744C479.179 127.032 479.113 127.539 478.537 127.871L472.763 131.203C472.187 131.539 471.313 131.579 470.811 131.286Z" fill="white"/>
<path d="M415.366 114.485L408.444 110.489C407.942 110.201 408.007 109.695 408.584 109.363L414.357 106.03C414.933 105.699 415.811 105.659 416.309 105.947L423.231 109.943C423.733 110.232 423.668 110.738 423.091 111.07L417.318 114.402C416.741 114.739 415.868 114.778 415.366 114.485Z" fill="white"/>
<path d="M429.459 122.622L422.538 118.626C422.035 118.337 422.101 117.831 422.677 117.499L428.451 114.167C429.027 113.835 429.905 113.795 430.403 114.084L437.325 118.08C437.827 118.368 437.761 118.874 437.185 119.206L431.412 122.539C430.835 122.875 429.962 122.91 429.459 122.622Z" fill="white"/>
<path d="M443.547 130.758L436.625 126.762C436.123 126.473 436.189 125.967 436.765 125.635L442.539 122.303C443.115 121.971 443.993 121.931 444.491 122.22L451.413 126.216C451.915 126.504 451.849 127.01 451.273 127.342L445.5 130.675C444.923 131.011 444.05 131.046 443.547 130.758Z" fill="white"/>
<path d="M457.641 138.894L450.719 134.898C450.217 134.61 450.282 134.103 450.859 133.771L456.632 130.439C457.209 130.107 458.087 130.068 458.584 130.356L465.506 134.352C466.009 134.64 465.943 135.147 465.367 135.479L459.593 138.811C459.017 139.147 458.143 139.182 457.641 138.894Z" fill="#FFE46E"/>
<path d="M402.194 122.093L395.272 118.097C394.77 117.809 394.835 117.302 395.412 116.971L401.185 113.638C401.762 113.306 402.639 113.267 403.137 113.555L410.059 117.551C410.561 117.84 410.496 118.346 409.919 118.678L404.146 122.01C403.57 122.347 402.696 122.381 402.194 122.093Z" fill="white"/>
<path d="M416.288 130.225L409.366 126.229C408.863 125.941 408.929 125.434 409.505 125.102L415.279 121.77C415.855 121.438 416.733 121.399 417.231 121.687L424.153 125.683C424.655 125.971 424.59 126.478 424.013 126.81L418.24 130.142C417.663 130.478 416.785 130.517 416.288 130.225Z" fill="white"/>
<path d="M430.376 138.361L423.454 134.365C422.951 134.077 423.017 133.57 423.593 133.238L429.367 129.906C429.943 129.574 430.821 129.535 431.319 129.823L438.241 133.819C438.743 134.107 438.678 134.614 438.101 134.946L432.328 138.278C431.751 138.614 430.878 138.649 430.376 138.361Z" fill="white"/>
<path d="M444.063 146.261L437.954 142.732C437.229 142.313 437.321 141.584 438.159 141.099L451.649 133.312C452.488 132.828 453.754 132.775 454.479 133.194L460.589 136.723C461.314 137.142 461.222 137.872 460.384 138.356L446.893 146.147C446.055 146.628 444.788 146.68 444.063 146.261Z" fill="#FFE46E"/>
<path d="M497.98 104.546L493.862 102.17L493.866 102.162L461.418 83.4264L461.409 83.4526L449.282 76.452C448.797 76.1725 448.172 76.4127 448.006 76.9498L445.622 84.5138C445.5 84.9068 445.666 85.3304 446.019 85.5401L450.631 88.2041L450.627 88.2128L483.075 106.948L483.084 106.922L494.443 113.481C495.325 113.992 496.452 113.551 496.757 112.582L498.701 106.411C498.928 105.69 498.626 104.922 497.98 104.546Z" fill="white"/>
<defs>
<linearGradient id="paint0_linear" x1="260.504" y1="329.014" x2="260.504" y2="132.131" gradientUnits="userSpaceOnUse">
<stop stop-color="#8BBFD3"/>
<stop offset="0.3094" stop-color="#C5E3EC"/>
<stop offset="0.4663" stop-color="#DEF2F7"/>
</linearGradient>
<linearGradient id="paint1_linear" x1="100" y1="211.304" x2="421.006" y2="211.304" gradientUnits="userSpaceOnUse">
<stop offset="0.2624" stop-color="#B3DAE4"/>
<stop offset="0.2914" stop-color="#AFD7E2"/>
<stop offset="0.487" stop-color="#95C5D7"/>
<stop offset="0.6039" stop-color="#8BBFD3"/>
</linearGradient>
<linearGradient id="paint2_linear" x1="12.5723" y1="133.003" x2="73.4518" y2="152.75" gradientUnits="userSpaceOnUse">
<stop stop-color="#538DFF"/>
<stop offset="1" stop-color="#865BFF"/>
</linearGradient>
<linearGradient id="paint3_linear" x1="386.001" y1="112.108" x2="503.449" y2="112.108" gradientUnits="userSpaceOnUse">
<stop stop-color="#4F80E3"/>
<stop offset="0.2055" stop-color="#4C7CDE"/>
<stop offset="0.4559" stop-color="#4470CF"/>
<stop offset="0.7285" stop-color="#375CB6"/>
<stop offset="0.957" stop-color="#29479C"/>
</linearGradient>
<clipPath id="clip0">
<rect width="321" height="329" fill="white" transform="translate(100)"/>
</clipPath>
</defs>
</svg>
