<svg width="58" height="58" viewBox="0 0 58 58" fill="none" xmlns="http://www.w3.org/2000/svg">
<path fill-rule="evenodd" clip-rule="evenodd" d="M56.1875 54.375H3.625V1.8125C3.625 0.815625 2.80938 0 1.8125 0C0.815625 0 0 0.815625 0 1.8125V56.1875C0 57.1844 0.815625 58 1.8125 58H56.1875C57.1844 58 58 57.1844 58 56.1875C58 55.1906 57.1844 54.375 56.1875 54.375ZM9.0625 14.5C10.0594 14.5 10.875 13.6844 10.875 12.6875C10.875 11.6906 10.0594 10.875 9.0625 10.875C8.06563 10.875 7.25 11.6906 7.25 12.6875C7.25 13.6844 8.06563 14.5 9.0625 14.5ZM16.3125 14.5C17.3094 14.5 18.125 13.6844 18.125 12.6875C18.125 11.6906 17.3094 10.875 16.3125 10.875C15.3156 10.875 14.5 11.6906 14.5 12.6875C14.5 13.6844 15.3156 14.5 16.3125 14.5ZM23.5625 14.5C24.5594 14.5 25.375 13.6844 25.375 12.6875C25.375 11.6906 24.5594 10.875 23.5625 10.875C22.5656 10.875 21.75 11.6906 21.75 12.6875C21.75 13.6844 22.5656 14.5 23.5625 14.5ZM30.8125 14.5C31.8094 14.5 32.625 13.6844 32.625 12.6875C32.625 11.6906 31.8094 10.875 30.8125 10.875C29.8156 10.875 29 11.6906 29 12.6875C29 13.6844 29.8156 14.5 30.8125 14.5ZM38.0625 14.5C39.0594 14.5 39.875 13.6844 39.875 12.6875C39.875 11.6906 39.0594 10.875 38.0625 10.875C37.0656 10.875 36.25 11.6906 36.25 12.6875C36.25 13.6844 37.0656 14.5 38.0625 14.5ZM45.3125 14.5C46.3094 14.5 47.125 13.6844 47.125 12.6875C47.125 11.6906 46.3094 10.875 45.3125 10.875C44.3156 10.875 43.5 11.6906 43.5 12.6875C43.5 13.6844 44.3156 14.5 45.3125 14.5ZM9.0625 21.75C10.0594 21.75 10.875 20.9344 10.875 19.9375C10.875 18.9406 10.0594 18.125 9.0625 18.125C8.06563 18.125 7.25 18.9406 7.25 19.9375C7.25 20.9344 8.06563 21.75 9.0625 21.75ZM16.3125 21.75C17.3094 21.75 18.125 20.9344 18.125 19.9375C18.125 18.9406 17.3094 18.125 16.3125 18.125C15.3156 18.125 14.5 18.9406 14.5 19.9375C14.5 20.9344 15.3156 21.75 16.3125 21.75ZM23.5625 21.75C24.5594 21.75 25.375 20.9344 25.375 19.9375C25.375 18.9406 24.5594 18.125 23.5625 18.125C22.5656 18.125 21.75 18.9406 21.75 19.9375C21.75 20.9344 22.5656 21.75 23.5625 21.75ZM30.8125 21.75C31.8094 21.75 32.625 20.9344 32.625 19.9375C32.625 18.9406 31.8094 18.125 30.8125 18.125C29.8156 18.125 29 18.9406 29 19.9375C29 20.9344 29.8156 21.75 30.8125 21.75ZM38.0625 21.75C39.0594 21.75 39.875 20.9344 39.875 19.9375C39.875 18.9406 39.0594 18.125 38.0625 18.125C37.0656 18.125 36.25 18.9406 36.25 19.9375C36.25 20.9344 37.0656 21.75 38.0625 21.75ZM45.3125 21.75C46.3094 21.75 47.125 20.9344 47.125 19.9375C47.125 18.9406 46.3094 18.125 45.3125 18.125C44.3156 18.125 43.5 18.9406 43.5 19.9375C43.5 20.9344 44.3156 21.75 45.3125 21.75ZM9.0625 29C10.0594 29 10.875 28.1844 10.875 27.1875C10.875 26.1906 10.0594 25.375 9.0625 25.375C8.06563 25.375 7.25 26.1906 7.25 27.1875C7.25 28.1844 8.06563 29 9.0625 29ZM16.3125 29C17.3094 29 18.125 28.1844 18.125 27.1875C18.125 26.1906 17.3094 25.375 16.3125 25.375C15.3156 25.375 14.5 26.1906 14.5 27.1875C14.5 28.1844 15.3156 29 16.3125 29ZM23.5625 29C24.5594 29 25.375 28.1844 25.375 27.1875C25.375 26.1906 24.5594 25.375 23.5625 25.375C22.5656 25.375 21.75 26.1906 21.75 27.1875C21.75 28.1844 22.5656 29 23.5625 29ZM30.8125 29C31.8094 29 32.625 28.1844 32.625 27.1875C32.625 26.1906 31.8094 25.375 30.8125 25.375C29.8156 25.375 29 26.1906 29 27.1875C29 28.1844 29.8156 29 30.8125 29ZM38.0625 29C39.0594 29 39.875 28.1844 39.875 27.1875C39.875 26.1906 39.0594 25.375 38.0625 25.375C37.0656 25.375 36.25 26.1906 36.25 27.1875C36.25 28.1844 37.0656 29 38.0625 29ZM45.3125 29C46.3094 29 47.125 28.1844 47.125 27.1875C47.125 26.1906 46.3094 25.375 45.3125 25.375C44.3156 25.375 43.5 26.1906 43.5 27.1875C43.5 28.1844 44.3156 29 45.3125 29ZM9.0625 36.25C10.0594 36.25 10.875 35.4344 10.875 34.4375C10.875 33.4406 10.0594 32.625 9.0625 32.625C8.06563 32.625 7.25 33.4406 7.25 34.4375C7.25 35.4344 8.06563 36.25 9.0625 36.25ZM16.3125 36.25C17.3094 36.25 18.125 35.4344 18.125 34.4375C18.125 33.4406 17.3094 32.625 16.3125 32.625C15.3156 32.625 14.5 33.4406 14.5 34.4375C14.5 35.4344 15.3156 36.25 16.3125 36.25ZM23.5625 36.25C24.5594 36.25 25.375 35.4344 25.375 34.4375C25.375 33.4406 24.5594 32.625 23.5625 32.625C22.5656 32.625 21.75 33.4406 21.75 34.4375C21.75 35.4344 22.5656 36.25 23.5625 36.25ZM30.8125 36.25C31.8094 36.25 32.625 35.4344 32.625 34.4375C32.625 33.4406 31.8094 32.625 30.8125 32.625C29.8156 32.625 29 33.4406 29 34.4375C29 35.4344 29.8156 36.25 30.8125 36.25ZM38.0625 36.25C39.0594 36.25 39.875 35.4344 39.875 34.4375C39.875 33.4406 39.0594 32.625 38.0625 32.625C37.0656 32.625 36.25 33.4406 36.25 34.4375C36.25 35.4344 37.0656 36.25 38.0625 36.25ZM45.3125 36.25C46.3094 36.25 47.125 35.4344 47.125 34.4375C47.125 33.4406 46.3094 32.625 45.3125 32.625C44.3156 32.625 43.5 33.4406 43.5 34.4375C43.5 35.4344 44.3156 36.25 45.3125 36.25ZM9.0625 43.5C10.0594 43.5 10.875 42.6844 10.875 41.6875C10.875 40.6906 10.0594 39.875 9.0625 39.875C8.06563 39.875 7.25 40.6906 7.25 41.6875C7.25 42.6844 8.06563 43.5 9.0625 43.5ZM16.3125 43.5C17.3094 43.5 18.125 42.6844 18.125 41.6875C18.125 40.6906 17.3094 39.875 16.3125 39.875C15.3156 39.875 14.5 40.6906 14.5 41.6875C14.5 42.6844 15.3156 43.5 16.3125 43.5ZM23.5625 43.5C24.5594 43.5 25.375 42.6844 25.375 41.6875C25.375 40.6906 24.5594 39.875 23.5625 39.875C22.5656 39.875 21.75 40.6906 21.75 41.6875C21.75 42.6844 22.5656 43.5 23.5625 43.5ZM30.8125 43.5C31.8094 43.5 32.625 42.6844 32.625 41.6875C32.625 40.6906 31.8094 39.875 30.8125 39.875C29.8156 39.875 29 40.6906 29 41.6875C29 42.6844 29.8156 43.5 30.8125 43.5ZM38.0625 43.5C39.0594 43.5 39.875 42.6844 39.875 41.6875C39.875 40.6906 39.0594 39.875 38.0625 39.875C37.0656 39.875 36.25 40.6906 36.25 41.6875C36.25 42.6844 37.0656 43.5 38.0625 43.5ZM45.3125 43.5C46.3094 43.5 47.125 42.6844 47.125 41.6875C47.125 40.6906 46.3094 39.875 45.3125 39.875C44.3156 39.875 43.5 40.6906 43.5 41.6875C43.5 42.6844 44.3156 43.5 45.3125 43.5ZM9.0625 50.75C10.0594 50.75 10.875 49.9344 10.875 48.9375C10.875 47.9406 10.0594 47.125 9.0625 47.125C8.06563 47.125 7.25 47.9406 7.25 48.9375C7.25 49.9344 8.06563 50.75 9.0625 50.75ZM16.3125 50.75C17.3094 50.75 18.125 49.9344 18.125 48.9375C18.125 47.9406 17.3094 47.125 16.3125 47.125C15.3156 47.125 14.5 47.9406 14.5 48.9375C14.5 49.9344 15.3156 50.75 16.3125 50.75ZM23.5625 50.75C24.5594 50.75 25.375 49.9344 25.375 48.9375C25.375 47.9406 24.5594 47.125 23.5625 47.125C22.5656 47.125 21.75 47.9406 21.75 48.9375C21.75 49.9344 22.5656 50.75 23.5625 50.75ZM30.8125 50.75C31.8094 50.75 32.625 49.9344 32.625 48.9375C32.625 47.9406 31.8094 47.125 30.8125 47.125C29.8156 47.125 29 47.9406 29 48.9375C29 49.9344 29.8156 50.75 30.8125 50.75ZM38.0625 50.75C39.0594 50.75 39.875 49.9344 39.875 48.9375C39.875 47.9406 39.0594 47.125 38.0625 47.125C37.0656 47.125 36.25 47.9406 36.25 48.9375C36.25 49.9344 37.0656 50.75 38.0625 50.75ZM45.3125 50.75C46.3094 50.75 47.125 49.9344 47.125 48.9375C47.125 47.9406 46.3094 47.125 45.3125 47.125C44.3156 47.125 43.5 47.9406 43.5 48.9375C43.5 49.9344 44.3156 50.75 45.3125 50.75ZM9.0625 7.25C10.0594 7.25 10.875 6.43437 10.875 5.4375C10.875 4.44063 10.0594 3.625 9.0625 3.625C8.06563 3.625 7.25 4.44063 7.25 5.4375C7.25 6.43437 8.06563 7.25 9.0625 7.25ZM16.3125 7.25C17.3094 7.25 18.125 6.43437 18.125 5.4375C18.125 4.44063 17.3094 3.625 16.3125 3.625C15.3156 3.625 14.5 4.44063 14.5 5.4375C14.5 6.43437 15.3156 7.25 16.3125 7.25ZM23.5625 7.25C24.5594 7.25 25.375 6.43437 25.375 5.4375C25.375 4.44063 24.5594 3.625 23.5625 3.625C22.5656 3.625 21.75 4.44063 21.75 5.4375C21.75 6.43437 22.5656 7.25 23.5625 7.25ZM30.8125 7.25C31.8094 7.25 32.625 6.43437 32.625 5.4375C32.625 4.44063 31.8094 3.625 30.8125 3.625C29.8156 3.625 29 4.44063 29 5.4375C29 6.43437 29.8156 7.25 30.8125 7.25ZM38.0625 7.25C39.0594 7.25 39.875 6.43437 39.875 5.4375C39.875 4.44063 39.0594 3.625 38.0625 3.625C37.0656 3.625 36.25 4.44063 36.25 5.4375C36.25 6.43437 37.0656 7.25 38.0625 7.25ZM45.3125 7.25C46.3094 7.25 47.125 6.43437 47.125 5.4375C47.125 4.44063 46.3094 3.625 45.3125 3.625C44.3156 3.625 43.5 4.44063 43.5 5.4375C43.5 6.43437 44.3156 7.25 45.3125 7.25ZM52.5625 14.5C53.5594 14.5 54.375 13.6844 54.375 12.6875C54.375 11.6906 53.5594 10.875 52.5625 10.875C51.5656 10.875 50.75 11.6906 50.75 12.6875C50.75 13.6844 51.5656 14.5 52.5625 14.5ZM52.5625 21.75C53.5594 21.75 54.375 20.9344 54.375 19.9375C54.375 18.9406 53.5594 18.125 52.5625 18.125C51.5656 18.125 50.75 18.9406 50.75 19.9375C50.75 20.9344 51.5656 21.75 52.5625 21.75ZM52.5625 29C53.5594 29 54.375 28.1844 54.375 27.1875C54.375 26.1906 53.5594 25.375 52.5625 25.375C51.5656 25.375 50.75 26.1906 50.75 27.1875C50.75 28.1844 51.5656 29 52.5625 29ZM52.5625 36.25C53.5594 36.25 54.375 35.4344 54.375 34.4375C54.375 33.4406 53.5594 32.625 52.5625 32.625C51.5656 32.625 50.75 33.4406 50.75 34.4375C50.75 35.4344 51.5656 36.25 52.5625 36.25ZM52.5625 43.5C53.5594 43.5 54.375 42.6844 54.375 41.6875C54.375 40.6906 53.5594 39.875 52.5625 39.875C51.5656 39.875 50.75 40.6906 50.75 41.6875C50.75 42.6844 51.5656 43.5 52.5625 43.5ZM52.5625 50.75C53.5594 50.75 54.375 49.9344 54.375 48.9375C54.375 47.9406 53.5594 47.125 52.5625 47.125C51.5656 47.125 50.75 47.9406 50.75 48.9375C50.75 49.9344 51.5656 50.75 52.5625 50.75ZM52.5625 7.25C53.5594 7.25 54.375 6.43437 54.375 5.4375C54.375 4.44063 53.5594 3.625 52.5625 3.625C51.5656 3.625 50.75 4.44063 50.75 5.4375C50.75 6.43437 51.5656 7.25 52.5625 7.25Z" fill="#538DFF"/>
<path fill-rule="evenodd" clip-rule="evenodd" d="M53.1242 18.234C52.9611 18.1615 52.798 18.1614 52.6348 18.1433C52.6167 18.1433 52.5805 18.1252 52.5623 18.1252C52.4355 18.107 52.3267 18.107 52.1998 18.1252H45.3123C44.3155 18.1252 43.4998 18.9408 43.4998 19.9377C43.4998 20.9345 44.3155 21.7502 45.3123 21.7502H47.9042L41.6873 27.9671L37.8267 24.1065C37.3917 23.6715 36.8117 23.5083 36.2498 23.5627C35.688 23.5083 35.108 23.6715 34.673 24.1065L23.5623 35.2171L19.7017 31.3565C19.2667 30.9215 18.6867 30.7583 18.1248 30.8127C17.563 30.7583 16.983 30.9215 16.548 31.3565L7.79359 40.1108C7.03234 40.872 7.03234 42.1227 7.79359 42.884C8.55484 43.6452 9.80547 43.6452 10.5667 42.884L18.1248 35.3258L22.058 39.259C22.4748 39.6759 23.0186 39.8388 23.5623 39.8026C24.1061 39.8388 24.6498 39.6577 25.0667 39.259L36.2498 28.0758L40.183 32.009C40.5998 32.4259 41.1436 32.5889 41.6873 32.5707C42.2311 32.607 42.7748 32.4259 43.1917 32.009L50.7498 24.4508V27.1695C50.7498 28.1664 51.5655 28.982 52.5623 28.982C53.5592 28.982 54.3748 28.1664 54.3748 27.1695V19.9195C54.3748 19.1401 53.8492 18.4878 53.1242 18.234Z" fill="#538DFF"/>
</svg>
