<svg width="427" height="315" viewBox="0 0 427 315" fill="none" xmlns="http://www.w3.org/2000/svg">
<path opacity="0.5" d="M415.36 272.198V272.255C415.36 272.848 415.055 273.447 414.473 273.786L345.223 313.764C343.273 314.9 340.855 314.9 338.906 313.764L310.222 297.204C309.51 296.798 309.148 296.097 309.137 295.385C309.126 294.639 309.487 293.877 310.222 293.458L351.777 269.458L379.201 253.621C379.235 253.61 379.257 253.587 379.297 253.576C381.003 252.644 383.094 252.666 384.8 253.599C384.834 253.61 384.879 253.633 384.919 253.655L414.479 270.729C415.032 271.051 415.338 271.627 415.36 272.198Z" fill="#D7D1E8"/>
<path d="M415.36 268.808V268.865C415.36 269.458 415.055 270.057 414.473 270.396L345.223 310.374C343.273 311.51 340.855 311.51 338.906 310.374L310.222 293.815C309.51 293.408 309.148 292.707 309.137 291.995C309.126 291.25 309.487 290.487 310.222 290.069L351.777 266.068L379.201 250.232C379.235 250.22 379.257 250.198 379.297 250.186C381.003 249.254 383.094 249.277 384.8 250.209C384.834 250.22 384.879 250.243 384.919 250.265L414.479 267.339C415.032 267.661 415.338 268.238 415.36 268.808Z" fill="#CAC5D8"/>
<path d="M341.962 303.77V307.843C340.736 307.854 339.51 307.538 338.414 306.9L310.442 290.713C309.623 290.232 309.12 289.357 309.131 288.424V284.537C309.142 285.249 309.504 285.95 310.216 286.357L338.9 302.916C339.861 303.464 340.912 303.758 341.962 303.77Z" fill="url(#paint0_linear)"/>
<path d="M415.361 261.407V265.243C415.361 266.04 414.931 266.774 414.253 267.17L345.427 306.905C344.364 307.51 343.161 307.826 341.969 307.838V303.764C343.104 303.775 344.223 303.493 345.229 302.911L414.479 262.933C415.055 262.599 415.361 262.006 415.361 261.407Z" fill="url(#paint1_linear)"/>
<path d="M415.362 261.35V261.407C415.362 262 415.057 262.599 414.475 262.938L345.225 302.916C343.275 304.052 340.857 304.052 338.908 302.916L310.224 286.357C309.512 285.95 309.15 285.249 309.139 284.537C309.128 283.792 309.489 283.029 310.224 282.611L351.779 258.61L379.203 242.773C379.237 242.762 379.259 242.74 379.299 242.728C381.005 241.796 383.096 241.819 384.802 242.751C384.836 242.762 384.881 242.785 384.921 242.807L414.481 259.881C415.034 260.203 415.34 260.78 415.362 261.35Z" fill="url(#paint2_linear)"/>
<path d="M318.154 279.374L375.721 246.135L408.371 265.113L350.912 298.289L318.154 279.374Z" fill="#050505"/>
<path d="M319.324 279.374L375.721 246.808L407.208 265.113L350.913 297.611L319.324 279.374Z" fill="url(#paint3_linear)"/>
<path d="M327.68 289.351C329.222 288.181 331.29 288.317 332.296 289.65C333.302 290.984 332.872 293.006 331.33 294.176C329.787 295.345 327.719 295.21 326.714 293.876C325.702 292.543 326.138 290.515 327.68 289.351Z" fill="url(#paint4_linear)"/>
<path d="M329.035 294.385C328.267 294.385 327.589 294.069 327.176 293.526C326.792 293.018 326.662 292.363 326.809 291.679C326.961 290.961 327.396 290.3 328.029 289.82C328.606 289.385 329.295 289.142 329.967 289.142C330.736 289.142 331.414 289.459 331.826 290.007C332.21 290.515 332.34 291.171 332.193 291.854C332.041 292.572 331.606 293.233 330.973 293.713C330.397 294.142 329.713 294.385 329.035 294.385Z" fill="#E7E4F2"/>
<path d="M391.829 252.514C391.552 252.35 391.552 252.09 391.829 251.926L392.326 251.633C392.603 251.469 393.06 251.463 393.337 251.621L399.219 254.943C399.496 255.102 399.501 255.361 399.224 255.525L398.637 255.87C398.36 256.034 397.908 256.034 397.625 255.87L391.829 252.514Z" fill="#C5C2D3"/>
<path opacity="0.5" d="M325.919 278.017C325.275 277.644 325.275 277.034 325.919 276.661L374.541 248.587C375.185 248.214 376.242 248.214 376.886 248.593L400.621 262.39C401.265 262.762 401.265 263.378 400.621 263.751L352.083 291.775C351.439 292.147 350.383 292.147 349.733 291.775L325.919 278.017Z" fill="url(#paint5_linear)"/>
<path opacity="0.7" d="M350.913 292.729C350.371 292.729 349.834 292.605 349.399 292.357L325.585 278.605C325.059 278.305 324.76 277.842 324.76 277.339C324.76 276.836 325.059 276.373 325.585 276.074L374.207 248C375.072 247.502 376.371 247.502 377.236 248.005L400.971 261.802C401.491 262.107 401.79 262.565 401.79 263.068C401.79 263.571 401.491 264.034 400.965 264.333L352.427 292.357C351.992 292.605 351.45 292.729 350.913 292.729ZM326.133 277.339C326.155 277.362 326.195 277.396 326.257 277.43L350.071 291.181C350.506 291.436 351.303 291.436 351.744 291.181L400.282 263.158C400.355 263.113 400.4 263.079 400.417 263.051C400.395 263.051 400.355 263.011 400.282 262.972L376.546 249.175C376.111 248.92 375.315 248.92 374.88 249.175L326.257 277.249C326.2 277.283 326.161 277.317 326.133 277.339Z" fill="white"/>
<path opacity="0.8" d="M325.919 272.594C325.275 272.221 325.275 271.611 325.919 271.238L374.541 243.164C375.185 242.791 376.242 242.791 376.886 243.169L400.621 256.966C401.265 257.339 401.265 257.955 400.621 258.328L352.083 286.351C351.439 286.724 350.383 286.724 349.733 286.351L325.919 272.594Z" fill="url(#paint6_linear)"/>
<path d="M350.913 287.306C350.371 287.306 349.834 287.181 349.399 286.933L325.585 273.181C325.059 272.882 324.76 272.418 324.76 271.916C324.76 271.413 325.059 270.949 325.585 270.65L374.207 242.576C375.072 242.079 376.371 242.079 377.236 242.581L400.971 256.378C401.491 256.683 401.79 257.141 401.79 257.644C401.79 258.147 401.491 258.61 400.965 258.91L352.427 286.933C351.992 287.181 351.45 287.306 350.913 287.306ZM326.133 271.916C326.155 271.938 326.195 271.972 326.257 272.006L350.071 285.758C350.506 286.012 351.303 286.012 351.744 285.758L400.282 257.734C400.355 257.689 400.4 257.655 400.417 257.627C400.395 257.627 400.355 257.587 400.282 257.548L376.546 243.751C376.111 243.497 375.315 243.497 374.88 243.751L326.257 271.825C326.2 271.859 326.161 271.893 326.133 271.916Z" fill="white"/>
<path d="M354.806 280.865C354.749 280.865 354.687 280.848 354.636 280.82L335.726 269.831C335.619 269.768 335.557 269.655 335.557 269.537C335.557 269.418 335.619 269.305 335.726 269.243L353.167 259.175C353.331 259.079 353.535 259.135 353.631 259.299C353.727 259.463 353.67 259.666 353.506 259.762L336.574 269.542L354.981 280.238C355.145 280.334 355.196 280.537 355.105 280.701C355.037 280.808 354.924 280.865 354.806 280.865Z" fill="#AEAEFF"/>
<path d="M365.072 272.825C365.038 272.825 365.005 272.825 364.965 272.819L356.01 271.413C355.931 271.401 355.857 271.373 355.784 271.333L349.953 268.096L341.501 269.746C341.134 269.819 340.778 269.576 340.705 269.209C340.631 268.842 340.874 268.486 341.241 268.412L349.936 266.718C350.095 266.684 350.258 266.712 350.394 266.791L356.332 270.091L365.168 271.48C365.541 271.537 365.79 271.887 365.733 272.254C365.688 272.588 365.4 272.825 365.072 272.825Z" fill="url(#paint7_linear)"/>
<path d="M355.88 278.13C355.507 278.13 355.202 277.825 355.202 277.452V274.52L352.603 273.023C352.444 272.932 352.331 272.786 352.286 272.61C352.241 272.435 352.264 272.249 352.354 272.096L354.947 267.667L352.603 266.311C352.444 266.22 352.331 266.074 352.286 265.898C352.241 265.723 352.264 265.537 352.354 265.384L355.292 260.367C355.484 260.045 355.897 259.932 356.219 260.124C356.541 260.316 356.648 260.729 356.462 261.051L353.868 265.48L356.213 266.836C356.371 266.927 356.484 267.074 356.529 267.249C356.575 267.424 356.552 267.61 356.462 267.763L353.868 272.192L356.213 273.548C356.422 273.667 356.552 273.893 356.552 274.136V277.458C356.558 277.825 356.258 278.13 355.88 278.13Z" fill="url(#paint8_linear)"/>
<path d="M374.664 246.762L376.308 245.847L390.845 254.237L389.196 255.186L374.664 246.762Z" fill="#5757B2"/>
<path d="M371.744 248.446L373.377 247.508L382.123 252.559L380.468 253.514L371.744 248.446Z" fill="#AEAEFF"/>
<path d="M368.84 250.118L370.467 249.181L380.744 255.085L379.004 256.023L368.84 250.118Z" fill="#AEAEFF"/>
<path d="M365.93 251.802L367.563 250.864L373.376 254.22L371.687 255.192L365.93 251.802Z" fill="#AEAEFF"/>
<path d="M381.729 254.231L383.356 253.294L390.819 257.576L389.141 258.542L381.729 254.231Z" fill="#AEAEFF"/>
<path opacity="0.4" d="M380.674 180.78L426.239 207.083V88.7083L380.674 62.4052V180.78Z" fill="url(#paint9_linear)"/>
<path opacity="0.45" d="M374.994 184.09L420.549 210.393L420.56 92.0179L374.994 65.7148V184.09Z" fill="url(#paint10_linear)"/>
<path d="M380.807 76.0658L380.773 79.3869L409.224 95.8264V92.472L380.807 76.0658Z" fill="#5757B2"/>
<path d="M380.807 89.2178L380.773 92.5389L409.224 108.978V105.624L380.807 89.2178Z" fill="#5757B2"/>
<path d="M380.684 82.6417L380.662 85.9738L403.522 99.1918L403.467 95.7932L380.684 82.6417Z" fill="#AEAEFF"/>
<path d="M380.684 95.8269L380.662 99.1591L403.522 112.377L403.467 108.978L380.684 95.8269Z" fill="#AEAEFF"/>
<path d="M403.623 181.312C403.634 188.552 398.508 191.519 392.22 187.888C385.954 184.257 380.807 175.378 380.807 168.138C380.807 160.91 385.921 157.954 392.187 161.563C395.331 163.378 398.209 166.533 400.268 170.131C402.327 173.685 403.612 177.692 403.623 181.312Z" fill="#8181EA"/>
<path d="M400.269 170.12L392.243 174.747L392.188 161.551C395.343 163.378 398.21 166.522 400.269 170.12Z" fill="#5757B2"/>
<path d="M412.046 183.348C410.496 182.452 409.223 180.227 409.223 178.4C409.223 176.573 410.518 175.832 412.101 176.739C413.684 177.658 414.946 179.883 414.924 181.688C414.891 183.492 413.595 184.245 412.046 183.348Z" fill="#5757B2"/>
<path d="M412.046 196.445C410.496 195.549 409.223 193.323 409.223 191.497C409.223 189.67 410.518 188.929 412.101 189.836C413.684 190.755 414.946 192.98 414.924 194.785C414.891 196.589 413.595 197.342 412.046 196.445Z" fill="#8181EA"/>
<path d="M384.338 146.772L384.46 113.882L390.094 117.137V150.093L384.338 146.772Z" fill="#8181EA"/>
<path d="M395.773 153.381L395.851 133.61L401.486 136.876L401.53 156.703L395.773 153.381Z" fill="#8181EA"/>
<path d="M407.176 159.957L407.242 153.348L412.877 156.603L412.91 163.267L407.176 159.957Z" fill="#8181EA"/>
<path opacity="0.5" d="M46.584 199.976C46.584 200.686 46.931 201.4 47.6404 201.803L153.052 262.66L220.155 301.391C221.778 302.331 223.595 302.805 225.422 302.805C227.249 302.805 229.071 302.341 230.709 301.391L333.977 241.765L153.047 137.308L47.6404 198.154C46.931 198.552 46.584 199.272 46.584 199.976Z" fill="#D7D1E8"/>
<path d="M46.584 196.914C46.584 197.624 46.931 198.338 47.6404 198.741L153.052 259.598L220.155 298.33C221.778 299.269 223.595 299.743 225.422 299.743C227.249 299.743 229.071 299.279 230.709 298.33L333.977 238.703L153.047 134.246L47.6404 195.092C46.931 195.49 46.584 196.21 46.584 196.914Z" fill="#CAC5D8"/>
<path d="M154.271 3.28571C154.864 3.01011 155.568 2.9999 156.211 3.37247L328.7 102.961C330.333 103.9 331.655 105.242 332.553 106.824L335.845 104.925C334.937 103.246 333.564 101.833 331.869 100.853L159.38 1.25955C158.65 0.846151 157.849 0.902291 157.227 1.27996C157.155 1.331 157.079 1.37693 157.007 1.43818L154.271 3.28571Z" fill="url(#paint11_linear)"/>
<path d="M332.559 106.819C333.477 108.391 333.972 110.197 333.972 112.086V231.349L337.137 229.516V109.973C337.137 108.182 336.682 106.441 335.845 104.92L332.559 106.819Z" fill="url(#paint12_linear)"/>
<path d="M333.977 112.096V231.359L153.047 126.902V5.19985C153.047 4.58741 153.302 4.06173 153.69 3.67896C153.858 3.52074 154.057 3.38294 154.272 3.29108C154.864 3.01548 155.568 3.00527 156.211 3.37784L328.7 102.966C330.124 103.777 331.298 104.895 332.171 106.217C332.308 106.416 332.436 106.62 332.548 106.829C332.559 106.829 332.559 106.84 332.559 106.84C333.477 108.406 333.977 110.208 333.977 112.096Z" fill="#B9CFFE"/>
<path d="M46.584 189.565V193.786L46.732 194.556C46.732 194.566 46.732 194.566 46.732 194.566C46.9004 194.99 47.1964 195.357 47.6404 195.613L220.15 295.201C221.773 296.14 223.59 296.614 225.417 296.614V292.394C223.59 292.394 221.778 291.919 220.15 290.98L47.6404 191.392C46.931 190.989 46.584 190.274 46.584 189.565Z" fill="url(#paint13_linear)"/>
<path d="M225.416 292.389V296.61C227.243 296.61 229.065 296.145 230.703 295.196L333.981 235.575V231.354L230.698 290.975C229.065 291.924 227.238 292.389 225.416 292.389Z" fill="#8181EA"/>
<path d="M46.584 189.565C46.584 190.275 46.931 190.989 47.6404 191.392L153.052 252.248L220.155 290.98C221.778 291.919 223.595 292.394 225.422 292.394C227.249 292.394 229.071 291.93 230.709 290.98L333.977 231.354L153.047 126.897L47.6404 187.743C46.931 188.141 46.584 188.861 46.584 189.565Z" fill="#B9CFFE"/>
<path d="M317.686 228.746L157.569 136.298L101.484 168.675L261.607 261.124L317.686 228.746Z" fill="#96B7FF"/>
<path d="M119.042 221.432C119.179 220.917 119.516 220.432 120.042 220.136L147.796 204.156C148.449 203.779 149.25 203.779 149.904 204.156L199.945 233.038C200.471 233.334 200.797 233.819 200.935 234.334C201.144 233.467 200.818 232.487 199.945 231.982L149.904 203.1C149.25 202.722 148.449 202.722 147.796 203.1L120.042 219.08C119.159 219.585 118.832 220.565 119.042 221.432Z" fill="url(#paint14_linear)"/>
<path d="M119.041 221.432C119.179 221.948 119.516 222.433 120.041 222.729L170.083 251.621C170.736 251.998 171.537 251.998 172.191 251.621L199.945 235.631C200.47 235.335 200.797 234.85 200.935 234.334C200.797 233.819 200.47 233.334 199.945 233.038L149.903 204.156C149.25 203.779 148.448 203.779 147.795 204.156L120.041 220.136C119.521 220.427 119.179 220.912 119.041 221.432Z" fill="#F0F5FF"/>
<path d="M322.274 214.155C323.734 214.997 324.928 214.308 324.928 212.624V114.286C324.928 112.602 323.734 110.535 322.274 109.693L164.749 18.745C163.289 17.9029 162.095 18.5919 162.095 20.2761L162.09 118.609C162.09 120.293 163.284 122.36 164.744 123.202L322.274 214.155Z" fill="url(#paint15_linear)"/>
<path d="M302.691 232.339L294.264 227.48L285.854 232.339L294.269 237.192L302.691 232.339Z" fill="#538DFF"/>
<path d="M302.691 232.339V233.783L294.27 238.637V237.193L302.691 232.339Z" fill="#538DFF"/>
<path d="M285.854 232.339V233.783L294.269 238.637V237.193L285.854 232.339Z" fill="#538DFF"/>
<path d="M291.228 225.673L282.807 220.815L274.396 225.673L282.812 230.527L291.228 225.673Z" fill="#538DFF"/>
<path d="M291.228 225.674V227.118L282.812 231.972V230.527L291.228 225.674Z" fill="#538DFF"/>
<path d="M274.396 225.674V227.118L282.812 231.972V230.527L274.396 225.674Z" fill="#538DFF"/>
<path d="M280.221 219.371L271.8 214.507L263.389 219.371L271.805 224.224L280.221 219.371Z" fill="#538DFF"/>
<path d="M280.221 219.371V220.815L271.805 225.669V224.224L280.221 219.371Z" fill="#538DFF"/>
<path d="M263.389 219.371V220.815L271.805 225.669V224.224L263.389 219.371Z" fill="#538DFF"/>
<path d="M269.002 212.904L260.581 208.045L252.17 212.904L260.586 217.758L269.002 212.904Z" fill="#538DFF"/>
<path d="M269.002 212.904V214.348L260.586 219.202V217.758L269.002 212.904Z" fill="#538DFF"/>
<path d="M252.17 212.904V214.348L260.586 219.202V217.758L252.17 212.904Z" fill="#538DFF"/>
<path d="M257.954 206.473L249.528 201.615L241.117 206.473L249.538 211.327L257.954 206.473Z" fill="#538DFF"/>
<path d="M257.955 206.474V207.918L249.539 212.771V211.327L257.955 206.474Z" fill="#538DFF"/>
<path d="M241.117 206.474V207.918L249.538 212.771V211.327L241.117 206.474Z" fill="#538DFF"/>
<path d="M246.766 200.038L238.344 195.174L229.934 200.038L238.35 204.891L246.766 200.038Z" fill="#538DFF"/>
<path d="M246.766 200.038V201.482L238.35 206.336V204.891L246.766 200.038Z" fill="#538DFF"/>
<path d="M229.934 200.038V201.482L238.35 206.336V204.891L229.934 200.038Z" fill="#538DFF"/>
<path d="M235.613 193.638L227.192 188.774L218.781 193.638L227.197 198.491L235.613 193.638Z" fill="#538DFF"/>
<path d="M235.613 193.637V195.082L227.197 199.935V198.491L235.613 193.637Z" fill="#538DFF"/>
<path d="M218.781 193.637V195.082L227.197 199.935V198.491L218.781 193.637Z" fill="#538DFF"/>
<path d="M224.627 187.299L216.206 182.44L207.795 187.299L216.211 192.153L224.627 187.299Z" fill="#538DFF"/>
<path d="M224.627 187.299V188.743L216.211 193.597V192.153L224.627 187.299Z" fill="#538DFF"/>
<path d="M207.795 187.299V188.743L216.211 193.597V192.153L207.795 187.299Z" fill="#538DFF"/>
<path d="M213.475 180.879L205.053 176.015L196.643 180.879L205.059 185.732L213.475 180.879Z" fill="#538DFF"/>
<path d="M213.475 180.879V182.323L205.059 187.176V185.732L213.475 180.879Z" fill="#538DFF"/>
<path d="M196.643 180.879V182.323L205.059 187.176V185.732L196.643 180.879Z" fill="#538DFF"/>
<path d="M202.226 174.336L193.805 169.472L185.389 174.336L193.81 179.189L202.226 174.336Z" fill="#538DFF"/>
<path d="M202.227 174.336V175.78L193.811 180.628V179.189L202.227 174.336Z" fill="#538DFF"/>
<path d="M185.389 174.336V175.78L193.81 180.628V179.189L185.389 174.336Z" fill="#538DFF"/>
<path d="M190.911 167.767L182.485 162.903L174.074 167.767L182.495 172.621L190.911 167.767Z" fill="#538DFF"/>
<path d="M190.912 167.767V169.212L182.496 174.065V172.621L190.912 167.767Z" fill="#538DFF"/>
<path d="M174.074 167.767V169.212L182.495 174.065V172.621L174.074 167.767Z" fill="#538DFF"/>
<path d="M179.331 161.137L170.905 156.274L162.494 161.137L170.915 165.991L179.331 161.137Z" fill="#538DFF"/>
<path d="M179.332 161.138V162.582L170.916 167.43V165.991L179.332 161.138Z" fill="#538DFF"/>
<path d="M162.494 161.138V162.582L170.915 167.43V165.991L162.494 161.138Z" fill="#538DFF"/>
<path d="M168.021 154.594V156.039L159.605 160.892V159.448L168.021 154.594Z" fill="#538DFF"/>
<path d="M168.021 154.595L150.153 144.265L141.742 149.123L159.605 159.448L168.021 154.595Z" fill="#538DFF"/>
<path d="M141.742 149.124V150.568L159.605 160.893V159.448L141.742 149.124Z" fill="#538DFF"/>
<path d="M291.894 238.545L274.48 228.475L266.064 233.339L283.478 243.398L291.894 238.545Z" fill="#538DFF"/>
<path d="M291.894 238.545V239.989L283.479 244.843V243.398L291.894 238.545Z" fill="#538DFF"/>
<path d="M266.064 233.339V234.783L283.478 244.843V243.398L266.064 233.339Z" fill="#538DFF"/>
<path d="M271.401 226.699L262.975 221.84L254.564 226.699L262.98 231.553L271.401 226.699Z" fill="#538DFF"/>
<path d="M271.402 226.699V228.144L262.98 232.997V231.553L271.402 226.699Z" fill="#538DFF"/>
<path d="M254.564 226.699V228.144L262.98 232.997V231.553L254.564 226.699Z" fill="#538DFF"/>
<path d="M260.021 220.136L251.6 215.272L243.184 220.136L251.605 224.99L260.021 220.136Z" fill="#538DFF"/>
<path d="M260.021 220.136V221.58L251.605 226.429V224.989L260.021 220.136Z" fill="#538DFF"/>
<path d="M243.184 220.136V221.58L251.605 226.429V224.989L243.184 220.136Z" fill="#538DFF"/>
<path d="M248.782 213.603L240.361 208.739L231.945 213.603L240.366 218.452L248.782 213.603Z" fill="#538DFF"/>
<path d="M248.783 213.603V215.042L240.367 219.896V218.452L248.783 213.603Z" fill="#538DFF"/>
<path d="M231.945 213.603V215.042L240.366 219.896V218.452L231.945 213.603Z" fill="#538DFF"/>
<path d="M237.32 207.035L228.899 202.171L220.488 207.035L228.904 211.888L237.32 207.035Z" fill="#538DFF"/>
<path d="M237.32 207.035V208.479L228.904 213.333V211.889L237.32 207.035Z" fill="#538DFF"/>
<path d="M220.488 207.035V208.479L228.904 213.333V211.889L220.488 207.035Z" fill="#538DFF"/>
<path d="M225.971 200.466L217.55 195.607L209.139 200.466L217.555 205.32L225.971 200.466Z" fill="#538DFF"/>
<path d="M225.969 200.466V201.911L217.553 206.764V205.32L225.969 200.466Z" fill="#538DFF"/>
<path d="M209.137 200.466V201.911L217.553 206.764V205.32L209.137 200.466Z" fill="#538DFF"/>
<path d="M214.951 194.169L206.53 189.305L198.119 194.169L206.535 199.022L214.951 194.169Z" fill="#538DFF"/>
<path d="M214.951 194.168V195.613L206.535 200.466V199.022L214.951 194.168Z" fill="#538DFF"/>
<path d="M198.119 194.168V195.613L206.535 200.466V199.022L198.119 194.168Z" fill="#538DFF"/>
<path d="M203.835 187.697L195.409 182.838L186.998 187.697L195.419 192.55L203.835 187.697Z" fill="#538DFF"/>
<path d="M203.836 187.697V189.141L195.42 193.995V192.551L203.836 187.697Z" fill="#538DFF"/>
<path d="M186.998 187.697V189.141L195.419 193.995V192.551L186.998 187.697Z" fill="#538DFF"/>
<path d="M192.683 181.23L184.257 176.372L175.846 181.23L184.267 186.084L192.683 181.23Z" fill="#538DFF"/>
<path d="M192.684 181.23V182.675L184.268 187.528V186.084L192.684 181.23Z" fill="#538DFF"/>
<path d="M175.846 181.23V182.675L184.267 187.528V186.084L175.846 181.23Z" fill="#538DFF"/>
<path d="M181.564 174.8L173.143 169.936L164.732 174.8L173.148 179.648L181.564 174.8Z" fill="#538DFF"/>
<path d="M181.562 174.8V176.239L173.146 181.093V179.648L181.562 174.8Z" fill="#538DFF"/>
<path d="M164.73 174.8V176.239L173.146 181.093V179.648L164.73 174.8Z" fill="#538DFF"/>
<path d="M170.572 168.497L162.151 163.633L153.74 168.497L162.156 173.35L170.572 168.497Z" fill="#538DFF"/>
<path d="M170.572 168.497V169.941L162.156 174.795V173.35L170.572 168.497Z" fill="#538DFF"/>
<path d="M153.74 168.497V169.941L162.156 174.795V173.35L153.74 168.497Z" fill="#538DFF"/>
<path d="M159.26 161.964L150.839 157.1L142.428 161.964L150.844 166.818L159.26 161.964Z" fill="#538DFF"/>
<path d="M159.26 161.964V163.409L150.844 168.257V166.818L159.26 161.964Z" fill="#538DFF"/>
<path d="M142.428 161.964V163.409L150.844 168.257V166.818L142.428 161.964Z" fill="#538DFF"/>
<path d="M147.775 155.329L139.354 150.471L130.943 155.329L139.359 160.183L147.775 155.329Z" fill="#538DFF"/>
<path d="M147.775 155.329V156.774L139.359 161.627V160.183L147.775 155.329Z" fill="#538DFF"/>
<path d="M130.943 155.329V156.774L139.359 161.627V160.183L130.943 155.329Z" fill="#538DFF"/>
<path d="M280.869 244.925L261.363 233.661L252.947 238.525L272.454 249.779L280.869 244.925Z" fill="#538DFF"/>
<path d="M280.869 244.925V246.369L272.453 251.223V249.778L280.869 244.925Z" fill="#538DFF"/>
<path d="M252.947 238.525V239.969L272.454 251.223V249.778L252.947 238.525Z" fill="#538DFF"/>
<path d="M258.7 232.12L250.279 227.261L241.863 232.12L250.284 236.973L258.7 232.12Z" fill="#538DFF"/>
<path d="M258.701 232.12V233.564L250.285 238.418V236.973L258.701 232.12Z" fill="#538DFF"/>
<path d="M241.863 232.12V233.564L250.284 238.418V236.973L241.863 232.12Z" fill="#538DFF"/>
<path d="M247.614 225.719L239.188 220.861L230.777 225.719L239.198 230.573L247.614 225.719Z" fill="#538DFF"/>
<path d="M247.615 225.72V227.164L239.199 232.018V230.573L247.615 225.72Z" fill="#538DFF"/>
<path d="M230.777 225.72V227.164L239.198 232.018V230.573L230.777 225.72Z" fill="#538DFF"/>
<path d="M236.528 219.319L228.102 214.456L219.691 219.319L228.107 224.173L236.528 219.319Z" fill="#538DFF"/>
<path d="M236.528 219.32V220.764L228.107 225.617V224.173L236.528 219.32Z" fill="#538DFF"/>
<path d="M219.693 219.32V220.764L228.109 225.617V224.173L219.693 219.32Z" fill="#538DFF"/>
<path d="M225.443 212.92L217.016 208.056L208.605 212.92L217.021 217.773L225.443 212.92Z" fill="#538DFF"/>
<path d="M225.443 212.92V214.364L217.021 219.212V217.773L225.443 212.92Z" fill="#538DFF"/>
<path d="M208.605 212.92V214.364L217.021 219.212V217.773L208.605 212.92Z" fill="#538DFF"/>
<path d="M214.353 206.514L205.932 201.656L197.521 206.514L205.937 211.368L214.353 206.514Z" fill="#538DFF"/>
<path d="M214.353 206.515V207.959L205.938 212.812V211.368L214.353 206.515Z" fill="#538DFF"/>
<path d="M197.521 206.515V207.959L205.937 212.812V211.368L197.521 206.515Z" fill="#538DFF"/>
<path d="M203.267 200.114L194.846 195.256L186.436 200.114L194.852 204.968L203.267 200.114Z" fill="#538DFF"/>
<path d="M203.268 200.114V201.559L194.852 206.412V204.968L203.268 200.114Z" fill="#538DFF"/>
<path d="M186.436 200.114V201.559L194.852 206.412V204.968L186.436 200.114Z" fill="#538DFF"/>
<path d="M192.183 193.715L183.762 188.851L175.352 193.715L183.768 198.568L192.183 193.715Z" fill="#538DFF"/>
<path d="M192.184 193.714V195.159L183.768 200.012V198.568L192.184 193.714Z" fill="#538DFF"/>
<path d="M175.352 193.714V195.159L183.768 200.012V198.568L175.352 193.714Z" fill="#538DFF"/>
<path d="M181.098 187.314L172.676 182.45L164.266 187.314L172.682 192.168L181.098 187.314Z" fill="#538DFF"/>
<path d="M181.098 187.314V188.759L172.682 193.612V192.168L181.098 187.314Z" fill="#538DFF"/>
<path d="M164.266 187.314V188.759L172.682 193.612V192.168L164.266 187.314Z" fill="#538DFF"/>
<path d="M170.013 180.909L161.592 176.051L153.176 180.909L161.597 185.763L170.013 180.909Z" fill="#538DFF"/>
<path d="M170.014 180.909V182.354L161.598 187.207V185.763L170.014 180.909Z" fill="#538DFF"/>
<path d="M153.176 180.909V182.354L161.597 187.207V185.763L153.176 180.909Z" fill="#538DFF"/>
<path d="M158.929 174.509L150.508 169.651L142.092 174.509L150.513 179.363L158.929 174.509Z" fill="#538DFF"/>
<path d="M158.93 174.509V175.954L150.514 180.807V179.363L158.93 174.509Z" fill="#538DFF"/>
<path d="M142.092 174.509V175.954L150.513 180.807V179.363L142.092 174.509Z" fill="#538DFF"/>
<path d="M147.842 168.109L128.331 156.845L119.92 161.709L139.426 172.963L147.842 168.109Z" fill="#538DFF"/>
<path d="M119.92 161.709V163.154L139.426 174.407V172.963L119.92 161.709Z" fill="#538DFF"/>
<path d="M147.842 168.11V169.554L139.426 174.408V172.963L147.842 168.11Z" fill="#538DFF"/>
<path d="M310.103 228.026L301.682 223.167L296.527 226.158L304.943 231.012L310.103 228.026Z" fill="#538DFF"/>
<path d="M310.103 228.026V229.471L304.943 232.456V231.012L310.103 228.026Z" fill="#538DFF"/>
<path d="M296.527 226.158V227.603L304.943 232.456V231.012L296.527 226.158Z" fill="#538DFF"/>
<path d="M299.017 221.626L290.596 216.762L285.441 219.758L293.862 224.612L299.017 221.626Z" fill="#538DFF"/>
<path d="M299.018 221.626V223.07L293.863 226.056V224.612L299.018 221.626Z" fill="#538DFF"/>
<path d="M285.441 219.758V221.202L293.862 226.056V224.612L285.441 219.758Z" fill="#538DFF"/>
<path d="M287.937 215.226L279.511 210.362L274.361 213.358L282.777 218.212L287.937 215.226Z" fill="#538DFF"/>
<path d="M287.937 215.226V216.67L282.777 219.656V218.212L287.937 215.226Z" fill="#538DFF"/>
<path d="M274.361 213.358V214.802L282.777 219.656V218.212L274.361 213.358Z" fill="#538DFF"/>
<path d="M276.851 208.826L268.43 203.962L263.275 206.958L271.691 211.806L276.851 208.826Z" fill="#538DFF"/>
<path d="M276.851 208.826V210.271L271.691 213.251V211.807L276.851 208.826Z" fill="#538DFF"/>
<path d="M263.275 206.958V208.397L271.691 213.251V211.807L263.275 206.958Z" fill="#538DFF"/>
<path d="M265.767 202.421L257.346 197.562L252.191 200.553L260.612 205.406L265.767 202.421Z" fill="#538DFF"/>
<path d="M265.768 202.421V203.865L260.613 206.851V205.407L265.768 202.421Z" fill="#538DFF"/>
<path d="M252.191 200.553V201.997L260.612 206.851V205.406L252.191 200.553Z" fill="#538DFF"/>
<path d="M254.686 196.021L246.26 191.162L241.105 194.153L249.527 199.006L254.686 196.021Z" fill="#538DFF"/>
<path d="M254.687 196.021V197.465L249.527 200.451V199.007L254.687 196.021Z" fill="#538DFF"/>
<path d="M241.105 194.153V195.598L249.527 200.451V199.007L241.105 194.153Z" fill="#538DFF"/>
<path d="M243.601 189.621L235.18 184.757L230.025 187.753L238.441 192.607L243.601 189.621Z" fill="#538DFF"/>
<path d="M243.601 189.621V191.065L238.441 194.051V192.607L243.601 189.621Z" fill="#538DFF"/>
<path d="M230.025 187.753V189.198L238.441 194.051V192.607L230.025 187.753Z" fill="#538DFF"/>
<path d="M232.517 183.221L224.096 178.357L218.941 181.353L227.357 186.207L232.517 183.221Z" fill="#538DFF"/>
<path d="M232.517 183.221V184.665L227.357 187.651V186.206L232.517 183.221Z" fill="#538DFF"/>
<path d="M218.941 181.353V182.797L227.357 187.651V186.207L218.941 181.353Z" fill="#538DFF"/>
<path d="M221.431 176.821L213.01 171.957L207.855 174.953L216.277 179.801L221.431 176.821Z" fill="#538DFF"/>
<path d="M221.432 176.821V178.265L216.277 181.246V179.801L221.432 176.821Z" fill="#538DFF"/>
<path d="M207.855 174.953V176.392L216.277 181.246V179.801L207.855 174.953Z" fill="#538DFF"/>
<path d="M210.351 170.416L201.925 165.557L196.775 168.548L205.191 173.401L210.351 170.416Z" fill="#538DFF"/>
<path d="M210.351 170.416V171.86L205.191 174.846V173.402L210.351 170.416Z" fill="#538DFF"/>
<path d="M196.775 168.548V169.992L205.191 174.845V173.401L196.775 168.548Z" fill="#538DFF"/>
<path d="M199.265 164.016L190.844 159.157L185.689 162.148L194.105 167.001L199.265 164.016Z" fill="#538DFF"/>
<path d="M199.265 164.016V165.46L194.105 168.446V167.001L199.265 164.016Z" fill="#538DFF"/>
<path d="M185.689 162.148V163.592L194.105 168.446V167.001L185.689 162.148Z" fill="#538DFF"/>
<path d="M188.181 157.615L179.76 152.752L174.605 155.748L183.021 160.601L188.181 157.615Z" fill="#538DFF"/>
<path d="M188.181 157.616V159.06L183.021 162.046V160.601L188.181 157.616Z" fill="#538DFF"/>
<path d="M174.605 155.748V157.192L183.021 162.046V160.601L174.605 155.748Z" fill="#538DFF"/>
<path d="M177.1 151.216L168.674 146.352L163.52 149.348L171.941 154.201L177.1 151.216Z" fill="#538DFF"/>
<path d="M177.101 151.216V152.66L171.941 155.646V154.201L177.101 151.216Z" fill="#538DFF"/>
<path d="M163.52 149.348V150.792L171.941 155.646V154.201L163.52 149.348Z" fill="#538DFF"/>
<path d="M166.015 144.816L157.594 139.952L152.439 142.948L160.855 147.797L166.015 144.816Z" fill="#538DFF"/>
<path d="M166.015 144.816V146.26L160.855 149.241V147.796L166.015 144.816Z" fill="#538DFF"/>
<path d="M152.439 142.948V144.387L160.855 149.241V147.796L152.439 142.948Z" fill="#538DFF"/>
<path d="M270.017 251.167L261.596 246.308L253.18 251.167L261.601 256.02L270.017 251.167Z" fill="#538DFF"/>
<path d="M270.018 251.167V252.611L261.602 257.464V256.02L270.018 251.167Z" fill="#538DFF"/>
<path d="M253.18 251.167V252.611L261.601 257.464V256.02L253.18 251.167Z" fill="#538DFF"/>
<path d="M258.933 244.767L250.512 239.908L242.096 244.767L250.517 249.62L258.933 244.767Z" fill="#538DFF"/>
<path d="M258.934 244.767V246.211L250.518 251.065V249.62L258.934 244.767Z" fill="#538DFF"/>
<path d="M242.096 244.767V246.211L250.517 251.065V249.62L242.096 244.767Z" fill="#538DFF"/>
<path d="M247.847 238.366L239.426 233.503L231.01 238.366L239.431 243.22L247.847 238.366Z" fill="#538DFF"/>
<path d="M247.848 238.367V239.811L239.432 244.665V243.22L247.848 238.367Z" fill="#538DFF"/>
<path d="M231.01 238.367V239.811L239.431 244.665V243.22L231.01 238.367Z" fill="#538DFF"/>
<path d="M236.763 231.966L228.337 227.103L219.926 231.966L228.347 236.82L236.763 231.966Z" fill="#538DFF"/>
<path d="M236.764 231.967V233.411L228.348 238.265V236.82L236.764 231.967Z" fill="#538DFF"/>
<path d="M219.926 231.967V233.411L228.347 238.265V236.82L219.926 231.967Z" fill="#538DFF"/>
<path d="M225.678 225.567L172.911 195.098L164.5 199.962L217.257 230.415L225.678 225.567Z" fill="#538DFF"/>
<path d="M225.677 225.566V227.006L217.256 231.859V230.415L225.677 225.566Z" fill="#538DFF"/>
<path d="M164.5 199.961V201.401L217.257 231.859V230.415L164.5 199.961Z" fill="#538DFF"/>
<path d="M170.247 193.556L161.826 188.697L153.41 193.556L161.831 198.41L170.247 193.556Z" fill="#538DFF"/>
<path d="M170.248 193.556V195.001L161.832 199.854V198.41L170.248 193.556Z" fill="#538DFF"/>
<path d="M153.41 193.556V195.001L161.831 199.854V198.41L153.41 193.556Z" fill="#538DFF"/>
<path d="M159.161 187.156L150.74 182.292L142.324 187.156L150.745 192.01L159.161 187.156Z" fill="#538DFF"/>
<path d="M159.162 187.156V188.601L150.746 193.454V192.01L159.162 187.156Z" fill="#538DFF"/>
<path d="M142.324 187.156V188.601L150.745 193.454V192.01L142.324 187.156Z" fill="#538DFF"/>
<path d="M144.952 182.547L136.531 177.689L131.238 180.756L139.659 185.61L144.952 182.547Z" fill="#538DFF"/>
<path d="M144.953 182.547V183.992L139.66 187.054V185.61L144.953 182.547Z" fill="#538DFF"/>
<path d="M131.238 180.756V182.2L139.659 187.054V185.61L131.238 180.756Z" fill="#538DFF"/>
<path d="M136.991 174.356L128.565 169.492L120.154 174.356L128.575 179.21L136.991 174.356Z" fill="#538DFF"/>
<path d="M136.992 174.356V175.8L128.576 180.649V179.21L136.992 174.356Z" fill="#538DFF"/>
<path d="M120.154 174.356V175.8L128.575 180.649V179.21L120.154 174.356Z" fill="#538DFF"/>
<path d="M122.71 169.855L114.284 164.991L109.068 167.951L117.484 172.805L122.71 169.855Z" fill="#538DFF"/>
<path d="M122.711 169.855V171.299L117.484 174.249V172.805L122.711 169.855Z" fill="#538DFF"/>
<path d="M109.068 167.951V169.395L117.484 174.249V172.805L109.068 167.951Z" fill="#538DFF"/>
<path d="M143.998 247.017L143.074 247.558L125.053 237.07L125.905 236.575L143.998 247.017Z" fill="url(#paint16_linear)"/>
<mask id="mask0" mask-type="alpha" maskUnits="userSpaceOnUse" x="153" y="126" width="181" height="167">
<path d="M153.047 126.897V252.248L220.15 290.98C221.773 291.919 223.59 292.394 225.417 292.394C227.244 292.394 229.066 291.93 230.704 290.98L333.977 231.354L153.047 126.897Z" fill="url(#paint17_linear)"/>
</mask>
<g mask="url(#mask0)">
<path opacity="0.3" d="M153.047 126.897V252.248L220.15 290.98C221.773 291.919 223.59 292.394 225.417 292.394C227.244 292.394 229.066 291.93 230.704 290.98L333.977 231.354L153.047 126.897Z" fill="url(#paint18_linear)"/>
</g>
<mask id="mask1" mask-type="alpha" maskUnits="userSpaceOnUse" x="153" y="106" width="181" height="126">
<path d="M333.977 112.096V231.359L153.047 126.902L332.171 106.212C332.308 106.411 332.436 106.615 332.548 106.824C332.559 106.824 332.559 106.835 332.559 106.835C333.477 108.406 333.977 110.208 333.977 112.096Z" fill="url(#paint19_linear)"/>
</mask>
<g mask="url(#mask1)">
<path opacity="0.4" d="M333.977 112.096V231.359L153.047 126.902L332.171 106.212C332.308 106.411 332.436 106.615 332.548 106.824C332.559 106.824 332.559 106.835 332.559 106.835C333.477 108.406 333.977 110.208 333.977 112.096Z" fill="url(#paint20_linear)"/>
</g>
<path opacity="0.3" d="M172.707 118.603C171.247 117.761 170.053 115.694 170.053 114.01L170.058 34.0658C170.058 32.3816 171.252 31.6926 172.712 32.5347L314.313 114.296C315.773 115.138 316.967 117.205 316.967 118.889V198.838C316.967 200.522 315.773 201.211 314.313 200.369L172.707 118.603Z" fill="url(#paint21_linear)"/>
<path opacity="0.5" d="M315.497 201.339C315.028 201.339 314.522 201.191 314.012 200.895L172.405 119.134C170.747 118.175 169.445 115.924 169.445 114.01L169.45 34.066C169.45 33.0248 169.838 32.2286 170.537 31.8203C171.237 31.4172 172.12 31.4784 173.023 32.0041L314.625 113.765C316.283 114.724 317.585 116.975 317.585 118.889V198.838C317.585 199.879 317.202 200.676 316.498 201.084C316.191 201.252 315.855 201.339 315.497 201.339ZM173.013 118.073L314.619 199.833C315.12 200.119 315.579 200.191 315.88 200.017C316.181 199.844 316.355 199.415 316.355 198.833V118.884C316.355 117.414 315.283 115.556 314.007 114.821L172.405 33.0656C171.905 32.7747 171.446 32.7084 171.145 32.8819C170.844 33.0554 170.67 33.4841 170.67 34.066L170.665 114.01C170.67 115.48 171.742 117.338 173.013 118.073Z" fill="white"/>
<path opacity="0.5" d="M161.691 120.767C160.231 119.925 159.037 117.858 159.037 116.174L159.042 36.2298C159.042 34.5456 160.236 33.8566 161.696 34.6987L303.298 116.46C304.757 117.302 305.952 119.369 305.952 121.053V201.002C305.952 202.686 304.757 203.375 303.298 202.533L161.691 120.767Z" fill="url(#paint22_linear)"/>
<path opacity="0.7" d="M304.478 203.503C304.008 203.503 303.503 203.355 302.993 203.059L161.386 121.298C159.727 120.338 158.426 118.087 158.426 116.174L158.431 36.2245C158.431 35.1833 158.819 34.3871 159.518 33.9788C160.217 33.5757 161.1 33.642 162.003 34.1626L303.605 115.923C305.264 116.883 306.565 119.134 306.565 121.048V200.997C306.565 202.038 306.182 202.834 305.478 203.242C305.172 203.416 304.835 203.503 304.478 203.503ZM160.518 34.9485C160.37 34.9485 160.238 34.9792 160.13 35.0455C159.829 35.219 159.656 35.6477 159.656 36.2296L159.651 116.179C159.651 117.649 160.722 119.506 161.998 120.241L303.605 202.002C304.105 202.288 304.564 202.359 304.866 202.186C305.167 202.012 305.34 201.584 305.34 201.002V121.048C305.34 119.578 304.268 117.72 302.993 116.985L161.391 35.2241C161.069 35.0404 160.768 34.9485 160.518 34.9485Z" fill="white"/>
<path opacity="0.75" d="M150.961 125.749C149.501 124.906 148.307 122.839 148.307 121.155L148.312 41.2112C148.312 39.527 149.506 38.838 150.966 39.6801L292.567 121.441C294.027 122.283 295.221 124.35 295.221 126.034V205.983C295.221 207.668 294.027 208.357 292.567 207.515L150.961 125.749Z" fill="url(#paint23_linear)"/>
<path d="M295.22 126.029V128.908L148.311 44.0848V41.2114C148.311 39.5272 149.505 38.8331 150.97 39.6803L292.571 121.436C294.026 122.278 295.22 124.345 295.22 126.029Z" fill="url(#paint24_linear)"/>
<path opacity="0.5" d="M153.405 45.3607C154.109 45.3607 154.681 44.7894 154.681 44.0848C154.681 43.3801 154.109 42.8088 153.405 42.8088C152.7 42.8088 152.129 43.3801 152.129 44.0848C152.129 44.7894 152.7 45.3607 153.405 45.3607Z" fill="#00FF00"/>
<path opacity="0.5" d="M158.793 48.3821C159.498 48.3821 160.069 47.8109 160.069 47.1062C160.069 46.4015 159.498 45.8303 158.793 45.8303C158.089 45.8303 157.518 46.4015 157.518 47.1062C157.518 47.8109 158.089 48.3821 158.793 48.3821Z" fill="#FFFF00"/>
<path opacity="0.5" d="M164.045 51.4137C164.75 51.4137 165.321 50.8424 165.321 50.1378C165.321 49.4331 164.75 48.8618 164.045 48.8618C163.341 48.8618 162.77 49.4331 162.77 50.1378C162.77 50.8424 163.341 51.4137 164.045 51.4137Z" fill="#FF0000"/>
<path d="M293.745 208.484C293.276 208.484 292.771 208.336 292.26 208.04L150.653 126.279C148.995 125.32 147.693 123.069 147.693 121.155L147.698 41.211C147.698 40.1699 148.086 39.3737 148.786 38.9654C149.485 38.5622 150.368 38.6286 151.271 39.1491L292.873 120.91C294.531 121.87 295.833 124.12 295.833 126.034V205.983C295.833 207.024 295.45 207.821 294.746 208.229C294.445 208.397 294.108 208.484 293.745 208.484ZM149.786 39.93C149.638 39.93 149.505 39.9606 149.398 40.027C149.097 40.2005 148.923 40.6292 148.923 41.211L148.918 121.155C148.918 122.625 149.99 124.483 151.266 125.218L292.873 206.979C293.373 207.269 293.832 207.336 294.133 207.162C294.434 206.989 294.608 206.56 294.608 205.978V126.029C294.608 124.559 293.536 122.701 292.26 121.967L150.659 40.2056C150.342 40.0219 150.041 39.93 149.786 39.93Z" fill="white"/>
<path d="M265.488 174.999C274.717 169.671 274.718 152.394 265.489 136.41C256.261 120.427 241.298 111.789 232.069 117.118C222.839 122.447 222.838 139.724 232.067 155.707C241.295 171.691 256.258 180.328 265.488 174.999Z" fill="#538DFF"/>
<path d="M266.241 137.798C261.913 129.81 255.681 122.752 248.781 118.771V146.311L266.241 137.798Z" fill="#DFEAFF"/>
<path d="M248.782 146.311V118.771C235.783 111.269 225.152 117.408 225.152 132.413L248.782 146.311Z" fill="#AFCAFF"/>
<path d="M175.295 130.913V112.724L180.547 115.755V133.945L175.295 130.913Z" fill="#538DFF"/>
<path d="M164.791 124.85V118.787L170.043 121.818V127.882L164.791 124.85Z" fill="#538DFF"/>
<path d="M185.799 136.981V106.66L191.045 109.692V140.008L185.799 136.981Z" fill="#538DFF"/>
<path d="M196.302 143.045L196.297 118.787L201.554 121.818V146.076L196.302 143.045Z" fill="#538DFF"/>
<path d="M180.546 115.755L180.556 103.619L175.289 100.597L175.294 112.724L180.546 115.755Z" fill="#AFCAFF"/>
<path d="M185.793 106.66V100.597L191.045 103.629V109.692L185.793 106.66Z" fill="#AFCAFF"/>
<path d="M196.297 118.787V106.66L201.549 109.692L201.554 121.818L196.297 118.787Z" fill="#AFCAFF"/>
<path d="M164.791 118.787V106.66L170.038 109.692L170.043 121.818L164.791 118.787Z" fill="#AFCAFF"/>
<path d="M159.539 64.2438V61.1815L209.453 90.002L209.402 93.0336L159.539 64.2438Z" fill="#5757B2"/>
<path d="M159.539 70.3221V67.2599L185.792 82.4076V85.4647L159.539 70.3221Z" fill="#AEAEFF"/>
<path d="M159.539 76.365V73.3028L177.892 83.9083V86.9705L159.539 76.365Z" fill="#AEAEFF"/>
<path d="M188.395 86.9705L188.446 83.9389L196.295 88.4709V91.5331L188.395 86.9705Z" fill="#AEAEFF"/>
<path opacity="0.5" d="M92.2406 145.795L77.0918 137.043L92.2406 128.298L107.389 137.043L92.2406 145.795Z" fill="#D7D1E8"/>
<path d="M92.2406 143.145L77.0918 134.393L92.2406 125.648L107.389 134.393L92.2406 143.145Z" fill="#D7D1E8"/>
<path d="M77.0626 131.743L92.2115 140.488L92.1379 70.5659L77.0332 61.799L77.0626 131.743Z" fill="url(#paint25_linear)"/>
<path d="M92.2123 140.488L92.1387 70.5659L107.361 61.799V131.743L92.2123 140.488Z" fill="#538DFF"/>
<path d="M77.0332 61.7988L92.2115 53.0319L107.36 61.7988L92.1379 70.5657L77.0332 61.7988Z" fill="url(#paint26_linear)"/>
<path opacity="0.5" d="M16.5033 189.519L1.35449 180.774L16.5033 172.029L31.6448 180.774L16.5033 189.519Z" fill="#D7D1E8"/>
<path d="M16.5033 186.869L1.35449 178.124L16.5033 169.379L31.6448 178.124L16.5033 186.869Z" fill="#D7D1E8"/>
<path d="M31.6161 175.474L16.4746 184.219V149.233L31.6161 140.488V175.474Z" fill="#538DFF"/>
<path d="M1.31738 175.474L1.32474 140.488L16.4736 149.233V184.219L1.31738 175.474Z" fill="url(#paint27_linear)"/>
<path d="M1.32617 140.487L16.475 131.743L31.6165 140.487L16.475 149.232L1.32617 140.487Z" fill="url(#paint28_linear)"/>
<path opacity="0.5" d="M54.3676 167.656L39.2188 158.912L54.3676 150.167L69.5164 158.912L54.3676 167.656Z" fill="#D7D1E8"/>
<path d="M54.3676 165.006L39.2188 156.261L54.3676 147.517L69.5164 156.261L54.3676 165.006Z" fill="#D7D1E8"/>
<path d="M69.4711 153.619L54.3296 162.364L54.3223 109.88L69.4785 101.135L69.4711 153.619Z" fill="#538DFF"/>
<path d="M39.1738 153.619V101.135L54.3227 109.88L54.33 162.364L39.1738 153.619Z" fill="url(#paint29_linear)"/>
<path d="M54.33 92.3909L39.1738 101.136L54.3227 109.881L69.4789 101.136L54.33 92.3909Z" fill="url(#paint30_linear)"/>
<path d="M1.75148 132.516L0.868164 130.985L15.8771 122.328L38.6225 91.7139L53.7419 82.9838L76.524 47.8573L91.9968 43.4408L92.4826 45.1338L77.6503 49.3737L54.9932 84.3014L39.8223 93.0609L17.077 123.675L1.75148 132.516Z" fill="url(#paint31_linear)"/>
<path d="M1.32497 133.075C2.05673 133.075 2.64994 132.482 2.64994 131.75C2.64994 131.018 2.05673 130.425 1.32497 130.425C0.59321 130.425 0 131.018 0 131.75C0 132.482 0.59321 133.075 1.32497 133.075Z" fill="url(#paint32_linear)"/>
<path d="M16.4656 124.323C17.1974 124.323 17.7906 123.73 17.7906 122.998C17.7906 122.266 17.1974 121.673 16.4656 121.673C15.7338 121.673 15.1406 122.266 15.1406 122.998C15.1406 123.73 15.7338 124.323 16.4656 124.323Z" fill="url(#paint33_linear)"/>
<path d="M39.2195 93.7158C39.9513 93.7158 40.5445 93.1226 40.5445 92.3908C40.5445 91.6591 39.9513 91.0659 39.2195 91.0659C38.4877 91.0659 37.8945 91.6591 37.8945 92.3908C37.8945 93.1226 38.4877 93.7158 39.2195 93.7158Z" fill="url(#paint34_linear)"/>
<path d="M54.3386 84.9715C55.0704 84.9715 55.6636 84.3783 55.6636 83.6465C55.6636 82.9147 55.0704 82.3215 54.3386 82.3215C53.6069 82.3215 53.0137 82.9147 53.0137 83.6465C53.0137 84.3783 53.6069 84.9715 54.3386 84.9715Z" fill="url(#paint35_linear)"/>
<path d="M77.0906 49.9405C77.8224 49.9405 78.4156 49.3473 78.4156 48.6156C78.4156 47.8838 77.8224 47.2906 77.0906 47.2906C76.3588 47.2906 75.7656 47.8838 75.7656 48.6156C75.7656 49.3473 76.3588 49.9405 77.0906 49.9405Z" fill="url(#paint36_linear)"/>
<path d="M92.2097 45.6122C92.9415 45.6122 93.5347 45.019 93.5347 44.2872C93.5347 43.5555 92.9415 42.9622 92.2097 42.9622C91.478 42.9622 90.8848 43.5555 90.8848 44.2872C90.8848 45.019 91.478 45.6122 92.2097 45.6122Z" fill="url(#paint37_linear)"/>
<path opacity="0.4" d="M16.4667 144.904L1.3252 136.159L16.4667 127.414L31.6229 136.159L16.4667 144.904Z" fill="url(#paint38_linear)" stroke="white" stroke-miterlimit="10"/>
<path opacity="0.4" d="M54.3448 105.508L39.1738 96.7563L54.3227 88.0115L69.5009 96.771L54.3448 105.508Z" fill="url(#paint39_linear)" stroke="white" stroke-miterlimit="10"/>
<path opacity="0.4" d="M92.2113 66.1936L77.0625 57.4488L92.1377 48.7481L107.36 57.4488L92.2113 66.1936Z" fill="url(#paint40_linear)" stroke="white" stroke-miterlimit="10"/>
<defs>
<linearGradient id="paint0_linear" x1="309.131" y1="284.537" x2="345.06" y2="291.239" gradientUnits="userSpaceOnUse">
<stop stop-color="#538DFF"/>
<stop offset="1" stop-color="#865BFF"/>
</linearGradient>
<linearGradient id="paint1_linear" x1="341.969" y1="261.407" x2="421.591" y2="278.072" gradientUnits="userSpaceOnUse">
<stop stop-color="#538DFF"/>
<stop offset="1" stop-color="#865BFF"/>
</linearGradient>
<linearGradient id="paint2_linear" x1="394.707" y1="268.94" x2="309.641" y2="279.257" gradientUnits="userSpaceOnUse">
<stop stop-color="#DDD5EB"/>
<stop offset="0.3023" stop-color="#EBE6F6"/>
<stop offset="0.637" stop-color="#F4F1FD"/>
<stop offset="1" stop-color="#F7F5FF"/>
</linearGradient>
<linearGradient id="paint3_linear" x1="333.966" y1="296.827" x2="392.562" y2="247.659" gradientUnits="userSpaceOnUse">
<stop stop-color="#342EAF"/>
<stop offset="0.3057" stop-color="#2B2285"/>
<stop offset="0.6029" stop-color="#231963"/>
<stop offset="0.7634" stop-color="#201556"/>
</linearGradient>
<linearGradient id="paint4_linear" x1="327.558" y1="289.443" x2="331.448" y2="294.079" gradientUnits="userSpaceOnUse">
<stop stop-color="#DCB3F4"/>
<stop offset="0.407" stop-color="#C8B1F9"/>
<stop offset="1" stop-color="#AEAEFF"/>
</linearGradient>
<linearGradient id="paint5_linear" x1="325.436" y1="270.178" x2="401.107" y2="270.178" gradientUnits="userSpaceOnUse">
<stop stop-color="#F7F5FF"/>
<stop offset="0.363" stop-color="#F4F1FD"/>
<stop offset="0.6977" stop-color="#EBE6F6"/>
<stop offset="1" stop-color="#DDD5EB"/>
</linearGradient>
<linearGradient id="paint6_linear" x1="325.436" y1="264.755" x2="401.107" y2="264.755" gradientUnits="userSpaceOnUse">
<stop stop-color="#F7F5FF"/>
<stop offset="0.363" stop-color="#F4F1FD"/>
<stop offset="0.6977" stop-color="#EBE6F6"/>
<stop offset="1" stop-color="#DDD5EB"/>
</linearGradient>
<linearGradient id="paint7_linear" x1="340.699" y1="269.765" x2="365.749" y2="269.765" gradientUnits="userSpaceOnUse">
<stop stop-color="#5757B2"/>
<stop offset="0.5473" stop-color="#9595E9"/>
<stop offset="0.8147" stop-color="#AEAEFF"/>
</linearGradient>
<linearGradient id="paint8_linear" x1="360.525" y1="272.974" x2="351.239" y2="265.182" gradientUnits="userSpaceOnUse">
<stop offset="0.058" stop-color="#F4C3D7"/>
<stop offset="0.5298" stop-color="#F58FB5"/>
<stop offset="1" stop-color="#F75791"/>
</linearGradient>
<linearGradient id="paint9_linear" x1="380.674" y1="62.4052" x2="432.183" y2="64.5533" gradientUnits="userSpaceOnUse">
<stop stop-color="#538DFF"/>
<stop offset="1" stop-color="#865BFF"/>
</linearGradient>
<linearGradient id="paint10_linear" x1="374.994" y1="65.7148" x2="426.504" y2="67.8629" gradientUnits="userSpaceOnUse">
<stop stop-color="#538DFF"/>
<stop offset="1" stop-color="#865BFF"/>
</linearGradient>
<linearGradient id="paint11_linear" x1="154.271" y1="0.972412" x2="349.8" y2="45.3847" gradientUnits="userSpaceOnUse">
<stop stop-color="#538DFF"/>
<stop offset="1" stop-color="#865BFF"/>
</linearGradient>
<linearGradient id="paint12_linear" x1="332.559" y1="104.92" x2="337.743" y2="104.945" gradientUnits="userSpaceOnUse">
<stop stop-color="#538DFF"/>
<stop offset="1" stop-color="#865BFF"/>
</linearGradient>
<linearGradient id="paint13_linear" x1="46.584" y1="189.565" x2="239.65" y2="232.272" gradientUnits="userSpaceOnUse">
<stop stop-color="#538DFF"/>
<stop offset="1" stop-color="#865BFF"/>
</linearGradient>
<linearGradient id="paint14_linear" x1="139.469" y1="202.735" x2="180.428" y2="251.548" gradientUnits="userSpaceOnUse">
<stop stop-color="#DCB3F4"/>
<stop offset="0.3034" stop-color="#C8B1F9"/>
<stop offset="0.7455" stop-color="#AEAEFF"/>
</linearGradient>
<linearGradient id="paint15_linear" x1="162.09" y1="18.3856" x2="344.288" y2="38.4163" gradientUnits="userSpaceOnUse">
<stop stop-color="#538DFF"/>
<stop offset="1" stop-color="#865BFF"/>
</linearGradient>
<linearGradient id="paint16_linear" x1="125.051" y1="242.068" x2="143.999" y2="242.068" gradientUnits="userSpaceOnUse">
<stop stop-color="#F7F5FF"/>
<stop offset="0.363" stop-color="#F4F1FD"/>
<stop offset="0.6977" stop-color="#EBE6F6"/>
<stop offset="1" stop-color="#DDD5EB"/>
</linearGradient>
<linearGradient id="paint17_linear" x1="231.418" y1="191.653" x2="159.014" y2="266.629" gradientUnits="userSpaceOnUse">
<stop stop-color="white"/>
<stop offset="0.1241" stop-color="#C8C8C8"/>
<stop offset="0.2738" stop-color="#8C8C8C"/>
<stop offset="0.4182" stop-color="#5A5A5A"/>
<stop offset="0.5532" stop-color="#333333"/>
<stop offset="0.6768" stop-color="#171717"/>
<stop offset="0.785" stop-color="#060606"/>
<stop offset="0.8661"/>
</linearGradient>
<linearGradient id="paint18_linear" x1="231.418" y1="191.653" x2="159.014" y2="266.629" gradientUnits="userSpaceOnUse">
<stop stop-color="#6D6DE2"/>
<stop offset="0.1327" stop-color="#8688E9"/>
<stop offset="0.3525" stop-color="#A9AEF2"/>
<stop offset="0.5553" stop-color="#C3CAF9"/>
<stop offset="0.733" stop-color="#D2DBFE"/>
<stop offset="0.8661" stop-color="#D8E1FF"/>
</linearGradient>
<linearGradient id="paint19_linear" x1="264.946" y1="240.601" x2="247.668" y2="142.615" gradientUnits="userSpaceOnUse">
<stop stop-color="white"/>
<stop offset="0.9554"/>
</linearGradient>
<linearGradient id="paint20_linear" x1="264.946" y1="240.601" x2="247.668" y2="142.615" gradientUnits="userSpaceOnUse">
<stop stop-color="#6D6DE2"/>
<stop offset="0.9554" stop-color="#D8E1FF"/>
</linearGradient>
<linearGradient id="paint21_linear" x1="170.055" y1="116.448" x2="316.968" y2="116.448" gradientUnits="userSpaceOnUse">
<stop stop-color="#F7F5FF"/>
<stop offset="0.363" stop-color="#F4F1FD"/>
<stop offset="0.6977" stop-color="#EBE6F6"/>
<stop offset="1" stop-color="#DDD5EB"/>
</linearGradient>
<linearGradient id="paint22_linear" x1="159.037" y1="118.611" x2="305.949" y2="118.611" gradientUnits="userSpaceOnUse">
<stop stop-color="#F7F5FF"/>
<stop offset="0.363" stop-color="#F4F1FD"/>
<stop offset="0.6977" stop-color="#EBE6F6"/>
<stop offset="1" stop-color="#DDD5EB"/>
</linearGradient>
<linearGradient id="paint23_linear" x1="148.309" y1="123.592" x2="295.221" y2="123.592" gradientUnits="userSpaceOnUse">
<stop stop-color="#F7F5FF"/>
<stop offset="0.363" stop-color="#F4F1FD"/>
<stop offset="0.6977" stop-color="#EBE6F6"/>
<stop offset="1" stop-color="#DDD5EB"/>
</linearGradient>
<linearGradient id="paint24_linear" x1="148.309" y1="84.1118" x2="295.221" y2="84.1118" gradientUnits="userSpaceOnUse">
<stop stop-color="#F7F5FF"/>
<stop offset="0.363" stop-color="#F4F1FD"/>
<stop offset="0.6977" stop-color="#EBE6F6"/>
<stop offset="1" stop-color="#DDD5EB"/>
</linearGradient>
<linearGradient id="paint25_linear" x1="77.0332" y1="61.799" x2="94.2101" y2="62.2377" gradientUnits="userSpaceOnUse">
<stop stop-color="#538DFF"/>
<stop offset="1" stop-color="#865BFF"/>
</linearGradient>
<linearGradient id="paint26_linear" x1="95.995" y1="55.2148" x2="88.3832" y2="68.3988" gradientUnits="userSpaceOnUse">
<stop stop-color="#F4C3D7"/>
<stop offset="1" stop-color="#FFEBF5"/>
</linearGradient>
<linearGradient id="paint27_linear" x1="1.31738" y1="140.488" x2="18.4444" y2="141.274" gradientUnits="userSpaceOnUse">
<stop stop-color="#538DFF"/>
<stop offset="1" stop-color="#865BFF"/>
</linearGradient>
<linearGradient id="paint28_linear" x1="19.2837" y1="132.765" x2="13.6617" y2="148.212" gradientUnits="userSpaceOnUse">
<stop stop-color="#F4C3D7"/>
<stop offset="1" stop-color="#FFEBF5"/>
</linearGradient>
<linearGradient id="paint29_linear" x1="39.1738" y1="101.135" x2="56.3185" y2="101.697" gradientUnits="userSpaceOnUse">
<stop stop-color="#538DFF"/>
<stop offset="1" stop-color="#865BFF"/>
</linearGradient>
<linearGradient id="paint30_linear" x1="58.1138" y1="94.5742" x2="50.5379" y2="107.696" gradientUnits="userSpaceOnUse">
<stop stop-color="#F4C3D7"/>
<stop offset="1" stop-color="#FFEBF5"/>
</linearGradient>
<linearGradient id="paint31_linear" x1="52.9229" y1="123.492" x2="40.4111" y2="52.5339" gradientUnits="userSpaceOnUse">
<stop stop-color="#FFDCF0"/>
<stop offset="1" stop-color="#F1BFD4"/>
</linearGradient>
<linearGradient id="paint32_linear" x1="0" y1="130.425" x2="2.94913" y2="130.816" gradientUnits="userSpaceOnUse">
<stop stop-color="#538DFF"/>
<stop offset="1" stop-color="#865BFF"/>
</linearGradient>
<linearGradient id="paint33_linear" x1="15.1406" y1="121.673" x2="18.0898" y2="122.064" gradientUnits="userSpaceOnUse">
<stop stop-color="#538DFF"/>
<stop offset="1" stop-color="#865BFF"/>
</linearGradient>
<linearGradient id="paint34_linear" x1="37.8945" y1="91.0659" x2="40.8437" y2="91.4564" gradientUnits="userSpaceOnUse">
<stop stop-color="#538DFF"/>
<stop offset="1" stop-color="#865BFF"/>
</linearGradient>
<linearGradient id="paint35_linear" x1="53.0137" y1="82.3215" x2="55.9628" y2="82.712" gradientUnits="userSpaceOnUse">
<stop stop-color="#538DFF"/>
<stop offset="1" stop-color="#865BFF"/>
</linearGradient>
<linearGradient id="paint36_linear" x1="75.7656" y1="47.2906" x2="78.7147" y2="47.6811" gradientUnits="userSpaceOnUse">
<stop stop-color="#538DFF"/>
<stop offset="1" stop-color="#865BFF"/>
</linearGradient>
<linearGradient id="paint37_linear" x1="90.8848" y1="42.9622" x2="93.8339" y2="43.3528" gradientUnits="userSpaceOnUse">
<stop stop-color="#538DFF"/>
<stop offset="1" stop-color="#865BFF"/>
</linearGradient>
<linearGradient id="paint38_linear" x1="1.3252" y1="127.414" x2="33.9197" y2="134.891" gradientUnits="userSpaceOnUse">
<stop stop-color="#538DFF"/>
<stop offset="1" stop-color="#865BFF"/>
</linearGradient>
<linearGradient id="paint39_linear" x1="39.1738" y1="88.0115" x2="71.7982" y2="95.4992" gradientUnits="userSpaceOnUse">
<stop stop-color="#538DFF"/>
<stop offset="1" stop-color="#865BFF"/>
</linearGradient>
<linearGradient id="paint40_linear" x1="77.0625" y1="48.7481" x2="109.649" y2="56.2419" gradientUnits="userSpaceOnUse">
<stop stop-color="#538DFF"/>
<stop offset="1" stop-color="#865BFF"/>
</linearGradient>
</defs>
</svg>
