<svg width="54" height="52" viewBox="0 0 54 52" fill="none" xmlns="http://www.w3.org/2000/svg">
<path fill-rule="evenodd" clip-rule="evenodd" d="M50.625 4.0625H20.25C20.25 2.20625 18.7313 0.6875 16.875 0.6875H3.375C1.51875 0.6875 0 2.20625 0 4.0625V7.4375V12.5V31.0625C0 32.9356 1.51875 34.4375 3.375 34.4375H50.625C52.4813 34.4375 54 32.9188 54 31.0625V7.4375C54 5.56437 52.4981 4.0625 50.625 4.0625Z" fill="#538DFF"/>
<path d="M48.9375 7.4375H5.0625C4.13437 7.4375 3.375 8.19687 3.375 9.125V27.6875H50.625V9.125C50.625 8.19687 49.8825 7.4375 48.9375 7.4375Z" fill="white"/>
<path d="M28.6875 20.9375H15.1875C14.2594 20.9375 13.5 21.6969 13.5 22.625C13.5 23.5531 14.2594 24.3125 15.1875 24.3125H28.6875C29.6156 24.3125 30.375 23.5531 30.375 22.625C30.375 21.6969 29.6156 20.9375 28.6875 20.9375ZM38.8125 14.1875H15.1875C14.2594 14.1875 13.5 14.9469 13.5 15.875C13.5 16.8031 14.2594 17.5625 15.1875 17.5625H38.8125C39.7406 17.5625 40.5 16.8031 40.5 15.875C40.5 14.9469 39.7406 14.1875 38.8125 14.1875Z" fill="#9FBBFF"/>
<path d="M50.625 27.6875H3.375C1.51875 27.6875 0 29.1894 0 31.0625V47.9375C0 49.7938 1.51875 51.3125 3.375 51.3125H50.625C52.4813 51.3125 54 49.7938 54 47.9375V31.0625C54 29.1894 52.4981 27.6875 50.625 27.6875Z" fill="#9FBBFF"/>
</svg>
