<svg width="54" height="55" viewBox="0 0 54 55" fill="none" xmlns="http://www.w3.org/2000/svg">
<path d="M50.625 21.9607H27C25.1437 21.9607 23.625 23.4626 23.625 25.3357V45.5688C23.625 47.4251 25.1437 48.9438 27 48.9438H37.1756C37.125 49.4332 37.1587 54.0063 37.1756 54.0232C37.4119 54.1076 42.0019 49.6188 42.7275 48.9438H50.625C52.4813 48.9438 54 47.4251 54 45.5688V25.3357C54 23.4626 52.4981 21.9607 50.625 21.9607Z" fill="#9FBBFF"/>
<path d="M32.0625 0.0401049H29.5819C29.4637 0.0401049 29.3625 0.00634766 29.2612 0.00634766H6.15936C6.04124 0.00634766 5.93999 0.0401049 5.83874 0.0401049H3.375C1.51875 0.0401049 0 1.54198 0 3.4151V27.0232C0 28.8795 1.51875 30.3982 3.375 30.3982H12.8756C13.0444 30.5332 18.2588 35.6632 18.5119 35.5788C18.5288 35.562 18.5625 30.4826 18.5119 30.3982H32.0625C33.9188 30.3982 35.4375 28.8795 35.4375 27.0232V3.4151C35.4375 1.55885 33.9356 0.0401049 32.0625 0.0401049Z" fill="#538DFF"/>
<path fill-rule="evenodd" clip-rule="evenodd" d="M26.1562 13.54C24.7556 13.54 23.625 14.6707 23.625 16.0713C23.625 17.4719 24.7556 18.6025 26.1562 18.6025C27.5569 18.6025 28.6875 17.4719 28.6875 16.0713C28.6875 14.6707 27.5569 13.54 26.1562 13.54ZM17.7188 13.54C16.3181 13.54 15.1875 14.6707 15.1875 16.0713C15.1875 17.4719 16.3181 18.6025 17.7188 18.6025C19.1194 18.6025 20.25 17.4719 20.25 16.0713C20.25 14.6707 19.1194 13.54 17.7188 13.54ZM9.28125 13.54C7.88063 13.54 6.75 14.6707 6.75 16.0713C6.75 17.4719 7.88063 18.6025 9.28125 18.6025C10.6819 18.6025 11.8125 17.4719 11.8125 16.0713C11.8125 14.6707 10.6819 13.54 9.28125 13.54Z" fill="white"/>
</svg>
