<svg width="72" height="72" viewBox="0 0 72 72" fill="none" xmlns="http://www.w3.org/2000/svg">
<rect width="72" height="72" fill="#F8F8FA"/>
<path d="M61.375 14H43.25V57.5H61.375C63.3687 57.5 65 55.8688 65 53.875V17.625C65 15.6312 63.3687 14 61.375 14Z" fill="#335DC5"/>
<path d="M10.625 14C8.63125 14 7 15.6312 7 17.625V53.875C7 55.8688 8.63125 57.5 10.625 57.5H43.25V14H10.625Z" fill="#5788FF"/>
<path d="M57.75 17.625H54.125V53.875H57.75C59.7438 53.875 61.375 52.2438 61.375 50.25V21.25C61.375 19.2562 59.7438 17.625 57.75 17.625Z" fill="white"/>
<path d="M54.125 23.3887V33.593C56.2275 32.8499 57.75 30.8562 57.75 28.4818C57.75 26.1437 56.2275 24.1499 54.125 23.3887Z" fill="#5788FF"/>
<path d="M46.875 17.625H43.25V53.875H46.875C48.8688 53.875 50.5 52.2438 50.5 50.25V21.25C50.5 19.2562 48.8688 17.625 46.875 17.625Z" fill="#9FFFC5"/>
</svg>
