<svg width="538" height="306" viewBox="0 0 538 306" fill="none" xmlns="http://www.w3.org/2000/svg">
<path d="M494.351 207.534L396.407 264.113C375.755 276.043 352.329 282.323 328.483 282.323H306.942L264.944 257.092C241.542 243.93 278.928 249.16 278.928 230.189C278.928 188.943 319.262 154.764 402.054 154.764C450.083 154.764 467.997 144.2 495.432 161.703C512.377 172.507 511.749 197.484 494.351 207.534Z" fill="url(#paint0_linear)"/>
<path d="M494.715 158.215C496.852 164.965 494.501 172.677 488.22 176.919L454.576 199.648C449.528 203.059 443.012 203.416 437.623 200.57C431.765 197.357 424.568 197.892 419.248 201.934L331.201 268.799C316.882 279.596 298.21 280.49 282.225 271.142L232.19 241.617C228.256 239.274 224.919 235.923 222.376 231.942C224.994 238.151 229.337 243.397 234.844 246.676L284.876 276.204C300.861 285.552 319.529 284.658 333.852 273.861L421.898 206.996C427.219 202.955 434.415 202.42 440.273 205.633C445.662 208.478 452.178 208.121 457.23 204.711L490.874 181.979C498.811 176.615 500.477 165.711 494.715 158.215Z" fill="#819BEA"/>
<path d="M232.191 241.617L282.223 271.145C298.208 280.493 316.877 279.598 331.199 268.802L419.246 201.937C424.566 197.895 431.763 197.36 437.621 200.573C443.009 203.418 449.526 203.062 454.574 199.651L488.218 176.922C494.498 172.68 496.85 164.967 494.712 158.218C494.523 157.971 494.35 157.718 494.144 157.48L464.57 123.128C464.57 123.128 459.628 118.615 457.864 117.583L406.8 88.0575C390.815 78.7096 372.144 79.604 357.821 90.4007L226.994 189.927C220.791 194.603 218.165 202.411 218.829 210.044L219.748 221.244C220.058 224.99 220.972 228.603 222.379 231.942C224.923 235.923 228.259 239.274 232.191 241.617Z" fill="url(#paint1_linear)"/>
<path d="M232.191 241.617L282.223 271.145C298.208 280.493 316.877 279.598 331.199 268.802L419.246 201.937C424.566 197.895 431.763 197.36 437.621 200.573C443.009 203.418 449.526 203.062 454.574 199.651L488.218 176.922C494.498 172.68 496.85 164.967 494.712 158.218C494.523 157.971 494.35 157.718 494.144 157.48L464.57 123.128C464.57 123.128 459.628 118.615 457.864 117.583L406.8 88.0575C390.815 78.7096 372.144 79.604 357.821 90.4007L226.994 189.927C220.791 194.603 218.165 202.411 218.829 210.044L219.748 221.244C220.058 224.99 220.972 228.603 222.379 231.942C224.923 235.923 228.259 239.274 232.191 241.617Z" fill="url(#paint2_linear)"/>
<path d="M405.156 87.1384C390.375 78.4956 371.413 80.1611 358.172 90.1428L228.223 189.014C219.004 196.029 220.005 212.615 234.553 220.649L283.375 248.869C298.155 257.511 315.416 256.683 328.655 246.701L456.566 149.745C469.135 139.997 468.18 123.671 457.866 117.578L405.156 87.1384Z" fill="#E2E9FB"/>
<path d="M403.543 87.0039C389.232 78.6354 370.873 80.246 358.052 89.915L231.919 185.878C222.994 192.671 224.286 208.387 234.257 214.286L284.517 243.334C298.825 251.7 315.537 250.902 328.356 241.235L456.097 144.409C465.044 137.623 463.757 121.882 453.773 115.981L403.543 87.0039Z" fill="url(#paint3_linear)"/>
<path d="M280.629 258.088L238.839 233.932C237.278 233.029 235.324 234.157 235.324 235.962C235.324 237.669 236.232 239.243 237.709 240.097L279.499 264.253C281.06 265.155 283.013 264.028 283.013 262.222C283.016 260.516 282.105 258.941 280.629 258.088Z" fill="#343C6B"/>
<path d="M238.842 208.467C238.842 209.806 240.782 210.89 243.177 210.89C245.572 210.89 247.512 209.806 247.512 208.467C247.512 207.128 245.572 206.044 243.177 206.044C240.782 206.044 238.842 207.128 238.842 208.467Z" fill="#819BEA"/>
<path d="M260.61 221.165C260.61 222.504 262.55 223.588 264.945 223.588C267.341 223.588 269.281 222.504 269.281 221.165C269.281 219.826 267.341 218.742 264.945 218.742C262.55 218.742 260.61 219.829 260.61 221.165Z" fill="#819BEA"/>
<path d="M282.38 233.863C282.38 235.202 284.32 236.286 286.715 236.286C289.11 236.286 291.05 235.202 291.05 233.863C291.05 232.524 289.11 231.44 286.715 231.44C284.322 231.44 282.38 232.527 282.38 233.863Z" fill="#819BEA"/>
<path d="M359.906 233.912L371.614 224.97C372.382 224.391 373.488 224.863 373.603 225.818C373.713 226.721 373.334 227.613 372.61 228.159L360.902 237.101C360.134 237.679 359.028 237.208 358.913 236.253C358.803 235.35 359.182 234.458 359.906 233.912Z" fill="#343C6B"/>
<path d="M346.328 245.999C346.525 247.115 347.389 247.609 348.259 247.102C349.129 246.594 349.675 245.277 349.477 244.16C349.28 243.044 348.416 242.55 347.546 243.057C346.676 243.565 346.133 244.882 346.328 245.999Z" fill="#343C6B"/>
<path d="M352.03 241.65C352.227 242.766 353.091 243.26 353.961 242.753C354.831 242.245 355.377 240.928 355.179 239.811C354.982 238.695 354.118 238.201 353.248 238.708C352.381 239.216 351.835 240.533 352.03 241.65Z" fill="#343C6B"/>
<path d="M340.626 250.345C340.824 251.461 341.688 251.955 342.558 251.447C343.428 250.94 343.974 249.623 343.776 248.506C343.579 247.39 342.714 246.896 341.845 247.403C340.975 247.914 340.429 249.228 340.626 250.345Z" fill="#343C6B"/>
<path d="M326.632 122.81V227.067L406.365 166.276L424.759 152.25L447.76 134.718L424.759 121.839L406.365 111.525L368.839 90.5022L326.632 122.81Z" fill="#BACBFC"/>
<path d="M237.034 191.349L281.938 217.2L300.335 227.788L314.784 236.105L326.631 227.067V122.81L300.335 142.916L281.938 156.997L237.034 191.349Z" fill="#D9E3FF"/>
<path d="M281.938 156.997V217.2L300.334 227.788V142.916L281.938 156.997Z" fill="#BACBFC"/>
<path d="M412.883 115.182V161.244L431.28 147.218V125.491L412.883 115.182Z" fill="#D9E3FF"/>
<path d="M305.227 208.474C297.772 208.474 290.694 207.165 284.759 204.696C284.452 204.567 284.303 204.21 284.432 203.903C284.564 203.595 284.915 203.447 285.225 203.576C291.012 205.988 297.929 207.264 305.227 207.264C308.448 207.264 311.62 207.014 314.655 206.52C314.987 206.476 315.297 206.693 315.349 207.022C315.404 207.352 315.179 207.664 314.847 207.716C311.749 208.221 308.514 208.474 305.227 208.474Z" fill="#445393"/>
<path d="M324.898 204.973C324.659 204.973 324.428 204.83 324.335 204.591C324.212 204.281 324.362 203.927 324.675 203.804C333.872 200.135 339.363 193.989 339.363 187.369C339.363 185.958 339.118 184.559 338.641 183.204C338.528 182.888 338.693 182.543 339.011 182.43C339.321 182.32 339.673 182.482 339.785 182.8C340.309 184.285 340.578 185.824 340.578 187.369C340.578 194.505 334.802 201.071 325.128 204.931C325.048 204.959 324.972 204.973 324.898 204.973Z" fill="#445393"/>
<path d="M335.469 177.733C335.31 177.733 335.151 177.67 335.033 177.546C328.989 171.236 317.849 167.471 305.23 167.471C293.91 167.471 283.744 170.5 277.335 175.779C277.08 175.993 276.695 175.955 276.481 175.697C276.267 175.439 276.306 175.055 276.564 174.844C283.184 169.386 293.633 166.256 305.228 166.256C318.17 166.256 329.639 170.163 335.906 176.704C336.139 176.945 336.131 177.329 335.889 177.56C335.771 177.678 335.62 177.733 335.469 177.733Z" fill="#445393"/>
<path d="M277.338 200.339C277.206 200.339 277.071 200.295 276.962 200.207C272.33 196.544 269.883 192.102 269.883 187.363C269.883 184.277 270.917 181.322 272.959 178.581C273.156 178.309 273.54 178.257 273.806 178.457C274.075 178.657 274.13 179.036 273.93 179.305C272.05 181.832 271.096 184.543 271.096 187.363C271.096 191.718 273.384 195.831 277.713 199.255C277.977 199.461 278.021 199.845 277.812 200.105C277.692 200.259 277.516 200.339 277.338 200.339Z" fill="#445393"/>
<path d="M276.953 187.366C276.953 196.097 289.613 203.173 305.227 203.173C320.842 203.173 333.502 196.097 333.502 187.366C333.502 178.635 320.842 171.559 305.227 171.559C289.61 171.559 276.953 178.635 276.953 187.366Z" fill="#445393"/>
<path d="M306.27 189.583L304.371 189.528L291.212 174.706C284.229 166.84 280.372 156.68 280.372 146.158L277.34 119.393L280.372 117.708C283.198 118.833 287.256 120.103 292.269 120.578C297.344 121.058 301.617 120.556 304.621 119.969C307.197 124.123 310.712 129.034 315.431 134.066C319.989 138.925 324.499 142.651 328.368 145.442C328.368 152.995 328.368 160.549 328.368 168.105C328.371 180.216 318.37 189.937 306.27 189.583Z" fill="#95ABED"/>
<path d="M303.238 191.27L301.339 191.216L288.18 176.394C281.198 168.528 277.34 158.367 277.34 147.845V119.393C280.166 120.518 284.224 121.788 289.237 122.263C294.313 122.743 298.585 122.241 301.589 121.653C304.165 125.807 307.68 130.719 312.399 135.751C316.957 140.61 321.468 144.336 325.336 147.126C325.336 154.68 325.336 162.233 325.336 169.787C325.336 181.901 315.338 191.622 303.238 191.27Z" fill="url(#paint4_linear)"/>
<path d="M292.348 159.838C296.53 167.381 303.562 171.263 308.053 168.508C312.545 165.754 312.8 157.407 308.619 149.865C304.939 143.227 297.976 138.091 292.913 141.194C288.419 143.949 288.167 152.296 292.348 159.838Z" fill="#9CB4FF"/>
<path d="M221.26 170.988L219.434 172.199C217.358 173.576 215.205 174.854 212.911 175.823C208.006 177.896 202.727 178.973 197.37 178.973H183.822L166.807 165.401C154.222 158.323 174.33 161.135 174.33 150.931C174.33 128.746 167.352 127.844 167.352 127.844L221.21 156.896C226.8 159.908 226.83 167.929 221.26 170.988Z" fill="url(#paint5_linear)"/>
<path d="M90.6818 44.018L91.0629 113.423C91.0897 118.335 93.6374 122.862 97.75 125.306L183.241 176.114C188.577 179.287 195.224 175.268 195.19 168.889L194.816 100.51C194.786 94.8196 191.83 89.577 187.062 86.755L102.622 36.786C97.2819 33.6264 90.6483 37.6453 90.6818 44.018Z" fill="#819BEA"/>
<path d="M88.1974 45.7668C88.164 39.3941 94.7975 35.3751 100.134 38.5348L112.518 45.8638L152.871 161.292L112.107 137.065L88.3211 68.4359L88.1974 45.7668Z" fill="#CFDBFE"/>
<path d="M112.106 137.065L95.2615 127.055C91.1489 124.611 88.6045 120.083 88.5744 115.172L88.3203 68.4359L112.106 137.065Z" fill="#B8C9FF"/>
<path d="M185.618 89.1223C189.74 91.5631 192.298 96.0969 192.325 101.019L192.706 170.638C192.739 177.017 186.092 181.033 180.756 177.863L152.875 161.292L112.521 45.8638L185.618 89.1223Z" fill="#B8C9FF"/>
<path d="M182.364 135.841L182.341 131.578C182.334 130.585 181.819 129.673 180.99 129.178L168.234 121.782C167.154 121.14 165.814 121.952 165.82 123.243L165.844 127.549C165.85 128.542 166.365 129.459 167.198 129.953L179.953 137.303C181.03 137.941 182.371 137.129 182.364 135.841Z" fill="#F4F7FE"/>
<path d="M159.086 122.186L159.062 117.924C159.056 116.93 158.541 116.018 157.712 115.523L144.956 108.127C143.876 107.485 142.535 108.297 142.542 109.588L142.565 113.895C142.572 114.888 143.087 115.804 143.92 116.299L156.675 123.648C157.755 124.286 159.096 123.474 159.086 122.186Z" fill="#F4F7FE"/>
<path d="M135.811 108.531L135.788 104.268C135.781 103.275 135.27 102.363 134.437 101.868L121.682 94.4719C120.602 93.83 119.261 94.6425 119.268 95.9331L119.291 100.24C119.298 101.233 119.813 102.149 120.645 102.644L133.397 109.993C134.477 110.631 135.818 109.819 135.811 108.531Z" fill="#F4F7FE"/>
<path d="M112.538 94.8766L112.515 90.6136C112.508 89.6205 111.993 88.7078 111.164 88.2129L98.4082 80.817C97.3282 80.1751 95.9875 80.9875 95.9942 82.2782L96.0176 86.5846C96.0243 87.5776 96.5392 88.4938 97.3717 88.9886L110.127 96.3377C111.204 96.9763 112.545 96.1638 112.538 94.8766Z" fill="#F4F7FE"/>
<path d="M167.896 155.438C171.079 161.088 176.436 163.994 179.859 161.931C183.28 159.868 183.474 153.616 180.291 147.968C177.489 142.997 172.183 139.152 168.331 141.475C164.904 143.535 164.71 149.787 167.896 155.438Z" fill="#F4F7FE"/>
<path d="M140.085 139.613L140.071 136.968C140.068 136.353 139.75 135.785 139.232 135.477L127.58 128.626C126.911 128.228 126.079 128.733 126.082 129.532L126.095 132.204C126.099 132.822 126.42 133.391 126.935 133.695L138.587 140.516C139.256 140.917 140.088 140.412 140.085 139.613Z" fill="#F4F7FE"/>
<path d="M123.438 129.729L123.424 127.085C123.421 126.47 123.103 125.901 122.585 125.594L97.4921 110.859C96.8233 110.461 95.9908 110.966 95.9942 111.765L96.0075 114.436C96.0109 115.055 96.3318 115.623 96.8501 115.927L121.94 130.636C122.609 131.03 123.441 130.525 123.438 129.729Z" fill="#F4F7FE"/>
<path d="M96.0821 69.9438L95.9951 54.0487C95.9885 52.5909 97.5098 51.6714 98.7301 52.3937L113.151 60.8862C114.087 61.4546 114.675 62.4878 114.679 63.6112L114.766 79.4495C114.772 80.9073 113.251 81.8267 112.031 81.1045L97.6234 72.6655C96.6739 72.1004 96.0888 71.0673 96.0821 69.9438Z" fill="#F4F7FE"/>
<path d="M96.0475 64.0057L96.0509 64.8182L101.571 68.0513L101.588 71.0371C101.594 72.1739 102.196 73.2472 103.159 73.8189L107.419 76.2196C107.813 76.4403 108.258 76.4235 108.636 76.1828C109.027 75.9554 109.241 75.5475 109.238 75.0861L109.224 72.535L114.745 75.7682L114.741 74.9691L109.221 71.7359L109.188 65.6808L114.708 68.914L114.704 68.1149L109.184 64.8817L109.174 63.0327C109.168 61.8825 108.566 60.8226 107.616 60.2542L103.574 57.867C103.356 57.7433 103.112 57.673 102.882 57.6764C102.651 57.6764 102.41 57.7499 102.206 57.877C101.775 58.1311 101.521 58.5958 101.524 59.1007L101.531 60.4047L96.0107 57.1715L96.0141 57.9706L101.534 61.2038L101.568 67.2456L96.0475 64.0057ZM102.2 59.0907C102.2 58.8399 102.333 58.5992 102.547 58.4721C102.761 58.3451 103.019 58.3417 103.236 58.4688L107.278 60.8561C108.024 61.3008 108.489 62.14 108.495 63.0361L108.562 75.0895C108.562 75.3001 108.469 75.484 108.295 75.581C108.215 75.6378 108.108 75.6646 108.011 75.6679C107.917 75.6679 107.833 75.6412 107.74 75.5977L103.494 73.197C102.735 72.7523 102.27 71.9298 102.266 71.0304L102.2 59.0907Z" fill="#819BEA"/>
<path d="M329.162 77.8762C329.041 77.8762 328.92 77.846 328.806 77.7822L325.518 75.8898C325.179 75.6918 325.061 75.259 325.256 74.9167C325.454 74.5745 325.883 74.4604 326.229 74.655L329.517 76.5475C329.856 76.7454 329.974 77.1783 329.779 77.5205C329.645 77.7453 329.407 77.8762 329.162 77.8762ZM319.293 72.1955C319.173 72.1955 319.052 72.1653 318.938 72.1015L315.649 70.2091C315.31 70.0111 315.193 69.5782 315.388 69.236C315.582 68.8937 316.015 68.7796 316.361 68.9743L319.649 70.8667C319.988 71.0647 320.105 71.4975 319.911 71.8398C319.78 72.068 319.538 72.1955 319.293 72.1955ZM309.425 66.5147C309.304 66.5147 309.183 66.4845 309.069 66.4208L305.781 64.5283C305.442 64.3303 305.325 63.8975 305.519 63.5552C305.717 63.2163 306.147 63.0956 306.492 63.2935L309.781 65.186C310.12 65.3839 310.237 65.8168 310.042 66.159C309.912 66.3872 309.673 66.5147 309.425 66.5147ZM299.56 60.834C299.439 60.834 299.319 60.8038 299.204 60.74L295.913 58.8476C295.57 58.6496 295.453 58.2168 295.651 57.8745C295.849 57.5322 296.282 57.4182 296.621 57.6128L299.912 59.5052C300.255 59.7032 300.372 60.1361 300.174 60.4783C300.047 60.7065 299.808 60.834 299.56 60.834ZM289.692 55.1533C289.571 55.1533 289.45 55.1231 289.336 55.0593L286.048 53.1668C285.709 52.9689 285.591 52.536 285.786 52.1938C285.981 51.8549 286.414 51.7374 286.759 51.932L290.047 53.8245C290.386 54.0225 290.504 54.4553 290.309 54.7976C290.178 55.0257 289.94 55.1533 289.692 55.1533ZM279.827 49.4759C279.706 49.4759 279.585 49.4457 279.471 49.3819L276.183 47.4895C275.844 47.2915 275.726 46.8586 275.921 46.5164C276.119 46.1741 276.549 46.0567 276.894 46.2547L280.183 48.1471C280.521 48.3451 280.639 48.7779 280.444 49.1202C280.31 49.345 280.072 49.4759 279.827 49.4759ZM269.959 43.7951C269.838 43.7951 269.717 43.7649 269.606 43.7012L266.318 41.8087C265.976 41.6108 265.858 41.1779 266.056 40.8357C266.254 40.4934 266.687 40.3793 267.026 40.5739L270.314 42.4664C270.656 42.6644 270.774 43.0972 270.576 43.4395C270.445 43.6643 270.203 43.7951 269.959 43.7951ZM260.094 38.1144C259.973 38.1144 259.852 38.0842 259.738 38.0205L256.446 36.128C256.104 35.93 255.987 35.4972 256.185 35.1549C256.382 34.8127 256.815 34.6952 257.154 34.8932L260.446 36.7857C260.788 36.9836 260.906 37.4165 260.708 37.7587C260.577 37.9869 260.339 38.1144 260.094 38.1144ZM250.225 32.4337C250.104 32.4337 249.984 32.4035 249.873 32.3397L246.585 30.4473C246.242 30.2493 246.125 29.8164 246.323 29.4742C246.521 29.1319 246.957 29.0178 247.293 29.2125L250.581 31.1049C250.923 31.3029 251.041 31.7357 250.843 32.078C250.712 32.3062 250.474 32.4337 250.225 32.4337ZM240.357 26.7529C240.236 26.7529 240.115 26.7227 240.005 26.659L236.716 24.7665C236.374 24.5686 236.257 24.1357 236.455 23.7934C236.653 23.4546 237.085 23.3371 237.424 23.5317L240.713 25.4242C241.055 25.6222 241.172 26.055 240.974 26.3973C240.844 26.6254 240.605 26.7529 240.357 26.7529Z" fill="#DBE0FF"/>
<path d="M247.078 8.34844C245.4 7.37872 243.333 7.38208 241.655 8.3585L226.103 17.5926C224.308 18.6362 224.311 21.2333 226.11 22.2735L241.323 31.1821L238.639 34.6785H246.226C248.913 34.6785 251.554 33.9705 253.886 32.6317L265.301 25.9812C267.955 24.4545 267.969 20.6259 265.321 19.0858L247.078 8.34844Z" fill="url(#paint6_linear)"/>
<path d="M255.436 10.9992L252.01 12.3682L241.454 6.18082C239.209 4.88227 236.441 4.88227 234.196 6.18082L223.771 12.2038L220.496 10.7476V22.6526C220.496 24.4444 221.449 26.0986 222.993 27.0012L234.478 33.702C236.723 35.0006 239.491 35.0006 241.736 33.702L252.956 27.1019C254.493 26.1993 255.436 24.5484 255.436 22.7633V10.9992Z" fill="url(#paint7_linear)"/>
<path d="M221.945 14.7037L234.193 21.7803C236.438 23.0822 239.206 23.0822 241.451 21.7803L253.983 14.452C255.916 13.3347 255.916 10.5362 253.983 9.41887L241.732 2.34563C240.89 1.86245 239.978 1.55375 239.041 1.43296C238.417 1.35243 237.783 1.35243 237.166 1.43296C236.233 1.55375 235.317 1.86245 234.471 2.34563L221.945 9.67388C221.607 9.8685 221.328 10.1134 221.11 10.3953C220.066 11.714 220.345 13.7809 221.945 14.7037Z" fill="#F7F9FE"/>
<path d="M221.945 13.7372L234.193 20.8138C236.438 22.1157 239.206 22.1157 241.451 20.8138L253.983 13.4856C255.916 12.3682 255.916 9.56979 253.983 8.45244L241.732 1.3792C240.89 0.89602 239.978 0.587321 239.041 0.466526C238.417 0.385995 237.783 0.385995 237.166 0.466526C236.233 0.587321 235.317 0.89602 234.471 1.3792L221.945 8.70409C221.607 8.89871 221.328 9.14366 221.11 9.42551C220.066 10.7475 220.345 12.8145 221.945 13.7372Z" fill="#E2E9FB"/>
<path d="M233.018 5.64742C233.209 5.76151 233.487 5.82526 233.81 5.8152C241.688 5.54341 247.56 9.0364 246.899 13.5964C246.845 13.9655 247.319 14.2507 247.959 14.2272C248.6 14.2038 249.161 13.8883 249.214 13.5159C249.986 8.21432 243.161 4.15762 234.004 4.47303C233.363 4.49651 232.803 4.81192 232.749 5.18438C232.719 5.37228 232.823 5.53334 233.018 5.64742Z" fill="#B8C9FF"/>
<path d="M232.562 8.80825C232.753 8.92234 233.031 8.98609 233.353 8.97602C235.712 8.89549 237.853 9.34848 239.38 10.2578C240.907 11.1638 241.638 12.4187 241.44 13.7843C241.386 14.1534 241.859 14.4387 242.5 14.4152C243.141 14.3917 243.702 14.0763 243.755 13.7038C244.007 11.9791 243.084 10.3987 241.155 9.25452C239.229 8.11032 236.528 7.53319 233.548 7.63721C232.907 7.6607 232.347 7.97611 232.293 8.34856C232.263 8.52975 232.37 8.69417 232.562 8.80825Z" fill="#B8C9FF"/>
<path d="M232.193 11.9992C232.384 12.1133 232.663 12.1771 232.985 12.167C234.757 12.1066 236.075 12.8918 235.924 13.9152C235.871 14.2843 236.344 14.5695 236.985 14.546C237.625 14.5225 238.186 14.2071 238.239 13.8347C238.498 12.0697 236.226 10.7208 233.176 10.8248C232.535 10.8483 231.975 11.1637 231.921 11.5362C231.898 11.7207 232.002 11.8852 232.193 11.9992Z" fill="#B8C9FF"/>
<path d="M230.532 13.8816C229.757 14.3211 229.656 14.9922 230.314 15.3848C230.971 15.774 232.132 15.7338 232.908 15.2942C233.686 14.8547 233.783 14.1836 233.126 13.791C232.468 13.4051 231.307 13.442 230.532 13.8816Z" fill="#B8C9FF"/>
<path d="M498.241 282.049C498.169 282.049 498.097 282.031 498.028 281.993L497.404 281.631C497.201 281.513 497.131 281.254 497.247 281.049C497.366 280.846 497.625 280.776 497.83 280.892L498.454 281.254C498.657 281.372 498.727 281.631 498.611 281.836C498.532 281.973 498.388 282.049 498.241 282.049ZM493.679 279.422C493.607 279.422 493.534 279.404 493.468 279.366L491.5 278.234C491.295 278.115 491.225 277.856 491.344 277.651C491.462 277.446 491.721 277.374 491.924 277.495L493.892 278.627C494.097 278.746 494.167 279.005 494.049 279.209C493.97 279.346 493.826 279.422 493.679 279.422ZM487.775 276.023C487.703 276.023 487.631 276.005 487.565 275.967L485.595 274.834C485.39 274.716 485.32 274.457 485.438 274.252C485.557 274.047 485.816 273.977 486.018 274.093L487.988 275.226C488.193 275.344 488.263 275.603 488.145 275.808C488.065 275.946 487.922 276.023 487.775 276.023ZM481.87 272.623C481.798 272.623 481.725 272.605 481.659 272.567L479.691 271.434C479.486 271.316 479.416 271.057 479.535 270.852C479.653 270.647 479.914 270.577 480.115 270.695L482.083 271.828C482.287 271.946 482.358 272.206 482.239 272.41C482.161 272.547 482.016 272.623 481.87 272.623ZM475.964 269.224C475.892 269.224 475.82 269.206 475.753 269.167L473.786 268.035C473.581 267.916 473.51 267.657 473.629 267.453C473.747 267.248 474.006 267.177 474.209 267.296L476.177 268.428C476.382 268.547 476.452 268.806 476.334 269.011C476.255 269.147 476.113 269.224 475.964 269.224ZM470.061 265.826C469.988 265.826 469.916 265.808 469.848 265.77L467.878 264.635C467.675 264.517 467.605 264.258 467.721 264.053C467.84 263.85 468.099 263.778 468.304 263.896L470.274 265.031C470.476 265.149 470.547 265.408 470.43 265.613C470.352 265.75 470.209 265.826 470.061 265.826ZM464.155 262.426C464.083 262.426 464.01 262.408 463.944 262.37L461.976 261.238C461.772 261.119 461.701 260.86 461.82 260.655C461.938 260.451 462.197 260.378 462.4 260.499L464.368 261.631C464.573 261.75 464.643 262.009 464.525 262.214C464.446 262.35 464.304 262.426 464.155 262.426ZM458.251 259.027C458.179 259.027 458.107 259.009 458.041 258.971L456.073 257.838C455.868 257.72 455.798 257.461 455.916 257.256C456.035 257.051 456.294 256.979 456.496 257.099L458.464 258.232C458.669 258.35 458.739 258.609 458.621 258.814C458.541 258.951 458.398 259.027 458.251 259.027ZM452.346 255.627C452.274 255.627 452.201 255.609 452.135 255.571L450.167 254.439C449.962 254.32 449.892 254.061 450.011 253.856C450.129 253.651 450.388 253.579 450.591 253.698L452.559 254.83C452.764 254.949 452.834 255.208 452.715 255.412C452.637 255.551 452.492 255.627 452.346 255.627ZM446.442 252.228C446.37 252.228 446.298 252.21 446.231 252.171L444.262 251.039C444.057 250.92 443.986 250.661 444.105 250.457C444.223 250.252 444.482 250.182 444.685 250.3L446.655 251.433C446.86 251.551 446.93 251.81 446.812 252.015C446.733 252.151 446.589 252.228 446.442 252.228ZM440.537 248.83C440.464 248.83 440.392 248.812 440.324 248.774L438.356 247.639C438.153 247.521 438.083 247.262 438.199 247.057C438.318 246.852 438.577 246.784 438.782 246.9L440.75 248.035C440.952 248.153 441.023 248.412 440.906 248.617C440.828 248.754 440.685 248.83 440.537 248.83ZM434.631 245.431C434.559 245.431 434.486 245.412 434.42 245.374L432.452 244.242C432.248 244.123 432.177 243.864 432.296 243.659C432.414 243.455 432.673 243.384 432.876 243.503L434.844 244.635C435.049 244.754 435.119 245.013 435.001 245.218C434.922 245.354 434.78 245.431 434.631 245.431ZM428.727 242.031C428.655 242.031 428.583 242.013 428.517 241.975L426.547 240.842C426.342 240.724 426.272 240.465 426.39 240.26C426.509 240.055 426.768 239.983 426.97 240.101L428.94 241.234C429.145 241.352 429.215 241.611 429.097 241.816C429.019 241.955 428.876 242.031 428.727 242.031ZM422.822 238.631C422.75 238.631 422.677 238.613 422.611 238.575L420.643 237.443C420.438 237.324 420.368 237.065 420.487 236.86C420.605 236.655 420.864 236.583 421.067 236.704L423.035 237.836C423.24 237.955 423.31 238.214 423.191 238.419C423.113 238.555 422.97 238.631 422.822 238.631ZM416.918 235.232C416.846 235.232 416.774 235.214 416.707 235.176L414.74 234.043C414.535 233.925 414.464 233.666 414.583 233.461C414.701 233.256 414.96 233.184 415.163 233.304L417.131 234.437C417.336 234.555 417.406 234.814 417.288 235.019C417.207 235.155 417.065 235.232 416.918 235.232Z" fill="#DBE0FF"/>
<path d="M520.129 282.103C518.647 281.245 516.819 281.249 515.34 282.111L501.599 290.267C500.012 291.191 500.016 293.486 501.605 294.404L515.046 302.275L512.675 305.364L519.38 305.362C521.755 305.362 524.088 304.737 526.149 303.553L536.235 297.675C538.58 296.328 538.592 292.944 536.253 291.583L520.129 282.103Z" fill="url(#paint8_linear)"/>
<path d="M527.514 284.446L524.486 285.655L515.159 280.189C513.175 279.043 510.729 279.043 508.745 280.189L499.532 285.513L496.639 284.227V294.745C496.639 296.328 497.48 297.792 498.845 298.587L508.994 304.506C510.978 305.653 513.424 305.653 515.408 304.506L525.323 298.675C526.681 297.876 527.516 296.418 527.516 294.842V284.446H527.514Z" fill="url(#paint9_linear)"/>
<path d="M497.924 287.719L508.747 293.972C510.731 295.123 513.177 295.123 515.161 293.972L526.235 287.498C527.944 286.511 527.944 284.041 526.235 283.053L515.41 276.8C514.667 276.374 513.86 276.101 513.034 275.995C512.484 275.922 511.924 275.922 511.378 275.995C510.552 276.101 509.745 276.374 508.998 276.8L497.928 283.274C497.629 283.446 497.382 283.663 497.189 283.91C496.263 285.077 496.51 286.904 497.924 287.719Z" fill="#F7F9FE"/>
<path d="M497.925 286.866L508.748 293.119C510.732 294.268 513.178 294.268 515.162 293.119L526.236 286.645C527.945 285.657 527.945 283.187 526.236 282.199L515.411 275.946C514.668 275.519 513.861 275.248 513.035 275.141C512.485 275.069 511.925 275.069 511.379 275.141C510.553 275.248 509.746 275.521 508.999 275.946L497.929 282.42C497.63 282.593 497.383 282.81 497.19 283.057C496.264 284.221 496.511 286.049 497.925 286.866Z" fill="#E2E9FB"/>
<path d="M507.705 279.717C507.873 279.818 508.12 279.876 508.403 279.866C515.365 279.627 520.554 282.711 519.968 286.742C519.919 287.069 520.339 287.318 520.905 287.3C521.472 287.28 521.968 286.999 522.016 286.671C522.696 281.989 516.668 278.404 508.576 278.681C508.01 278.701 507.514 278.983 507.466 279.31C507.442 279.472 507.536 279.617 507.705 279.717Z" fill="#B8C9FF"/>
<path d="M507.303 282.509C507.472 282.609 507.719 282.667 508.002 282.657C510.086 282.585 511.978 282.989 513.327 283.79C514.674 284.591 515.321 285.697 515.146 286.904C515.098 287.232 515.518 287.481 516.084 287.462C516.65 287.442 517.146 287.161 517.194 286.834C517.417 285.31 516.6 283.914 514.897 282.902C513.194 281.89 510.807 281.382 508.176 281.473C507.61 281.493 507.114 281.774 507.066 282.101C507.04 282.264 507.132 282.408 507.303 282.509Z" fill="#B8C9FF"/>
<path d="M506.978 285.33C507.147 285.43 507.394 285.488 507.677 285.478C509.241 285.424 510.408 286.117 510.275 287.023C510.227 287.35 510.647 287.599 511.213 287.581C511.779 287.561 512.275 287.28 512.323 286.952C512.55 285.392 510.544 284.199 507.85 284.294C507.283 284.314 506.787 284.595 506.739 284.922C506.715 285.085 506.807 285.227 506.978 285.33Z" fill="#B8C9FF"/>
<path d="M505.508 286.993C504.821 287.38 504.735 287.974 505.315 288.32C505.896 288.665 506.922 288.629 507.608 288.242C508.295 287.854 508.381 287.26 507.801 286.914C507.221 286.569 506.195 286.605 505.508 286.993Z" fill="#B8C9FF"/>
<path d="M188.879 252.391L159.198 269.161C152.133 273.153 144.157 275.25 136.041 275.25H120.069L100.009 259.249C85.1702 250.903 108.877 254.219 108.877 242.188C108.877 216.034 125.323 201.521 125.323 201.521L188.817 235.77C195.413 239.328 195.447 248.784 188.879 252.391Z" fill="url(#paint10_linear)"/>
<path d="M176.483 245.976L130.088 272.862C124.645 276.03 117.909 276.052 112.443 272.91L12.4247 214.666L6.00006 210.924C-2.41421 205.215 -0.97613 194.346 4.17909 190.244C4.20416 190.196 4.22695 190.171 4.25202 190.171C4.37281 190.075 4.51639 190.002 4.6349 189.932L51.9002 169.131C57.3654 166.011 64.1023 166.011 69.5697 169.178L135.268 201.208L177.082 224.455C183.219 227.695 185.569 239.834 176.483 245.976Z" fill="#B8C9FF"/>
<path d="M174.263 240.44L130.095 266.043C124.65 269.188 117.922 269.211 112.457 266.086L7.67966 205.404C-0.976193 200.755 -0.135222 192.343 5.81767 188.956L52.0187 162.442C57.5066 159.319 64.1045 159.196 69.5492 162.362L176.489 223.826C182.376 227.235 182.444 236.16 174.263 240.44Z" fill="#E8EEFC"/>
<path d="M173.346 239.284L129.814 264.518C124.449 267.618 117.817 267.641 112.429 264.562L9.15843 204.752C0.627923 200.169 1.46662 191.424 7.33518 188.086L52.383 162.407C57.7935 159.331 64.7742 159.205 70.1391 162.328L175.539 222.907C181.341 226.269 181.409 235.066 173.346 239.284Z" fill="#343C6B"/>
<path d="M33.7661 183.172C33.953 183.172 34.1422 183.124 34.3154 183.024L47.1214 175.624C47.6479 175.321 47.8279 174.646 47.5248 174.12C47.2217 173.593 46.5494 173.411 46.0206 173.716L33.2146 181.116C32.6881 181.422 32.5081 182.094 32.8112 182.62C33.0163 182.974 33.3855 183.172 33.7661 183.172Z" fill="#445393"/>
<path d="M12.874 202.735L43.9307 220.69L78.7068 240.782L95.1251 250.265V181.066L89.7261 177.957L72.6856 168.137L12.874 202.735Z" fill="#5278FF"/>
<path d="M91.2578 178.853V248.048L109.777 258.723L169.767 224.072L91.2578 178.853Z" fill="#6990FF"/>
<path d="M160.265 218.591V229.551L144.455 238.683V209.486L160.265 218.591Z" fill="#5278FF"/>
<path d="M48.7388 181.998V223.452L46.5076 222.162L32.9336 214.324V191.126L46.5076 183.288L48.7388 181.998Z" fill="#6990FF"/>
<path d="M41.3506 199.018C41.1044 199.023 40.8628 198.897 40.7307 198.667C40.5347 198.33 40.6486 197.899 40.9859 197.703L52.0302 191.358C52.3652 191.165 52.796 191.276 52.9943 191.614C53.1903 191.951 53.0763 192.382 52.739 192.578L41.6947 198.922C41.583 198.986 41.4668 199.016 41.3506 199.018Z" fill="#6990FF"/>
<path d="M57.5722 189.581C57.3261 189.585 57.0845 189.46 56.9523 189.23C56.7563 188.892 56.8703 188.462 57.2076 188.266L68.6895 181.495C69.0245 181.301 69.4552 181.412 69.6535 181.75C69.8495 182.087 69.7356 182.518 69.3983 182.714L57.9164 189.485C57.807 189.549 57.6908 189.578 57.5722 189.581Z" fill="#6990FF"/>
<path d="M56.4404 210.161C56.1943 210.165 55.9527 210.04 55.8205 209.81C55.6245 209.472 55.7385 209.042 56.0758 208.846L67.1201 202.501C67.4551 202.307 67.8858 202.419 68.0841 202.756C68.2801 203.093 68.1661 203.524 67.8288 203.72L56.7845 210.065C56.6751 210.126 56.5566 210.158 56.4404 210.161Z" fill="#6990FF"/>
<path d="M72.6631 200.723C72.4169 200.728 72.1753 200.602 72.0432 200.372C71.8472 200.035 71.9611 199.604 72.2984 199.408L83.7803 192.637C84.1153 192.443 84.5461 192.555 84.7443 192.892C84.9403 193.229 84.8264 193.66 84.4891 193.856L73.0095 200.627C72.8978 200.689 72.7816 200.721 72.6631 200.723Z" fill="#6990FF"/>
<path d="M48.3427 204.379C48.0966 204.383 47.855 204.258 47.7228 204.028C47.5268 203.69 47.6408 203.26 47.9781 203.064L75.4088 187.229C75.7438 187.035 76.1746 187.147 76.3728 187.484C76.5688 187.821 76.4549 188.252 76.1176 188.448L48.6869 204.283C48.5775 204.344 48.459 204.376 48.3427 204.379Z" fill="#6990FF"/>
<path d="M127.314 227.509C126.73 227.226 125.905 226.752 124.862 226.096C124.342 225.77 123.856 225.439 123.321 225.072C120.901 223.413 117.724 222.755 114.818 223.308C114.499 223.37 114.111 223.258 113.954 223.06C113.797 222.862 113.929 222.652 114.248 222.59C117.628 221.945 121.459 222.729 124.246 224.642C124.77 225.002 125.244 225.323 125.741 225.635C126.721 226.251 127.517 226.711 128.041 226.964C129.923 227.873 132.009 228.562 134.244 229.013C135.728 229.311 137.307 229.491 138.939 229.548C139.295 229.56 139.609 229.74 139.646 229.947C139.664 230.054 139.605 230.148 139.493 230.212C139.388 230.271 139.24 230.305 139.067 230.3C137.312 230.239 135.61 230.045 134.005 229.722C131.594 229.234 129.344 228.491 127.314 227.509Z" fill="#D2DDF9"/>
<path d="M113.403 231.201C113.17 231.041 112.974 230.911 112.787 230.788C111.759 230.116 106.853 226.613 111.224 223.737C111.438 223.591 111.846 223.6 112.129 223.751C112.411 223.901 112.466 224.14 112.247 224.282C110.688 225.307 110.33 226.54 111.185 227.942C111.88 229.081 113.168 229.997 113.687 230.339C113.883 230.467 114.084 230.604 114.326 230.768C115.602 231.638 116.974 232.479 118.405 233.268C121.871 235.178 126.019 236.607 130.402 237.4L131.045 237.516C131.396 237.58 131.637 237.792 131.583 237.99C131.564 238.058 131.51 238.118 131.434 238.161C131.293 238.243 131.074 238.273 130.846 238.232L130.204 238.115C125.602 237.281 121.245 235.779 117.603 233.774C116.128 232.965 114.718 232.099 113.403 231.201Z" fill="#D2DDF9"/>
<path d="M132.344 226.146C130.721 225.606 129.253 224.806 128.1 223.835C127.574 223.391 126.967 222.967 126.304 222.577C123.578 220.979 119.973 220.033 116.411 219.988C116.057 219.983 115.732 219.81 115.684 219.603C115.636 219.395 115.882 219.231 116.235 219.236C120.164 219.288 124.141 220.327 127.145 222.091C127.877 222.52 128.542 222.987 129.123 223.477C130.137 224.334 131.423 225.036 132.84 225.505C134.705 226.125 136.612 226.41 138.508 226.353C138.857 226.342 139.199 226.501 139.274 226.709C139.317 226.832 139.258 226.941 139.133 227.016C139.044 227.069 138.921 227.101 138.777 227.105C136.619 227.171 134.454 226.848 132.344 226.146Z" fill="#D2DDF9"/>
<path d="M104.981 228.493C104.849 228.29 105.008 228.09 105.339 228.042C105.669 227.996 106.045 228.122 106.178 228.325C107.873 230.907 111.212 233.412 116.098 235.766C119.973 237.632 123.665 238.817 124.761 239.116C125.101 239.209 125.29 239.435 125.183 239.62C125.155 239.668 125.112 239.706 125.057 239.738C124.893 239.832 124.629 239.857 124.373 239.788C122.949 239.399 119.234 238.172 115.373 236.313C110.273 233.858 106.775 231.226 104.981 228.493Z" fill="#D2DDF9"/>
<path d="M107.609 221.148C109.001 220.343 110.697 219.783 112.648 219.48C112.976 219.429 113.354 219.55 113.496 219.753C113.637 219.954 113.484 220.159 113.156 220.209C111.388 220.482 109.851 220.991 108.589 221.722C106.542 222.905 105.464 224.555 105.56 226.369C105.565 226.467 105.505 226.549 105.405 226.608C105.291 226.675 105.122 226.709 104.936 226.695C104.58 226.668 104.281 226.481 104.27 226.273C104.165 224.272 105.353 222.451 107.609 221.148Z" fill="#D2DDF9"/>
<path d="M135.245 222.458C134.186 221.419 132.891 220.448 131.401 219.573C129.513 218.465 127.38 217.552 125.062 216.852C124.727 216.752 124.554 216.521 124.677 216.341C124.8 216.159 125.17 216.095 125.505 216.196C127.968 216.939 130.236 217.912 132.242 219.088C133.828 220.018 135.202 221.05 136.33 222.153C136.49 222.308 136.46 222.488 136.278 222.593C136.239 222.616 136.191 222.634 136.139 222.65C135.838 222.734 135.439 222.65 135.245 222.458Z" fill="#D2DDF9"/>
<path d="M102.065 234.394C101.837 234.216 101.876 233.983 102.149 233.879C102.423 233.774 102.83 233.833 103.058 234.011C104.43 235.089 105.634 235.907 107.215 236.832C107.487 236.99 107.516 237.229 107.284 237.363C107.051 237.498 106.643 237.477 106.374 237.32C104.733 236.358 103.485 235.51 102.065 234.394Z" fill="#D2DDF9"/>
<path d="M99.6099 232.213C96.3098 228.869 95.4392 225.07 97.2169 221.791C97.3194 221.604 97.6772 221.524 98.0191 221.615C98.361 221.704 98.5547 221.93 98.4544 222.116C96.7816 225.202 97.602 228.776 100.706 231.921C100.859 232.076 100.827 232.251 100.649 232.354C100.608 232.377 100.558 232.397 100.501 232.413C100.196 232.493 99.799 232.404 99.6099 232.213Z" fill="#D2DDF9"/>
<path d="M122.125 215.726C122.105 215.794 122.052 215.851 121.979 215.895C121.838 215.977 121.615 216.009 121.384 215.965C117.984 215.334 114.47 215.19 111.222 215.553C107.876 215.927 104.877 216.836 102.548 218.181C101.427 218.83 100.474 219.568 99.7174 220.38C99.5601 220.548 99.1727 220.59 98.8536 220.469C98.5345 220.348 98.4024 220.113 98.5619 219.945C99.3664 219.083 100.378 218.297 101.57 217.609C104.045 216.18 107.234 215.213 110.791 214.817C114.242 214.431 117.977 214.582 121.592 215.254C121.945 215.316 122.184 215.528 122.125 215.726Z" fill="#D2DDF9"/>
<path d="M132.654 222.711L132.414 222.522C129.456 220.104 125.288 218.326 120.686 217.52C116.033 216.704 111.329 216.957 107.438 218.235C104.419 219.227 103.199 220.464 103.188 220.476C103.026 220.644 102.639 220.681 102.322 220.56C102.003 220.439 101.875 220.202 102.037 220.036C102.092 219.979 103.391 218.646 106.679 217.568C110.843 216.202 115.884 215.931 120.873 216.804C125.801 217.668 130.256 219.566 133.42 222.148L133.65 222.331C134.484 222.987 135.758 223.397 137.057 223.427C137.41 223.436 137.732 223.609 137.775 223.817C137.798 223.926 137.736 224.024 137.624 224.088C137.522 224.147 137.378 224.181 137.212 224.177C135.471 224.138 133.768 223.591 132.654 222.711Z" fill="#D2DDF9"/>
<path d="M100.724 221.228C100.87 221.054 101.251 221.004 101.577 221.118C101.903 221.232 102.049 221.465 101.903 221.638C100.909 222.825 99.5005 225.325 101.253 228.721C102.994 232.092 107.32 235.371 114.114 238.466C114.415 238.603 114.506 238.842 114.314 238.997C114.296 239.011 114.278 239.025 114.257 239.036C114.052 239.155 113.697 239.157 113.423 239.032C106.363 235.816 101.855 232.384 100.02 228.831C98.1422 225.191 99.6555 222.504 100.724 221.228Z" fill="#D2DDF9"/>
<path d="M105.278 230.706C105.431 230.861 105.401 231.037 105.221 231.139C105.18 231.164 105.13 231.183 105.073 231.199C104.77 231.281 104.373 231.189 104.184 230.998C102.37 229.166 101.502 227.08 101.734 225.129C101.976 223.112 103.33 221.335 105.652 219.995C109.581 217.725 115.682 217.112 121.573 218.395C122.524 218.602 123.461 218.857 124.356 219.154C124.684 219.263 124.842 219.496 124.705 219.671C124.678 219.705 124.641 219.735 124.598 219.76C124.42 219.862 124.124 219.881 123.859 219.792C123.034 219.518 122.171 219.284 121.295 219.092C115.867 217.912 110.247 218.475 106.627 220.567C104.487 221.802 103.241 223.438 103.02 225.296C102.808 227.098 103.608 229.017 105.278 230.706Z" fill="#D2DDF9"/>
<path d="M130.318 223.251C129.513 222.549 128.531 221.907 127.382 221.328L126.938 221.105C126.648 220.959 126.582 220.719 126.79 220.574C126.997 220.425 127.401 220.425 127.69 220.571L128.134 220.795C129.395 221.43 130.47 222.135 131.339 222.891C132.806 224.177 135.277 224.92 137.652 224.803C137.998 224.788 138.347 224.94 138.431 225.148C138.484 225.273 138.424 225.389 138.294 225.467C138.21 225.515 138.094 225.546 137.959 225.553C135.074 225.695 132.073 224.79 130.318 223.251Z" fill="#D2DDF9"/>
<path d="M106.871 232.639C107.142 232.53 107.547 232.586 107.78 232.762C113.421 237.067 120.059 239.143 120.126 239.164C120.458 239.266 120.629 239.497 120.504 239.677C120.477 239.715 120.438 239.75 120.39 239.777C120.219 239.875 119.934 239.898 119.674 239.818C119.392 239.731 112.668 237.635 106.802 233.156C106.57 232.978 106.602 232.748 106.871 232.639Z" fill="#D2DDF9"/>
<path d="M119.611 236.076C119.588 236.096 119.563 236.117 119.533 236.133C119.34 236.244 119.007 236.254 118.734 236.142C116.837 235.369 114.563 234.141 112.936 233.013C112.689 232.842 112.699 232.609 112.956 232.489C113.214 232.37 113.622 232.413 113.868 232.584C115.411 233.655 117.562 234.818 119.351 235.547C119.666 235.675 119.782 235.912 119.611 236.076Z" fill="#D2DDF9"/>
<path d="M109.647 222.317C112.799 220.496 118.205 220.348 122.795 221.957C124.044 222.395 125.19 222.987 126.202 223.719C128.207 225.166 130.017 226 130.056 226.018C130.357 226.155 130.448 226.392 130.259 226.549C130.24 226.563 130.222 226.577 130.202 226.588C129.996 226.707 129.643 226.709 129.367 226.583C129.288 226.547 127.392 225.679 125.249 224.131C124.356 223.486 123.351 222.967 122.266 222.584C118.196 221.157 113.41 221.282 110.627 222.889C108.933 223.867 108.079 225.093 108.154 226.433C108.229 227.791 109.259 229.273 111.128 230.718C111.358 230.895 111.324 231.126 111.051 231.235C110.779 231.342 110.372 231.285 110.141 231.107C105.934 227.855 105.75 224.569 109.647 222.317Z" fill="#D2DDF9"/>
<path d="M121.906 237.003C122.059 236.832 122.442 236.787 122.766 236.905C124.112 237.393 126.148 238.072 128.194 238.528C128.541 238.605 128.759 238.824 128.68 239.018C128.655 239.077 128.607 239.127 128.541 239.164C128.39 239.25 128.149 239.28 127.907 239.225C125.749 238.744 123.62 238.036 122.216 237.527C121.895 237.409 121.756 237.174 121.906 237.003Z" fill="#D2DDF9"/>
<path d="M132.214 227.365C132.314 227.178 132.674 227.098 133.016 227.187C135.448 227.823 138.071 227.96 139.087 227.992C139.441 228.003 139.76 228.179 139.798 228.386C139.819 228.493 139.76 228.589 139.646 228.655C139.543 228.714 139.395 228.749 139.226 228.744C138.135 228.712 135.306 228.562 132.651 227.869C132.309 227.775 132.113 227.552 132.214 227.365Z" fill="#D2DDF9"/>
<path d="M122.583 226.622C122.364 226.44 122.414 226.212 122.694 226.112C122.975 226.011 123.38 226.078 123.599 226.258C123.613 226.269 124.991 227.397 127.539 228.532C130.933 230.045 134.684 230.859 138.691 230.948C139.044 230.955 139.365 231.13 139.409 231.338C139.432 231.447 139.372 231.545 139.258 231.611C139.156 231.67 139.012 231.704 138.846 231.7C133.463 231.579 129.333 230.209 126.817 229.081C124.087 227.86 122.642 226.672 122.583 226.622Z" fill="#D2DDF9"/>
<path d="M120.882 224.548C121.199 224.671 121.319 224.906 121.158 225.072C120.994 225.239 120.606 225.275 120.289 225.152C120.139 225.093 116.563 223.744 114.318 225.464C112.128 227.144 114.904 229.113 117.933 230.984C118.076 231.073 118.213 231.157 118.345 231.24C118.601 231.399 118.623 231.629 118.398 231.759C118.14 231.896 117.732 231.869 117.47 231.704C117.343 231.625 117.206 231.54 117.064 231.454C114.685 229.984 110.257 227.249 113.249 224.954C115.56 223.176 119.252 223.91 120.882 224.548Z" fill="#D2DDF9"/>
<path d="M120.297 232.78C120.5 232.63 120.901 232.623 121.195 232.767C122.521 233.411 127.36 235.586 133.921 236.509C134.277 236.559 134.539 236.762 134.509 236.965C134.498 237.044 134.441 237.11 134.356 237.161C134.226 237.236 134.026 237.27 133.812 237.238C126.938 236.269 121.86 233.988 120.466 233.311C120.172 233.17 120.096 232.931 120.297 232.78Z" fill="#D2DDF9"/>
<path d="M128.875 231.055C129.033 230.886 129.422 230.848 129.741 230.966C129.773 230.978 132.914 232.147 137.971 232.466C138.327 232.489 138.63 232.673 138.648 232.881C138.657 232.981 138.598 233.067 138.493 233.127C138.381 233.19 138.22 233.225 138.035 233.213C132.645 232.874 129.306 231.632 129.165 231.579C128.848 231.461 128.718 231.226 128.875 231.055Z" fill="#D2DDF9"/>
<path d="M117.35 227.308C117.145 227.121 117.218 226.898 117.51 226.807C117.801 226.716 118.205 226.793 118.408 226.98C118.423 226.996 120.14 228.546 123.314 230.159C126.222 231.638 130.995 233.482 137.217 233.856C137.572 233.876 137.878 234.063 137.896 234.268C137.905 234.369 137.846 234.455 137.741 234.517C137.629 234.581 137.47 234.615 137.287 234.603C130.667 234.205 125.6 232.245 122.517 230.67C119.18 228.97 117.423 227.377 117.35 227.308Z" fill="#D2DDF9"/>
<path d="M115.474 228.136C114.355 227.258 114.526 226.114 115.852 225.583C116.52 225.316 117.368 225.239 118.241 225.369C119.116 225.496 119.897 225.813 120.447 226.258C122.94 228.284 125.483 229.451 126.461 229.856C126.771 229.986 126.88 230.223 126.707 230.385C126.532 230.549 126.137 230.574 125.828 230.444C124.784 230.009 122.072 228.767 119.437 226.627C119.109 226.36 118.639 226.171 118.118 226.096C117.596 226.018 117.087 226.064 116.691 226.223C115.898 226.54 115.795 227.226 116.465 227.75C119.426 230.073 122.509 231.789 125.891 232.999C129.251 234.2 132.697 234.825 135.625 235.278C135.978 235.333 136.236 235.54 136.197 235.741C136.184 235.816 136.127 235.882 136.045 235.928C135.91 236.005 135.705 236.037 135.484 236.003C129.201 235.034 122.475 233.626 115.474 228.136Z" fill="#D2DDF9"/>
<defs>
<linearGradient id="paint0_linear" x1="257.242" y1="216.964" x2="507.778" y2="216.964" gradientUnits="userSpaceOnUse">
<stop offset="0.00572917" stop-color="#DBE0FF"/>
<stop offset="0.6899" stop-color="#F1F4FD"/>
<stop offset="0.9991" stop-color="#FCFDFF"/>
</linearGradient>
<linearGradient id="paint1_linear" x1="218.727" y1="179.601" x2="498.152" y2="179.601" gradientUnits="userSpaceOnUse">
<stop offset="0.00572917" stop-color="#DBE0FF"/>
<stop offset="0.3303" stop-color="#CED8FF"/>
<stop offset="1" stop-color="#B8C9FF"/>
</linearGradient>
<linearGradient id="paint2_linear" x1="216.072" y1="179.601" x2="495.498" y2="179.601" gradientUnits="userSpaceOnUse">
<stop offset="0.00572917" stop-color="#DBE0FF"/>
<stop offset="0.3303" stop-color="#CED8FF"/>
<stop offset="1" stop-color="#B8C9FF"/>
</linearGradient>
<linearGradient id="paint3_linear" x1="225.937" y1="81.5896" x2="484.363" y2="129.836" gradientUnits="userSpaceOnUse">
<stop stop-color="#538DFF"/>
<stop offset="1" stop-color="#865BFF"/>
</linearGradient>
<linearGradient id="paint4_linear" x1="280.252" y1="170.129" x2="315.16" y2="135.221" gradientUnits="userSpaceOnUse">
<stop stop-color="#C6D4FF"/>
<stop offset="0.9989" stop-color="#EFF1FF"/>
</linearGradient>
<linearGradient id="paint5_linear" x1="162.663" y1="153.406" x2="225.421" y2="153.406" gradientUnits="userSpaceOnUse">
<stop offset="0.00572917" stop-color="#DBE0FF"/>
<stop offset="0.6899" stop-color="#F1F4FD"/>
<stop offset="0.9991" stop-color="#FCFDFF"/>
</linearGradient>
<linearGradient id="paint6_linear" x1="224.76" y1="21.1491" x2="267.303" y2="21.1491" gradientUnits="userSpaceOnUse">
<stop offset="0.00572917" stop-color="#DBE0FF"/>
<stop offset="0.6899" stop-color="#F1F4FD"/>
<stop offset="0.9991" stop-color="#FCFDFF"/>
</linearGradient>
<linearGradient id="paint7_linear" x1="220.493" y1="19.9413" x2="255.437" y2="19.9413" gradientUnits="userSpaceOnUse">
<stop offset="0.00572917" stop-color="#DBE0FF"/>
<stop offset="0.3303" stop-color="#CED8FF"/>
<stop offset="1" stop-color="#B8C9FF"/>
</linearGradient>
<linearGradient id="paint8_linear" x1="500.409" y1="293.413" x2="537.999" y2="293.413" gradientUnits="userSpaceOnUse">
<stop offset="0.00572917" stop-color="#DBE0FF"/>
<stop offset="0.6899" stop-color="#F1F4FD"/>
<stop offset="0.9991" stop-color="#FCFDFF"/>
</linearGradient>
<linearGradient id="paint9_linear" x1="496.639" y1="292.346" x2="527.514" y2="292.346" gradientUnits="userSpaceOnUse">
<stop offset="0.00572917" stop-color="#DBE0FF"/>
<stop offset="0.3303" stop-color="#CED8FF"/>
<stop offset="1" stop-color="#B8C9FF"/>
</linearGradient>
<linearGradient id="paint10_linear" x1="95.1245" y1="238.386" x2="193.784" y2="238.386" gradientUnits="userSpaceOnUse">
<stop offset="0.00572917" stop-color="#DBE0FF"/>
<stop offset="0.6899" stop-color="#F1F4FD"/>
<stop offset="0.9991" stop-color="#FCFDFF"/>
</linearGradient>
</defs>
</svg>
