<svg width="89" height="90" viewBox="0 0 89 90" fill="none" xmlns="http://www.w3.org/2000/svg">
<path d="M24.5837 85.8334H12.3337C10.1677 85.8334 8.0905 84.973 6.55895 83.4415C5.02741 81.9099 4.16699 79.8327 4.16699 77.6668V49.0834C4.16699 46.9175 5.02741 44.8403 6.55895 43.3087C8.0905 41.7772 10.1677 40.9167 12.3337 40.9167H24.5837M53.167 32.7501V16.4167C53.167 13.1678 51.8764 10.052 49.5791 7.75469C47.2817 5.45737 44.1659 4.16675 40.917 4.16675L24.5837 40.9167V85.8334H70.6437C72.6132 85.8557 74.5244 85.1654 76.0251 83.8898C77.5259 82.6141 78.515 80.8391 78.8103 78.8917L84.4453 42.1418C84.623 40.9713 84.544 39.7762 84.214 38.6393C83.8839 37.5024 83.3106 36.4508 82.5337 35.5574C81.7569 34.6641 80.7952 33.9503 79.7151 33.4656C78.635 32.9808 77.4625 32.7367 76.2787 32.7501H53.167Z" stroke="white" stroke-width="8" stroke-linecap="round" stroke-linejoin="round"/>
</svg>
