<svg width="50" height="50" viewBox="0 0 50 50" fill="none" xmlns="http://www.w3.org/2000/svg">
<path fill-rule="evenodd" clip-rule="evenodd" d="M19.6432 0.192742L19.4052 0.385383L19.3548 14.2848L19.3044 28.1841L15.8266 26.1934C13.9138 25.0986 12.2464 24.2007 12.1212 24.1982C11.8612 24.1928 0.445464 30.6661 0.176411 30.9714C0.0127016 31.1572 0 31.5972 0 37.0968C0 42.5964 0.0127016 43.0364 0.176411 43.2222C0.426915 43.5066 11.8504 50 12.1001 50C12.3556 50 23.7733 43.5112 24.0171 43.2273C24.1661 43.0539 24.1935 42.8123 24.1935 41.6723V40.3226H32.2523H40.3111L40.342 43.9768L40.373 47.6311L40.6447 48.1459C41.0475 48.9095 41.3512 49.2231 42.0564 49.6033C42.6364 49.9161 42.7658 49.9459 43.5484 49.9459C44.3309 49.9459 44.4604 49.9161 45.0404 49.6033C45.7456 49.2231 46.0493 48.9095 46.4521 48.1459L46.7238 47.6311L46.7547 43.9768L46.7857 40.3226H48.1455C49.4546 40.3226 49.5143 40.3134 49.7525 40.0751L50 39.8277V24.1743V8.52077L45.7396 4.26038L41.4792 0H30.6802C20.198 0 19.8742 0.00564514 19.6432 0.192742ZM40.3226 5.39768V9.18256L40.5701 9.42994L40.8174 9.67742H44.6023H48.3871V24.1935V38.7097H47.5806H46.7742V31.7873V24.8649L45.5094 21.4798C44.7124 19.347 44.1676 18.0295 44.0365 17.9183C43.9221 17.8213 43.7024 17.7419 43.5484 17.7419C43.3944 17.7419 43.1747 17.8213 43.0603 17.9183C42.9291 18.0295 42.3844 19.347 41.5874 21.4798L40.3226 24.8649V31.7873V38.7097H32.2581H24.1935V34.9487C24.1935 32.0287 24.1643 31.1478 24.063 31.0092C23.9911 30.9109 23.2767 30.4542 22.4753 29.9942L21.0181 29.1579L20.9925 15.3854L20.967 1.6129H30.6448H40.3226V5.39768ZM44.6069 5.44355L47.2264 8.06452H44.5809H41.9355V5.44355C41.9355 4.00202 41.9472 2.82258 41.9614 2.82258C41.9757 2.82258 43.1661 4.00202 44.6069 5.44355ZM22.5806 12.0968V12.9032H23.3871H24.1935V12.0968V11.2903H23.3871H22.5806V12.0968ZM25.8065 12.0968V12.9032H36.2903H46.7742V12.0968V11.2903H36.2903H25.8065V12.0968ZM22.5806 15.3226V16.129H33.0645H43.5484V15.3226V14.5161H33.0645H22.5806V15.3226ZM45.1613 15.3226V16.129H45.9677H46.7742V15.3226V14.5161H45.9677H45.1613V15.3226ZM22.5806 18.5484V19.3548H30.6452H38.7097V18.5484V17.7419H30.6452H22.5806V18.5484ZM22.5806 21.7742V22.5806H30.6452H38.7097V21.7742V20.9677H30.6452H22.5806V21.7742ZM44.2474 22.7067C44.6025 23.6631 44.9119 24.4994 44.9348 24.5652C44.9577 24.631 44.655 24.8985 44.2624 25.1597L43.5484 25.6344L42.8344 25.1597C42.4417 24.8985 42.1391 24.631 42.162 24.5652C42.5305 23.5055 43.5086 20.9677 43.5484 20.9677C43.5777 20.9677 43.8922 21.7502 44.2474 22.7067ZM16.9601 28.7043C19.5518 30.1876 21.6725 31.4267 21.6728 31.4579C21.6731 31.4889 21.1299 31.8222 20.4657 32.1982L19.2581 32.882L14.509 30.1668C11.8969 28.6734 9.75887 27.4128 9.75766 27.3653C9.75484 27.2542 11.8969 26.0131 12.0968 26.0099C12.1799 26.0086 14.3684 27.2211 16.9601 28.7043ZM42.7419 35.2957V43.5484H42.3387H41.9355V35.0288V26.5093L42.3387 26.7761L42.7419 27.0429V35.2957ZM45.1613 35.0302V43.5484H44.7581H44.3548V35.2959V27.0434L44.7329 26.7838C44.9408 26.641 45.1223 26.5215 45.1361 26.5181C45.1499 26.5148 45.1613 30.3453 45.1613 35.0302ZM13.3341 31.3508L18.5465 34.3246L18.5474 35.8608L18.5484 37.397L17.7419 37.8024L16.9355 38.2079V36.7058C16.9355 35.4203 16.9101 35.1744 16.7591 34.9997C16.662 34.8875 14.3826 33.5415 11.6935 32.0088C9.00454 30.476 6.76633 29.1842 6.71966 29.1381C6.62823 29.0477 7.84506 28.3106 8.01744 28.352C8.0747 28.3657 10.4671 29.7152 13.3341 31.3508ZM9.72782 32.7481C12.3337 34.2372 14.4614 35.496 14.4561 35.5454C14.4441 35.6587 12.2963 36.8934 12.1095 36.8945C11.9615 36.8952 2.52258 31.5365 2.52228 31.4516C2.52218 31.4013 4.84395 30.0486 4.93952 30.0433C4.96724 30.0417 7.12198 31.2589 9.72782 32.7481ZM7.14062 35.9879L11.2884 38.3569L11.2893 43.0787L11.2903 47.8006L10.6998 47.4638C10.3751 47.2786 8.19859 46.0383 5.86321 44.7077L1.61694 42.2883L1.61492 37.5679L1.6129 32.8475L2.30282 33.2333C2.68236 33.4454 4.85938 34.685 7.14062 35.9879ZM22.5796 37.5756L22.5787 42.2883L18.4309 44.6573C16.1497 45.9602 13.9727 47.1998 13.5931 47.4119L12.9032 47.7977L12.9041 43.0772L12.905 38.3569L14.0886 37.6915L15.2722 37.0263L15.3226 38.4821C15.3703 39.8604 15.3856 39.948 15.611 40.1301C15.7418 40.236 15.9578 40.3226 16.0908 40.3226C16.4336 40.3226 19.9286 38.5528 20.056 38.3148C20.1186 38.1978 20.1617 37.3292 20.1623 36.171L20.1633 34.2238L21.3468 33.5463C21.9977 33.1736 22.5416 32.8674 22.5554 32.8658C22.5693 32.8642 22.5802 34.9837 22.5796 37.5756ZM45.145 46.2631C45.1082 47.4537 45.0206 47.6781 44.4168 48.1288C44.0265 48.4203 43.0703 48.4203 42.6799 48.1288C42.0762 47.6781 41.9886 47.4537 41.9518 46.2631L41.9176 45.1613H43.5484H45.1791L45.145 46.2631Z" fill="#538DFF"/>
</svg>
