<svg width="54" height="54" viewBox="0 0 54 54" fill="none" xmlns="http://www.w3.org/2000/svg">
<path fill-rule="evenodd" clip-rule="evenodd" d="M31.0727 0.164855C29.6267 0.554305 28.3049 1.59824 27.6473 2.8703L27.275 3.59037L25.1611 3.59071C23.0667 3.59116 23.0444 3.59374 22.771 3.86733C22.5443 4.094 22.4949 4.25486 22.4949 4.76727V5.39104H17.8121C14.4643 5.39104 12.9974 5.43008 12.6664 5.52783C12.0486 5.71041 11.1169 6.6423 10.9343 7.26022C10.8376 7.5878 10.7975 8.96167 10.7975 11.9568C10.7975 15.7003 10.7774 16.1903 10.6238 16.1903C10.5282 16.1903 10.3257 16.3146 10.1739 16.4665C9.90292 16.7374 9.89775 16.7774 9.89775 18.6074C9.89775 20.1959 9.87165 20.4822 9.72172 20.5398C9.60003 20.5863 9.13585 20.2025 8.22098 19.2987C7.05664 18.1486 6.85037 17.9902 6.51632 17.9902C6.17271 17.9902 5.92841 18.1981 3.96787 20.1589C2.00744 22.1197 1.79959 22.364 1.79959 22.7077C1.79959 23.0418 1.95795 23.2481 3.10789 24.4127C4.01151 25.3277 4.39527 25.7919 4.34871 25.9136C4.29112 26.0636 4.00488 26.0897 2.41662 26.0897C0.587004 26.0897 0.546963 26.0949 0.276125 26.3659L0 26.6419V29.6895V32.737L0.276125 33.0131C0.546963 33.284 0.587004 33.2892 2.41662 33.2892C4.00488 33.2892 4.29112 33.3153 4.34871 33.4653C4.39527 33.587 4.01151 34.0512 3.10789 34.9663C1.95795 36.1308 1.79959 36.3371 1.79959 36.6712C1.79959 37.0149 2.00744 37.2592 3.96787 39.2201C5.92841 41.1808 6.17271 41.3887 6.51632 41.3887C6.85037 41.3887 7.05664 41.2303 8.22098 40.0802C9.13585 39.1764 9.60003 38.7926 9.72172 38.8392C9.87165 38.8968 9.89775 39.1831 9.89775 40.7716C9.89775 42.6015 9.90292 42.6415 10.1739 42.9124C10.3257 43.0643 10.5282 43.1886 10.6238 43.1886C10.7774 43.1886 10.7975 43.6786 10.7975 47.4221C10.7975 50.4172 10.8376 51.7911 10.9343 52.1187C11.1169 52.7366 12.0486 53.6685 12.6664 53.8511C13.3385 54.0496 51.4468 54.0496 52.1188 53.8511C52.7367 53.6685 53.6684 52.7366 53.8509 52.1187C54.0497 51.4458 54.0497 7.93315 53.8509 7.26022C53.6684 6.6423 52.7367 5.71041 52.1188 5.52783C51.7878 5.43008 50.3209 5.39104 46.9731 5.39104H42.2904V4.76727C42.2904 4.25486 42.241 4.094 42.0143 3.86733C41.7408 3.59374 41.7186 3.59116 39.6242 3.59071L37.5102 3.59037L37.1339 2.86232C36.6807 1.986 35.6323 0.963666 34.7508 0.538781C33.6138 -0.00928365 32.2381 -0.149112 31.0727 0.164855ZM33.4853 1.97396C34.6409 2.36634 35.4438 3.18607 35.8304 4.36837C36.1629 5.38508 36.1785 5.39104 38.4875 5.39104H40.4908V8.09087V10.7907H32.3926H24.2945V8.09087V5.39104H26.2978C28.6103 5.39104 28.6337 5.38193 28.9561 4.35813C29.5606 2.43788 31.6352 1.34592 33.4853 1.97396ZM22.4949 8.09087V8.99081H18.7219H14.9489L14.6728 9.26698L14.3967 9.54303V12.8667V16.1903H13.4969H12.5971V11.9668V7.74315L12.8733 7.46709L13.1493 7.19092H17.8221H22.4949V8.09087ZM51.912 7.46709L52.1881 7.74315V29.6895V51.6358L51.912 51.9118L51.636 52.188H32.3926H13.1493L12.8733 51.9118L12.5971 51.6358V47.4121V43.1886H13.4969H14.3967V46.5122V49.8359L14.6728 50.1119L14.9489 50.3881H28.8146H42.6804L46.5345 46.5334L50.3885 42.6788V26.1108V9.54303L50.1124 9.26698L49.8364 8.99081H46.0633H42.2904V8.09087V7.19092H46.9631H51.636L51.912 7.46709ZM22.4949 11.4145C22.4949 11.9269 22.5443 12.0877 22.771 12.3144L23.047 12.5906H32.3926H41.7382L42.0143 12.3144C42.241 12.0877 42.2904 11.9269 42.2904 11.4145V10.7907H45.4397H48.5889V26.0897V41.3887H45.2659H41.9427L41.6667 41.6649L41.3906 41.9409V45.2646V48.5882H28.7934H16.1963V45.8884C16.1963 43.5283 16.2181 43.1886 16.3701 43.1886C16.4657 43.1886 16.6681 43.0643 16.82 42.9124C17.0909 42.6415 17.0961 42.6015 17.0961 40.7716C17.0961 39.1831 17.1222 38.8968 17.2721 38.8392C17.3938 38.7926 17.858 39.1764 18.7729 40.0802C19.9372 41.2303 20.1435 41.3887 20.4775 41.3887C20.8211 41.3887 21.0654 41.1808 23.026 39.2201C24.9864 37.2592 25.1943 37.0149 25.1943 36.6712C25.1943 36.3371 25.0359 36.1308 23.886 34.9663C22.9823 34.0512 22.5986 33.587 22.6451 33.4653C22.7027 33.3153 22.989 33.2892 24.5772 33.2892C26.4069 33.2892 26.4469 33.284 26.7177 33.0131L26.9939 32.737V29.6895V26.6419L26.7177 26.3659C26.4469 26.0949 26.4069 26.0897 24.5772 26.0897C22.989 26.0897 22.7027 26.0636 22.6451 25.9136C22.5986 25.7919 22.9823 25.3277 23.886 24.4127C25.0359 23.2481 25.1943 23.0418 25.1943 22.7077C25.1943 22.364 24.9864 22.1197 23.026 20.1589C21.0654 18.1981 20.8211 17.9902 20.4775 17.9902C20.1435 17.9902 19.9372 18.1486 18.7729 19.2987C17.858 20.2025 17.3938 20.5863 17.2721 20.5398C17.1222 20.4822 17.0961 20.1959 17.0961 18.6074C17.0961 16.7774 17.0909 16.7374 16.82 16.4665C16.6681 16.3146 16.4657 16.1903 16.3701 16.1903C16.2181 16.1903 16.1963 15.8506 16.1963 13.4905V10.7907H19.3456H22.4949V11.4145ZM29.9694 16.4665C29.7953 16.6405 29.6932 16.8711 29.6932 17.0903C29.6932 17.3094 29.7953 17.54 29.9694 17.7141C30.2105 17.9553 30.3462 17.9902 31.0429 17.9902C31.7397 17.9902 31.8754 17.9553 32.1165 17.7141C32.2906 17.54 32.3926 17.3094 32.3926 17.0903C32.3926 16.8711 32.2906 16.6405 32.1165 16.4665C31.8754 16.2252 31.7397 16.1903 31.0429 16.1903C30.3462 16.1903 30.2105 16.2252 29.9694 16.4665ZM34.4683 16.4665C34.2942 16.6405 34.1922 16.8711 34.1922 17.0903C34.1922 17.3094 34.2942 17.54 34.4683 17.7141L34.7444 17.9902H39.591H44.4376L44.7136 17.7141C44.8877 17.54 44.9898 17.3094 44.9898 17.0903C44.9898 16.8711 44.8877 16.6405 44.7136 16.4665L44.4376 16.1903H39.591H34.7444L34.4683 16.4665ZM15.2965 19.6713C15.2965 21.651 15.3271 21.714 16.5337 22.2133C17.9003 22.779 17.8297 22.8005 19.2693 21.3799L20.5343 20.1316L21.7929 21.3951L23.0516 22.6587L21.8043 23.919C20.3844 25.3538 20.4057 25.2839 20.9719 26.6522C21.4711 27.859 21.5341 27.8896 23.5134 27.8896H25.1943V29.6895V31.4893H23.5134C21.928 31.4893 21.8168 31.5037 21.5536 31.7424C21.2429 32.0242 20.5828 33.5269 20.5828 33.9521C20.5828 34.1495 20.9269 34.5732 21.8172 35.4729L23.0516 36.7202L21.7929 37.9838L20.5343 39.2473L19.2693 37.9991C17.8297 36.5784 17.9003 36.5999 16.5337 37.1656C15.3271 37.665 15.2965 37.728 15.2965 39.7076V41.3887H13.4969H11.6973V39.7076C11.6973 37.728 11.6667 37.665 10.4601 37.1656C9.09209 36.5993 9.16194 36.5781 7.72744 37.9982L6.46728 39.2457L5.20397 37.9868L3.94065 36.728L5.18867 35.4628C6.60911 34.0229 6.58763 34.0935 6.02199 32.7268C5.52272 31.5199 5.45973 31.4893 3.48041 31.4893H1.79959V29.6895V27.8896H3.48041C5.45973 27.8896 5.52272 27.859 6.02199 26.6522C6.58763 25.2854 6.60911 25.356 5.18867 23.9161L3.94065 22.6509L5.20397 21.3921L6.46728 20.1332L7.72744 21.3808C9.16194 22.8009 9.09209 22.7796 10.4601 22.2133C11.6667 21.714 11.6973 21.651 11.6973 19.6713V17.9902H13.4969H15.2965V19.6713ZM29.9694 20.0663C29.7953 20.2403 29.6932 20.4709 29.6932 20.69C29.6932 20.9092 29.7953 21.1398 29.9694 21.3138C30.2105 21.5551 30.3462 21.59 31.0429 21.59C31.7397 21.59 31.8754 21.5551 32.1165 21.3138C32.2906 21.1398 32.3926 20.9092 32.3926 20.69C32.3926 20.4709 32.2906 20.2403 32.1165 20.0663C31.8754 19.825 31.7397 19.7901 31.0429 19.7901C30.3462 19.7901 30.2105 19.825 29.9694 20.0663ZM34.4683 20.0663C34.2942 20.2403 34.1922 20.4709 34.1922 20.69C34.1922 20.9092 34.2942 21.1398 34.4683 21.3138L34.7444 21.59H39.591H44.4376L44.7136 21.3138C44.8877 21.1398 44.9898 20.9092 44.9898 20.69C44.9898 20.4709 44.8877 20.2403 44.7136 20.0663L44.4376 19.7901H39.591H34.7444L34.4683 20.0663ZM12.3159 23.4967C9.9794 24.0016 8.25101 25.5673 7.46684 27.8896C7.17699 28.748 7.17699 30.6309 7.46684 31.4893C8.06464 33.2596 9.17577 34.5642 10.719 35.3075C13.2114 36.5078 15.9963 36.0522 17.9186 34.1295C19.8521 32.1958 20.3156 29.407 19.1174 26.9182C18.1163 24.8387 16.1189 23.538 13.7781 23.4414C13.2214 23.4183 12.5634 23.4433 12.3159 23.4967ZM15.3448 25.6195C16.3596 26.0945 17.0163 26.7405 17.5196 27.7591C17.9165 28.5623 17.9397 28.6686 17.9397 29.6895C17.9397 30.7103 17.9165 30.8166 17.5196 31.6198C17.0137 32.6437 16.3624 33.2815 15.3168 33.7769C14.6373 34.0988 14.4632 34.1329 13.4969 34.1329C12.5307 34.1329 12.3565 34.0988 11.6771 33.7769C10.6314 33.2815 9.98019 32.6437 9.47428 31.6198C9.07781 30.8175 9.05419 30.7094 9.05419 29.6953C9.05419 28.7222 9.08782 28.5498 9.41017 27.8693C9.86209 26.9152 10.5056 26.2167 11.3448 25.7693C12.2308 25.2971 12.7156 25.1902 13.7499 25.2395C14.425 25.2716 14.7845 25.3573 15.3448 25.6195ZM29.9694 25.4659C29.7953 25.6399 29.6932 25.8706 29.6932 26.0897C29.6932 26.3088 29.7953 26.5394 29.9694 26.7135C30.2105 26.9548 30.3462 26.9896 31.0429 26.9896C31.7397 26.9896 31.8754 26.9548 32.1165 26.7135C32.2906 26.5394 32.3926 26.3088 32.3926 26.0897C32.3926 25.8706 32.2906 25.6399 32.1165 25.4659C31.8754 25.2246 31.7397 25.1898 31.0429 25.1898C30.3462 25.1898 30.2105 25.2246 29.9694 25.4659ZM34.4683 25.4659C34.2942 25.6399 34.1922 25.8706 34.1922 26.0897C34.1922 26.3088 34.2942 26.5394 34.4683 26.7135L34.7444 26.9896H39.591H44.4376L44.7136 26.7135C44.8877 26.5394 44.9898 26.3088 44.9898 26.0897C44.9898 25.8706 44.8877 25.6399 44.7136 25.4659L44.4376 25.1898H39.591H34.7444L34.4683 25.4659ZM13.9899 28.8071L12.6069 30.1744L12.1518 29.7633C11.3623 29.0498 10.4601 29.2913 10.4601 30.2161C10.4601 30.5831 10.5604 30.7307 11.3394 31.5098C12.6344 32.8049 12.5425 32.8301 14.8147 30.5575C16.4923 28.8796 16.6462 28.6922 16.6462 28.3273C16.6462 27.8127 16.2691 27.4396 15.7492 27.4396C15.4188 27.4396 15.2037 27.6068 13.9899 28.8071ZM29.9694 29.0657C29.7953 29.2397 29.6932 29.4703 29.6932 29.6895C29.6932 29.9086 29.7953 30.1392 29.9694 30.3132C30.2105 30.5545 30.3462 30.5894 31.0429 30.5894C31.7397 30.5894 31.8754 30.5545 32.1165 30.3132C32.2906 30.1392 32.3926 29.9086 32.3926 29.6895C32.3926 29.4703 32.2906 29.2397 32.1165 29.0657C31.8754 28.8244 31.7397 28.7895 31.0429 28.7895C30.3462 28.7895 30.2105 28.8244 29.9694 29.0657ZM34.4683 29.0657C34.2942 29.2397 34.1922 29.4703 34.1922 29.6895C34.1922 29.9086 34.2942 30.1392 34.4683 30.3132L34.7444 30.5894H39.591H44.4376L44.7136 30.3132C44.8877 30.1392 44.9898 29.9086 44.9898 29.6895C44.9898 29.4703 44.8877 29.2397 44.7136 29.0657L44.4376 28.7895H39.591H34.7444L34.4683 29.0657ZM29.9694 34.4653C29.7953 34.6394 29.6932 34.87 29.6932 35.0891C29.6932 35.3082 29.7953 35.5389 29.9694 35.7129C30.2105 35.9542 30.3462 35.989 31.0429 35.989C31.7397 35.989 31.8754 35.9542 32.1165 35.7129C32.2906 35.5389 32.3926 35.3082 32.3926 35.0891C32.3926 34.87 32.2906 34.6394 32.1165 34.4653C31.8754 34.224 31.7397 34.1892 31.0429 34.1892C30.3462 34.1892 30.2105 34.224 29.9694 34.4653ZM34.4683 34.4653C34.2942 34.6394 34.1922 34.87 34.1922 35.0891C34.1922 35.3082 34.2942 35.5389 34.4683 35.7129L34.7444 35.989H39.591H44.4376L44.7136 35.7129C44.8877 35.5389 44.9898 35.3082 44.9898 35.0891C44.9898 34.87 44.8877 34.6394 44.7136 34.4653L44.4376 34.1892H39.591H34.7444L34.4683 34.4653ZM29.9694 38.0651C29.7953 38.2391 29.6932 38.4697 29.6932 38.6889C29.6932 38.908 29.7953 39.1386 29.9694 39.3126C30.2105 39.5539 30.3462 39.5888 31.0429 39.5888C31.7397 39.5888 31.8754 39.5539 32.1165 39.3126C32.2906 39.1386 32.3926 38.908 32.3926 38.6889C32.3926 38.4697 32.2906 38.2391 32.1165 38.0651C31.8754 37.8238 31.7397 37.7889 31.0429 37.7889C30.3462 37.7889 30.2105 37.8238 29.9694 38.0651ZM34.4683 38.0651C34.2942 38.2391 34.1922 38.4697 34.1922 38.6889C34.1922 38.908 34.2942 39.1386 34.4683 39.3126L34.7444 39.5888H39.591H44.4376L44.7136 39.3126C44.8877 39.1386 44.9898 38.908 44.9898 38.6889C44.9898 38.4697 44.8877 38.2391 44.7136 38.0651L44.4376 37.7889H39.591H34.7444L34.4683 38.0651ZM20.0716 43.4647C19.8975 43.6388 19.7955 43.8694 19.7955 44.0885C19.7955 44.3077 19.8975 44.5383 20.0716 44.7123L20.3476 44.9885H29.6932H39.0389L39.3149 44.7123C39.489 44.5383 39.591 44.3077 39.591 44.0885C39.591 43.8694 39.489 43.6388 39.3149 43.4647L39.0389 43.1886H29.6932H20.3476L20.0716 43.4647ZM47.2392 43.2178C47.2392 43.234 46.3282 44.1573 45.2147 45.2697L43.1902 47.2922V45.2404V43.1886H45.2147C46.3282 43.1886 47.2392 43.2017 47.2392 43.2178Z" fill="white"/>
</svg>
