<svg width="53" height="54" viewBox="0 0 53 54" fill="none" xmlns="http://www.w3.org/2000/svg">
<path fill-rule="evenodd" clip-rule="evenodd" d="M2.48924 0.061725C1.55536 0.29115 0.700305 0.989588 0.256806 1.88519L0 2.40379V9.92336V17.4429L0.279521 17.9726C0.69346 18.7574 1.00607 19.0804 1.73199 19.474L2.38552 19.8284L7.23434 19.8591L12.0832 19.8898V20.9741V22.0584H10.932C9.5929 22.0584 9.18114 22.1964 8.92775 22.7303C8.72446 23.1588 8.72446 23.2397 8.92775 23.6683C9.23548 24.3166 9.38587 24.3402 13.2241 24.3402C17.0623 24.3402 17.2127 24.3166 17.5204 23.6683C17.7237 23.2397 17.7237 23.1588 17.5204 22.7303C17.267 22.1964 16.8552 22.0584 15.5161 22.0584H14.365V20.9741V19.8898L19.2138 19.8591L24.0626 19.8284L24.5923 19.5489C25.3771 19.135 25.7001 18.8224 26.0937 18.0965L26.4481 17.4429V9.92336V2.40379L26.0937 1.75026C25.7001 1.02433 25.3771 0.711727 24.5923 0.297788L24.0626 0.0182671L13.4315 0.00177589C7.58439 -0.00735132 2.66037 0.0196154 2.48924 0.061725ZM23.65 2.30805C24.3408 2.63591 24.3219 2.42183 24.3219 9.92336C24.3219 15.8666 24.3021 16.7273 24.1584 17.0303C23.8234 17.7359 24.3996 17.7007 13.2241 17.7007C2.04854 17.7007 2.62469 17.7359 2.28979 17.0303C2.14603 16.7273 2.12622 15.8666 2.12622 9.92336C2.12622 3.99161 2.14624 3.11903 2.28916 2.81783C2.62366 2.11286 2.02842 2.14947 13.2084 2.14688C22.1915 2.1448 23.3432 2.16254 23.65 2.30805ZM31.6214 8.9315C31.1948 9.11715 30.9599 9.46938 30.9599 9.92336C30.9599 10.3864 31.1982 10.7333 31.6443 10.9197C32.136 11.1251 35.2859 11.123 35.7793 10.9169C36.144 10.7644 36.4569 10.3058 36.4569 9.92336C36.4569 9.54095 36.144 9.0823 35.7793 8.92984C35.2935 8.72697 32.0885 8.72821 31.6214 8.9315ZM39.1425 9.28072C38.8416 9.54955 38.7906 9.66261 38.7906 10.0595C38.7906 10.652 39.0013 10.8895 39.8794 11.2871C40.6838 11.6514 41.2528 12.1729 41.6169 12.8793C41.839 13.3103 41.8952 13.5948 41.9494 14.5631C42.0027 15.5111 42.0546 15.7817 42.2283 16.0143C42.65 16.5792 43.5432 16.5755 43.9659 16.0074C44.1569 15.7508 44.183 15.5768 44.1768 14.608C44.1653 12.8191 43.6908 11.6037 42.555 10.4537C41.845 9.7349 40.6985 9.10201 39.9543 9.0181C39.551 8.97267 39.4513 9.00493 39.1425 9.28072ZM42.6096 18.9067C42.0401 19.1876 41.954 19.5335 41.954 21.5398C41.954 23.5619 42.0398 23.8984 42.6259 24.1766C43.0545 24.3799 43.1354 24.3799 43.5639 24.1766C44.15 23.8984 44.2358 23.5619 44.2358 21.5398C44.2358 19.5177 44.15 19.1811 43.5639 18.903C43.1386 18.7011 43.0255 18.7016 42.6096 18.9067ZM9.41979 28.8636C8.85027 29.1445 8.76419 29.4904 8.76419 31.4967C8.76419 33.5188 8.84996 33.8554 9.43607 34.1336C9.86464 34.3369 9.94554 34.3369 10.3741 34.1336C10.9602 33.8554 11.046 33.5188 11.046 31.4967C11.046 29.4746 10.9602 29.1381 10.3741 28.8599C9.94875 28.6581 9.8357 28.6586 9.41979 28.8636ZM29.0315 28.841C28.0352 29.0852 27.1117 29.8896 26.7495 30.8287C26.5617 31.3155 26.5519 31.7117 26.5519 38.757V46.1729L26.8402 46.76C27.1568 47.4047 27.7016 47.9539 28.3882 48.3206C28.8321 48.5576 28.8508 48.5585 33.7343 48.5882L38.635 48.6179V49.755V50.892H37.3526C35.9043 50.892 35.6419 50.9968 35.4221 51.6627C35.2677 52.1305 35.4909 52.6832 35.9251 52.9077C36.3943 53.1504 43.1576 53.1504 43.6268 52.9077C44.0609 52.6832 44.2841 52.1305 44.1297 51.6627C43.9099 50.9968 43.6475 50.892 42.1993 50.892H40.9168V49.755V48.6179L45.8175 48.5882C50.7011 48.5585 50.7198 48.5576 51.1637 48.3206C51.8503 47.9539 52.395 47.4047 52.7117 46.76L53 46.1729V38.7052V31.2374L52.7529 30.6909C52.4498 30.0199 51.5911 29.2075 50.9034 28.9407C50.4329 28.7582 49.8654 28.7473 39.9834 28.7298C31.9519 28.7157 29.4384 28.7413 29.0315 28.841ZM50.3431 31.1473C50.8746 31.5196 50.8738 31.5078 50.8738 38.7052C50.8738 44.258 50.8486 45.4619 50.7264 45.7545C50.4269 46.4713 51.0587 46.4322 39.7759 46.4322C28.4932 46.4322 29.125 46.4713 28.8255 45.7545C28.6089 45.236 28.6063 32.1805 28.8227 31.6626C29.13 30.9272 28.3149 30.9781 39.7759 30.9781C49.1542 30.9781 50.1238 30.9937 50.3431 31.1473ZM9.3865 36.7116C8.89197 36.9586 8.74251 37.4421 8.80236 38.6014C8.8929 40.3571 9.36015 41.4755 10.4736 42.6017C11.1747 43.311 12.3082 43.9354 13.0457 44.0184C13.449 44.0639 13.5487 44.0316 13.8575 43.7558C14.1584 43.487 14.2094 43.3739 14.2094 42.977C14.2094 42.3846 13.9987 42.147 13.1206 41.7494C12.3162 41.3851 11.7472 40.8636 11.3831 40.1572C11.1616 39.7275 11.1048 39.4413 11.0513 38.4876C11.0041 37.6454 10.9376 37.2614 10.8035 37.0568C10.5064 36.6033 9.89918 36.4554 9.3865 36.7116ZM17.198 42.1241C16.8524 42.2744 16.5431 42.7417 16.5431 43.1132C16.5431 43.4956 16.856 43.9542 17.2207 44.1067C17.7141 44.3128 20.864 44.315 21.3557 44.1095C21.8018 43.9231 22.0401 43.5762 22.0401 43.1132C22.0401 42.6502 21.8018 42.3032 21.3557 42.1169C20.8716 41.9146 17.6668 41.9202 17.198 42.1241Z" fill="#538DFF"/>
</svg>
