<svg width="55" height="55" viewBox="0 0 55 55" fill="none" xmlns="http://www.w3.org/2000/svg">
<path fill-rule="evenodd" clip-rule="evenodd" d="M15.8434 6.29331C9.5815 9.75498 3.52322 13.1025 2.38079 13.7323C0.882578 14.5582 0.26125 14.9583 0.151787 15.1674C0.022666 15.4143 0 18.3428 0 34.7937C0 49.5565 0.0304004 54.1966 0.128369 54.4117C0.414863 55.0406 -1.50165 54.9995 27.5 54.9995C56.5017 54.9995 54.5851 55.0406 54.8716 54.4117C54.9696 54.1966 55 49.5565 55 34.7937C55 18.4492 54.9768 15.4127 54.8499 15.1674C54.7349 14.9451 53.5094 14.2195 49.5975 12.0576C43.9918 8.95952 43.9413 8.939 43.3593 9.52091C42.9696 9.91064 42.9616 10.5965 43.3425 10.9545C43.489 11.0921 45.6764 12.3475 48.2033 13.7444L52.7979 16.2842L52.825 34.5676L52.8522 52.851H50.4886H48.125V35.873C48.125 17.4116 48.1598 18.4583 47.5372 18.1747C47.322 18.0766 42.5855 18.0463 27.4896 18.0463C5.9907 18.0463 7.28814 18.0091 7.00337 18.6342C6.91421 18.8297 6.875 19.7778 6.875 21.7336C6.875 24.8623 6.88456 24.9091 7.58731 25.2027C7.89852 25.3327 7.99992 25.3327 8.31112 25.2027C8.99271 24.9179 9.02344 24.7959 9.02344 22.373V20.1948H27.5H45.9766V36.5229V52.851H43.7207H41.4648V47.2282V41.6056L41.2149 41.1321C41.0775 40.8717 40.7592 40.5136 40.5077 40.3364L40.0505 40.0141L37.5377 39.9818L35.025 39.9494L34.9954 34.217L34.9658 28.4846L34.6436 28.0271C34.4663 27.7755 34.1083 27.4571 33.8479 27.3197L33.3744 27.0698H27.6066C23.4753 27.0698 21.7351 27.1055 21.4735 27.1957C20.893 27.3959 20.5362 27.7155 20.2483 28.2932L19.9805 28.8307V34.3884V39.9461L17.4747 39.9802L14.969 40.0141L14.5339 40.3023C14.2945 40.4608 13.984 40.775 13.8438 41.0006L13.5889 41.4106L13.5585 47.1308L13.528 52.851H11.2773H9.02666L8.99819 42.5829L8.96973 32.3148L8.6683 32.0555C8.25956 31.704 7.63888 31.704 7.23014 32.0555L6.92871 32.3148L6.90024 42.5829L6.87178 52.851H4.50979H2.14779L2.17497 34.5705L2.20215 16.29L6.55273 13.8843C12.0977 10.818 17.0084 8.10358 22.8025 4.90166C25.3295 3.50528 27.4469 2.36274 27.5078 2.36274C27.5688 2.36274 29.4978 3.40334 31.7946 4.67522C34.0914 5.94698 36.1243 7.04118 36.3121 7.1066C37.0051 7.34819 37.774 6.63921 37.631 5.89069C37.601 5.73364 37.4482 5.48722 37.2916 5.34295C37.135 5.19879 35.7017 4.36294 34.1064 3.48563C32.5112 2.60831 30.4326 1.46523 29.4873 0.945527C28.542 0.425713 27.6472 0.000322295 27.4987 2.93982e-08C27.3425 -0.000322236 22.4361 2.64892 15.8434 6.29331ZM26.3184 6.61697C23.0113 7.50181 21.8966 11.7035 24.3248 14.1317C26.9097 16.7167 31.3133 15.2886 31.9342 11.6641C32.4793 8.48149 29.4673 5.77446 26.3184 6.61697ZM39.8293 7.25141C38.9228 7.75984 39.2882 9.23775 40.3204 9.23775C40.7815 9.23775 41.308 8.82804 41.3886 8.40641C41.4522 8.07426 41.2629 7.53747 41.0077 7.32585C40.7424 7.10585 40.155 7.06879 39.8293 7.25141ZM28.5871 8.89335C30.3851 9.83265 30.2058 12.4387 28.293 13.1692C26.7602 13.7546 25.0454 12.4745 25.1604 10.8305C25.2474 9.58611 26.2857 8.59321 27.5 8.59321C27.8525 8.59321 28.1921 8.68699 28.5871 8.89335ZM7.25334 27.7412C6.6507 28.2647 6.82183 29.1798 7.58162 29.4972C7.90034 29.6304 7.9981 29.6304 8.31682 29.4972C9.41316 29.0391 9.12989 27.4995 7.94922 27.4995C7.67003 27.4995 7.43929 27.5796 7.25334 27.7412ZM24.2773 30.9319C24.2773 32.0318 24.3233 32.7465 24.4057 32.9273C24.6503 33.4641 24.9188 33.5151 27.5 33.5151C30.0812 33.5151 30.3497 33.4641 30.5943 32.9273C30.6767 32.7465 30.7227 32.0318 30.7227 30.9319V29.2182H31.7969H32.8711V34.5893V39.9604H27.5H22.1289V34.5893V29.2182H23.2031H24.2773V30.9319ZM28.5742 30.2924V31.3667H27.5H26.4258V30.2924V29.2182H27.5H28.5742V30.2924ZM17.832 43.892V45.6752L18.1973 46.0405L18.5625 46.4057H20.9956C23.6405 46.4057 23.9035 46.3567 24.149 45.8179C24.2314 45.6371 24.2773 44.9224 24.2773 43.8225V42.1088H25.3516H26.4258V47.4799V52.851H21.0547H15.6836V47.4799V42.1088H16.7578H17.832V43.892ZM22.1289 43.1831V44.2573H21.0547H19.9805V43.1831V42.1088H21.0547H22.1289V43.1831ZM30.7227 43.892V45.6752L31.0879 46.0405L31.4531 46.4057H33.8862C36.5312 46.4057 36.7941 46.3567 37.0396 45.8179C37.122 45.6371 37.168 44.9224 37.168 43.8225V42.1088H38.2422H39.3164V47.4799V52.851H33.9453H28.5742V47.4799V42.1088H29.6484H30.7227V43.892ZM35.0195 43.1831V44.2573H33.9453H32.8711V43.1831V42.1088H33.9453H35.0195V43.1831Z" fill="white"/>
</svg>
