<svg width="38" height="35" viewBox="0 0 38 35" fill="none" xmlns="http://www.w3.org/2000/svg">
<path fill-rule="evenodd" clip-rule="evenodd" d="M7.57056 0.201969C7.44813 0.313016 5.69469 2.69772 3.67398 5.50121L0 10.5984V12.7035C0 13.8989 0.0347988 14.9969 0.0804305 15.2444C0.357485 16.7455 1.6276 18.1308 3.15341 18.5962C3.82498 18.801 4.8866 18.8141 5.52774 18.6255C6.4354 18.3585 7.33223 17.7633 7.85258 17.0826L8.0156 16.8694L8.42183 17.3137C9.25478 18.2248 10.4085 18.7463 11.612 18.7558C12.8983 18.7658 13.8666 18.3718 14.7886 17.4631L15.3683 16.8917L15.5677 17.1305C16.4454 18.182 17.6134 18.7397 18.9576 18.7491C20.3609 18.7588 21.5218 18.2149 22.4304 17.1215L22.6364 16.8736L23.0439 17.3192C23.881 18.235 25.0003 18.7389 26.229 18.7532C27.511 18.7682 28.4818 18.3736 29.4073 17.4613L29.9887 16.8882L30.1454 17.0921C30.6615 17.7632 31.5701 18.3644 32.4616 18.6244C33.0947 18.8091 34.2348 18.7933 34.873 18.591C36.2266 18.162 37.2483 17.1563 37.7911 15.7185C37.9314 15.3467 37.9464 15.1173 37.972 12.9623L38 10.6116L34.3206 5.50774C32.2969 2.70066 30.5411 0.313016 30.4188 0.201969L30.1962 0H18.9947H7.79315L7.57056 0.201969ZM11.2583 1.52395C11.1896 1.76205 7.62561 9.95063 7.55038 10.0434C7.45733 10.158 2.22594 10.179 2.22594 10.0648C2.22594 9.99 8.07859 1.84174 8.3342 1.56067C8.47993 1.40035 8.52637 1.39543 9.88991 1.39543C11.1931 1.39543 11.2927 1.40475 11.2583 1.52395ZM15.953 1.45051C15.9537 1.54018 14.7643 9.78949 14.7247 9.96994L14.6884 10.1352H11.9444C10.0322 10.1352 9.20054 10.1112 9.20054 10.056C9.20054 10.0125 9.99015 8.15347 10.9552 5.92483C11.9202 3.69619 12.7554 1.76543 12.8111 1.63412L12.9124 1.39543H14.4325C15.2685 1.39543 15.9528 1.42018 15.953 1.45051ZM20.5553 1.45051C20.5567 1.48084 20.8364 3.42246 21.177 5.76531C21.5175 8.10815 21.7815 10.0499 21.7636 10.0801C21.7213 10.1521 16.268 10.1521 16.2257 10.0801C16.2078 10.0499 16.4718 8.10815 16.8123 5.76531C17.1529 3.42246 17.4326 1.48084 17.434 1.45051C17.4354 1.42018 18.1377 1.39543 18.9947 1.39543C19.8516 1.39543 20.5539 1.42018 20.5553 1.45051ZM26.9039 5.61842C27.9018 7.92087 28.7378 9.87902 28.7616 9.96994L28.8049 10.1352H26.0529H23.301L23.2641 9.96994C23.2265 9.80132 22.0368 1.53629 22.0368 1.44346C22.0368 1.4154 22.7235 1.40137 23.563 1.41232L25.0893 1.43215L26.9039 5.61842ZM32.6471 5.66939C34.3406 8.01819 35.737 9.98383 35.7502 10.0375C35.7845 10.1766 30.5518 10.1824 30.4389 10.0434C30.3637 9.95063 26.7997 1.76205 26.731 1.52395C26.6966 1.40468 26.7972 1.39557 28.1309 1.39719L29.5679 1.39895L32.6471 5.66939ZM7.25744 13.3851L7.23429 15.2395L7.01682 15.6786C6.13416 17.461 3.77793 17.8702 2.34354 16.4903C2.13905 16.2936 1.89568 15.9488 1.75745 15.66L1.52106 15.1661L1.49783 13.3483L1.47453 11.5306H4.3776H7.28067L7.25744 13.3851ZM14.617 13.1309C14.617 14.9192 14.5462 15.3597 14.164 15.9493C13.3426 17.2162 11.7525 17.6717 10.3991 17.0277C9.94764 16.8128 9.27451 16.1398 9.06446 15.6931C8.8058 15.1432 8.75535 14.7137 8.75535 13.0629V11.5306H11.6862H14.617V13.1309ZM21.8744 13.3851L21.8513 15.2395L21.6413 15.6629C20.5536 17.8564 17.4357 17.8564 16.348 15.6629L16.138 15.2395L16.1149 13.3851L16.0917 11.5306H18.9947H21.8976L21.8744 13.3851ZM29.2222 13.3157L29.1969 15.1007L28.9174 15.66C28.463 16.5699 27.7374 17.113 26.7538 17.2798C25.8861 17.4269 25.0382 17.1716 24.3447 16.5545C23.5199 15.8204 23.3723 15.3008 23.3723 13.1309V11.5306H26.3099H29.2475L29.2222 13.3157ZM36.4915 13.3483L36.4683 15.1661L36.2345 15.6545C35.1829 17.8513 32.0578 17.866 30.9732 15.6792L30.755 15.2395L30.7319 13.3851L30.7086 11.5306H33.6117H36.5148L36.4915 13.3483ZM3.35471 20.3059C2.87739 20.5144 2.89372 20.2742 2.89372 27.0983V33.2699H1.67947C0.568949 33.2699 0.448749 33.2827 0.272455 33.4199C-0.0807273 33.695 -0.0561678 34.309 0.31779 34.5515C0.475757 34.6538 2.38895 34.6657 18.9931 34.6666C35.6705 34.6675 37.5098 34.6563 37.67 34.5525C38.0454 34.3089 38.0708 33.6955 37.7169 33.4199C37.5406 33.2827 37.4204 33.2699 36.3098 33.2699H35.0956V27.0983C35.0956 20.2355 35.115 20.5099 34.6154 20.3032C34.2824 20.1655 34.0328 20.2268 33.7969 20.5044L33.6116 20.7223V26.9961V33.2699H32.1648H30.7179L30.7175 27.8901C30.7173 24.5301 30.6892 22.4111 30.6429 22.246C30.6021 22.1006 30.4986 21.9188 30.413 21.8421C30.2647 21.7092 30.0685 21.7016 26.3358 21.6823L22.4144 21.6621L22.1699 21.8782L21.9255 22.0944L21.9051 27.6821L21.8847 33.2699H13.1312H4.37768V26.9916V20.7134L4.17363 20.4945C3.92173 20.2243 3.67272 20.167 3.35471 20.3059ZM9.00532 21.9178L8.75075 22.1698L8.7716 25.3253C8.79126 28.3062 8.80024 28.4893 8.93342 28.6349C9.01096 28.7196 9.1946 28.8221 9.34151 28.8625C9.63296 28.9426 16.515 28.9686 16.9068 28.891C17.0338 28.8659 17.2215 28.7622 17.3242 28.6606L17.5107 28.476V25.3231C17.5107 23.3012 17.4833 22.1195 17.4343 22.029C17.2403 21.6702 17.1879 21.6658 13.0922 21.6658H9.2599L9.00532 21.9178ZM16.1009 25.3013V27.4678H13.1701H10.2393V25.3013V23.1347H13.1701H16.1009V25.3013ZM29.2159 28.1839L29.1969 33.2332L26.2846 33.2524L23.3723 33.2716V28.2032V23.1347H26.3037H29.235L29.2159 28.1839Z" fill="white"/>
</svg>
