<svg width="32" height="32" viewBox="0 0 32 32" fill="none" xmlns="http://www.w3.org/2000/svg">
<path d="M21.333 5.33337H23.9997C24.7069 5.33337 25.3852 5.61433 25.8853 6.11442C26.3854 6.61452 26.6663 7.2928 26.6663 8.00004V26.6667C26.6663 27.374 26.3854 28.0522 25.8853 28.5523C25.3852 29.0524 24.7069 29.3334 23.9997 29.3334H7.99967C7.29243 29.3334 6.61415 29.0524 6.11406 28.5523C5.61396 28.0522 5.33301 27.374 5.33301 26.6667V8.00004C5.33301 7.2928 5.61396 6.61452 6.11406 6.11442C6.61415 5.61433 7.29243 5.33337 7.99967 5.33337H10.6663" stroke="white" stroke-width="2" stroke-linecap="round" stroke-linejoin="round"/>
<path d="M20.0003 2.66663H12.0003C11.2639 2.66663 10.667 3.26358 10.667 3.99996V6.66663C10.667 7.40301 11.2639 7.99996 12.0003 7.99996H20.0003C20.7367 7.99996 21.3337 7.40301 21.3337 6.66663V3.99996C21.3337 3.26358 20.7367 2.66663 20.0003 2.66663Z" stroke="white" stroke-width="2" stroke-linecap="round" stroke-linejoin="round"/>
</svg>
