<svg width="32" height="32" viewBox="0 0 32 32" fill="none" xmlns="http://www.w3.org/2000/svg">
<path d="M8 2.66663L4 7.99996V26.6666C4 27.3739 4.28095 28.0521 4.78105 28.5522C5.28115 29.0523 5.95942 29.3333 6.66667 29.3333H25.3333C26.0406 29.3333 26.7189 29.0523 27.219 28.5522C27.719 28.0521 28 27.3739 28 26.6666V7.99996L24 2.66663H8Z" stroke="white" stroke-width="2" stroke-linecap="round" stroke-linejoin="round"/>
<path d="M21.3337 13.3334C21.3337 14.7479 20.7718 16.1044 19.7716 17.1046C18.7714 18.1048 17.4148 18.6667 16.0003 18.6667C14.5858 18.6667 13.2293 18.1048 12.2291 17.1046C11.2289 16.1044 10.667 14.7479 10.667 13.3334" stroke="white" stroke-width="2" stroke-linecap="round" stroke-linejoin="round"/>
<path d="M4 8H28" stroke="white" stroke-width="2" stroke-linecap="round" stroke-linejoin="round"/>
</svg>
