<svg width="35" height="39" viewBox="0 0 35 39" fill="none" xmlns="http://www.w3.org/2000/svg">
<path d="M28.25 37.4167C31.2185 37.4167 33.625 35.0103 33.625 32.0417C33.625 29.0732 31.2185 26.6667 28.25 26.6667C25.2815 26.6667 22.875 29.0732 22.875 32.0417C22.875 35.0103 25.2815 37.4167 28.25 37.4167Z" stroke="black" stroke-width="2" stroke-linecap="round" stroke-linejoin="round"/>
<path d="M6.75 24.875C9.71853 24.875 12.125 22.4685 12.125 19.5C12.125 16.5315 9.71853 14.125 6.75 14.125C3.78147 14.125 1.375 16.5315 1.375 19.5C1.375 22.4685 3.78147 24.875 6.75 24.875Z" stroke="black" stroke-width="2" stroke-linecap="round" stroke-linejoin="round"/>
<path d="M11.3906 22.2053L23.6277 29.3362" stroke="black" stroke-width="2" stroke-linecap="round" stroke-linejoin="round"/>
<path d="M28.25 12.3333C31.2185 12.3333 33.625 9.92678 33.625 6.95825C33.625 3.98972 31.2185 1.58325 28.25 1.58325C25.2815 1.58325 22.875 3.98972 22.875 6.95825C22.875 9.92678 25.2815 12.3333 28.25 12.3333Z" stroke="black" stroke-width="2" stroke-linecap="round" stroke-linejoin="round"/>
<path d="M23.6098 9.66382L11.3906 16.7947" stroke="black" stroke-width="2" stroke-linecap="round" stroke-linejoin="round"/>
</svg>
