<svg width="41" height="41" viewBox="0 0 41 41" fill="none" xmlns="http://www.w3.org/2000/svg">
<path d="M24.965 8.95841C26.715 9.29984 28.3233 10.1557 29.584 11.4165C30.8448 12.6772 31.7006 14.2855 32.0421 16.0355M24.965 1.79175C28.6008 2.19565 31.9912 3.82381 34.5795 6.40889C37.1678 8.99396 38.8002 12.3823 39.2087 16.0176M37.4171 30.3151V35.6901C37.4191 36.1891 37.3169 36.683 37.117 37.1402C36.9171 37.5974 36.6239 38.0078 36.2562 38.3451C35.8885 38.6824 35.4544 38.9392 34.9817 39.0991C34.509 39.259 34.0082 39.3183 33.5112 39.2734C27.998 38.6744 22.7021 36.7904 18.0491 33.773C13.7202 31.0222 10.05 27.352 7.29914 23.023C4.27118 18.3489 2.38682 13.0273 1.79872 7.48925C1.75395 6.99379 1.81283 6.49444 1.97162 6.02299C2.13041 5.55154 2.38562 5.11832 2.72101 4.7509C3.0564 4.38349 3.46462 4.08994 3.91968 3.88893C4.37474 3.68793 4.86667 3.58388 5.36414 3.58341H10.7391C11.6086 3.57486 12.4516 3.88276 13.1109 4.44974C13.7702 5.01672 14.2008 5.80409 14.3225 6.66508C14.5493 8.3852 14.9701 10.0741 15.5766 11.6997C15.8177 12.3409 15.8699 13.0379 15.727 13.7079C15.5841 14.3779 15.2521 14.9929 14.7704 15.4801L12.495 17.7555C15.0455 22.241 18.7595 25.955 23.245 28.5055L25.5204 26.2301C26.0075 25.7484 26.6225 25.4164 27.2926 25.2735C27.9626 25.1306 28.6595 25.1828 29.3008 25.4238C30.9263 26.0304 32.6153 26.4511 34.3354 26.678C35.2057 26.8008 36.0006 27.2392 36.5688 27.9098C37.137 28.5804 37.4389 29.4364 37.4171 30.3151Z" stroke="black" stroke-width="2" stroke-linecap="round" stroke-linejoin="round"/>
</svg>
