<svg width="43" height="43" viewBox="0 0 43 43" fill="none" xmlns="http://www.w3.org/2000/svg">
<path d="M21.5 26.875C24.4685 26.875 26.875 24.4685 26.875 21.5C26.875 18.5315 24.4685 16.125 21.5 16.125C18.5315 16.125 16.125 18.5315 16.125 21.5C16.125 24.4685 18.5315 26.875 21.5 26.875Z" stroke="black" stroke-width="2" stroke-linecap="round" stroke-linejoin="round"/>
<path d="M34.7587 26.8751C34.5202 27.4155 34.449 28.0149 34.5544 28.5961C34.6598 29.1773 34.9369 29.7137 35.3499 30.1359L35.4574 30.2434C35.7906 30.5762 36.0549 30.9714 36.2352 31.4064C36.4155 31.8414 36.5084 32.3077 36.5084 32.7786C36.5084 33.2495 36.4155 33.7158 36.2352 34.1508C36.0549 34.5858 35.7906 34.981 35.4574 35.3138C35.1246 35.647 34.7294 35.9113 34.2944 36.0916C33.8594 36.272 33.3931 36.3648 32.9222 36.3648C32.4513 36.3648 31.985 36.272 31.55 36.0916C31.115 35.9113 30.7198 35.647 30.387 35.3138L30.2795 35.2063C29.8572 34.7933 29.3209 34.5162 28.7397 34.4108C28.1585 34.3054 27.5591 34.3766 27.0187 34.6151C26.4887 34.8422 26.0368 35.2193 25.7185 35.7C25.4001 36.1807 25.2293 36.744 25.227 37.3205V37.6251C25.227 38.5754 24.8495 39.4869 24.1775 40.1589C23.5055 40.8309 22.594 41.2084 21.6437 41.2084C20.6933 41.2084 19.7819 40.8309 19.1099 40.1589C18.4379 39.4869 18.0603 38.5754 18.0603 37.6251V37.4638C18.0465 36.8708 17.8545 36.2957 17.5094 35.8132C17.1643 35.3307 16.6821 34.9632 16.1253 34.7584C15.5849 34.5199 14.9855 34.4488 14.4043 34.5542C13.8231 34.6595 13.2867 34.9366 12.8645 35.3497L12.757 35.4572C12.4242 35.7903 12.029 36.0546 11.594 36.235C11.159 36.4153 10.6927 36.5081 10.2218 36.5081C9.75088 36.5081 9.28459 36.4153 8.84958 36.235C8.41457 36.0546 8.01937 35.7903 7.68657 35.4572C7.35341 35.1244 7.08911 34.7292 6.90878 34.2942C6.72845 33.8591 6.63563 33.3929 6.63563 32.922C6.63563 32.451 6.72845 31.9848 6.90878 31.5498C7.08911 31.1147 7.35341 30.7195 7.68657 30.3867L7.79407 30.2792C8.20712 29.857 8.4842 29.3207 8.58958 28.7395C8.69497 28.1583 8.62382 27.5588 8.38532 27.0184C8.15821 26.4885 7.7811 26.0365 7.30041 25.7182C6.81972 25.3999 6.25644 25.229 5.67991 25.2267H5.37533C4.42497 25.2267 3.51353 24.8492 2.84153 24.1772C2.16952 23.5052 1.79199 22.5938 1.79199 21.6434C1.79199 20.6931 2.16952 19.7816 2.84153 19.1096C3.51353 18.4376 4.42497 18.0601 5.37533 18.0601H5.53658C6.12961 18.0462 6.70475 17.8543 7.18724 17.5092C7.66972 17.1641 8.03723 16.6818 8.24199 16.1251C8.48049 15.5847 8.55163 14.9852 8.44625 14.404C8.34087 13.8228 8.06379 13.2865 7.65074 12.8642L7.54324 12.7567C7.21008 12.424 6.94577 12.0288 6.76544 11.5937C6.58512 11.1587 6.4923 10.6924 6.4923 10.2215C6.4923 9.75063 6.58512 9.28435 6.76544 8.84934C6.94577 8.41433 7.21008 8.01913 7.54324 7.68633C7.87604 7.35317 8.27124 7.08886 8.70625 6.90853C9.14126 6.7282 9.60754 6.63539 10.0784 6.63539C10.5494 6.63539 11.0156 6.7282 11.4507 6.90853C11.8857 7.08886 12.2809 7.35317 12.6137 7.68633L12.7212 7.79383C13.1434 8.20688 13.6797 8.48395 14.2609 8.58934C14.8421 8.69472 15.4416 8.62358 15.982 8.38508H16.1253C16.6552 8.15796 17.1072 7.78085 17.4255 7.30016C17.7439 6.81948 17.9147 6.2562 17.917 5.67966V5.37508C17.917 4.42472 18.2945 3.51329 18.9665 2.84128C19.6385 2.16928 20.55 1.79175 21.5003 1.79175C22.4507 1.79175 23.3621 2.16928 24.0341 2.84128C24.7061 3.51329 25.0837 4.42472 25.0837 5.37508V5.53633C25.086 6.11287 25.2568 6.67615 25.5751 7.15683C25.8935 7.63752 26.3454 8.01463 26.8753 8.24175C27.4157 8.48025 28.0152 8.55139 28.5964 8.44601C29.1776 8.34062 29.7139 8.06354 30.1362 7.6505L30.2437 7.543C30.5764 7.20983 30.9717 6.94553 31.4067 6.7652C31.8417 6.58487 32.308 6.49205 32.7789 6.49205C33.2498 6.49205 33.7161 6.58487 34.1511 6.7652C34.5861 6.94553 34.9813 7.20983 35.3141 7.543C35.6472 7.87579 35.9115 8.27099 36.0919 8.706C36.2722 9.14101 36.365 9.6073 36.365 10.0782C36.365 10.5491 36.2722 11.0154 36.0919 11.4504C35.9115 11.8854 35.6472 12.2806 35.3141 12.6134L35.2066 12.7209C34.7935 13.1432 34.5164 13.6795 34.4111 14.2607C34.3057 14.8419 34.3768 15.4414 34.6153 15.9817V16.1251C34.8424 16.655 35.2196 17.1069 35.7002 17.4253C36.1809 17.7436 36.7442 17.9144 37.3207 17.9167H37.6253C38.5757 17.9167 39.4871 18.2943 40.1591 18.9663C40.8311 19.6383 41.2087 20.5497 41.2087 21.5001C41.2087 22.4504 40.8311 23.3619 40.1591 24.0339C39.4871 24.7059 38.5757 25.0834 37.6253 25.0834H37.4641C36.8875 25.0857 36.3243 25.2565 35.8436 25.5749C35.3629 25.8932 34.9858 26.3452 34.7587 26.8751V26.8751Z" stroke="black" stroke-width="2" stroke-linecap="round" stroke-linejoin="round"/>
</svg>
