<svg width="375" height="812" viewBox="0 0 375 812" fill="none" xmlns="http://www.w3.org/2000/svg">
<g filter="url(#filter0_d)">
<path d="M294 86.5149C367 57.5795 414 125.515 414 125.515L423 86.515C423 86.515 346 29.5151 294 44.5149C242 59.5148 171 157.515 87 181.515C3 205.515 -11 170.515 -11 170.515L-16 207.515C-16 207.515 50.1873 218.378 92 212.515C184.074 199.605 221 115.45 294 86.5149Z" fill="#FFB129"/>
<path d="M113 513.737C40 542.672 -7.00002 474.737 -7.00002 474.737L-16 513.737C-16 513.737 61 570.736 113 555.737C165 540.737 236 442.736 320 418.737C404 394.737 418 429.737 418 429.737L423 392.737C423 392.737 356.813 381.874 315 387.737C222.926 400.647 186 484.801 113 513.737Z" fill="#3A4187"/>
<path d="M321.611 633.6C321.611 633.6 335.323 640.665 336.65 651.321C337.977 661.978 325.09 661.534 326.417 672.19C327.744 682.847 340.129 679.255 341.456 689.912C342.783 700.569 329.896 700.125 331.223 710.781C332.55 721.438 344.935 717.846 346.262 728.503C347.59 739.159 334.702 738.715 336.029 749.372C337.357 760.028 349.741 756.437 351.069 767.093C352.396 777.75 339.508 777.306 340.836 787.963C342.163 798.619 355.875 805.684 355.875 805.684" stroke="#1F2860"/>
<path d="M315.293 634.386C315.293 634.386 329.005 641.451 330.332 652.108C331.659 662.765 318.772 662.321 320.099 672.977C321.426 683.634 333.811 680.042 335.138 690.699C336.465 701.355 323.578 700.911 324.905 711.568C326.232 722.224 338.617 718.633 339.944 729.289C341.272 739.946 328.384 739.502 329.712 750.159C331.039 760.815 343.423 757.224 344.751 767.88C346.078 778.537 333.191 778.093 334.518 788.749C335.845 799.406 349.557 806.471 349.557 806.471" stroke="#1F2860"/>
<path d="M308.975 635.173C308.975 635.173 322.687 642.238 324.014 652.895C325.341 663.551 312.454 663.107 313.781 673.764C315.108 684.42 327.493 680.829 328.82 691.485C330.148 702.142 317.26 701.698 318.588 712.355C319.915 723.011 332.299 719.42 333.627 730.076C334.954 740.733 322.067 740.289 323.394 750.945C324.721 761.602 337.106 758.01 338.433 768.667C339.76 779.323 326.873 778.879 328.2 789.536C329.527 800.193 343.239 807.258 343.239 807.258" stroke="#1F2860"/>
<path d="M303.806 635.817C303.806 635.817 317.518 642.882 318.845 653.539C320.172 664.196 307.285 663.752 308.612 674.408C309.939 685.065 322.324 681.473 323.651 692.13C324.978 702.786 312.091 702.342 313.418 712.999C314.745 723.655 327.13 720.064 328.457 730.72C329.784 741.377 316.897 740.933 318.224 751.59C319.552 762.246 331.936 758.655 333.264 769.311C334.591 779.968 321.703 779.524 323.031 790.18C324.358 800.837 338.07 807.902 338.07 807.902" stroke="#1F2860"/>
<path d="M203 462C217.051 462 230.965 459.232 243.947 453.855C256.929 448.478 268.725 440.596 278.66 430.66C288.596 420.725 296.478 408.929 301.855 395.947C307.232 382.965 310 369.051 310 355C310 340.949 307.232 327.035 301.855 314.053C296.478 301.071 288.596 289.275 278.66 279.34C268.725 269.404 256.929 261.522 243.947 256.145C230.965 250.768 217.051 248 203 248L203 355L203 462Z" fill="#FFCC72"/>
<path d="M203 248C188.949 248 175.035 250.768 162.053 256.145C149.071 261.522 137.275 269.404 127.34 279.34C117.404 289.275 109.522 301.071 104.145 314.053C98.7677 327.035 96 340.949 96 355C96 369.051 98.7676 382.965 104.145 395.947C109.522 408.929 117.404 420.725 127.34 430.66C137.275 440.596 149.071 448.478 162.053 453.855C175.035 459.232 188.949 462 203 462L203 355L203 248Z" fill="#01CC88"/>
<rect x="236" y="-23" width="171" height="162" rx="81" fill="#FFCC72"/>
<path d="M323.444 64.8102C317.11 61.9945 317.11 53.0055 323.444 50.1898L370.75 29.1592C376.041 26.8073 382 30.6798 382 36.4694L382 78.5306C382 84.3202 376.041 88.1927 370.75 85.8408L323.444 64.8102Z" fill="#01CC88"/>
<path d="M130 357.5L202.75 285.187L202.75 429.813L130 357.5Z" fill="#FF8A00"/>
<path d="M274 357.5L202 429.813L202 285.187L274 357.5Z" fill="#FB4953"/>
<path d="M78 -27L-96 -20L-96 319C-96 319 14 366 78 274C142 182 69 117 50 74C31 31 78 -27 78 -27Z" fill="#FF2E63"/>
<rect x="-80" y="120" width="152" height="144" rx="72" fill="#01CC88"/>
<rect x="-46" y="152" width="84" height="80" rx="40" fill="#FFB129"/>
<path d="M221.143 348.143H219.428V346.429C219.428 337.908 212.521 331 204 331C195.479 331 188.571 337.908 188.571 346.429V348.143H186.857C185.91 348.143 185.143 348.91 185.143 349.857V377.286C185.143 378.232 185.91 379 186.857 379H221.143C222.09 379 222.857 378.232 222.857 377.286V349.857C222.857 348.91 222.09 348.143 221.143 348.143ZM208.849 363.55C208.331 365.015 207.179 366.167 205.714 366.685V370.429C205.714 371.375 204.947 372.143 204 372.143C203.053 372.143 202.286 371.375 202.286 370.429V366.685C199.608 365.738 198.204 362.799 199.151 360.122C200.098 357.444 203.036 356.04 205.714 356.987C208.392 357.934 209.795 360.872 208.849 363.55ZM216 348.143H192V346.429C192 339.801 197.373 334.429 204 334.429C210.627 334.429 216 339.801 216 346.429V348.143Z" fill="#FFC2C2"/>
</g>
<defs>
<filter id="filter0_d" x="-100" y="-27" width="527" height="843.346" filterUnits="userSpaceOnUse" color-interpolation-filters="sRGB">
<feFlood flood-opacity="0" result="BackgroundImageFix"/>
<feColorMatrix in="SourceAlpha" type="matrix" values="0 0 0 0 0 0 0 0 0 0 0 0 0 0 0 0 0 0 127 0" result="hardAlpha"/>
<feOffset dy="4"/>
<feGaussianBlur stdDeviation="2"/>
<feComposite in2="hardAlpha" operator="out"/>
<feColorMatrix type="matrix" values="0 0 0 0 0 0 0 0 0 0 0 0 0 0 0 0 0 0 0.25 0"/>
<feBlend mode="normal" in2="BackgroundImageFix" result="effect1_dropShadow"/>
<feBlend mode="normal" in="SourceGraphic" in2="effect1_dropShadow" result="shape"/>
</filter>
</defs>
</svg>
