<svg width="375" height="812" viewBox="0 0 375 812" fill="none" xmlns="http://www.w3.org/2000/svg">
<rect x="28" width="220" height="213" fill="#010A43"/>
<path d="M248 246L37.0456 0H0V246H248Z" fill="#FFC2C2"/>
<rect x="248" width="127" height="413" fill="#FFB129"/>
<path d="M248.517 227H51V335L192.966 589L306.126 819H392.54L409 471L248.517 227Z" fill="#0E164D"/>
<path d="M204 413H375V553H324C257.726 553 204 499.274 204 433V413Z" fill="#FFCC72"/>
<circle cx="307" cy="474" r="45" fill="#FFEAC5"/>
<circle cx="307" cy="474" r="26" fill="#01CC88"/>
<path d="M79 372L205 603L-7 597L-19 395L79 372Z" fill="#FF2E63"/>
<path d="M-1 443C32.9477 443 65.505 429.304 89.5097 404.924C113.514 380.544 127 347.478 127 313C127 278.522 113.514 245.456 89.5097 221.076C65.505 196.696 32.9477 183 -0.999969 183L-0.999998 313L-1 443Z" fill="#01CC88"/>
<rect y="254" width="55" height="118" fill="#FFB129"/>
<rect x="191.757" y="225.756" width="80" height="80" transform="rotate(-45 191.757 225.756)" fill="#FF2E63"/>
<circle cx="248" cy="226" r="20" fill="white"/>
<path d="M351 2C351 2 373 19.9584 373 42.1111C373 64.2639 351 60.0695 351 82.2222C351 104.375 373 100.181 373 122.333C373 144.486 351 140.292 351 162.444C351 184.597 373 180.403 373 202.556C373 224.708 351 220.514 351 242.667C351 264.819 373 260.625 373 282.778C373 304.931 351 300.736 351 322.889C351 345.042 373 363 373 363" stroke="#FFC35B"/>
<path d="M340 2C340 2 362 19.9584 362 42.1111C362 64.2639 340 60.0695 340 82.2222C340 104.375 362 100.181 362 122.333C362 144.486 340 140.292 340 162.444C340 184.597 362 180.403 362 202.556C362 224.708 340 220.514 340 242.667C340 264.819 362 260.625 362 282.778C362 304.931 340 300.736 340 322.889C340 345.042 362 363 362 363" stroke="#FFC35B"/>
<path d="M329 2C329 2 351 19.9584 351 42.1111C351 64.2639 329 60.0695 329 82.2222C329 104.375 351 100.181 351 122.333C351 144.486 329 140.292 329 162.444C329 184.597 351 180.403 351 202.556C351 224.708 329 220.514 329 242.667C329 264.819 351 260.625 351 282.778C351 304.931 329 300.736 329 322.889C329 345.042 351 363 351 363" stroke="#FFC35B"/>
<path d="M320 2C320 2 342 19.9584 342 42.1111C342 64.2639 320 60.0695 320 82.2222C320 104.375 342 100.181 342 122.333C342 144.486 320 140.292 320 162.444C320 184.597 342 180.403 342 202.556C342 224.708 320 220.514 320 242.667C320 264.819 342 260.625 342 282.778C342 304.931 320 300.736 320 322.889C320 345.042 342 363 342 363" stroke="#FFC35B"/>
<path d="M180 575.917C180 575.917 171.294 586.582 160.556 586.582C149.817 586.582 151.85 575.917 141.111 575.917C130.372 575.917 132.406 586.582 121.667 586.582C110.928 586.582 112.961 575.917 102.222 575.917C91.4833 575.917 93.5166 586.582 82.7778 586.582C72.0389 586.582 74.0722 575.917 63.3333 575.917C52.5944 575.917 54.6277 586.582 43.8889 586.582C33.15 586.582 35.1833 575.917 24.4444 575.917C13.7056 575.917 4.99998 586.582 4.99998 586.582" stroke="#FF5983"/>
<path d="M180 570.584C180 570.584 171.294 581.249 160.556 581.249C149.817 581.249 151.85 570.584 141.111 570.584C130.372 570.584 132.406 581.249 121.667 581.249C110.928 581.249 112.961 570.584 102.222 570.584C91.4833 570.584 93.5166 581.249 82.7778 581.249C72.0389 581.249 74.0722 570.584 63.3333 570.584C52.5944 570.584 54.6277 581.249 43.8889 581.249C33.15 581.249 35.1833 570.584 24.4444 570.584C13.7056 570.584 4.99998 581.249 4.99998 581.249" stroke="#FF5983"/>
<path d="M180 565.252C180 565.252 171.294 575.917 160.556 575.917C149.817 575.917 151.85 565.252 141.111 565.252C130.372 565.252 132.406 575.917 121.667 575.917C110.928 575.917 112.961 565.252 102.222 565.252C91.4833 565.252 93.5166 575.917 82.7778 575.917C72.0389 575.917 74.0722 565.252 63.3333 565.252C52.5944 565.252 54.6277 575.917 43.8889 575.917C33.15 575.917 35.1833 565.252 24.4444 565.252C13.7056 565.252 4.99998 575.917 4.99998 575.917" stroke="#FF5983"/>
<path d="M180 560.889C180 560.889 171.294 571.554 160.556 571.554C149.817 571.554 151.85 560.889 141.111 560.889C130.372 560.889 132.406 571.554 121.667 571.554C110.928 571.554 112.961 560.889 102.222 560.889C91.4833 560.889 93.5166 571.554 82.7778 571.554C72.0389 571.554 74.0722 560.889 63.3333 560.889C52.5944 560.889 54.6277 571.554 43.8889 571.554C33.15 571.554 35.1833 560.889 24.4444 560.889C13.7056 560.889 4.99998 571.554 4.99998 571.554" stroke="#FF5983"/>
<path d="M48.8778 35.5614C48.8778 35.5614 64.2311 34.075 71.118 42.3148C78.0048 50.5547 66.9304 57.1606 73.8172 65.4005C80.7041 73.6403 89.1706 63.9141 96.0574 72.1539C102.944 80.3937 91.8698 86.9997 98.7567 95.2396C105.643 103.479 114.11 93.7532 120.997 101.993C127.884 110.233 116.809 116.839 123.696 125.079C130.583 133.318 139.049 123.592 145.936 131.832C152.823 140.072 141.749 146.678 148.636 154.918C155.522 163.158 170.876 161.671 170.876 161.671" stroke="#FFB3B3"/>
<path d="M43.9927 39.6442C43.9927 39.6442 59.346 38.1578 66.2328 46.3977C73.1197 54.6375 62.0453 61.2435 68.9321 69.4833C75.8189 77.7231 84.2854 67.9969 91.1723 76.2367C98.0591 84.4766 86.9847 91.0826 93.8715 99.3224C100.758 107.562 109.225 97.836 116.112 106.076C122.999 114.316 111.924 120.922 118.811 129.161C125.698 137.401 134.164 127.675 141.051 135.915C147.938 144.155 136.864 150.761 143.75 159.001C150.637 167.24 165.991 165.754 165.991 165.754" stroke="#FFB3B3"/>
<path d="M39.1075 43.7271C39.1075 43.7271 54.4609 42.2407 61.3477 50.4805C68.2345 58.7203 57.1601 65.3263 64.047 73.5661C70.9338 81.806 79.4003 72.0797 86.2871 80.3196C93.174 88.5594 82.0996 95.1654 88.9864 103.405C95.8732 111.645 104.34 101.919 111.227 110.159C118.113 118.398 107.039 125.004 113.926 133.244C120.813 141.484 129.279 131.758 136.166 139.998C143.053 148.238 131.978 154.844 138.865 163.083C145.752 171.323 161.105 169.837 161.105 169.837" stroke="#FFB3B3"/>
<path d="M35.1107 47.0683C35.1107 47.0683 50.464 45.5819 57.3509 53.8217C64.2377 62.0615 53.1633 68.6675 60.0501 76.9074C66.937 85.1472 75.4035 75.4209 82.2903 83.6608C89.1771 91.9006 78.1027 98.5066 84.9896 106.746C91.8764 114.986 100.343 105.26 107.23 113.5C114.117 121.74 103.042 128.346 109.929 136.586C116.816 144.825 125.282 135.099 132.169 143.339C139.056 151.579 127.982 158.185 134.868 166.425C141.755 174.664 157.109 173.178 157.109 173.178" stroke="#FFB3B3"/>
<path d="M321.611 643.6C321.611 643.6 335.323 650.665 336.65 661.321C337.977 671.978 325.09 671.534 326.417 682.19C327.744 692.847 340.129 689.255 341.456 699.912C342.783 710.569 329.896 710.125 331.223 720.781C332.55 731.438 344.935 727.846 346.262 738.503C347.59 749.159 334.702 748.715 336.029 759.372C337.357 770.028 349.741 766.437 351.069 777.093C352.396 787.75 339.508 787.306 340.836 797.963C342.163 808.619 355.875 815.684 355.875 815.684" stroke="#1F2860"/>
<path d="M315.293 644.386C315.293 644.386 329.005 651.451 330.332 662.108C331.659 672.765 318.772 672.321 320.099 682.977C321.426 693.634 333.811 690.042 335.138 700.699C336.465 711.355 323.578 710.911 324.905 721.568C326.232 732.224 338.617 728.633 339.944 739.289C341.272 749.946 328.384 749.502 329.712 760.159C331.039 770.815 343.423 767.224 344.751 777.88C346.078 788.537 333.191 788.093 334.518 798.749C335.845 809.406 349.557 816.471 349.557 816.471" stroke="#1F2860"/>
<path d="M308.975 645.173C308.975 645.173 322.687 652.238 324.014 662.895C325.341 673.551 312.454 673.107 313.781 683.764C315.108 694.42 327.493 690.829 328.82 701.485C330.148 712.142 317.26 711.698 318.588 722.355C319.915 733.011 332.299 729.42 333.627 740.076C334.954 750.733 322.067 750.289 323.394 760.945C324.721 771.602 337.106 768.01 338.433 778.667C339.76 789.323 326.873 788.879 328.2 799.536C329.527 810.193 343.239 817.258 343.239 817.258" stroke="#1F2860"/>
<path d="M303.806 645.817C303.806 645.817 317.518 652.882 318.845 663.539C320.172 674.196 307.285 673.752 308.612 684.408C309.939 695.065 322.324 691.473 323.651 702.13C324.978 712.786 312.091 712.342 313.418 722.999C314.745 733.655 327.13 730.064 328.457 740.72C329.784 751.377 316.897 750.933 318.224 761.59C319.552 772.246 331.936 768.655 333.264 779.311C334.591 789.968 321.703 789.524 323.031 800.18C324.358 810.837 338.07 817.902 338.07 817.902" stroke="#1F2860"/>
</svg>
